<svg xmlns="http://www.w3.org/2000/svg" width="1220" height="414" viewBox="0 0 1220 414">
<rect width="1220" height="414" fill="#f5f5f5"/>
<style>
  text { font-family: "SF Mono", "Menlo", "Monaco", monospace; }
  .title { font-size: 16px; font-weight: bold; }
  .subtitle { font-size: 11px; fill: #888; }
  .label { font-size: 11px; fill: #333; }
  .stats { font-size: 10px; fill: #666; }
  .warn { font-size: 9px; fill: #c9493b; }
  .total { font-size: 12px; font-weight: bold; fill: #333; }
  .legend-text { font-size: 10px; fill: #555; }
</style>
<text x="20" y="38" class="title">Alignment Quality Map — Marcus Aurelius — Ad Se Ipsum</text>
<rect x="20" y="50" width="12" height="12" fill="#2d8a4e" rx="2"/>
<text x="36" y="60" class="legend-text">High (≥0.6)</text>
<rect x="160" y="50" width="12" height="12" fill="#e8b83d" rx="2"/>
<text x="176" y="60" class="legend-text">Medium (0.3–0.6)</text>
<rect x="300" y="50" width="12" height="12" fill="#c9493b" rx="2"/>
<text x="316" y="60" class="legend-text">Low (&lt;0.3)</text>
<text x="20" y="92" class="label">Book 1</text>
<text x="988" y="92" class="stats">n=42  avg=0.565  H=45%  M=52%  L=2%</text>
<rect x="180" y="80" width="4" height="15" fill="#e8b83d"/>
<rect x="184" y="80" width="4" height="15" fill="#2d8a4e"/>
<rect x="188" y="80" width="4" height="15" fill="#2d8a4e"/>
<rect x="192" y="80" width="4" height="15" fill="#2d8a4e"/>
<rect x="196" y="80" width="4" height="15" fill="#e8b83d"/>
<rect x="200" y="80" width="4" height="15" fill="#2d8a4e"/>
<rect x="204" y="80" width="4" height="15" fill="#e8b83d"/>
<rect x="208" y="80" width="4" height="15" fill="#2d8a4e"/>
<rect x="212" y="80" width="4" height="15" fill="#e8b83d"/>
<rect x="216" y="80" width="4" height="15" fill="#2d8a4e"/>
<rect x="220" y="80" width="4" height="15" fill="#2d8a4e"/>
<rect x="224" y="80" width="4" height="15" fill="#2d8a4e"/>
<rect x="228" y="80" width="4" height="15" fill="#e8b83d"/>
<rect x="232" y="80" width="4" height="15" fill="#e8b83d"/>
<rect x="236" y="80" width="4" height="15" fill="#2d8a4e"/>
<rect x="240" y="80" width="4" height="15" fill="#2d8a4e"/>
<rect x="244" y="80" width="4" height="15" fill="#2d8a4e"/>
<rect x="248" y="80" width="4" height="15" fill="#2d8a4e"/>
<rect x="252" y="80" width="4" height="15" fill="#2d8a4e"/>
<rect x="256" y="80" width="4" height="15" fill="#2d8a4e"/>
<rect x="260" y="80" width="4" height="15" fill="#2d8a4e"/>
<rect x="264" y="80" width="4" height="15" fill="#e8b83d"/>
<rect x="268" y="80" width="4" height="15" fill="#e8b83d"/>
<rect x="272" y="80" width="4" height="15" fill="#e8b83d"/>
<rect x="276" y="80" width="4" height="15" fill="#2d8a4e"/>
<rect x="280" y="80" width="4" height="15" fill="#e8b83d"/>
<rect x="284" y="80" width="4" height="15" fill="#e8b83d"/>
<rect x="288" y="80" width="4" height="15" fill="#c9493b"/>
<rect x="292" y="80" width="4" height="15" fill="#e8b83d"/>
<rect x="296" y="80" width="4" height="15" fill="#e8b83d"/>
<rect x="300" y="80" width="4" height="15" fill="#e8b83d"/>
<rect x="304" y="80" width="4" height="15" fill="#e8b83d"/>
<rect x="308" y="80" width="4" height="15" fill="#2d8a4e"/>
<rect x="312" y="80" width="4" height="15" fill="#e8b83d"/>
<rect x="316" y="80" width="4" height="15" fill="#e8b83d"/>
<rect x="320" y="80" width="4" height="15" fill="#e8b83d"/>
<rect x="324" y="80" width="4" height="15" fill="#e8b83d"/>
<rect x="328" y="80" width="4" height="15" fill="#e8b83d"/>
<rect x="332" y="80" width="4" height="15" fill="#2d8a4e"/>
<rect x="336" y="80" width="4" height="15" fill="#e8b83d"/>
<rect x="340" y="80" width="4" height="15" fill="#2d8a4e"/>
<rect x="344" y="80" width="4" height="15" fill="#e8b83d"/>
<text x="20" y="114" class="label">Book 2</text>
<text x="988" y="114" class="stats">n=22  avg=0.691  H=77%  M=23%  L=0%</text>
<rect x="180" y="102" width="4" height="15" fill="#2d8a4e"/>
<rect x="184" y="102" width="4" height="15" fill="#2d8a4e"/>
<rect x="188" y="102" width="4" height="15" fill="#2d8a4e"/>
<rect x="192" y="102" width="4" height="15" fill="#e8b83d"/>
<rect x="196" y="102" width="4" height="15" fill="#e8b83d"/>
<rect x="200" y="102" width="4" height="15" fill="#2d8a4e"/>
<rect x="204" y="102" width="4" height="15" fill="#2d8a4e"/>
<rect x="208" y="102" width="4" height="15" fill="#2d8a4e"/>
<rect x="212" y="102" width="4" height="15" fill="#e8b83d"/>
<rect x="216" y="102" width="4" height="15" fill="#2d8a4e"/>
<rect x="220" y="102" width="4" height="15" fill="#2d8a4e"/>
<rect x="224" y="102" width="4" height="15" fill="#e8b83d"/>
<rect x="228" y="102" width="4" height="15" fill="#2d8a4e"/>
<rect x="232" y="102" width="4" height="15" fill="#2d8a4e"/>
<rect x="236" y="102" width="4" height="15" fill="#2d8a4e"/>
<rect x="240" y="102" width="4" height="15" fill="#2d8a4e"/>
<rect x="244" y="102" width="4" height="15" fill="#2d8a4e"/>
<rect x="248" y="102" width="4" height="15" fill="#2d8a4e"/>
<rect x="252" y="102" width="4" height="15" fill="#2d8a4e"/>
<rect x="256" y="102" width="4" height="15" fill="#2d8a4e"/>
<rect x="260" y="102" width="4" height="15" fill="#2d8a4e"/>
<rect x="264" y="102" width="4" height="15" fill="#e8b83d"/>
<text x="20" y="136" class="label">Book 3</text>
<text x="988" y="136" class="stats">n=26  avg=0.674  H=69%  M=31%  L=0%</text>
<rect x="180" y="124" width="4" height="15" fill="#2d8a4e"/>
<rect x="184" y="124" width="4" height="15" fill="#2d8a4e"/>
<rect x="188" y="124" width="4" height="15" fill="#2d8a4e"/>
<rect x="192" y="124" width="4" height="15" fill="#2d8a4e"/>
<rect x="196" y="124" width="4" height="15" fill="#2d8a4e"/>
<rect x="200" y="124" width="4" height="15" fill="#e8b83d"/>
<rect x="204" y="124" width="4" height="15" fill="#2d8a4e"/>
<rect x="208" y="124" width="4" height="15" fill="#2d8a4e"/>
<rect x="212" y="124" width="4" height="15" fill="#e8b83d"/>
<rect x="216" y="124" width="4" height="15" fill="#e8b83d"/>
<rect x="220" y="124" width="4" height="15" fill="#2d8a4e"/>
<rect x="224" y="124" width="4" height="15" fill="#2d8a4e"/>
<rect x="228" y="124" width="4" height="15" fill="#e8b83d"/>
<rect x="232" y="124" width="4" height="15" fill="#2d8a4e"/>
<rect x="236" y="124" width="4" height="15" fill="#2d8a4e"/>
<rect x="240" y="124" width="4" height="15" fill="#2d8a4e"/>
<rect x="244" y="124" width="4" height="15" fill="#e8b83d"/>
<rect x="248" y="124" width="4" height="15" fill="#e8b83d"/>
<rect x="252" y="124" width="4" height="15" fill="#2d8a4e"/>
<rect x="256" y="124" width="4" height="15" fill="#2d8a4e"/>
<rect x="260" y="124" width="4" height="15" fill="#e8b83d"/>
<rect x="264" y="124" width="4" height="15" fill="#2d8a4e"/>
<rect x="268" y="124" width="4" height="15" fill="#e8b83d"/>
<rect x="272" y="124" width="4" height="15" fill="#2d8a4e"/>
<rect x="276" y="124" width="4" height="15" fill="#2d8a4e"/>
<rect x="280" y="124" width="4" height="15" fill="#2d8a4e"/>
<text x="20" y="158" class="label">Book 4</text>
<text x="988" y="158" class="stats">n=58  avg=0.638  H=66%  M=31%  L=3%</text>
<rect x="180" y="146" width="4" height="15" fill="#2d8a4e"/>
<rect x="184" y="146" width="4" height="15" fill="#2d8a4e"/>
<rect x="188" y="146" width="4" height="15" fill="#e8b83d"/>
<rect x="192" y="146" width="4" height="15" fill="#2d8a4e"/>
<rect x="196" y="146" width="4" height="15" fill="#e8b83d"/>
<rect x="200" y="146" width="4" height="15" fill="#e8b83d"/>
<rect x="204" y="146" width="4" height="15" fill="#2d8a4e"/>
<rect x="208" y="146" width="4" height="15" fill="#2d8a4e"/>
<rect x="212" y="146" width="4" height="15" fill="#e8b83d"/>
<rect x="216" y="146" width="4" height="15" fill="#2d8a4e"/>
<rect x="220" y="146" width="4" height="15" fill="#2d8a4e"/>
<rect x="224" y="146" width="4" height="15" fill="#2d8a4e"/>
<rect x="228" y="146" width="4" height="15" fill="#2d8a4e"/>
<rect x="232" y="146" width="4" height="15" fill="#2d8a4e"/>
<rect x="236" y="146" width="4" height="15" fill="#e8b83d"/>
<rect x="240" y="146" width="4" height="15" fill="#2d8a4e"/>
<rect x="244" y="146" width="4" height="15" fill="#e8b83d"/>
<rect x="248" y="146" width="4" height="15" fill="#2d8a4e"/>
<rect x="252" y="146" width="4" height="15" fill="#2d8a4e"/>
<rect x="256" y="146" width="4" height="15" fill="#2d8a4e"/>
<rect x="260" y="146" width="4" height="15" fill="#2d8a4e"/>
<rect x="264" y="146" width="4" height="15" fill="#2d8a4e"/>
<rect x="268" y="146" width="4" height="15" fill="#2d8a4e"/>
<rect x="272" y="146" width="4" height="15" fill="#2d8a4e"/>
<rect x="276" y="146" width="4" height="15" fill="#c9493b"/>
<rect x="280" y="146" width="4" height="15" fill="#2d8a4e"/>
<rect x="284" y="146" width="4" height="15" fill="#e8b83d"/>
<rect x="288" y="146" width="4" height="15" fill="#2d8a4e"/>
<rect x="292" y="146" width="4" height="15" fill="#e8b83d"/>
<rect x="296" y="146" width="4" height="15" fill="#2d8a4e"/>
<rect x="300" y="146" width="4" height="15" fill="#2d8a4e"/>
<rect x="304" y="146" width="4" height="15" fill="#e8b83d"/>
<rect x="308" y="146" width="4" height="15" fill="#2d8a4e"/>
<rect x="312" y="146" width="4" height="15" fill="#2d8a4e"/>
<rect x="316" y="146" width="4" height="15" fill="#2d8a4e"/>
<rect x="320" y="146" width="4" height="15" fill="#e8b83d"/>
<rect x="324" y="146" width="4" height="15" fill="#c9493b"/>
<rect x="328" y="146" width="4" height="15" fill="#2d8a4e"/>
<rect x="332" y="146" width="4" height="15" fill="#2d8a4e"/>
<rect x="336" y="146" width="4" height="15" fill="#2d8a4e"/>
<rect x="340" y="146" width="4" height="15" fill="#e8b83d"/>
<rect x="344" y="146" width="4" height="15" fill="#2d8a4e"/>
<rect x="348" y="146" width="4" height="15" fill="#e8b83d"/>
<rect x="352" y="146" width="4" height="15" fill="#2d8a4e"/>
<rect x="356" y="146" width="4" height="15" fill="#2d8a4e"/>
<rect x="360" y="146" width="4" height="15" fill="#e8b83d"/>
<rect x="364" y="146" width="4" height="15" fill="#2d8a4e"/>
<rect x="368" y="146" width="4" height="15" fill="#e8b83d"/>
<rect x="372" y="146" width="4" height="15" fill="#2d8a4e"/>
<rect x="376" y="146" width="4" height="15" fill="#e8b83d"/>
<rect x="380" y="146" width="4" height="15" fill="#2d8a4e"/>
<rect x="384" y="146" width="4" height="15" fill="#2d8a4e"/>
<rect x="388" y="146" width="4" height="15" fill="#2d8a4e"/>
<rect x="392" y="146" width="4" height="15" fill="#e8b83d"/>
<rect x="396" y="146" width="4" height="15" fill="#e8b83d"/>
<rect x="400" y="146" width="4" height="15" fill="#2d8a4e"/>
<rect x="404" y="146" width="4" height="15" fill="#2d8a4e"/>
<rect x="408" y="146" width="4" height="15" fill="#e8b83d"/>
<text x="20" y="180" class="label">Book 5</text>
<text x="988" y="180" class="stats">n=44  avg=0.643  H=68%  M=30%  L=2%</text>
<rect x="180" y="168" width="4" height="15" fill="#e8b83d"/>
<rect x="184" y="168" width="4" height="15" fill="#2d8a4e"/>
<rect x="188" y="168" width="4" height="15" fill="#e8b83d"/>
<rect x="192" y="168" width="4" height="15" fill="#e8b83d"/>
<rect x="196" y="168" width="4" height="15" fill="#2d8a4e"/>
<rect x="200" y="168" width="4" height="15" fill="#e8b83d"/>
<rect x="204" y="168" width="4" height="15" fill="#2d8a4e"/>
<rect x="208" y="168" width="4" height="15" fill="#2d8a4e"/>
<rect x="212" y="168" width="4" height="15" fill="#e8b83d"/>
<rect x="216" y="168" width="4" height="15" fill="#2d8a4e"/>
<rect x="220" y="168" width="4" height="15" fill="#2d8a4e"/>
<rect x="224" y="168" width="4" height="15" fill="#e8b83d"/>
<rect x="228" y="168" width="4" height="15" fill="#e8b83d"/>
<rect x="232" y="168" width="4" height="15" fill="#e8b83d"/>
<rect x="236" y="168" width="4" height="15" fill="#e8b83d"/>
<rect x="240" y="168" width="4" height="15" fill="#2d8a4e"/>
<rect x="244" y="168" width="4" height="15" fill="#c9493b"/>
<rect x="248" y="168" width="4" height="15" fill="#2d8a4e"/>
<rect x="252" y="168" width="4" height="15" fill="#2d8a4e"/>
<rect x="256" y="168" width="4" height="15" fill="#2d8a4e"/>
<rect x="260" y="168" width="4" height="15" fill="#2d8a4e"/>
<rect x="264" y="168" width="4" height="15" fill="#2d8a4e"/>
<rect x="268" y="168" width="4" height="15" fill="#2d8a4e"/>
<rect x="272" y="168" width="4" height="15" fill="#2d8a4e"/>
<rect x="276" y="168" width="4" height="15" fill="#2d8a4e"/>
<rect x="280" y="168" width="4" height="15" fill="#2d8a4e"/>
<rect x="284" y="168" width="4" height="15" fill="#2d8a4e"/>
<rect x="288" y="168" width="4" height="15" fill="#e8b83d"/>
<rect x="292" y="168" width="4" height="15" fill="#2d8a4e"/>
<rect x="296" y="168" width="4" height="15" fill="#2d8a4e"/>
<rect x="300" y="168" width="4" height="15" fill="#e8b83d"/>
<rect x="304" y="168" width="4" height="15" fill="#e8b83d"/>
<rect x="308" y="168" width="4" height="15" fill="#2d8a4e"/>
<rect x="312" y="168" width="4" height="15" fill="#2d8a4e"/>
<rect x="316" y="168" width="4" height="15" fill="#2d8a4e"/>
<rect x="320" y="168" width="4" height="15" fill="#2d8a4e"/>
<rect x="324" y="168" width="4" height="15" fill="#2d8a4e"/>
<rect x="328" y="168" width="4" height="15" fill="#e8b83d"/>
<rect x="332" y="168" width="4" height="15" fill="#2d8a4e"/>
<rect x="336" y="168" width="4" height="15" fill="#2d8a4e"/>
<rect x="340" y="168" width="4" height="15" fill="#2d8a4e"/>
<rect x="344" y="168" width="4" height="15" fill="#2d8a4e"/>
<rect x="348" y="168" width="4" height="15" fill="#2d8a4e"/>
<rect x="352" y="168" width="4" height="15" fill="#2d8a4e"/>
<text x="20" y="202" class="label">Book 6</text>
<text x="988" y="202" class="stats">n=67  avg=0.657  H=72%  M=28%  L=0%</text>
<rect x="180" y="190" width="4" height="15" fill="#2d8a4e"/>
<rect x="184" y="190" width="4" height="15" fill="#2d8a4e"/>
<rect x="188" y="190" width="4" height="15" fill="#2d8a4e"/>
<rect x="192" y="190" width="4" height="15" fill="#e8b83d"/>
<rect x="196" y="190" width="4" height="15" fill="#2d8a4e"/>
<rect x="200" y="190" width="4" height="15" fill="#2d8a4e"/>
<rect x="204" y="190" width="4" height="15" fill="#2d8a4e"/>
<rect x="208" y="190" width="4" height="15" fill="#2d8a4e"/>
<rect x="212" y="190" width="4" height="15" fill="#2d8a4e"/>
<rect x="216" y="190" width="4" height="15" fill="#2d8a4e"/>
<rect x="220" y="190" width="4" height="15" fill="#2d8a4e"/>
<rect x="224" y="190" width="4" height="15" fill="#2d8a4e"/>
<rect x="228" y="190" width="4" height="15" fill="#2d8a4e"/>
<rect x="232" y="190" width="4" height="15" fill="#2d8a4e"/>
<rect x="236" y="190" width="4" height="15" fill="#2d8a4e"/>
<rect x="240" y="190" width="4" height="15" fill="#2d8a4e"/>
<rect x="244" y="190" width="4" height="15" fill="#e8b83d"/>
<rect x="248" y="190" width="4" height="15" fill="#2d8a4e"/>
<rect x="252" y="190" width="4" height="15" fill="#e8b83d"/>
<rect x="256" y="190" width="4" height="15" fill="#2d8a4e"/>
<rect x="260" y="190" width="4" height="15" fill="#2d8a4e"/>
<rect x="264" y="190" width="4" height="15" fill="#2d8a4e"/>
<rect x="268" y="190" width="4" height="15" fill="#2d8a4e"/>
<rect x="272" y="190" width="4" height="15" fill="#2d8a4e"/>
<rect x="276" y="190" width="4" height="15" fill="#2d8a4e"/>
<rect x="280" y="190" width="4" height="15" fill="#2d8a4e"/>
<rect x="284" y="190" width="4" height="15" fill="#e8b83d"/>
<rect x="288" y="190" width="4" height="15" fill="#2d8a4e"/>
<rect x="292" y="190" width="4" height="15" fill="#2d8a4e"/>
<rect x="296" y="190" width="4" height="15" fill="#2d8a4e"/>
<rect x="300" y="190" width="4" height="15" fill="#e8b83d"/>
<rect x="304" y="190" width="4" height="15" fill="#e8b83d"/>
<rect x="308" y="190" width="4" height="15" fill="#2d8a4e"/>
<rect x="312" y="190" width="4" height="15" fill="#e8b83d"/>
<rect x="316" y="190" width="4" height="15" fill="#e8b83d"/>
<rect x="320" y="190" width="4" height="15" fill="#2d8a4e"/>
<rect x="324" y="190" width="4" height="15" fill="#e8b83d"/>
<rect x="328" y="190" width="4" height="15" fill="#2d8a4e"/>
<rect x="332" y="190" width="4" height="15" fill="#2d8a4e"/>
<rect x="336" y="190" width="4" height="15" fill="#2d8a4e"/>
<rect x="340" y="190" width="4" height="15" fill="#2d8a4e"/>
<rect x="344" y="190" width="4" height="15" fill="#2d8a4e"/>
<rect x="348" y="190" width="4" height="15" fill="#e8b83d"/>
<rect x="352" y="190" width="4" height="15" fill="#2d8a4e"/>
<rect x="356" y="190" width="4" height="15" fill="#e8b83d"/>
<rect x="360" y="190" width="4" height="15" fill="#e8b83d"/>
<rect x="364" y="190" width="4" height="15" fill="#2d8a4e"/>
<rect x="368" y="190" width="4" height="15" fill="#2d8a4e"/>
<rect x="372" y="190" width="4" height="15" fill="#2d8a4e"/>
<rect x="376" y="190" width="4" height="15" fill="#e8b83d"/>
<rect x="380" y="190" width="4" height="15" fill="#2d8a4e"/>
<rect x="384" y="190" width="4" height="15" fill="#e8b83d"/>
<rect x="388" y="190" width="4" height="15" fill="#e8b83d"/>
<rect x="392" y="190" width="4" height="15" fill="#2d8a4e"/>
<rect x="396" y="190" width="4" height="15" fill="#2d8a4e"/>
<rect x="400" y="190" width="4" height="15" fill="#2d8a4e"/>
<rect x="404" y="190" width="4" height="15" fill="#e8b83d"/>
<rect x="408" y="190" width="4" height="15" fill="#e8b83d"/>
<rect x="412" y="190" width="4" height="15" fill="#2d8a4e"/>
<rect x="416" y="190" width="4" height="15" fill="#2d8a4e"/>
<rect x="420" y="190" width="4" height="15" fill="#2d8a4e"/>
<rect x="424" y="190" width="4" height="15" fill="#2d8a4e"/>
<rect x="428" y="190" width="4" height="15" fill="#2d8a4e"/>
<rect x="432" y="190" width="4" height="15" fill="#e8b83d"/>
<rect x="436" y="190" width="4" height="15" fill="#2d8a4e"/>
<rect x="440" y="190" width="4" height="15" fill="#2d8a4e"/>
<rect x="444" y="190" width="4" height="15" fill="#e8b83d"/>
<text x="20" y="224" class="label">Book 7</text>
<text x="988" y="224" class="stats">n=75  avg=0.675  H=85%  M=15%  L=0%</text>
<rect x="180" y="212" width="4" height="15" fill="#2d8a4e"/>
<rect x="184" y="212" width="4" height="15" fill="#2d8a4e"/>
<rect x="188" y="212" width="4" height="15" fill="#2d8a4e"/>
<rect x="192" y="212" width="4" height="15" fill="#e8b83d"/>
<rect x="196" y="212" width="4" height="15" fill="#2d8a4e"/>
<rect x="200" y="212" width="4" height="15" fill="#2d8a4e"/>
<rect x="204" y="212" width="4" height="15" fill="#2d8a4e"/>
<rect x="208" y="212" width="4" height="15" fill="#2d8a4e"/>
<rect x="212" y="212" width="4" height="15" fill="#2d8a4e"/>
<rect x="216" y="212" width="4" height="15" fill="#2d8a4e"/>
<rect x="220" y="212" width="4" height="15" fill="#2d8a4e"/>
<rect x="224" y="212" width="4" height="15" fill="#2d8a4e"/>
<rect x="228" y="212" width="4" height="15" fill="#2d8a4e"/>
<rect x="232" y="212" width="4" height="15" fill="#2d8a4e"/>
<rect x="236" y="212" width="4" height="15" fill="#2d8a4e"/>
<rect x="240" y="212" width="4" height="15" fill="#2d8a4e"/>
<rect x="244" y="212" width="4" height="15" fill="#2d8a4e"/>
<rect x="248" y="212" width="4" height="15" fill="#2d8a4e"/>
<rect x="252" y="212" width="4" height="15" fill="#2d8a4e"/>
<rect x="256" y="212" width="4" height="15" fill="#2d8a4e"/>
<rect x="260" y="212" width="4" height="15" fill="#2d8a4e"/>
<rect x="264" y="212" width="4" height="15" fill="#2d8a4e"/>
<rect x="268" y="212" width="4" height="15" fill="#2d8a4e"/>
<rect x="272" y="212" width="4" height="15" fill="#2d8a4e"/>
<rect x="276" y="212" width="4" height="15" fill="#e8b83d"/>
<rect x="280" y="212" width="4" height="15" fill="#2d8a4e"/>
<rect x="284" y="212" width="4" height="15" fill="#2d8a4e"/>
<rect x="288" y="212" width="4" height="15" fill="#2d8a4e"/>
<rect x="292" y="212" width="4" height="15" fill="#e8b83d"/>
<rect x="296" y="212" width="4" height="15" fill="#e8b83d"/>
<rect x="300" y="212" width="4" height="15" fill="#e8b83d"/>
<rect x="304" y="212" width="4" height="15" fill="#2d8a4e"/>
<rect x="308" y="212" width="4" height="15" fill="#2d8a4e"/>
<rect x="312" y="212" width="4" height="15" fill="#e8b83d"/>
<rect x="316" y="212" width="4" height="15" fill="#2d8a4e"/>
<rect x="320" y="212" width="4" height="15" fill="#e8b83d"/>
<rect x="324" y="212" width="4" height="15" fill="#2d8a4e"/>
<rect x="328" y="212" width="4" height="15" fill="#2d8a4e"/>
<rect x="332" y="212" width="4" height="15" fill="#2d8a4e"/>
<rect x="336" y="212" width="4" height="15" fill="#2d8a4e"/>
<rect x="340" y="212" width="4" height="15" fill="#2d8a4e"/>
<rect x="344" y="212" width="4" height="15" fill="#2d8a4e"/>
<rect x="348" y="212" width="4" height="15" fill="#2d8a4e"/>
<rect x="352" y="212" width="4" height="15" fill="#2d8a4e"/>
<rect x="356" y="212" width="4" height="15" fill="#2d8a4e"/>
<rect x="360" y="212" width="4" height="15" fill="#2d8a4e"/>
<rect x="364" y="212" width="4" height="15" fill="#2d8a4e"/>
<rect x="368" y="212" width="4" height="15" fill="#2d8a4e"/>
<rect x="372" y="212" width="4" height="15" fill="#2d8a4e"/>
<rect x="376" y="212" width="4" height="15" fill="#e8b83d"/>
<rect x="380" y="212" width="4" height="15" fill="#2d8a4e"/>
<rect x="384" y="212" width="4" height="15" fill="#e8b83d"/>
<rect x="388" y="212" width="4" height="15" fill="#2d8a4e"/>
<rect x="392" y="212" width="4" height="15" fill="#2d8a4e"/>
<rect x="396" y="212" width="4" height="15" fill="#2d8a4e"/>
<rect x="400" y="212" width="4" height="15" fill="#2d8a4e"/>
<rect x="404" y="212" width="4" height="15" fill="#e8b83d"/>
<rect x="408" y="212" width="4" height="15" fill="#2d8a4e"/>
<rect x="412" y="212" width="4" height="15" fill="#2d8a4e"/>
<rect x="416" y="212" width="4" height="15" fill="#2d8a4e"/>
<rect x="420" y="212" width="4" height="15" fill="#e8b83d"/>
<rect x="424" y="212" width="4" height="15" fill="#2d8a4e"/>
<rect x="428" y="212" width="4" height="15" fill="#2d8a4e"/>
<rect x="432" y="212" width="4" height="15" fill="#2d8a4e"/>
<rect x="436" y="212" width="4" height="15" fill="#2d8a4e"/>
<rect x="440" y="212" width="4" height="15" fill="#2d8a4e"/>
<rect x="444" y="212" width="4" height="15" fill="#2d8a4e"/>
<rect x="448" y="212" width="4" height="15" fill="#2d8a4e"/>
<rect x="452" y="212" width="4" height="15" fill="#2d8a4e"/>
<rect x="456" y="212" width="4" height="15" fill="#2d8a4e"/>
<rect x="460" y="212" width="4" height="15" fill="#2d8a4e"/>
<rect x="464" y="212" width="4" height="15" fill="#2d8a4e"/>
<rect x="468" y="212" width="4" height="15" fill="#2d8a4e"/>
<rect x="472" y="212" width="4" height="15" fill="#2d8a4e"/>
<rect x="476" y="212" width="4" height="15" fill="#2d8a4e"/>
<text x="20" y="246" class="label">Book 8</text>
<text x="988" y="246" class="stats">n=61  avg=0.681  H=79%  M=21%  L=0%</text>
<rect x="180" y="234" width="4" height="15" fill="#2d8a4e"/>
<rect x="184" y="234" width="4" height="15" fill="#e8b83d"/>
<rect x="188" y="234" width="4" height="15" fill="#2d8a4e"/>
<rect x="192" y="234" width="4" height="15" fill="#2d8a4e"/>
<rect x="196" y="234" width="4" height="15" fill="#2d8a4e"/>
<rect x="200" y="234" width="4" height="15" fill="#2d8a4e"/>
<rect x="204" y="234" width="4" height="15" fill="#2d8a4e"/>
<rect x="208" y="234" width="4" height="15" fill="#e8b83d"/>
<rect x="212" y="234" width="4" height="15" fill="#e8b83d"/>
<rect x="216" y="234" width="4" height="15" fill="#2d8a4e"/>
<rect x="220" y="234" width="4" height="15" fill="#2d8a4e"/>
<rect x="224" y="234" width="4" height="15" fill="#2d8a4e"/>
<rect x="228" y="234" width="4" height="15" fill="#2d8a4e"/>
<rect x="232" y="234" width="4" height="15" fill="#2d8a4e"/>
<rect x="236" y="234" width="4" height="15" fill="#e8b83d"/>
<rect x="240" y="234" width="4" height="15" fill="#e8b83d"/>
<rect x="244" y="234" width="4" height="15" fill="#2d8a4e"/>
<rect x="248" y="234" width="4" height="15" fill="#2d8a4e"/>
<rect x="252" y="234" width="4" height="15" fill="#2d8a4e"/>
<rect x="256" y="234" width="4" height="15" fill="#2d8a4e"/>
<rect x="260" y="234" width="4" height="15" fill="#e8b83d"/>
<rect x="264" y="234" width="4" height="15" fill="#e8b83d"/>
<rect x="268" y="234" width="4" height="15" fill="#2d8a4e"/>
<rect x="272" y="234" width="4" height="15" fill="#2d8a4e"/>
<rect x="276" y="234" width="4" height="15" fill="#2d8a4e"/>
<rect x="280" y="234" width="4" height="15" fill="#2d8a4e"/>
<rect x="284" y="234" width="4" height="15" fill="#2d8a4e"/>
<rect x="288" y="234" width="4" height="15" fill="#2d8a4e"/>
<rect x="292" y="234" width="4" height="15" fill="#2d8a4e"/>
<rect x="296" y="234" width="4" height="15" fill="#e8b83d"/>
<rect x="300" y="234" width="4" height="15" fill="#2d8a4e"/>
<rect x="304" y="234" width="4" height="15" fill="#e8b83d"/>
<rect x="308" y="234" width="4" height="15" fill="#e8b83d"/>
<rect x="312" y="234" width="4" height="15" fill="#2d8a4e"/>
<rect x="316" y="234" width="4" height="15" fill="#2d8a4e"/>
<rect x="320" y="234" width="4" height="15" fill="#2d8a4e"/>
<rect x="324" y="234" width="4" height="15" fill="#2d8a4e"/>
<rect x="328" y="234" width="4" height="15" fill="#2d8a4e"/>
<rect x="332" y="234" width="4" height="15" fill="#2d8a4e"/>
<rect x="336" y="234" width="4" height="15" fill="#2d8a4e"/>
<rect x="340" y="234" width="4" height="15" fill="#2d8a4e"/>
<rect x="344" y="234" width="4" height="15" fill="#2d8a4e"/>
<rect x="348" y="234" width="4" height="15" fill="#2d8a4e"/>
<rect x="352" y="234" width="4" height="15" fill="#2d8a4e"/>
<rect x="356" y="234" width="4" height="15" fill="#2d8a4e"/>
<rect x="360" y="234" width="4" height="15" fill="#2d8a4e"/>
<rect x="364" y="234" width="4" height="15" fill="#2d8a4e"/>
<rect x="368" y="234" width="4" height="15" fill="#e8b83d"/>
<rect x="372" y="234" width="4" height="15" fill="#2d8a4e"/>
<rect x="376" y="234" width="4" height="15" fill="#e8b83d"/>
<rect x="380" y="234" width="4" height="15" fill="#2d8a4e"/>
<rect x="384" y="234" width="4" height="15" fill="#2d8a4e"/>
<rect x="388" y="234" width="4" height="15" fill="#2d8a4e"/>
<rect x="392" y="234" width="4" height="15" fill="#e8b83d"/>
<rect x="396" y="234" width="4" height="15" fill="#2d8a4e"/>
<rect x="400" y="234" width="4" height="15" fill="#2d8a4e"/>
<rect x="404" y="234" width="4" height="15" fill="#2d8a4e"/>
<rect x="408" y="234" width="4" height="15" fill="#2d8a4e"/>
<rect x="412" y="234" width="4" height="15" fill="#2d8a4e"/>
<rect x="416" y="234" width="4" height="15" fill="#2d8a4e"/>
<rect x="420" y="234" width="4" height="15" fill="#2d8a4e"/>
<text x="20" y="268" class="label">Book 9</text>
<text x="988" y="268" class="stats">n=51  avg=0.633  H=65%  M=35%  L=0%</text>
<rect x="180" y="256" width="4" height="15" fill="#2d8a4e"/>
<rect x="184" y="256" width="4" height="15" fill="#2d8a4e"/>
<rect x="188" y="256" width="4" height="15" fill="#e8b83d"/>
<rect x="192" y="256" width="4" height="15" fill="#2d8a4e"/>
<rect x="196" y="256" width="4" height="15" fill="#e8b83d"/>
<rect x="200" y="256" width="4" height="15" fill="#2d8a4e"/>
<rect x="204" y="256" width="4" height="15" fill="#2d8a4e"/>
<rect x="208" y="256" width="4" height="15" fill="#2d8a4e"/>
<rect x="212" y="256" width="4" height="15" fill="#2d8a4e"/>
<rect x="216" y="256" width="4" height="15" fill="#2d8a4e"/>
<rect x="220" y="256" width="4" height="15" fill="#2d8a4e"/>
<rect x="224" y="256" width="4" height="15" fill="#2d8a4e"/>
<rect x="228" y="256" width="4" height="15" fill="#e8b83d"/>
<rect x="232" y="256" width="4" height="15" fill="#e8b83d"/>
<rect x="236" y="256" width="4" height="15" fill="#e8b83d"/>
<rect x="240" y="256" width="4" height="15" fill="#e8b83d"/>
<rect x="244" y="256" width="4" height="15" fill="#2d8a4e"/>
<rect x="248" y="256" width="4" height="15" fill="#e8b83d"/>
<rect x="252" y="256" width="4" height="15" fill="#e8b83d"/>
<rect x="256" y="256" width="4" height="15" fill="#e8b83d"/>
<rect x="260" y="256" width="4" height="15" fill="#e8b83d"/>
<rect x="264" y="256" width="4" height="15" fill="#2d8a4e"/>
<rect x="268" y="256" width="4" height="15" fill="#2d8a4e"/>
<rect x="272" y="256" width="4" height="15" fill="#e8b83d"/>
<rect x="276" y="256" width="4" height="15" fill="#e8b83d"/>
<rect x="280" y="256" width="4" height="15" fill="#e8b83d"/>
<rect x="284" y="256" width="4" height="15" fill="#2d8a4e"/>
<rect x="288" y="256" width="4" height="15" fill="#e8b83d"/>
<rect x="292" y="256" width="4" height="15" fill="#2d8a4e"/>
<rect x="296" y="256" width="4" height="15" fill="#2d8a4e"/>
<rect x="300" y="256" width="4" height="15" fill="#2d8a4e"/>
<rect x="304" y="256" width="4" height="15" fill="#2d8a4e"/>
<rect x="308" y="256" width="4" height="15" fill="#2d8a4e"/>
<rect x="312" y="256" width="4" height="15" fill="#2d8a4e"/>
<rect x="316" y="256" width="4" height="15" fill="#2d8a4e"/>
<rect x="320" y="256" width="4" height="15" fill="#2d8a4e"/>
<rect x="324" y="256" width="4" height="15" fill="#2d8a4e"/>
<rect x="328" y="256" width="4" height="15" fill="#2d8a4e"/>
<rect x="332" y="256" width="4" height="15" fill="#e8b83d"/>
<rect x="336" y="256" width="4" height="15" fill="#e8b83d"/>
<rect x="340" y="256" width="4" height="15" fill="#2d8a4e"/>
<rect x="344" y="256" width="4" height="15" fill="#2d8a4e"/>
<rect x="348" y="256" width="4" height="15" fill="#2d8a4e"/>
<rect x="352" y="256" width="4" height="15" fill="#2d8a4e"/>
<rect x="356" y="256" width="4" height="15" fill="#2d8a4e"/>
<rect x="360" y="256" width="4" height="15" fill="#2d8a4e"/>
<rect x="364" y="256" width="4" height="15" fill="#2d8a4e"/>
<rect x="368" y="256" width="4" height="15" fill="#e8b83d"/>
<rect x="372" y="256" width="4" height="15" fill="#e8b83d"/>
<rect x="376" y="256" width="4" height="15" fill="#2d8a4e"/>
<rect x="380" y="256" width="4" height="15" fill="#2d8a4e"/>
<text x="20" y="290" class="label">Book 10</text>
<text x="988" y="290" class="stats">n=47  avg=0.652  H=64%  M=36%  L=0%</text>
<rect x="180" y="278" width="4" height="15" fill="#2d8a4e"/>
<rect x="184" y="278" width="4" height="15" fill="#e8b83d"/>
<rect x="188" y="278" width="4" height="15" fill="#2d8a4e"/>
<rect x="192" y="278" width="4" height="15" fill="#2d8a4e"/>
<rect x="196" y="278" width="4" height="15" fill="#2d8a4e"/>
<rect x="200" y="278" width="4" height="15" fill="#2d8a4e"/>
<rect x="204" y="278" width="4" height="15" fill="#e8b83d"/>
<rect x="208" y="278" width="4" height="15" fill="#e8b83d"/>
<rect x="212" y="278" width="4" height="15" fill="#e8b83d"/>
<rect x="216" y="278" width="4" height="15" fill="#e8b83d"/>
<rect x="220" y="278" width="4" height="15" fill="#e8b83d"/>
<rect x="224" y="278" width="4" height="15" fill="#2d8a4e"/>
<rect x="228" y="278" width="4" height="15" fill="#2d8a4e"/>
<rect x="232" y="278" width="4" height="15" fill="#2d8a4e"/>
<rect x="236" y="278" width="4" height="15" fill="#2d8a4e"/>
<rect x="240" y="278" width="4" height="15" fill="#2d8a4e"/>
<rect x="244" y="278" width="4" height="15" fill="#2d8a4e"/>
<rect x="248" y="278" width="4" height="15" fill="#e8b83d"/>
<rect x="252" y="278" width="4" height="15" fill="#e8b83d"/>
<rect x="256" y="278" width="4" height="15" fill="#2d8a4e"/>
<rect x="260" y="278" width="4" height="15" fill="#2d8a4e"/>
<rect x="264" y="278" width="4" height="15" fill="#e8b83d"/>
<rect x="268" y="278" width="4" height="15" fill="#e8b83d"/>
<rect x="272" y="278" width="4" height="15" fill="#2d8a4e"/>
<rect x="276" y="278" width="4" height="15" fill="#2d8a4e"/>
<rect x="280" y="278" width="4" height="15" fill="#e8b83d"/>
<rect x="284" y="278" width="4" height="15" fill="#2d8a4e"/>
<rect x="288" y="278" width="4" height="15" fill="#2d8a4e"/>
<rect x="292" y="278" width="4" height="15" fill="#2d8a4e"/>
<rect x="296" y="278" width="4" height="15" fill="#2d8a4e"/>
<rect x="300" y="278" width="4" height="15" fill="#2d8a4e"/>
<rect x="304" y="278" width="4" height="15" fill="#e8b83d"/>
<rect x="308" y="278" width="4" height="15" fill="#2d8a4e"/>
<rect x="312" y="278" width="4" height="15" fill="#e8b83d"/>
<rect x="316" y="278" width="4" height="15" fill="#2d8a4e"/>
<rect x="320" y="278" width="4" height="15" fill="#2d8a4e"/>
<rect x="324" y="278" width="4" height="15" fill="#2d8a4e"/>
<rect x="328" y="278" width="4" height="15" fill="#2d8a4e"/>
<rect x="332" y="278" width="4" height="15" fill="#e8b83d"/>
<rect x="336" y="278" width="4" height="15" fill="#e8b83d"/>
<rect x="340" y="278" width="4" height="15" fill="#2d8a4e"/>
<rect x="344" y="278" width="4" height="15" fill="#e8b83d"/>
<rect x="348" y="278" width="4" height="15" fill="#2d8a4e"/>
<rect x="352" y="278" width="4" height="15" fill="#2d8a4e"/>
<rect x="356" y="278" width="4" height="15" fill="#2d8a4e"/>
<rect x="360" y="278" width="4" height="15" fill="#2d8a4e"/>
<rect x="364" y="278" width="4" height="15" fill="#e8b83d"/>
<text x="20" y="312" class="label">Book 11</text>
<text x="988" y="312" class="stats">n=47  avg=0.641  H=66%  M=30%  L=4%</text>
<rect x="180" y="300" width="4" height="15" fill="#2d8a4e"/>
<rect x="184" y="300" width="4" height="15" fill="#e8b83d"/>
<rect x="188" y="300" width="4" height="15" fill="#2d8a4e"/>
<rect x="192" y="300" width="4" height="15" fill="#2d8a4e"/>
<rect x="196" y="300" width="4" height="15" fill="#e8b83d"/>
<rect x="200" y="300" width="4" height="15" fill="#e8b83d"/>
<rect x="204" y="300" width="4" height="15" fill="#2d8a4e"/>
<rect x="208" y="300" width="4" height="15" fill="#2d8a4e"/>
<rect x="212" y="300" width="4" height="15" fill="#2d8a4e"/>
<rect x="216" y="300" width="4" height="15" fill="#2d8a4e"/>
<rect x="220" y="300" width="4" height="15" fill="#2d8a4e"/>
<rect x="224" y="300" width="4" height="15" fill="#2d8a4e"/>
<rect x="228" y="300" width="4" height="15" fill="#2d8a4e"/>
<rect x="232" y="300" width="4" height="15" fill="#2d8a4e"/>
<rect x="236" y="300" width="4" height="15" fill="#2d8a4e"/>
<rect x="240" y="300" width="4" height="15" fill="#2d8a4e"/>
<rect x="244" y="300" width="4" height="15" fill="#2d8a4e"/>
<rect x="248" y="300" width="4" height="15" fill="#e8b83d"/>
<rect x="252" y="300" width="4" height="15" fill="#e8b83d"/>
<rect x="256" y="300" width="4" height="15" fill="#e8b83d"/>
<rect x="260" y="300" width="4" height="15" fill="#e8b83d"/>
<rect x="264" y="300" width="4" height="15" fill="#c9493b"/>
<rect x="268" y="300" width="4" height="15" fill="#2d8a4e"/>
<rect x="272" y="300" width="4" height="15" fill="#c9493b"/>
<rect x="276" y="300" width="4" height="15" fill="#e8b83d"/>
<rect x="280" y="300" width="4" height="15" fill="#2d8a4e"/>
<rect x="284" y="300" width="4" height="15" fill="#e8b83d"/>
<rect x="288" y="300" width="4" height="15" fill="#e8b83d"/>
<rect x="292" y="300" width="4" height="15" fill="#2d8a4e"/>
<rect x="296" y="300" width="4" height="15" fill="#2d8a4e"/>
<rect x="300" y="300" width="4" height="15" fill="#2d8a4e"/>
<rect x="304" y="300" width="4" height="15" fill="#e8b83d"/>
<rect x="308" y="300" width="4" height="15" fill="#2d8a4e"/>
<rect x="312" y="300" width="4" height="15" fill="#2d8a4e"/>
<rect x="316" y="300" width="4" height="15" fill="#2d8a4e"/>
<rect x="320" y="300" width="4" height="15" fill="#2d8a4e"/>
<rect x="324" y="300" width="4" height="15" fill="#2d8a4e"/>
<rect x="328" y="300" width="4" height="15" fill="#2d8a4e"/>
<rect x="332" y="300" width="4" height="15" fill="#2d8a4e"/>
<rect x="336" y="300" width="4" height="15" fill="#e8b83d"/>
<rect x="340" y="300" width="4" height="15" fill="#2d8a4e"/>
<rect x="344" y="300" width="4" height="15" fill="#2d8a4e"/>
<rect x="348" y="300" width="4" height="15" fill="#2d8a4e"/>
<rect x="352" y="300" width="4" height="15" fill="#e8b83d"/>
<rect x="356" y="300" width="4" height="15" fill="#e8b83d"/>
<rect x="360" y="300" width="4" height="15" fill="#2d8a4e"/>
<rect x="364" y="300" width="4" height="15" fill="#2d8a4e"/>
<text x="20" y="334" class="label">Book 12</text>
<text x="988" y="334" class="stats">n=38  avg=0.644  H=71%  M=29%  L=0%</text>
<rect x="180" y="322" width="4" height="15" fill="#e8b83d"/>
<rect x="184" y="322" width="4" height="15" fill="#2d8a4e"/>
<rect x="188" y="322" width="4" height="15" fill="#2d8a4e"/>
<rect x="192" y="322" width="4" height="15" fill="#e8b83d"/>
<rect x="196" y="322" width="4" height="15" fill="#e8b83d"/>
<rect x="200" y="322" width="4" height="15" fill="#e8b83d"/>
<rect x="204" y="322" width="4" height="15" fill="#2d8a4e"/>
<rect x="208" y="322" width="4" height="15" fill="#2d8a4e"/>
<rect x="212" y="322" width="4" height="15" fill="#e8b83d"/>
<rect x="216" y="322" width="4" height="15" fill="#2d8a4e"/>
<rect x="220" y="322" width="4" height="15" fill="#2d8a4e"/>
<rect x="224" y="322" width="4" height="15" fill="#2d8a4e"/>
<rect x="228" y="322" width="4" height="15" fill="#2d8a4e"/>
<rect x="232" y="322" width="4" height="15" fill="#2d8a4e"/>
<rect x="236" y="322" width="4" height="15" fill="#2d8a4e"/>
<rect x="240" y="322" width="4" height="15" fill="#2d8a4e"/>
<rect x="244" y="322" width="4" height="15" fill="#2d8a4e"/>
<rect x="248" y="322" width="4" height="15" fill="#2d8a4e"/>
<rect x="252" y="322" width="4" height="15" fill="#2d8a4e"/>
<rect x="256" y="322" width="4" height="15" fill="#2d8a4e"/>
<rect x="260" y="322" width="4" height="15" fill="#2d8a4e"/>
<rect x="264" y="322" width="4" height="15" fill="#2d8a4e"/>
<rect x="268" y="322" width="4" height="15" fill="#2d8a4e"/>
<rect x="272" y="322" width="4" height="15" fill="#2d8a4e"/>
<rect x="276" y="322" width="4" height="15" fill="#e8b83d"/>
<rect x="280" y="322" width="4" height="15" fill="#e8b83d"/>
<rect x="284" y="322" width="4" height="15" fill="#e8b83d"/>
<rect x="288" y="322" width="4" height="15" fill="#2d8a4e"/>
<rect x="292" y="322" width="4" height="15" fill="#e8b83d"/>
<rect x="296" y="322" width="4" height="15" fill="#2d8a4e"/>
<rect x="300" y="322" width="4" height="15" fill="#e8b83d"/>
<rect x="304" y="322" width="4" height="15" fill="#2d8a4e"/>
<rect x="308" y="322" width="4" height="15" fill="#2d8a4e"/>
<rect x="312" y="322" width="4" height="15" fill="#e8b83d"/>
<rect x="316" y="322" width="4" height="15" fill="#2d8a4e"/>
<rect x="320" y="322" width="4" height="15" fill="#2d8a4e"/>
<rect x="324" y="322" width="4" height="15" fill="#2d8a4e"/>
<rect x="328" y="322" width="4" height="15" fill="#2d8a4e"/>
<line x1="20" y1="349" x2="1200" y2="349" stroke="#ccc" stroke-width="1"/>
<text x="20" y="369" class="total">TOTAL: 578 sections   avg=0.650   High=70%   Med=29%   Low=1%</text>
<rect x="20" y="376" width="822.7335640138408" height="10" fill="#2d8a4e" rx="2"/>
<rect x="842.7335640138408" y="376" width="345.01730103806227" height="10" fill="#e8b83d"/>
<rect x="1187.750865051903" y="376" width="12.249134948096884" height="10" fill="#c9493b" rx="2"/>
</svg>