<svg xmlns="http://www.w3.org/2000/svg" width="1220" height="444" viewBox="0 0 1220 444">
<rect width="1220" height="444" fill="#f5f5f5"/>
<style>
  text { font-family: "SF Mono", "Menlo", "Monaco", monospace; }
  .title { font-size: 16px; font-weight: bold; }
  .subtitle { font-size: 11px; fill: #888; }
  .label { font-size: 11px; fill: #333; }
  .stats { font-size: 10px; fill: #666; }
  .warn { font-size: 9px; fill: #c9493b; }
  .total { font-size: 12px; font-weight: bold; fill: #333; }
  .legend-text { font-size: 10px; fill: #555; }
</style>
<text x="20" y="38" class="title">Alignment Quality Map — Alignment</text>
<rect x="20" y="50" width="12" height="12" fill="#2d8a4e" rx="2"/>
<text x="36" y="60" class="legend-text">High (≥0.5)</text>
<rect x="160" y="50" width="12" height="12" fill="#e8b83d" rx="2"/>
<text x="176" y="60" class="legend-text">Medium (0.2–0.5)</text>
<rect x="300" y="50" width="12" height="12" fill="#c9493b" rx="2"/>
<text x="316" y="60" class="legend-text">Low (&lt;0.2)</text>
<text x="20" y="92" class="label">Book 1</text>
<text x="988" y="92" class="stats">n=25  avg=0.111  H=8%  M=12%  L=80%</text>
<a href="tlg0640.tlg001.perseus-eng80.html#s1-1"><title>1.1 (0.01)</title><rect x="180" y="80" width="4" height="15" fill="#c9493b"/></a>
<a href="tlg0640.tlg001.perseus-eng80.html#s1-2"><title>1.2 (0.02)</title><rect x="184" y="80" width="4" height="15" fill="#c9493b"/></a>
<a href="tlg0640.tlg001.perseus-eng80.html#sen:1-2"><title>en:1.2 (0.00)</title><rect x="188" y="80" width="4" height="15" fill="#c9493b"/></a>
<a href="tlg0640.tlg001.perseus-eng80.html#s1-3"><title>1.3 (0.26)</title><rect x="192" y="80" width="4" height="15" fill="#e8b83d"/></a>
<a href="tlg0640.tlg001.perseus-eng80.html#s1-4"><title>1.4 (0.00)</title><rect x="196" y="80" width="4" height="15" fill="#c9493b"/></a>
<a href="tlg0640.tlg001.perseus-eng80.html#s1-5"><title>1.5 (0.00)</title><rect x="200" y="80" width="4" height="15" fill="#c9493b"/></a>
<a href="tlg0640.tlg001.perseus-eng80.html#s1-6"><title>1.6 (0.00)</title><rect x="204" y="80" width="4" height="15" fill="#c9493b"/></a>
<a href="tlg0640.tlg001.perseus-eng80.html#s1-7"><title>1.7 (0.00)</title><rect x="208" y="80" width="4" height="15" fill="#c9493b"/></a>
<a href="tlg0640.tlg001.perseus-eng80.html#sen:1-5"><title>en:1.5 (0.00)</title><rect x="212" y="80" width="4" height="15" fill="#c9493b"/></a>
<a href="tlg0640.tlg001.perseus-eng80.html#s1-8"><title>1.8 (0.01)</title><rect x="216" y="80" width="4" height="15" fill="#c9493b"/></a>
<a href="tlg0640.tlg001.perseus-eng80.html#s1-9"><title>1.9 (0.01)</title><rect x="220" y="80" width="4" height="15" fill="#c9493b"/></a>
<a href="tlg0640.tlg001.perseus-eng80.html#s1-10"><title>1.10 (0.00)</title><rect x="224" y="80" width="4" height="15" fill="#c9493b"/></a>
<a href="tlg0640.tlg001.perseus-eng80.html#s1-11"><title>1.11 (0.65)</title><rect x="228" y="80" width="4" height="15" fill="#2d8a4e"/></a>
<a href="tlg0640.tlg001.perseus-eng80.html#s1-12"><title>1.12 (0.37)</title><rect x="232" y="80" width="4" height="15" fill="#e8b83d"/></a>
<a href="tlg0640.tlg001.perseus-eng80.html#s1-13"><title>1.13 (0.03)</title><rect x="236" y="80" width="4" height="15" fill="#c9493b"/></a>
<a href="tlg0640.tlg001.perseus-eng80.html#s1-14"><title>1.14 (0.57)</title><rect x="240" y="80" width="4" height="15" fill="#2d8a4e"/></a>
<a href="tlg0640.tlg001.perseus-eng80.html#s1-15"><title>1.15 (0.00)</title><rect x="244" y="80" width="4" height="15" fill="#c9493b"/></a>
<a href="tlg0640.tlg001.perseus-eng80.html#s1-16"><title>1.16 (0.39)</title><rect x="248" y="80" width="4" height="15" fill="#e8b83d"/></a>
<a href="tlg0640.tlg001.perseus-eng80.html#s1-17"><title>1.17 (0.00)</title><rect x="252" y="80" width="4" height="15" fill="#c9493b"/></a>
<a href="tlg0640.tlg001.perseus-eng80.html#s1-18"><title>1.18 (0.18)</title><rect x="256" y="80" width="4" height="15" fill="#c9493b"/></a>
<a href="tlg0640.tlg001.perseus-eng80.html#s1-19"><title>1.19 (0.17)</title><rect x="260" y="80" width="4" height="15" fill="#c9493b"/></a>
<a href="tlg0640.tlg001.perseus-eng80.html#s1-20"><title>1.20 (0.00)</title><rect x="264" y="80" width="4" height="15" fill="#c9493b"/></a>
<a href="tlg0640.tlg001.perseus-eng80.html#s1-21"><title>1.21 (0.01)</title><rect x="268" y="80" width="4" height="15" fill="#c9493b"/></a>
<a href="tlg0640.tlg001.perseus-eng80.html#s1-22"><title>1.22 (0.11)</title><rect x="272" y="80" width="4" height="15" fill="#c9493b"/></a>
<a href="tlg0640.tlg001.perseus-eng80.html#sen:1-12"><title>en:1.12 (0.00)</title><rect x="276" y="80" width="4" height="15" fill="#c9493b"/></a>
<text x="180" y="107" class="warn">⚠ 1.4 → 1.10  (8 sections, avg=0.002)</text>
<text x="180" y="121" class="warn">⚠ 1.17 → en:1.12  (7 sections, avg=0.067)</text>
<text x="180" y="135" class="warn">⚠ 1.1 → en:1.2  (3 sections, avg=0.009)</text>
<text x="20" y="156" class="label">Book 2</text>
<text x="988" y="156" class="stats">n=39  avg=0.000  H=0%  M=0%  L=100%</text>
<a href="tlg0640.tlg001.perseus-eng80.html#s2-1"><title>2.1 (0.00)</title><rect x="180" y="144" width="4" height="15" fill="#c9493b"/></a>
<a href="tlg0640.tlg001.perseus-eng80.html#s2-2"><title>2.2 (0.00)</title><rect x="184" y="144" width="4" height="15" fill="#c9493b"/></a>
<a href="tlg0640.tlg001.perseus-eng80.html#s2-3"><title>2.3 (0.00)</title><rect x="188" y="144" width="4" height="15" fill="#c9493b"/></a>
<a href="tlg0640.tlg001.perseus-eng80.html#s2-4"><title>2.4 (0.00)</title><rect x="192" y="144" width="4" height="15" fill="#c9493b"/></a>
<a href="tlg0640.tlg001.perseus-eng80.html#s2-5"><title>2.5 (0.00)</title><rect x="196" y="144" width="4" height="15" fill="#c9493b"/></a>
<a href="tlg0640.tlg001.perseus-eng80.html#s2-6"><title>2.6 (0.00)</title><rect x="200" y="144" width="4" height="15" fill="#c9493b"/></a>
<a href="tlg0640.tlg001.perseus-eng80.html#s2-7"><title>2.7 (0.00)</title><rect x="204" y="144" width="4" height="15" fill="#c9493b"/></a>
<a href="tlg0640.tlg001.perseus-eng80.html#s2-8"><title>2.8 (0.00)</title><rect x="208" y="144" width="4" height="15" fill="#c9493b"/></a>
<a href="tlg0640.tlg001.perseus-eng80.html#s2-9"><title>2.9 (0.00)</title><rect x="212" y="144" width="4" height="15" fill="#c9493b"/></a>
<a href="tlg0640.tlg001.perseus-eng80.html#s2-10"><title>2.10 (0.00)</title><rect x="216" y="144" width="4" height="15" fill="#c9493b"/></a>
<a href="tlg0640.tlg001.perseus-eng80.html#s2-11"><title>2.11 (0.00)</title><rect x="220" y="144" width="4" height="15" fill="#c9493b"/></a>
<a href="tlg0640.tlg001.perseus-eng80.html#s2-12"><title>2.12 (0.00)</title><rect x="224" y="144" width="4" height="15" fill="#c9493b"/></a>
<a href="tlg0640.tlg001.perseus-eng80.html#s2-13"><title>2.13 (0.00)</title><rect x="228" y="144" width="4" height="15" fill="#c9493b"/></a>
<a href="tlg0640.tlg001.perseus-eng80.html#s2-14"><title>2.14 (0.00)</title><rect x="232" y="144" width="4" height="15" fill="#c9493b"/></a>
<a href="tlg0640.tlg001.perseus-eng80.html#s2-15"><title>2.15 (0.00)</title><rect x="236" y="144" width="4" height="15" fill="#c9493b"/></a>
<a href="tlg0640.tlg001.perseus-eng80.html#s2-16"><title>2.16 (0.00)</title><rect x="240" y="144" width="4" height="15" fill="#c9493b"/></a>
<a href="tlg0640.tlg001.perseus-eng80.html#s2-17"><title>2.17 (0.00)</title><rect x="244" y="144" width="4" height="15" fill="#c9493b"/></a>
<a href="tlg0640.tlg001.perseus-eng80.html#s2-18"><title>2.18 (0.00)</title><rect x="248" y="144" width="4" height="15" fill="#c9493b"/></a>
<a href="tlg0640.tlg001.perseus-eng80.html#s2-19"><title>2.19 (0.00)</title><rect x="252" y="144" width="4" height="15" fill="#c9493b"/></a>
<a href="tlg0640.tlg001.perseus-eng80.html#s2-20"><title>2.20 (0.00)</title><rect x="256" y="144" width="4" height="15" fill="#c9493b"/></a>
<a href="tlg0640.tlg001.perseus-eng80.html#s2-21"><title>2.21 (0.00)</title><rect x="260" y="144" width="4" height="15" fill="#c9493b"/></a>
<a href="tlg0640.tlg001.perseus-eng80.html#s2-22"><title>2.22 (0.00)</title><rect x="264" y="144" width="4" height="15" fill="#c9493b"/></a>
<a href="tlg0640.tlg001.perseus-eng80.html#s2-23"><title>2.23 (0.00)</title><rect x="268" y="144" width="4" height="15" fill="#c9493b"/></a>
<a href="tlg0640.tlg001.perseus-eng80.html#s2-24"><title>2.24 (0.00)</title><rect x="272" y="144" width="4" height="15" fill="#c9493b"/></a>
<a href="tlg0640.tlg001.perseus-eng80.html#s2-25"><title>2.25 (0.00)</title><rect x="276" y="144" width="4" height="15" fill="#c9493b"/></a>
<a href="tlg0640.tlg001.perseus-eng80.html#s2-26"><title>2.26 (0.00)</title><rect x="280" y="144" width="4" height="15" fill="#c9493b"/></a>
<a href="tlg0640.tlg001.perseus-eng80.html#s2-27"><title>2.27 (0.00)</title><rect x="284" y="144" width="4" height="15" fill="#c9493b"/></a>
<a href="tlg0640.tlg001.perseus-eng80.html#s2-28"><title>2.28 (0.00)</title><rect x="288" y="144" width="4" height="15" fill="#c9493b"/></a>
<a href="tlg0640.tlg001.perseus-eng80.html#s2-29"><title>2.29 (0.00)</title><rect x="292" y="144" width="4" height="15" fill="#c9493b"/></a>
<a href="tlg0640.tlg001.perseus-eng80.html#s2-30"><title>2.30 (0.00)</title><rect x="296" y="144" width="4" height="15" fill="#c9493b"/></a>
<a href="tlg0640.tlg001.perseus-eng80.html#s2-31"><title>2.31 (0.00)</title><rect x="300" y="144" width="4" height="15" fill="#c9493b"/></a>
<a href="tlg0640.tlg001.perseus-eng80.html#s2-32"><title>2.32 (0.00)</title><rect x="304" y="144" width="4" height="15" fill="#c9493b"/></a>
<a href="tlg0640.tlg001.perseus-eng80.html#s2-33"><title>2.33 (0.00)</title><rect x="308" y="144" width="4" height="15" fill="#c9493b"/></a>
<a href="tlg0640.tlg001.perseus-eng80.html#s2-34"><title>2.34 (0.00)</title><rect x="312" y="144" width="4" height="15" fill="#c9493b"/></a>
<a href="tlg0640.tlg001.perseus-eng80.html#s2-35"><title>2.35 (0.00)</title><rect x="316" y="144" width="4" height="15" fill="#c9493b"/></a>
<a href="tlg0640.tlg001.perseus-eng80.html#s2-36"><title>2.36 (0.00)</title><rect x="320" y="144" width="4" height="15" fill="#c9493b"/></a>
<a href="tlg0640.tlg001.perseus-eng80.html#s2-37"><title>2.37 (0.00)</title><rect x="324" y="144" width="4" height="15" fill="#c9493b"/></a>
<a href="tlg0640.tlg001.perseus-eng80.html#s2-38"><title>2.38 (0.00)</title><rect x="328" y="144" width="4" height="15" fill="#c9493b"/></a>
<a href="tlg0640.tlg001.perseus-eng80.html#s2-39"><title>2.39 (0.00)</title><rect x="332" y="144" width="4" height="15" fill="#c9493b"/></a>
<text x="180" y="171" class="warn">⚠ 2.1 → 2.39  (39 sections, avg=0.000)</text>
<text x="20" y="192" class="label">Book 3</text>
<text x="988" y="192" class="stats">n=46  avg=0.220  H=13%  M=26%  L=61%</text>
<a href="tlg0640.tlg001.perseus-eng80.html#s3-1"><title>3.1 (0.49)</title><rect x="180" y="180" width="4" height="15" fill="#e8b83d"/></a>
<a href="tlg0640.tlg001.perseus-eng80.html#s3-2"><title>3.2 (0.54)</title><rect x="184" y="180" width="4" height="15" fill="#2d8a4e"/></a>
<a href="tlg0640.tlg001.perseus-eng80.html#s3-3"><title>3.3 (0.45)</title><rect x="188" y="180" width="4" height="15" fill="#e8b83d"/></a>
<a href="tlg0640.tlg001.perseus-eng80.html#s3-4"><title>3.4 (0.00)</title><rect x="192" y="180" width="4" height="15" fill="#c9493b"/></a>
<a href="tlg0640.tlg001.perseus-eng80.html#s3-5"><title>3.5 (0.11)</title><rect x="196" y="180" width="4" height="15" fill="#c9493b"/></a>
<a href="tlg0640.tlg001.perseus-eng80.html#s3-6"><title>3.6 (0.24)</title><rect x="200" y="180" width="4" height="15" fill="#e8b83d"/></a>
<a href="tlg0640.tlg001.perseus-eng80.html#s3-7"><title>3.7 (0.21)</title><rect x="204" y="180" width="4" height="15" fill="#e8b83d"/></a>
<a href="tlg0640.tlg001.perseus-eng80.html#s3-8"><title>3.8 (0.14)</title><rect x="208" y="180" width="4" height="15" fill="#c9493b"/></a>
<a href="tlg0640.tlg001.perseus-eng80.html#s3-9"><title>3.9 (0.20)</title><rect x="212" y="180" width="4" height="15" fill="#c9493b"/></a>
<a href="tlg0640.tlg001.perseus-eng80.html#s3-10"><title>3.10 (0.19)</title><rect x="216" y="180" width="4" height="15" fill="#c9493b"/></a>
<a href="tlg0640.tlg001.perseus-eng80.html#s3-11"><title>3.11 (0.14)</title><rect x="220" y="180" width="4" height="15" fill="#c9493b"/></a>
<a href="tlg0640.tlg001.perseus-eng80.html#s3-12"><title>3.12 (0.17)</title><rect x="224" y="180" width="4" height="15" fill="#c9493b"/></a>
<a href="tlg0640.tlg001.perseus-eng80.html#s3-13"><title>3.13 (0.14)</title><rect x="228" y="180" width="4" height="15" fill="#c9493b"/></a>
<a href="tlg0640.tlg001.perseus-eng80.html#s3-14"><title>3.14 (0.00)</title><rect x="232" y="180" width="4" height="15" fill="#c9493b"/></a>
<a href="tlg0640.tlg001.perseus-eng80.html#s3-15"><title>3.15 (0.44)</title><rect x="236" y="180" width="4" height="15" fill="#e8b83d"/></a>
<a href="tlg0640.tlg001.perseus-eng80.html#s3-16"><title>3.16 (0.17)</title><rect x="240" y="180" width="4" height="15" fill="#c9493b"/></a>
<a href="tlg0640.tlg001.perseus-eng80.html#sen:3-16"><title>en:3.16 (0.00)</title><rect x="244" y="180" width="4" height="15" fill="#c9493b"/></a>
<a href="tlg0640.tlg001.perseus-eng80.html#s3-17"><title>3.17 (0.00)</title><rect x="248" y="180" width="4" height="15" fill="#c9493b"/></a>
<a href="tlg0640.tlg001.perseus-eng80.html#s3-18"><title>3.18 (0.21)</title><rect x="252" y="180" width="4" height="15" fill="#e8b83d"/></a>
<a href="tlg0640.tlg001.perseus-eng80.html#s3-19"><title>3.19 (0.03)</title><rect x="256" y="180" width="4" height="15" fill="#c9493b"/></a>
<a href="tlg0640.tlg001.perseus-eng80.html#s3-20"><title>3.20 (0.03)</title><rect x="260" y="180" width="4" height="15" fill="#c9493b"/></a>
<a href="tlg0640.tlg001.perseus-eng80.html#s3-21"><title>3.21 (0.20)</title><rect x="264" y="180" width="4" height="15" fill="#c9493b"/></a>
<a href="tlg0640.tlg001.perseus-eng80.html#s3-22"><title>3.22 (0.22)</title><rect x="268" y="180" width="4" height="15" fill="#e8b83d"/></a>
<a href="tlg0640.tlg001.perseus-eng80.html#s3-23"><title>3.23 (0.18)</title><rect x="272" y="180" width="4" height="15" fill="#c9493b"/></a>
<a href="tlg0640.tlg001.perseus-eng80.html#s3-24"><title>3.24 (0.23)</title><rect x="276" y="180" width="4" height="15" fill="#e8b83d"/></a>
<a href="tlg0640.tlg001.perseus-eng80.html#s3-25"><title>3.25 (0.10)</title><rect x="280" y="180" width="4" height="15" fill="#c9493b"/></a>
<a href="tlg0640.tlg001.perseus-eng80.html#s3-26"><title>3.26 (0.07)</title><rect x="284" y="180" width="4" height="15" fill="#c9493b"/></a>
<a href="tlg0640.tlg001.perseus-eng80.html#s3-27"><title>3.27 (0.10)</title><rect x="288" y="180" width="4" height="15" fill="#c9493b"/></a>
<a href="tlg0640.tlg001.perseus-eng80.html#sen:3-27"><title>en:3.27 (0.00)</title><rect x="292" y="180" width="4" height="15" fill="#c9493b"/></a>
<a href="tlg0640.tlg001.perseus-eng80.html#s3-28"><title>3.28 (0.00)</title><rect x="296" y="180" width="4" height="15" fill="#c9493b"/></a>
<a href="tlg0640.tlg001.perseus-eng80.html#s3-29"><title>3.29 (0.08)</title><rect x="300" y="180" width="4" height="15" fill="#c9493b"/></a>
<a href="tlg0640.tlg001.perseus-eng80.html#s3-30"><title>3.30 (0.19)</title><rect x="304" y="180" width="4" height="15" fill="#c9493b"/></a>
<a href="tlg0640.tlg001.perseus-eng80.html#s3-31"><title>3.31 (0.14)</title><rect x="308" y="180" width="4" height="15" fill="#c9493b"/></a>
<a href="tlg0640.tlg001.perseus-eng80.html#sen:3-32"><title>en:3.32 (0.00)</title><rect x="312" y="180" width="4" height="15" fill="#c9493b"/></a>
<a href="tlg0640.tlg001.perseus-eng80.html#s3-32"><title>3.32 (0.18)</title><rect x="316" y="180" width="4" height="15" fill="#c9493b"/></a>
<a href="tlg0640.tlg001.perseus-eng80.html#s3-33"><title>3.33 (0.35)</title><rect x="320" y="180" width="4" height="15" fill="#e8b83d"/></a>
<a href="tlg0640.tlg001.perseus-eng80.html#s3-34"><title>3.34 (0.33)</title><rect x="324" y="180" width="4" height="15" fill="#e8b83d"/></a>
<a href="tlg0640.tlg001.perseus-eng80.html#s3-35"><title>3.35 (0.28)</title><rect x="328" y="180" width="4" height="15" fill="#e8b83d"/></a>
<a href="tlg0640.tlg001.perseus-eng80.html#sen:3-37"><title>en:3.37 (0.00)</title><rect x="332" y="180" width="4" height="15" fill="#c9493b"/></a>
<a href="tlg0640.tlg001.perseus-eng80.html#s3-36"><title>3.36 (0.56)</title><rect x="336" y="180" width="4" height="15" fill="#2d8a4e"/></a>
<a href="tlg0640.tlg001.perseus-eng80.html#s3-37"><title>3.37 (0.32)</title><rect x="340" y="180" width="4" height="15" fill="#e8b83d"/></a>
<a href="tlg0640.tlg001.perseus-eng80.html#s3-38"><title>3.38 (0.64)</title><rect x="344" y="180" width="4" height="15" fill="#2d8a4e"/></a>
<a href="tlg0640.tlg001.perseus-eng80.html#s3-39"><title>3.39 (0.67)</title><rect x="348" y="180" width="4" height="15" fill="#2d8a4e"/></a>
<a href="tlg0640.tlg001.perseus-eng80.html#s3-40"><title>3.40 (0.74)</title><rect x="352" y="180" width="4" height="15" fill="#2d8a4e"/></a>
<a href="tlg0640.tlg001.perseus-eng80.html#s3-41"><title>3.41 (0.67)</title><rect x="356" y="180" width="4" height="15" fill="#2d8a4e"/></a>
<a href="tlg0640.tlg001.perseus-eng80.html#s3-42"><title>3.42 (0.00)</title><rect x="360" y="180" width="4" height="15" fill="#c9493b"/></a>
<text x="180" y="207" class="warn">⚠ 3.25 → 3.32  (10 sections, avg=0.086)</text>
<text x="180" y="221" class="warn">⚠ 3.8 → 3.14  (7 sections, avg=0.139)</text>
<text x="180" y="235" class="warn">⚠ 3.16 → 3.17  (3 sections, avg=0.058)</text>
<text x="20" y="256" class="label">Book 4</text>
<text x="988" y="256" class="stats">n=25  avg=0.440  H=52%  M=8%  L=40%</text>
<a href="tlg0640.tlg001.perseus-eng80.html#s4-1"><title>4.1 (0.67)</title><rect x="180" y="244" width="4" height="15" fill="#2d8a4e"/></a>
<a href="tlg0640.tlg001.perseus-eng80.html#s4-2"><title>4.2 (0.74)</title><rect x="184" y="244" width="4" height="15" fill="#2d8a4e"/></a>
<a href="tlg0640.tlg001.perseus-eng80.html#s4-3"><title>4.3 (0.67)</title><rect x="188" y="244" width="4" height="15" fill="#2d8a4e"/></a>
<a href="tlg0640.tlg001.perseus-eng80.html#s4-4"><title>4.4 (0.90)</title><rect x="192" y="244" width="4" height="15" fill="#2d8a4e"/></a>
<a href="tlg0640.tlg001.perseus-eng80.html#s4-5"><title>4.5 (0.83)</title><rect x="196" y="244" width="4" height="15" fill="#2d8a4e"/></a>
<a href="tlg0640.tlg001.perseus-eng80.html#s4-6"><title>4.6 (0.00)</title><rect x="200" y="244" width="4" height="15" fill="#c9493b"/></a>
<a href="tlg0640.tlg001.perseus-eng80.html#s4-7"><title>4.7 (0.97)</title><rect x="204" y="244" width="4" height="15" fill="#2d8a4e"/></a>
<a href="tlg0640.tlg001.perseus-eng80.html#s4-8"><title>4.8 (0.56)</title><rect x="208" y="244" width="4" height="15" fill="#2d8a4e"/></a>
<a href="tlg0640.tlg001.perseus-eng80.html#s4-9"><title>4.9 (0.37)</title><rect x="212" y="244" width="4" height="15" fill="#e8b83d"/></a>
<a href="tlg0640.tlg001.perseus-eng80.html#s4-10"><title>4.10 (0.00)</title><rect x="216" y="244" width="4" height="15" fill="#c9493b"/></a>
<a href="tlg0640.tlg001.perseus-eng80.html#s4-11"><title>4.11 (0.00)</title><rect x="220" y="244" width="4" height="15" fill="#c9493b"/></a>
<a href="tlg0640.tlg001.perseus-eng80.html#s4-12"><title>4.12 (0.58)</title><rect x="224" y="244" width="4" height="15" fill="#2d8a4e"/></a>
<a href="tlg0640.tlg001.perseus-eng80.html#s4-13-0"><title>4.13.0 (0.00)</title><rect x="228" y="244" width="4" height="15" fill="#c9493b"/></a>
<a href="tlg0640.tlg001.perseus-eng80.html#s4-13-1"><title>4.13.1 (0.52)</title><rect x="232" y="244" width="4" height="15" fill="#2d8a4e"/></a>
<a href="tlg0640.tlg001.perseus-eng80.html#s4-14"><title>4.14 (0.07)</title><rect x="236" y="244" width="4" height="15" fill="#c9493b"/></a>
<a href="tlg0640.tlg001.perseus-eng80.html#s4-15"><title>4.15 (0.77)</title><rect x="240" y="244" width="4" height="15" fill="#2d8a4e"/></a>
<a href="tlg0640.tlg001.perseus-eng80.html#s4-16-0"><title>4.16.0 (0.03)</title><rect x="244" y="244" width="4" height="15" fill="#c9493b"/></a>
<a href="tlg0640.tlg001.perseus-eng80.html#s4-16-1"><title>4.16.1 (0.14)</title><rect x="248" y="244" width="4" height="15" fill="#c9493b"/></a>
<a href="tlg0640.tlg001.perseus-eng80.html#s4-17-0"><title>4.17.0 (0.00)</title><rect x="252" y="244" width="4" height="15" fill="#c9493b"/></a>
<a href="tlg0640.tlg001.perseus-eng80.html#s4-17-1"><title>4.17.1 (0.86)</title><rect x="256" y="244" width="4" height="15" fill="#2d8a4e"/></a>
<a href="tlg0640.tlg001.perseus-eng80.html#s4-18-0"><title>4.18.0 (0.26)</title><rect x="260" y="244" width="4" height="15" fill="#e8b83d"/></a>
<a href="tlg0640.tlg001.perseus-eng80.html#s4-18-1"><title>4.18.1 (0.95)</title><rect x="264" y="244" width="4" height="15" fill="#2d8a4e"/></a>
<a href="tlg0640.tlg001.perseus-eng80.html#s4-19-0"><title>4.19.0 (0.13)</title><rect x="268" y="244" width="4" height="15" fill="#c9493b"/></a>
<a href="tlg0640.tlg001.perseus-eng80.html#s4-19-1"><title>4.19.1 (0.05)</title><rect x="272" y="244" width="4" height="15" fill="#c9493b"/></a>
<a href="tlg0640.tlg001.perseus-eng80.html#s4-19-2"><title>4.19.2 (0.94)</title><rect x="276" y="244" width="4" height="15" fill="#2d8a4e"/></a>
<text x="180" y="271" class="warn">⚠ 4.16.0 → 4.17.0  (3 sections, avg=0.060)</text>
<text x="20" y="292" class="label">Book 5</text>
<text x="988" y="292" class="stats">n=74  avg=0.000  H=0%  M=0%  L=100%</text>
<a href="tlg0640.tlg001.perseus-eng80.html#sen:5-1"><title>en:5.1 (0.00)</title><rect x="180" y="280" width="4" height="15" fill="#c9493b"/></a>
<a href="tlg0640.tlg001.perseus-eng80.html#sen:5-2"><title>en:5.2 (0.00)</title><rect x="184" y="280" width="4" height="15" fill="#c9493b"/></a>
<a href="tlg0640.tlg001.perseus-eng80.html#sen:5-3"><title>en:5.3 (0.00)</title><rect x="188" y="280" width="4" height="15" fill="#c9493b"/></a>
<a href="tlg0640.tlg001.perseus-eng80.html#sen:5-4"><title>en:5.4 (0.00)</title><rect x="192" y="280" width="4" height="15" fill="#c9493b"/></a>
<a href="tlg0640.tlg001.perseus-eng80.html#sen:5-5"><title>en:5.5 (0.00)</title><rect x="196" y="280" width="4" height="15" fill="#c9493b"/></a>
<a href="tlg0640.tlg001.perseus-eng80.html#sen:5-6"><title>en:5.6 (0.00)</title><rect x="200" y="280" width="4" height="15" fill="#c9493b"/></a>
<a href="tlg0640.tlg001.perseus-eng80.html#sen:5-7"><title>en:5.7 (0.00)</title><rect x="204" y="280" width="4" height="15" fill="#c9493b"/></a>
<a href="tlg0640.tlg001.perseus-eng80.html#sen:5-8"><title>en:5.8 (0.00)</title><rect x="208" y="280" width="4" height="15" fill="#c9493b"/></a>
<a href="tlg0640.tlg001.perseus-eng80.html#sen:5-9"><title>en:5.9 (0.00)</title><rect x="212" y="280" width="4" height="15" fill="#c9493b"/></a>
<a href="tlg0640.tlg001.perseus-eng80.html#sen:5-10"><title>en:5.10 (0.00)</title><rect x="216" y="280" width="4" height="15" fill="#c9493b"/></a>
<a href="tlg0640.tlg001.perseus-eng80.html#sen:5-11"><title>en:5.11 (0.00)</title><rect x="220" y="280" width="4" height="15" fill="#c9493b"/></a>
<a href="tlg0640.tlg001.perseus-eng80.html#sen:5-12"><title>en:5.12 (0.00)</title><rect x="224" y="280" width="4" height="15" fill="#c9493b"/></a>
<a href="tlg0640.tlg001.perseus-eng80.html#sen:5-13"><title>en:5.13 (0.00)</title><rect x="228" y="280" width="4" height="15" fill="#c9493b"/></a>
<a href="tlg0640.tlg001.perseus-eng80.html#sen:5-14"><title>en:5.14 (0.00)</title><rect x="232" y="280" width="4" height="15" fill="#c9493b"/></a>
<a href="tlg0640.tlg001.perseus-eng80.html#sen:5-15"><title>en:5.15 (0.00)</title><rect x="236" y="280" width="4" height="15" fill="#c9493b"/></a>
<a href="tlg0640.tlg001.perseus-eng80.html#sen:5-16"><title>en:5.16 (0.00)</title><rect x="240" y="280" width="4" height="15" fill="#c9493b"/></a>
<a href="tlg0640.tlg001.perseus-eng80.html#sen:5-17"><title>en:5.17 (0.00)</title><rect x="244" y="280" width="4" height="15" fill="#c9493b"/></a>
<a href="tlg0640.tlg001.perseus-eng80.html#sen:5-18"><title>en:5.18 (0.00)</title><rect x="248" y="280" width="4" height="15" fill="#c9493b"/></a>
<a href="tlg0640.tlg001.perseus-eng80.html#sen:5-19"><title>en:5.19 (0.00)</title><rect x="252" y="280" width="4" height="15" fill="#c9493b"/></a>
<a href="tlg0640.tlg001.perseus-eng80.html#sen:5-20"><title>en:5.20 (0.00)</title><rect x="256" y="280" width="4" height="15" fill="#c9493b"/></a>
<a href="tlg0640.tlg001.perseus-eng80.html#sen:5-21"><title>en:5.21 (0.00)</title><rect x="260" y="280" width="4" height="15" fill="#c9493b"/></a>
<a href="tlg0640.tlg001.perseus-eng80.html#sen:5-22"><title>en:5.22 (0.00)</title><rect x="264" y="280" width="4" height="15" fill="#c9493b"/></a>
<a href="tlg0640.tlg001.perseus-eng80.html#sen:5-23"><title>en:5.23 (0.00)</title><rect x="268" y="280" width="4" height="15" fill="#c9493b"/></a>
<a href="tlg0640.tlg001.perseus-eng80.html#sen:5-24"><title>en:5.24 (0.00)</title><rect x="272" y="280" width="4" height="15" fill="#c9493b"/></a>
<a href="tlg0640.tlg001.perseus-eng80.html#sen:5-25"><title>en:5.25 (0.00)</title><rect x="276" y="280" width="4" height="15" fill="#c9493b"/></a>
<a href="tlg0640.tlg001.perseus-eng80.html#sen:5-26"><title>en:5.26 (0.00)</title><rect x="280" y="280" width="4" height="15" fill="#c9493b"/></a>
<a href="tlg0640.tlg001.perseus-eng80.html#sen:5-27"><title>en:5.27 (0.00)</title><rect x="284" y="280" width="4" height="15" fill="#c9493b"/></a>
<a href="tlg0640.tlg001.perseus-eng80.html#sen:5-28"><title>en:5.28 (0.00)</title><rect x="288" y="280" width="4" height="15" fill="#c9493b"/></a>
<a href="tlg0640.tlg001.perseus-eng80.html#sen:5-29"><title>en:5.29 (0.00)</title><rect x="292" y="280" width="4" height="15" fill="#c9493b"/></a>
<a href="tlg0640.tlg001.perseus-eng80.html#sen:5-30"><title>en:5.30 (0.00)</title><rect x="296" y="280" width="4" height="15" fill="#c9493b"/></a>
<a href="tlg0640.tlg001.perseus-eng80.html#sen:5-31"><title>en:5.31 (0.00)</title><rect x="300" y="280" width="4" height="15" fill="#c9493b"/></a>
<a href="tlg0640.tlg001.perseus-eng80.html#sen:5-32"><title>en:5.32 (0.00)</title><rect x="304" y="280" width="4" height="15" fill="#c9493b"/></a>
<a href="tlg0640.tlg001.perseus-eng80.html#sen:5-33"><title>en:5.33 (0.00)</title><rect x="308" y="280" width="4" height="15" fill="#c9493b"/></a>
<a href="tlg0640.tlg001.perseus-eng80.html#sen:5-34"><title>en:5.34 (0.00)</title><rect x="312" y="280" width="4" height="15" fill="#c9493b"/></a>
<a href="tlg0640.tlg001.perseus-eng80.html#sen:5-35"><title>en:5.35 (0.00)</title><rect x="316" y="280" width="4" height="15" fill="#c9493b"/></a>
<a href="tlg0640.tlg001.perseus-eng80.html#sen:5-36"><title>en:5.36 (0.00)</title><rect x="320" y="280" width="4" height="15" fill="#c9493b"/></a>
<a href="tlg0640.tlg001.perseus-eng80.html#sen:5-37"><title>en:5.37 (0.00)</title><rect x="324" y="280" width="4" height="15" fill="#c9493b"/></a>
<a href="tlg0640.tlg001.perseus-eng80.html#sen:5-38"><title>en:5.38 (0.00)</title><rect x="328" y="280" width="4" height="15" fill="#c9493b"/></a>
<a href="tlg0640.tlg001.perseus-eng80.html#sen:5-39"><title>en:5.39 (0.00)</title><rect x="332" y="280" width="4" height="15" fill="#c9493b"/></a>
<a href="tlg0640.tlg001.perseus-eng80.html#sen:5-40"><title>en:5.40 (0.00)</title><rect x="336" y="280" width="4" height="15" fill="#c9493b"/></a>
<a href="tlg0640.tlg001.perseus-eng80.html#sen:5-41"><title>en:5.41 (0.00)</title><rect x="340" y="280" width="4" height="15" fill="#c9493b"/></a>
<a href="tlg0640.tlg001.perseus-eng80.html#sen:5-42"><title>en:5.42 (0.00)</title><rect x="344" y="280" width="4" height="15" fill="#c9493b"/></a>
<a href="tlg0640.tlg001.perseus-eng80.html#sen:5-43"><title>en:5.43 (0.00)</title><rect x="348" y="280" width="4" height="15" fill="#c9493b"/></a>
<a href="tlg0640.tlg001.perseus-eng80.html#sen:5-44"><title>en:5.44 (0.00)</title><rect x="352" y="280" width="4" height="15" fill="#c9493b"/></a>
<a href="tlg0640.tlg001.perseus-eng80.html#sen:5-45"><title>en:5.45 (0.00)</title><rect x="356" y="280" width="4" height="15" fill="#c9493b"/></a>
<a href="tlg0640.tlg001.perseus-eng80.html#sen:5-46"><title>en:5.46 (0.00)</title><rect x="360" y="280" width="4" height="15" fill="#c9493b"/></a>
<a href="tlg0640.tlg001.perseus-eng80.html#sen:5-47"><title>en:5.47 (0.00)</title><rect x="364" y="280" width="4" height="15" fill="#c9493b"/></a>
<a href="tlg0640.tlg001.perseus-eng80.html#sen:5-48"><title>en:5.48 (0.00)</title><rect x="368" y="280" width="4" height="15" fill="#c9493b"/></a>
<a href="tlg0640.tlg001.perseus-eng80.html#sen:5-49"><title>en:5.49 (0.00)</title><rect x="372" y="280" width="4" height="15" fill="#c9493b"/></a>
<a href="tlg0640.tlg001.perseus-eng80.html#sen:5-50"><title>en:5.50 (0.00)</title><rect x="376" y="280" width="4" height="15" fill="#c9493b"/></a>
<a href="tlg0640.tlg001.perseus-eng80.html#sen:5-51"><title>en:5.51 (0.00)</title><rect x="380" y="280" width="4" height="15" fill="#c9493b"/></a>
<a href="tlg0640.tlg001.perseus-eng80.html#sen:5-52"><title>en:5.52 (0.00)</title><rect x="384" y="280" width="4" height="15" fill="#c9493b"/></a>
<a href="tlg0640.tlg001.perseus-eng80.html#sen:5-53"><title>en:5.53 (0.00)</title><rect x="388" y="280" width="4" height="15" fill="#c9493b"/></a>
<a href="tlg0640.tlg001.perseus-eng80.html#sen:5-54"><title>en:5.54 (0.00)</title><rect x="392" y="280" width="4" height="15" fill="#c9493b"/></a>
<a href="tlg0640.tlg001.perseus-eng80.html#sen:5-55"><title>en:5.55 (0.00)</title><rect x="396" y="280" width="4" height="15" fill="#c9493b"/></a>
<a href="tlg0640.tlg001.perseus-eng80.html#sen:5-56"><title>en:5.56 (0.00)</title><rect x="400" y="280" width="4" height="15" fill="#c9493b"/></a>
<a href="tlg0640.tlg001.perseus-eng80.html#sen:5-57"><title>en:5.57 (0.00)</title><rect x="404" y="280" width="4" height="15" fill="#c9493b"/></a>
<a href="tlg0640.tlg001.perseus-eng80.html#sen:5-58"><title>en:5.58 (0.00)</title><rect x="408" y="280" width="4" height="15" fill="#c9493b"/></a>
<a href="tlg0640.tlg001.perseus-eng80.html#sen:5-59"><title>en:5.59 (0.00)</title><rect x="412" y="280" width="4" height="15" fill="#c9493b"/></a>
<a href="tlg0640.tlg001.perseus-eng80.html#sen:5-60"><title>en:5.60 (0.00)</title><rect x="416" y="280" width="4" height="15" fill="#c9493b"/></a>
<a href="tlg0640.tlg001.perseus-eng80.html#sen:5-61"><title>en:5.61 (0.00)</title><rect x="420" y="280" width="4" height="15" fill="#c9493b"/></a>
<a href="tlg0640.tlg001.perseus-eng80.html#sen:5-62"><title>en:5.62 (0.00)</title><rect x="424" y="280" width="4" height="15" fill="#c9493b"/></a>
<a href="tlg0640.tlg001.perseus-eng80.html#sen:5-63"><title>en:5.63 (0.00)</title><rect x="428" y="280" width="4" height="15" fill="#c9493b"/></a>
<a href="tlg0640.tlg001.perseus-eng80.html#sen:5-64"><title>en:5.64 (0.00)</title><rect x="432" y="280" width="4" height="15" fill="#c9493b"/></a>
<a href="tlg0640.tlg001.perseus-eng80.html#sen:5-65"><title>en:5.65 (0.00)</title><rect x="436" y="280" width="4" height="15" fill="#c9493b"/></a>
<a href="tlg0640.tlg001.perseus-eng80.html#sen:5-66"><title>en:5.66 (0.00)</title><rect x="440" y="280" width="4" height="15" fill="#c9493b"/></a>
<a href="tlg0640.tlg001.perseus-eng80.html#sen:5-67"><title>en:5.67 (0.00)</title><rect x="444" y="280" width="4" height="15" fill="#c9493b"/></a>
<a href="tlg0640.tlg001.perseus-eng80.html#sen:5-68"><title>en:5.68 (0.00)</title><rect x="448" y="280" width="4" height="15" fill="#c9493b"/></a>
<a href="tlg0640.tlg001.perseus-eng80.html#sen:5-69"><title>en:5.69 (0.00)</title><rect x="452" y="280" width="4" height="15" fill="#c9493b"/></a>
<a href="tlg0640.tlg001.perseus-eng80.html#sen:5-70"><title>en:5.70 (0.00)</title><rect x="456" y="280" width="4" height="15" fill="#c9493b"/></a>
<a href="tlg0640.tlg001.perseus-eng80.html#sen:5-71"><title>en:5.71 (0.00)</title><rect x="460" y="280" width="4" height="15" fill="#c9493b"/></a>
<a href="tlg0640.tlg001.perseus-eng80.html#sen:5-72"><title>en:5.72 (0.00)</title><rect x="464" y="280" width="4" height="15" fill="#c9493b"/></a>
<a href="tlg0640.tlg001.perseus-eng80.html#sen:5-73"><title>en:5.73 (0.00)</title><rect x="468" y="280" width="4" height="15" fill="#c9493b"/></a>
<a href="tlg0640.tlg001.perseus-eng80.html#sen:5-74"><title>en:5.74 (0.00)</title><rect x="472" y="280" width="4" height="15" fill="#c9493b"/></a>
<text x="180" y="307" class="warn">⚠ en:5.1 → en:5.74  (74 sections, avg=0.000)</text>
<text x="20" y="328" class="label">Book 6</text>
<text x="988" y="328" class="stats">n=1  avg=0.000  H=0%  M=0%  L=100%</text>
<a href="tlg0640.tlg001.perseus-eng80.html#sen:6-1"><title>en:6.1 (0.00)</title><rect x="180" y="316" width="4" height="15" fill="#c9493b"/></a>
<text x="20" y="350" class="label">Book 7</text>
<text x="988" y="350" class="stats">n=9  avg=0.000  H=0%  M=0%  L=100%</text>
<a href="tlg0640.tlg001.perseus-eng80.html#sen:7-1"><title>en:7.1 (0.00)</title><rect x="180" y="338" width="4" height="15" fill="#c9493b"/></a>
<a href="tlg0640.tlg001.perseus-eng80.html#sen:7-2"><title>en:7.2 (0.00)</title><rect x="184" y="338" width="4" height="15" fill="#c9493b"/></a>
<a href="tlg0640.tlg001.perseus-eng80.html#sen:7-3"><title>en:7.3 (0.00)</title><rect x="188" y="338" width="4" height="15" fill="#c9493b"/></a>
<a href="tlg0640.tlg001.perseus-eng80.html#sen:7-4"><title>en:7.4 (0.00)</title><rect x="192" y="338" width="4" height="15" fill="#c9493b"/></a>
<a href="tlg0640.tlg001.perseus-eng80.html#sen:7-5"><title>en:7.5 (0.00)</title><rect x="196" y="338" width="4" height="15" fill="#c9493b"/></a>
<a href="tlg0640.tlg001.perseus-eng80.html#sen:7-6"><title>en:7.6 (0.00)</title><rect x="200" y="338" width="4" height="15" fill="#c9493b"/></a>
<a href="tlg0640.tlg001.perseus-eng80.html#sen:7-7"><title>en:7.7 (0.00)</title><rect x="204" y="338" width="4" height="15" fill="#c9493b"/></a>
<a href="tlg0640.tlg001.perseus-eng80.html#sen:7-8"><title>en:7.8 (0.00)</title><rect x="208" y="338" width="4" height="15" fill="#c9493b"/></a>
<a href="tlg0640.tlg001.perseus-eng80.html#sen:7-9"><title>en:7.9 (0.00)</title><rect x="212" y="338" width="4" height="15" fill="#c9493b"/></a>
<text x="180" y="365" class="warn">⚠ en:7.1 → en:7.9  (9 sections, avg=0.000)</text>
<line x1="20" y1="379" x2="1200" y2="379" stroke="#ccc" stroke-width="1"/>
<text x="20" y="399" class="total">TOTAL: 219 sections   avg=0.109   High=10%   Med=8%   Low=83%</text>
<rect x="20" y="406" width="113.15068493150685" height="10" fill="#2d8a4e" rx="2"/>
<rect x="133.15068493150685" y="406" width="91.59817351598173" height="10" fill="#e8b83d"/>
<rect x="224.74885844748857" y="406" width="975.2511415525114" height="10" fill="#c9493b" rx="2"/>
</svg>