<svg xmlns="http://www.w3.org/2000/svg" width="1220" height="538" viewBox="0 0 1220 538">
<rect width="1220" height="538" fill="#f5f5f5"/>
<style>
  text { font-family: "SF Mono", "Menlo", "Monaco", monospace; }
  .title { font-size: 16px; font-weight: bold; }
  .subtitle { font-size: 11px; fill: #888; }
  .label { font-size: 11px; fill: #333; }
  .stats { font-size: 10px; fill: #666; }
  .warn { font-size: 9px; fill: #c9493b; }
  .total { font-size: 12px; font-weight: bold; fill: #333; }
  .legend-text { font-size: 10px; fill: #555; }
</style>
<text x="20" y="38" class="title">Alignment Quality Map — Alignment</text>
<rect x="20" y="50" width="12" height="12" fill="#2d8a4e" rx="2"/>
<text x="36" y="60" class="legend-text">High (≥0.6)</text>
<rect x="160" y="50" width="12" height="12" fill="#e8b83d" rx="2"/>
<text x="176" y="60" class="legend-text">Medium (0.3–0.6)</text>
<rect x="300" y="50" width="12" height="12" fill="#c9493b" rx="2"/>
<text x="316" y="60" class="legend-text">Low (&lt;0.3)</text>
<text x="20" y="92" class="label">Book 1</text>
<text x="988" y="92" class="stats">n=60  avg=0.434  H=22%  M=48%  L=30%</text>
<rect x="180" y="80" width="4" height="15" fill="#e8b83d"/>
<rect x="184" y="80" width="4" height="15" fill="#e8b83d"/>
<rect x="188" y="80" width="4" height="15" fill="#2d8a4e"/>
<rect x="192" y="80" width="4" height="15" fill="#2d8a4e"/>
<rect x="196" y="80" width="4" height="15" fill="#e8b83d"/>
<rect x="200" y="80" width="4" height="15" fill="#e8b83d"/>
<rect x="204" y="80" width="4" height="15" fill="#e8b83d"/>
<rect x="208" y="80" width="4" height="15" fill="#e8b83d"/>
<rect x="212" y="80" width="4" height="15" fill="#e8b83d"/>
<rect x="216" y="80" width="4" height="15" fill="#e8b83d"/>
<rect x="220" y="80" width="4" height="15" fill="#e8b83d"/>
<rect x="224" y="80" width="4" height="15" fill="#2d8a4e"/>
<rect x="228" y="80" width="4" height="15" fill="#e8b83d"/>
<rect x="232" y="80" width="4" height="15" fill="#2d8a4e"/>
<rect x="236" y="80" width="4" height="15" fill="#2d8a4e"/>
<rect x="240" y="80" width="4" height="15" fill="#2d8a4e"/>
<rect x="244" y="80" width="4" height="15" fill="#c9493b"/>
<rect x="248" y="80" width="4" height="15" fill="#c9493b"/>
<rect x="252" y="80" width="4" height="15" fill="#e8b83d"/>
<rect x="256" y="80" width="4" height="15" fill="#e8b83d"/>
<rect x="260" y="80" width="4" height="15" fill="#2d8a4e"/>
<rect x="264" y="80" width="4" height="15" fill="#e8b83d"/>
<rect x="268" y="80" width="4" height="15" fill="#c9493b"/>
<rect x="272" y="80" width="4" height="15" fill="#c9493b"/>
<rect x="276" y="80" width="4" height="15" fill="#c9493b"/>
<rect x="280" y="80" width="4" height="15" fill="#e8b83d"/>
<rect x="284" y="80" width="4" height="15" fill="#c9493b"/>
<rect x="288" y="80" width="4" height="15" fill="#c9493b"/>
<rect x="292" y="80" width="4" height="15" fill="#c9493b"/>
<rect x="296" y="80" width="4" height="15" fill="#c9493b"/>
<rect x="300" y="80" width="4" height="15" fill="#c9493b"/>
<rect x="304" y="80" width="4" height="15" fill="#e8b83d"/>
<rect x="308" y="80" width="4" height="15" fill="#c9493b"/>
<rect x="312" y="80" width="4" height="15" fill="#c9493b"/>
<rect x="316" y="80" width="4" height="15" fill="#c9493b"/>
<rect x="320" y="80" width="4" height="15" fill="#e8b83d"/>
<rect x="324" y="80" width="4" height="15" fill="#e8b83d"/>
<rect x="328" y="80" width="4" height="15" fill="#e8b83d"/>
<rect x="332" y="80" width="4" height="15" fill="#e8b83d"/>
<rect x="336" y="80" width="4" height="15" fill="#e8b83d"/>
<rect x="340" y="80" width="4" height="15" fill="#2d8a4e"/>
<rect x="344" y="80" width="4" height="15" fill="#e8b83d"/>
<rect x="348" y="80" width="4" height="15" fill="#c9493b"/>
<rect x="352" y="80" width="4" height="15" fill="#e8b83d"/>
<rect x="356" y="80" width="4" height="15" fill="#c9493b"/>
<rect x="360" y="80" width="4" height="15" fill="#c9493b"/>
<rect x="364" y="80" width="4" height="15" fill="#e8b83d"/>
<rect x="368" y="80" width="4" height="15" fill="#e8b83d"/>
<rect x="372" y="80" width="4" height="15" fill="#c9493b"/>
<rect x="376" y="80" width="4" height="15" fill="#e8b83d"/>
<rect x="380" y="80" width="4" height="15" fill="#e8b83d"/>
<rect x="384" y="80" width="4" height="15" fill="#2d8a4e"/>
<rect x="388" y="80" width="4" height="15" fill="#e8b83d"/>
<rect x="392" y="80" width="4" height="15" fill="#c9493b"/>
<rect x="396" y="80" width="4" height="15" fill="#2d8a4e"/>
<rect x="400" y="80" width="4" height="15" fill="#2d8a4e"/>
<rect x="404" y="80" width="4" height="15" fill="#e8b83d"/>
<rect x="408" y="80" width="4" height="15" fill="#2d8a4e"/>
<rect x="412" y="80" width="4" height="15" fill="#e8b83d"/>
<rect x="416" y="80" width="4" height="15" fill="#2d8a4e"/>
<text x="180" y="107" class="warn">⚠ 1.15 → 1.17  (5 sections, avg=0.215)</text>
<text x="180" y="121" class="warn">⚠ 1.13 → 1.14  (3 sections, avg=0.273)</text>
<text x="180" y="135" class="warn">⚠ 1.18 → 1.19  (3 sections, avg=0.175)</text>
<text x="20" y="156" class="label">Book 2</text>
<text x="988" y="156" class="stats">n=58  avg=0.543  H=41%  M=47%  L=12%</text>
<rect x="180" y="144" width="4" height="15" fill="#2d8a4e"/>
<rect x="184" y="144" width="4" height="15" fill="#e8b83d"/>
<rect x="188" y="144" width="4" height="15" fill="#2d8a4e"/>
<rect x="192" y="144" width="4" height="15" fill="#e8b83d"/>
<rect x="196" y="144" width="4" height="15" fill="#2d8a4e"/>
<rect x="200" y="144" width="4" height="15" fill="#2d8a4e"/>
<rect x="204" y="144" width="4" height="15" fill="#2d8a4e"/>
<rect x="208" y="144" width="4" height="15" fill="#2d8a4e"/>
<rect x="212" y="144" width="4" height="15" fill="#2d8a4e"/>
<rect x="216" y="144" width="4" height="15" fill="#2d8a4e"/>
<rect x="220" y="144" width="4" height="15" fill="#e8b83d"/>
<rect x="224" y="144" width="4" height="15" fill="#c9493b"/>
<rect x="228" y="144" width="4" height="15" fill="#2d8a4e"/>
<rect x="232" y="144" width="4" height="15" fill="#2d8a4e"/>
<rect x="236" y="144" width="4" height="15" fill="#e8b83d"/>
<rect x="240" y="144" width="4" height="15" fill="#e8b83d"/>
<rect x="244" y="144" width="4" height="15" fill="#e8b83d"/>
<rect x="248" y="144" width="4" height="15" fill="#e8b83d"/>
<rect x="252" y="144" width="4" height="15" fill="#2d8a4e"/>
<rect x="256" y="144" width="4" height="15" fill="#2d8a4e"/>
<rect x="260" y="144" width="4" height="15" fill="#e8b83d"/>
<rect x="264" y="144" width="4" height="15" fill="#2d8a4e"/>
<rect x="268" y="144" width="4" height="15" fill="#2d8a4e"/>
<rect x="272" y="144" width="4" height="15" fill="#2d8a4e"/>
<rect x="276" y="144" width="4" height="15" fill="#e8b83d"/>
<rect x="280" y="144" width="4" height="15" fill="#2d8a4e"/>
<rect x="284" y="144" width="4" height="15" fill="#2d8a4e"/>
<rect x="288" y="144" width="4" height="15" fill="#e8b83d"/>
<rect x="292" y="144" width="4" height="15" fill="#2d8a4e"/>
<rect x="296" y="144" width="4" height="15" fill="#e8b83d"/>
<rect x="300" y="144" width="4" height="15" fill="#e8b83d"/>
<rect x="304" y="144" width="4" height="15" fill="#e8b83d"/>
<rect x="308" y="144" width="4" height="15" fill="#e8b83d"/>
<rect x="312" y="144" width="4" height="15" fill="#e8b83d"/>
<rect x="316" y="144" width="4" height="15" fill="#e8b83d"/>
<rect x="320" y="144" width="4" height="15" fill="#2d8a4e"/>
<rect x="324" y="144" width="4" height="15" fill="#2d8a4e"/>
<rect x="328" y="144" width="4" height="15" fill="#2d8a4e"/>
<rect x="332" y="144" width="4" height="15" fill="#2d8a4e"/>
<rect x="336" y="144" width="4" height="15" fill="#2d8a4e"/>
<rect x="340" y="144" width="4" height="15" fill="#c9493b"/>
<rect x="344" y="144" width="4" height="15" fill="#c9493b"/>
<rect x="348" y="144" width="4" height="15" fill="#e8b83d"/>
<rect x="352" y="144" width="4" height="15" fill="#e8b83d"/>
<rect x="356" y="144" width="4" height="15" fill="#e8b83d"/>
<rect x="360" y="144" width="4" height="15" fill="#e8b83d"/>
<rect x="364" y="144" width="4" height="15" fill="#e8b83d"/>
<rect x="368" y="144" width="4" height="15" fill="#e8b83d"/>
<rect x="372" y="144" width="4" height="15" fill="#e8b83d"/>
<rect x="376" y="144" width="4" height="15" fill="#2d8a4e"/>
<rect x="380" y="144" width="4" height="15" fill="#c9493b"/>
<rect x="384" y="144" width="4" height="15" fill="#c9493b"/>
<rect x="388" y="144" width="4" height="15" fill="#c9493b"/>
<rect x="392" y="144" width="4" height="15" fill="#c9493b"/>
<rect x="396" y="144" width="4" height="15" fill="#e8b83d"/>
<rect x="400" y="144" width="4" height="15" fill="#e8b83d"/>
<rect x="404" y="144" width="4" height="15" fill="#e8b83d"/>
<rect x="408" y="144" width="4" height="15" fill="#e8b83d"/>
<text x="180" y="171" class="warn">⚠ 2.33 → 2.34  (4 sections, avg=0.138)</text>
<text x="20" y="192" class="label">Book 3</text>
<text x="988" y="192" class="stats">n=37  avg=0.484  H=30%  M=54%  L=16%</text>
<rect x="180" y="180" width="4" height="15" fill="#2d8a4e"/>
<rect x="184" y="180" width="4" height="15" fill="#2d8a4e"/>
<rect x="188" y="180" width="4" height="15" fill="#2d8a4e"/>
<rect x="192" y="180" width="4" height="15" fill="#e8b83d"/>
<rect x="196" y="180" width="4" height="15" fill="#e8b83d"/>
<rect x="200" y="180" width="4" height="15" fill="#e8b83d"/>
<rect x="204" y="180" width="4" height="15" fill="#c9493b"/>
<rect x="208" y="180" width="4" height="15" fill="#e8b83d"/>
<rect x="212" y="180" width="4" height="15" fill="#e8b83d"/>
<rect x="216" y="180" width="4" height="15" fill="#e8b83d"/>
<rect x="220" y="180" width="4" height="15" fill="#2d8a4e"/>
<rect x="224" y="180" width="4" height="15" fill="#e8b83d"/>
<rect x="228" y="180" width="4" height="15" fill="#2d8a4e"/>
<rect x="232" y="180" width="4" height="15" fill="#2d8a4e"/>
<rect x="236" y="180" width="4" height="15" fill="#2d8a4e"/>
<rect x="240" y="180" width="4" height="15" fill="#e8b83d"/>
<rect x="244" y="180" width="4" height="15" fill="#e8b83d"/>
<rect x="248" y="180" width="4" height="15" fill="#e8b83d"/>
<rect x="252" y="180" width="4" height="15" fill="#e8b83d"/>
<rect x="256" y="180" width="4" height="15" fill="#c9493b"/>
<rect x="260" y="180" width="4" height="15" fill="#c9493b"/>
<rect x="264" y="180" width="4" height="15" fill="#c9493b"/>
<rect x="268" y="180" width="4" height="15" fill="#e8b83d"/>
<rect x="272" y="180" width="4" height="15" fill="#e8b83d"/>
<rect x="276" y="180" width="4" height="15" fill="#c9493b"/>
<rect x="280" y="180" width="4" height="15" fill="#2d8a4e"/>
<rect x="284" y="180" width="4" height="15" fill="#e8b83d"/>
<rect x="288" y="180" width="4" height="15" fill="#e8b83d"/>
<rect x="292" y="180" width="4" height="15" fill="#e8b83d"/>
<rect x="296" y="180" width="4" height="15" fill="#2d8a4e"/>
<rect x="300" y="180" width="4" height="15" fill="#2d8a4e"/>
<rect x="304" y="180" width="4" height="15" fill="#c9493b"/>
<rect x="308" y="180" width="4" height="15" fill="#e8b83d"/>
<rect x="312" y="180" width="4" height="15" fill="#e8b83d"/>
<rect x="316" y="180" width="4" height="15" fill="#2d8a4e"/>
<rect x="320" y="180" width="4" height="15" fill="#e8b83d"/>
<rect x="324" y="180" width="4" height="15" fill="#e8b83d"/>
<text x="180" y="207" class="warn">⚠ 3.11 → 3.12  (3 sections, avg=0.109)</text>
<text x="20" y="228" class="label">Book 4</text>
<text x="988" y="228" class="stats">n=44  avg=0.397  H=16%  M=52%  L=32%</text>
<rect x="180" y="216" width="4" height="15" fill="#2d8a4e"/>
<rect x="184" y="216" width="4" height="15" fill="#2d8a4e"/>
<rect x="188" y="216" width="4" height="15" fill="#e8b83d"/>
<rect x="192" y="216" width="4" height="15" fill="#e8b83d"/>
<rect x="196" y="216" width="4" height="15" fill="#e8b83d"/>
<rect x="200" y="216" width="4" height="15" fill="#e8b83d"/>
<rect x="204" y="216" width="4" height="15" fill="#e8b83d"/>
<rect x="208" y="216" width="4" height="15" fill="#e8b83d"/>
<rect x="212" y="216" width="4" height="15" fill="#c9493b"/>
<rect x="216" y="216" width="4" height="15" fill="#c9493b"/>
<rect x="220" y="216" width="4" height="15" fill="#e8b83d"/>
<rect x="224" y="216" width="4" height="15" fill="#2d8a4e"/>
<rect x="228" y="216" width="4" height="15" fill="#2d8a4e"/>
<rect x="232" y="216" width="4" height="15" fill="#2d8a4e"/>
<rect x="236" y="216" width="4" height="15" fill="#c9493b"/>
<rect x="240" y="216" width="4" height="15" fill="#c9493b"/>
<rect x="244" y="216" width="4" height="15" fill="#c9493b"/>
<rect x="248" y="216" width="4" height="15" fill="#c9493b"/>
<rect x="252" y="216" width="4" height="15" fill="#c9493b"/>
<rect x="256" y="216" width="4" height="15" fill="#c9493b"/>
<rect x="260" y="216" width="4" height="15" fill="#c9493b"/>
<rect x="264" y="216" width="4" height="15" fill="#e8b83d"/>
<rect x="268" y="216" width="4" height="15" fill="#e8b83d"/>
<rect x="272" y="216" width="4" height="15" fill="#e8b83d"/>
<rect x="276" y="216" width="4" height="15" fill="#e8b83d"/>
<rect x="280" y="216" width="4" height="15" fill="#2d8a4e"/>
<rect x="284" y="216" width="4" height="15" fill="#e8b83d"/>
<rect x="288" y="216" width="4" height="15" fill="#e8b83d"/>
<rect x="292" y="216" width="4" height="15" fill="#e8b83d"/>
<rect x="296" y="216" width="4" height="15" fill="#e8b83d"/>
<rect x="300" y="216" width="4" height="15" fill="#e8b83d"/>
<rect x="304" y="216" width="4" height="15" fill="#c9493b"/>
<rect x="308" y="216" width="4" height="15" fill="#e8b83d"/>
<rect x="312" y="216" width="4" height="15" fill="#e8b83d"/>
<rect x="316" y="216" width="4" height="15" fill="#e8b83d"/>
<rect x="320" y="216" width="4" height="15" fill="#2d8a4e"/>
<rect x="324" y="216" width="4" height="15" fill="#c9493b"/>
<rect x="328" y="216" width="4" height="15" fill="#c9493b"/>
<rect x="332" y="216" width="4" height="15" fill="#e8b83d"/>
<rect x="336" y="216" width="4" height="15" fill="#e8b83d"/>
<rect x="340" y="216" width="4" height="15" fill="#e8b83d"/>
<rect x="344" y="216" width="4" height="15" fill="#e8b83d"/>
<rect x="348" y="216" width="4" height="15" fill="#c9493b"/>
<rect x="352" y="216" width="4" height="15" fill="#c9493b"/>
<text x="180" y="243" class="warn">⚠ 4.8 → 4.11  (7 sections, avg=0.216)</text>
<text x="20" y="264" class="label">Book 5</text>
<text x="988" y="264" class="stats">n=74  avg=0.000  H=0%  M=0%  L=100%</text>
<rect x="180" y="252" width="4" height="15" fill="#c9493b"/>
<rect x="184" y="252" width="4" height="15" fill="#c9493b"/>
<rect x="188" y="252" width="4" height="15" fill="#c9493b"/>
<rect x="192" y="252" width="4" height="15" fill="#c9493b"/>
<rect x="196" y="252" width="4" height="15" fill="#c9493b"/>
<rect x="200" y="252" width="4" height="15" fill="#c9493b"/>
<rect x="204" y="252" width="4" height="15" fill="#c9493b"/>
<rect x="208" y="252" width="4" height="15" fill="#c9493b"/>
<rect x="212" y="252" width="4" height="15" fill="#c9493b"/>
<rect x="216" y="252" width="4" height="15" fill="#c9493b"/>
<rect x="220" y="252" width="4" height="15" fill="#c9493b"/>
<rect x="224" y="252" width="4" height="15" fill="#c9493b"/>
<rect x="228" y="252" width="4" height="15" fill="#c9493b"/>
<rect x="232" y="252" width="4" height="15" fill="#c9493b"/>
<rect x="236" y="252" width="4" height="15" fill="#c9493b"/>
<rect x="240" y="252" width="4" height="15" fill="#c9493b"/>
<rect x="244" y="252" width="4" height="15" fill="#c9493b"/>
<rect x="248" y="252" width="4" height="15" fill="#c9493b"/>
<rect x="252" y="252" width="4" height="15" fill="#c9493b"/>
<rect x="256" y="252" width="4" height="15" fill="#c9493b"/>
<rect x="260" y="252" width="4" height="15" fill="#c9493b"/>
<rect x="264" y="252" width="4" height="15" fill="#c9493b"/>
<rect x="268" y="252" width="4" height="15" fill="#c9493b"/>
<rect x="272" y="252" width="4" height="15" fill="#c9493b"/>
<rect x="276" y="252" width="4" height="15" fill="#c9493b"/>
<rect x="280" y="252" width="4" height="15" fill="#c9493b"/>
<rect x="284" y="252" width="4" height="15" fill="#c9493b"/>
<rect x="288" y="252" width="4" height="15" fill="#c9493b"/>
<rect x="292" y="252" width="4" height="15" fill="#c9493b"/>
<rect x="296" y="252" width="4" height="15" fill="#c9493b"/>
<rect x="300" y="252" width="4" height="15" fill="#c9493b"/>
<rect x="304" y="252" width="4" height="15" fill="#c9493b"/>
<rect x="308" y="252" width="4" height="15" fill="#c9493b"/>
<rect x="312" y="252" width="4" height="15" fill="#c9493b"/>
<rect x="316" y="252" width="4" height="15" fill="#c9493b"/>
<rect x="320" y="252" width="4" height="15" fill="#c9493b"/>
<rect x="324" y="252" width="4" height="15" fill="#c9493b"/>
<rect x="328" y="252" width="4" height="15" fill="#c9493b"/>
<rect x="332" y="252" width="4" height="15" fill="#c9493b"/>
<rect x="336" y="252" width="4" height="15" fill="#c9493b"/>
<rect x="340" y="252" width="4" height="15" fill="#c9493b"/>
<rect x="344" y="252" width="4" height="15" fill="#c9493b"/>
<rect x="348" y="252" width="4" height="15" fill="#c9493b"/>
<rect x="352" y="252" width="4" height="15" fill="#c9493b"/>
<rect x="356" y="252" width="4" height="15" fill="#c9493b"/>
<rect x="360" y="252" width="4" height="15" fill="#c9493b"/>
<rect x="364" y="252" width="4" height="15" fill="#c9493b"/>
<rect x="368" y="252" width="4" height="15" fill="#c9493b"/>
<rect x="372" y="252" width="4" height="15" fill="#c9493b"/>
<rect x="376" y="252" width="4" height="15" fill="#c9493b"/>
<rect x="380" y="252" width="4" height="15" fill="#c9493b"/>
<rect x="384" y="252" width="4" height="15" fill="#c9493b"/>
<rect x="388" y="252" width="4" height="15" fill="#c9493b"/>
<rect x="392" y="252" width="4" height="15" fill="#c9493b"/>
<rect x="396" y="252" width="4" height="15" fill="#c9493b"/>
<rect x="400" y="252" width="4" height="15" fill="#c9493b"/>
<rect x="404" y="252" width="4" height="15" fill="#c9493b"/>
<rect x="408" y="252" width="4" height="15" fill="#c9493b"/>
<rect x="412" y="252" width="4" height="15" fill="#c9493b"/>
<rect x="416" y="252" width="4" height="15" fill="#c9493b"/>
<rect x="420" y="252" width="4" height="15" fill="#c9493b"/>
<rect x="424" y="252" width="4" height="15" fill="#c9493b"/>
<rect x="428" y="252" width="4" height="15" fill="#c9493b"/>
<rect x="432" y="252" width="4" height="15" fill="#c9493b"/>
<rect x="436" y="252" width="4" height="15" fill="#c9493b"/>
<rect x="440" y="252" width="4" height="15" fill="#c9493b"/>
<rect x="444" y="252" width="4" height="15" fill="#c9493b"/>
<rect x="448" y="252" width="4" height="15" fill="#c9493b"/>
<rect x="452" y="252" width="4" height="15" fill="#c9493b"/>
<rect x="456" y="252" width="4" height="15" fill="#c9493b"/>
<rect x="460" y="252" width="4" height="15" fill="#c9493b"/>
<rect x="464" y="252" width="4" height="15" fill="#c9493b"/>
<rect x="468" y="252" width="4" height="15" fill="#c9493b"/>
<rect x="472" y="252" width="4" height="15" fill="#c9493b"/>
<text x="180" y="279" class="warn">⚠ en:5.1 → en:5.72  (74 sections, avg=0.000)</text>
<text x="20" y="300" class="label">Book 6</text>
<text x="988" y="300" class="stats">n=33  avg=0.000  H=0%  M=0%  L=100%</text>
<rect x="180" y="288" width="4" height="15" fill="#c9493b"/>
<rect x="184" y="288" width="4" height="15" fill="#c9493b"/>
<rect x="188" y="288" width="4" height="15" fill="#c9493b"/>
<rect x="192" y="288" width="4" height="15" fill="#c9493b"/>
<rect x="196" y="288" width="4" height="15" fill="#c9493b"/>
<rect x="200" y="288" width="4" height="15" fill="#c9493b"/>
<rect x="204" y="288" width="4" height="15" fill="#c9493b"/>
<rect x="208" y="288" width="4" height="15" fill="#c9493b"/>
<rect x="212" y="288" width="4" height="15" fill="#c9493b"/>
<rect x="216" y="288" width="4" height="15" fill="#c9493b"/>
<rect x="220" y="288" width="4" height="15" fill="#c9493b"/>
<rect x="224" y="288" width="4" height="15" fill="#c9493b"/>
<rect x="228" y="288" width="4" height="15" fill="#c9493b"/>
<rect x="232" y="288" width="4" height="15" fill="#c9493b"/>
<rect x="236" y="288" width="4" height="15" fill="#c9493b"/>
<rect x="240" y="288" width="4" height="15" fill="#c9493b"/>
<rect x="244" y="288" width="4" height="15" fill="#c9493b"/>
<rect x="248" y="288" width="4" height="15" fill="#c9493b"/>
<rect x="252" y="288" width="4" height="15" fill="#c9493b"/>
<rect x="256" y="288" width="4" height="15" fill="#c9493b"/>
<rect x="260" y="288" width="4" height="15" fill="#c9493b"/>
<rect x="264" y="288" width="4" height="15" fill="#c9493b"/>
<rect x="268" y="288" width="4" height="15" fill="#c9493b"/>
<rect x="272" y="288" width="4" height="15" fill="#c9493b"/>
<rect x="276" y="288" width="4" height="15" fill="#c9493b"/>
<rect x="280" y="288" width="4" height="15" fill="#c9493b"/>
<rect x="284" y="288" width="4" height="15" fill="#c9493b"/>
<rect x="288" y="288" width="4" height="15" fill="#c9493b"/>
<rect x="292" y="288" width="4" height="15" fill="#c9493b"/>
<rect x="296" y="288" width="4" height="15" fill="#c9493b"/>
<rect x="300" y="288" width="4" height="15" fill="#c9493b"/>
<rect x="304" y="288" width="4" height="15" fill="#c9493b"/>
<rect x="308" y="288" width="4" height="15" fill="#c9493b"/>
<text x="180" y="315" class="warn">⚠ en:6.1 → en:6.32  (33 sections, avg=0.000)</text>
<text x="20" y="336" class="label">Book 7</text>
<text x="988" y="336" class="stats">n=95  avg=0.000  H=0%  M=0%  L=100%</text>
<rect x="180" y="324" width="4" height="15" fill="#c9493b"/>
<rect x="184" y="324" width="4" height="15" fill="#c9493b"/>
<rect x="188" y="324" width="4" height="15" fill="#c9493b"/>
<rect x="192" y="324" width="4" height="15" fill="#c9493b"/>
<rect x="196" y="324" width="4" height="15" fill="#c9493b"/>
<rect x="200" y="324" width="4" height="15" fill="#c9493b"/>
<rect x="204" y="324" width="4" height="15" fill="#c9493b"/>
<rect x="208" y="324" width="4" height="15" fill="#c9493b"/>
<rect x="212" y="324" width="4" height="15" fill="#c9493b"/>
<rect x="216" y="324" width="4" height="15" fill="#c9493b"/>
<rect x="220" y="324" width="4" height="15" fill="#c9493b"/>
<rect x="224" y="324" width="4" height="15" fill="#c9493b"/>
<rect x="228" y="324" width="4" height="15" fill="#c9493b"/>
<rect x="232" y="324" width="4" height="15" fill="#c9493b"/>
<rect x="236" y="324" width="4" height="15" fill="#c9493b"/>
<rect x="240" y="324" width="4" height="15" fill="#c9493b"/>
<rect x="244" y="324" width="4" height="15" fill="#c9493b"/>
<rect x="248" y="324" width="4" height="15" fill="#c9493b"/>
<rect x="252" y="324" width="4" height="15" fill="#c9493b"/>
<rect x="256" y="324" width="4" height="15" fill="#c9493b"/>
<rect x="260" y="324" width="4" height="15" fill="#c9493b"/>
<rect x="264" y="324" width="4" height="15" fill="#c9493b"/>
<rect x="268" y="324" width="4" height="15" fill="#c9493b"/>
<rect x="272" y="324" width="4" height="15" fill="#c9493b"/>
<rect x="276" y="324" width="4" height="15" fill="#c9493b"/>
<rect x="280" y="324" width="4" height="15" fill="#c9493b"/>
<rect x="284" y="324" width="4" height="15" fill="#c9493b"/>
<rect x="288" y="324" width="4" height="15" fill="#c9493b"/>
<rect x="292" y="324" width="4" height="15" fill="#c9493b"/>
<rect x="296" y="324" width="4" height="15" fill="#c9493b"/>
<rect x="300" y="324" width="4" height="15" fill="#c9493b"/>
<rect x="304" y="324" width="4" height="15" fill="#c9493b"/>
<rect x="308" y="324" width="4" height="15" fill="#c9493b"/>
<rect x="312" y="324" width="4" height="15" fill="#c9493b"/>
<rect x="316" y="324" width="4" height="15" fill="#c9493b"/>
<rect x="320" y="324" width="4" height="15" fill="#c9493b"/>
<rect x="324" y="324" width="4" height="15" fill="#c9493b"/>
<rect x="328" y="324" width="4" height="15" fill="#c9493b"/>
<rect x="332" y="324" width="4" height="15" fill="#c9493b"/>
<rect x="336" y="324" width="4" height="15" fill="#c9493b"/>
<rect x="340" y="324" width="4" height="15" fill="#c9493b"/>
<rect x="344" y="324" width="4" height="15" fill="#c9493b"/>
<rect x="348" y="324" width="4" height="15" fill="#c9493b"/>
<rect x="352" y="324" width="4" height="15" fill="#c9493b"/>
<rect x="356" y="324" width="4" height="15" fill="#c9493b"/>
<rect x="360" y="324" width="4" height="15" fill="#c9493b"/>
<rect x="364" y="324" width="4" height="15" fill="#c9493b"/>
<rect x="368" y="324" width="4" height="15" fill="#c9493b"/>
<rect x="372" y="324" width="4" height="15" fill="#c9493b"/>
<rect x="376" y="324" width="4" height="15" fill="#c9493b"/>
<rect x="380" y="324" width="4" height="15" fill="#c9493b"/>
<rect x="384" y="324" width="4" height="15" fill="#c9493b"/>
<rect x="388" y="324" width="4" height="15" fill="#c9493b"/>
<rect x="392" y="324" width="4" height="15" fill="#c9493b"/>
<rect x="396" y="324" width="4" height="15" fill="#c9493b"/>
<rect x="400" y="324" width="4" height="15" fill="#c9493b"/>
<rect x="404" y="324" width="4" height="15" fill="#c9493b"/>
<rect x="408" y="324" width="4" height="15" fill="#c9493b"/>
<rect x="412" y="324" width="4" height="15" fill="#c9493b"/>
<rect x="416" y="324" width="4" height="15" fill="#c9493b"/>
<rect x="420" y="324" width="4" height="15" fill="#c9493b"/>
<rect x="424" y="324" width="4" height="15" fill="#c9493b"/>
<rect x="428" y="324" width="4" height="15" fill="#c9493b"/>
<rect x="432" y="324" width="4" height="15" fill="#c9493b"/>
<rect x="436" y="324" width="4" height="15" fill="#c9493b"/>
<rect x="440" y="324" width="4" height="15" fill="#c9493b"/>
<rect x="444" y="324" width="4" height="15" fill="#c9493b"/>
<rect x="448" y="324" width="4" height="15" fill="#c9493b"/>
<rect x="452" y="324" width="4" height="15" fill="#c9493b"/>
<rect x="456" y="324" width="4" height="15" fill="#c9493b"/>
<rect x="460" y="324" width="4" height="15" fill="#c9493b"/>
<rect x="464" y="324" width="4" height="15" fill="#c9493b"/>
<rect x="468" y="324" width="4" height="15" fill="#c9493b"/>
<rect x="472" y="324" width="4" height="15" fill="#c9493b"/>
<rect x="476" y="324" width="4" height="15" fill="#c9493b"/>
<rect x="480" y="324" width="4" height="15" fill="#c9493b"/>
<rect x="484" y="324" width="4" height="15" fill="#c9493b"/>
<rect x="488" y="324" width="4" height="15" fill="#c9493b"/>
<rect x="492" y="324" width="4" height="15" fill="#c9493b"/>
<rect x="496" y="324" width="4" height="15" fill="#c9493b"/>
<rect x="500" y="324" width="4" height="15" fill="#c9493b"/>
<rect x="504" y="324" width="4" height="15" fill="#c9493b"/>
<rect x="508" y="324" width="4" height="15" fill="#c9493b"/>
<rect x="512" y="324" width="4" height="15" fill="#c9493b"/>
<rect x="516" y="324" width="4" height="15" fill="#c9493b"/>
<rect x="520" y="324" width="4" height="15" fill="#c9493b"/>
<rect x="524" y="324" width="4" height="15" fill="#c9493b"/>
<rect x="528" y="324" width="4" height="15" fill="#c9493b"/>
<rect x="532" y="324" width="4" height="15" fill="#c9493b"/>
<rect x="536" y="324" width="4" height="15" fill="#c9493b"/>
<rect x="540" y="324" width="4" height="15" fill="#c9493b"/>
<rect x="544" y="324" width="4" height="15" fill="#c9493b"/>
<rect x="548" y="324" width="4" height="15" fill="#c9493b"/>
<rect x="552" y="324" width="4" height="15" fill="#c9493b"/>
<rect x="556" y="324" width="4" height="15" fill="#c9493b"/>
<text x="180" y="351" class="warn">⚠ en:7.1 → en:7.95  (95 sections, avg=0.000)</text>
<text x="20" y="372" class="label">Book 8</text>
<text x="988" y="372" class="stats">n=80  avg=0.000  H=0%  M=0%  L=100%</text>
<rect x="180" y="360" width="4" height="15" fill="#c9493b"/>
<rect x="184" y="360" width="4" height="15" fill="#c9493b"/>
<rect x="188" y="360" width="4" height="15" fill="#c9493b"/>
<rect x="192" y="360" width="4" height="15" fill="#c9493b"/>
<rect x="196" y="360" width="4" height="15" fill="#c9493b"/>
<rect x="200" y="360" width="4" height="15" fill="#c9493b"/>
<rect x="204" y="360" width="4" height="15" fill="#c9493b"/>
<rect x="208" y="360" width="4" height="15" fill="#c9493b"/>
<rect x="212" y="360" width="4" height="15" fill="#c9493b"/>
<rect x="216" y="360" width="4" height="15" fill="#c9493b"/>
<rect x="220" y="360" width="4" height="15" fill="#c9493b"/>
<rect x="224" y="360" width="4" height="15" fill="#c9493b"/>
<rect x="228" y="360" width="4" height="15" fill="#c9493b"/>
<rect x="232" y="360" width="4" height="15" fill="#c9493b"/>
<rect x="236" y="360" width="4" height="15" fill="#c9493b"/>
<rect x="240" y="360" width="4" height="15" fill="#c9493b"/>
<rect x="244" y="360" width="4" height="15" fill="#c9493b"/>
<rect x="248" y="360" width="4" height="15" fill="#c9493b"/>
<rect x="252" y="360" width="4" height="15" fill="#c9493b"/>
<rect x="256" y="360" width="4" height="15" fill="#c9493b"/>
<rect x="260" y="360" width="4" height="15" fill="#c9493b"/>
<rect x="264" y="360" width="4" height="15" fill="#c9493b"/>
<rect x="268" y="360" width="4" height="15" fill="#c9493b"/>
<rect x="272" y="360" width="4" height="15" fill="#c9493b"/>
<rect x="276" y="360" width="4" height="15" fill="#c9493b"/>
<rect x="280" y="360" width="4" height="15" fill="#c9493b"/>
<rect x="284" y="360" width="4" height="15" fill="#c9493b"/>
<rect x="288" y="360" width="4" height="15" fill="#c9493b"/>
<rect x="292" y="360" width="4" height="15" fill="#c9493b"/>
<rect x="296" y="360" width="4" height="15" fill="#c9493b"/>
<rect x="300" y="360" width="4" height="15" fill="#c9493b"/>
<rect x="304" y="360" width="4" height="15" fill="#c9493b"/>
<rect x="308" y="360" width="4" height="15" fill="#c9493b"/>
<rect x="312" y="360" width="4" height="15" fill="#c9493b"/>
<rect x="316" y="360" width="4" height="15" fill="#c9493b"/>
<rect x="320" y="360" width="4" height="15" fill="#c9493b"/>
<rect x="324" y="360" width="4" height="15" fill="#c9493b"/>
<rect x="328" y="360" width="4" height="15" fill="#c9493b"/>
<rect x="332" y="360" width="4" height="15" fill="#c9493b"/>
<rect x="336" y="360" width="4" height="15" fill="#c9493b"/>
<rect x="340" y="360" width="4" height="15" fill="#c9493b"/>
<rect x="344" y="360" width="4" height="15" fill="#c9493b"/>
<rect x="348" y="360" width="4" height="15" fill="#c9493b"/>
<rect x="352" y="360" width="4" height="15" fill="#c9493b"/>
<rect x="356" y="360" width="4" height="15" fill="#c9493b"/>
<rect x="360" y="360" width="4" height="15" fill="#c9493b"/>
<rect x="364" y="360" width="4" height="15" fill="#c9493b"/>
<rect x="368" y="360" width="4" height="15" fill="#c9493b"/>
<rect x="372" y="360" width="4" height="15" fill="#c9493b"/>
<rect x="376" y="360" width="4" height="15" fill="#c9493b"/>
<rect x="380" y="360" width="4" height="15" fill="#c9493b"/>
<rect x="384" y="360" width="4" height="15" fill="#c9493b"/>
<rect x="388" y="360" width="4" height="15" fill="#c9493b"/>
<rect x="392" y="360" width="4" height="15" fill="#c9493b"/>
<rect x="396" y="360" width="4" height="15" fill="#c9493b"/>
<rect x="400" y="360" width="4" height="15" fill="#c9493b"/>
<rect x="404" y="360" width="4" height="15" fill="#c9493b"/>
<rect x="408" y="360" width="4" height="15" fill="#c9493b"/>
<rect x="412" y="360" width="4" height="15" fill="#c9493b"/>
<rect x="416" y="360" width="4" height="15" fill="#c9493b"/>
<rect x="420" y="360" width="4" height="15" fill="#c9493b"/>
<rect x="424" y="360" width="4" height="15" fill="#c9493b"/>
<rect x="428" y="360" width="4" height="15" fill="#c9493b"/>
<rect x="432" y="360" width="4" height="15" fill="#c9493b"/>
<rect x="436" y="360" width="4" height="15" fill="#c9493b"/>
<rect x="440" y="360" width="4" height="15" fill="#c9493b"/>
<rect x="444" y="360" width="4" height="15" fill="#c9493b"/>
<rect x="448" y="360" width="4" height="15" fill="#c9493b"/>
<rect x="452" y="360" width="4" height="15" fill="#c9493b"/>
<rect x="456" y="360" width="4" height="15" fill="#c9493b"/>
<rect x="460" y="360" width="4" height="15" fill="#c9493b"/>
<rect x="464" y="360" width="4" height="15" fill="#c9493b"/>
<rect x="468" y="360" width="4" height="15" fill="#c9493b"/>
<rect x="472" y="360" width="4" height="15" fill="#c9493b"/>
<rect x="476" y="360" width="4" height="15" fill="#c9493b"/>
<rect x="480" y="360" width="4" height="15" fill="#c9493b"/>
<rect x="484" y="360" width="4" height="15" fill="#c9493b"/>
<rect x="488" y="360" width="4" height="15" fill="#c9493b"/>
<rect x="492" y="360" width="4" height="15" fill="#c9493b"/>
<rect x="496" y="360" width="4" height="15" fill="#c9493b"/>
<text x="180" y="387" class="warn">⚠ en:8.1 → en:8.80  (80 sections, avg=0.000)</text>
<text x="20" y="408" class="label">Book 9</text>
<text x="988" y="408" class="stats">n=83  avg=0.000  H=0%  M=0%  L=100%</text>
<rect x="180" y="396" width="4" height="15" fill="#c9493b"/>
<rect x="184" y="396" width="4" height="15" fill="#c9493b"/>
<rect x="188" y="396" width="4" height="15" fill="#c9493b"/>
<rect x="192" y="396" width="4" height="15" fill="#c9493b"/>
<rect x="196" y="396" width="4" height="15" fill="#c9493b"/>
<rect x="200" y="396" width="4" height="15" fill="#c9493b"/>
<rect x="204" y="396" width="4" height="15" fill="#c9493b"/>
<rect x="208" y="396" width="4" height="15" fill="#c9493b"/>
<rect x="212" y="396" width="4" height="15" fill="#c9493b"/>
<rect x="216" y="396" width="4" height="15" fill="#c9493b"/>
<rect x="220" y="396" width="4" height="15" fill="#c9493b"/>
<rect x="224" y="396" width="4" height="15" fill="#c9493b"/>
<rect x="228" y="396" width="4" height="15" fill="#c9493b"/>
<rect x="232" y="396" width="4" height="15" fill="#c9493b"/>
<rect x="236" y="396" width="4" height="15" fill="#c9493b"/>
<rect x="240" y="396" width="4" height="15" fill="#c9493b"/>
<rect x="244" y="396" width="4" height="15" fill="#c9493b"/>
<rect x="248" y="396" width="4" height="15" fill="#c9493b"/>
<rect x="252" y="396" width="4" height="15" fill="#c9493b"/>
<rect x="256" y="396" width="4" height="15" fill="#c9493b"/>
<rect x="260" y="396" width="4" height="15" fill="#c9493b"/>
<rect x="264" y="396" width="4" height="15" fill="#c9493b"/>
<rect x="268" y="396" width="4" height="15" fill="#c9493b"/>
<rect x="272" y="396" width="4" height="15" fill="#c9493b"/>
<rect x="276" y="396" width="4" height="15" fill="#c9493b"/>
<rect x="280" y="396" width="4" height="15" fill="#c9493b"/>
<rect x="284" y="396" width="4" height="15" fill="#c9493b"/>
<rect x="288" y="396" width="4" height="15" fill="#c9493b"/>
<rect x="292" y="396" width="4" height="15" fill="#c9493b"/>
<rect x="296" y="396" width="4" height="15" fill="#c9493b"/>
<rect x="300" y="396" width="4" height="15" fill="#c9493b"/>
<rect x="304" y="396" width="4" height="15" fill="#c9493b"/>
<rect x="308" y="396" width="4" height="15" fill="#c9493b"/>
<rect x="312" y="396" width="4" height="15" fill="#c9493b"/>
<rect x="316" y="396" width="4" height="15" fill="#c9493b"/>
<rect x="320" y="396" width="4" height="15" fill="#c9493b"/>
<rect x="324" y="396" width="4" height="15" fill="#c9493b"/>
<rect x="328" y="396" width="4" height="15" fill="#c9493b"/>
<rect x="332" y="396" width="4" height="15" fill="#c9493b"/>
<rect x="336" y="396" width="4" height="15" fill="#c9493b"/>
<rect x="340" y="396" width="4" height="15" fill="#c9493b"/>
<rect x="344" y="396" width="4" height="15" fill="#c9493b"/>
<rect x="348" y="396" width="4" height="15" fill="#c9493b"/>
<rect x="352" y="396" width="4" height="15" fill="#c9493b"/>
<rect x="356" y="396" width="4" height="15" fill="#c9493b"/>
<rect x="360" y="396" width="4" height="15" fill="#c9493b"/>
<rect x="364" y="396" width="4" height="15" fill="#c9493b"/>
<rect x="368" y="396" width="4" height="15" fill="#c9493b"/>
<rect x="372" y="396" width="4" height="15" fill="#c9493b"/>
<rect x="376" y="396" width="4" height="15" fill="#c9493b"/>
<rect x="380" y="396" width="4" height="15" fill="#c9493b"/>
<rect x="384" y="396" width="4" height="15" fill="#c9493b"/>
<rect x="388" y="396" width="4" height="15" fill="#c9493b"/>
<rect x="392" y="396" width="4" height="15" fill="#c9493b"/>
<rect x="396" y="396" width="4" height="15" fill="#c9493b"/>
<rect x="400" y="396" width="4" height="15" fill="#c9493b"/>
<rect x="404" y="396" width="4" height="15" fill="#c9493b"/>
<rect x="408" y="396" width="4" height="15" fill="#c9493b"/>
<rect x="412" y="396" width="4" height="15" fill="#c9493b"/>
<rect x="416" y="396" width="4" height="15" fill="#c9493b"/>
<rect x="420" y="396" width="4" height="15" fill="#c9493b"/>
<rect x="424" y="396" width="4" height="15" fill="#c9493b"/>
<rect x="428" y="396" width="4" height="15" fill="#c9493b"/>
<rect x="432" y="396" width="4" height="15" fill="#c9493b"/>
<rect x="436" y="396" width="4" height="15" fill="#c9493b"/>
<rect x="440" y="396" width="4" height="15" fill="#c9493b"/>
<rect x="444" y="396" width="4" height="15" fill="#c9493b"/>
<rect x="448" y="396" width="4" height="15" fill="#c9493b"/>
<rect x="452" y="396" width="4" height="15" fill="#c9493b"/>
<rect x="456" y="396" width="4" height="15" fill="#c9493b"/>
<rect x="460" y="396" width="4" height="15" fill="#c9493b"/>
<rect x="464" y="396" width="4" height="15" fill="#c9493b"/>
<rect x="468" y="396" width="4" height="15" fill="#c9493b"/>
<rect x="472" y="396" width="4" height="15" fill="#c9493b"/>
<rect x="476" y="396" width="4" height="15" fill="#c9493b"/>
<rect x="480" y="396" width="4" height="15" fill="#c9493b"/>
<rect x="484" y="396" width="4" height="15" fill="#c9493b"/>
<rect x="488" y="396" width="4" height="15" fill="#c9493b"/>
<rect x="492" y="396" width="4" height="15" fill="#c9493b"/>
<rect x="496" y="396" width="4" height="15" fill="#c9493b"/>
<rect x="500" y="396" width="4" height="15" fill="#c9493b"/>
<rect x="504" y="396" width="4" height="15" fill="#c9493b"/>
<rect x="508" y="396" width="4" height="15" fill="#c9493b"/>
<text x="180" y="423" class="warn">⚠ en:9.1 → en:9.83  (83 sections, avg=0.000)</text>
<text x="20" y="444" class="label">Book 10</text>
<text x="988" y="444" class="stats">n=127  avg=0.000  H=0%  M=0%  L=100%</text>
<rect x="180" y="432" width="4" height="15" fill="#c9493b"/>
<rect x="184" y="432" width="4" height="15" fill="#c9493b"/>
<rect x="188" y="432" width="4" height="15" fill="#c9493b"/>
<rect x="192" y="432" width="4" height="15" fill="#c9493b"/>
<rect x="196" y="432" width="4" height="15" fill="#c9493b"/>
<rect x="200" y="432" width="4" height="15" fill="#c9493b"/>
<rect x="204" y="432" width="4" height="15" fill="#c9493b"/>
<rect x="208" y="432" width="4" height="15" fill="#c9493b"/>
<rect x="212" y="432" width="4" height="15" fill="#c9493b"/>
<rect x="216" y="432" width="4" height="15" fill="#c9493b"/>
<rect x="220" y="432" width="4" height="15" fill="#c9493b"/>
<rect x="224" y="432" width="4" height="15" fill="#c9493b"/>
<rect x="228" y="432" width="4" height="15" fill="#c9493b"/>
<rect x="232" y="432" width="4" height="15" fill="#c9493b"/>
<rect x="236" y="432" width="4" height="15" fill="#c9493b"/>
<rect x="240" y="432" width="4" height="15" fill="#c9493b"/>
<rect x="244" y="432" width="4" height="15" fill="#c9493b"/>
<rect x="248" y="432" width="4" height="15" fill="#c9493b"/>
<rect x="252" y="432" width="4" height="15" fill="#c9493b"/>
<rect x="256" y="432" width="4" height="15" fill="#c9493b"/>
<rect x="260" y="432" width="4" height="15" fill="#c9493b"/>
<rect x="264" y="432" width="4" height="15" fill="#c9493b"/>
<rect x="268" y="432" width="4" height="15" fill="#c9493b"/>
<rect x="272" y="432" width="4" height="15" fill="#c9493b"/>
<rect x="276" y="432" width="4" height="15" fill="#c9493b"/>
<rect x="280" y="432" width="4" height="15" fill="#c9493b"/>
<rect x="284" y="432" width="4" height="15" fill="#c9493b"/>
<rect x="288" y="432" width="4" height="15" fill="#c9493b"/>
<rect x="292" y="432" width="4" height="15" fill="#c9493b"/>
<rect x="296" y="432" width="4" height="15" fill="#c9493b"/>
<rect x="300" y="432" width="4" height="15" fill="#c9493b"/>
<rect x="304" y="432" width="4" height="15" fill="#c9493b"/>
<rect x="308" y="432" width="4" height="15" fill="#c9493b"/>
<rect x="312" y="432" width="4" height="15" fill="#c9493b"/>
<rect x="316" y="432" width="4" height="15" fill="#c9493b"/>
<rect x="320" y="432" width="4" height="15" fill="#c9493b"/>
<rect x="324" y="432" width="4" height="15" fill="#c9493b"/>
<rect x="328" y="432" width="4" height="15" fill="#c9493b"/>
<rect x="332" y="432" width="4" height="15" fill="#c9493b"/>
<rect x="336" y="432" width="4" height="15" fill="#c9493b"/>
<rect x="340" y="432" width="4" height="15" fill="#c9493b"/>
<rect x="344" y="432" width="4" height="15" fill="#c9493b"/>
<rect x="348" y="432" width="4" height="15" fill="#c9493b"/>
<rect x="352" y="432" width="4" height="15" fill="#c9493b"/>
<rect x="356" y="432" width="4" height="15" fill="#c9493b"/>
<rect x="360" y="432" width="4" height="15" fill="#c9493b"/>
<rect x="364" y="432" width="4" height="15" fill="#c9493b"/>
<rect x="368" y="432" width="4" height="15" fill="#c9493b"/>
<rect x="372" y="432" width="4" height="15" fill="#c9493b"/>
<rect x="376" y="432" width="4" height="15" fill="#c9493b"/>
<rect x="380" y="432" width="4" height="15" fill="#c9493b"/>
<rect x="384" y="432" width="4" height="15" fill="#c9493b"/>
<rect x="388" y="432" width="4" height="15" fill="#c9493b"/>
<rect x="392" y="432" width="4" height="15" fill="#c9493b"/>
<rect x="396" y="432" width="4" height="15" fill="#c9493b"/>
<rect x="400" y="432" width="4" height="15" fill="#c9493b"/>
<rect x="404" y="432" width="4" height="15" fill="#c9493b"/>
<rect x="408" y="432" width="4" height="15" fill="#c9493b"/>
<rect x="412" y="432" width="4" height="15" fill="#c9493b"/>
<rect x="416" y="432" width="4" height="15" fill="#c9493b"/>
<rect x="420" y="432" width="4" height="15" fill="#c9493b"/>
<rect x="424" y="432" width="4" height="15" fill="#c9493b"/>
<rect x="428" y="432" width="4" height="15" fill="#c9493b"/>
<rect x="432" y="432" width="4" height="15" fill="#c9493b"/>
<rect x="436" y="432" width="4" height="15" fill="#c9493b"/>
<rect x="440" y="432" width="4" height="15" fill="#c9493b"/>
<rect x="444" y="432" width="4" height="15" fill="#c9493b"/>
<rect x="448" y="432" width="4" height="15" fill="#c9493b"/>
<rect x="452" y="432" width="4" height="15" fill="#c9493b"/>
<rect x="456" y="432" width="4" height="15" fill="#c9493b"/>
<rect x="460" y="432" width="4" height="15" fill="#c9493b"/>
<rect x="464" y="432" width="4" height="15" fill="#c9493b"/>
<rect x="468" y="432" width="4" height="15" fill="#c9493b"/>
<rect x="472" y="432" width="4" height="15" fill="#c9493b"/>
<rect x="476" y="432" width="4" height="15" fill="#c9493b"/>
<rect x="480" y="432" width="4" height="15" fill="#c9493b"/>
<rect x="484" y="432" width="4" height="15" fill="#c9493b"/>
<rect x="488" y="432" width="4" height="15" fill="#c9493b"/>
<rect x="492" y="432" width="4" height="15" fill="#c9493b"/>
<rect x="496" y="432" width="4" height="15" fill="#c9493b"/>
<rect x="500" y="432" width="4" height="15" fill="#c9493b"/>
<rect x="504" y="432" width="4" height="15" fill="#c9493b"/>
<rect x="508" y="432" width="4" height="15" fill="#c9493b"/>
<rect x="512" y="432" width="4" height="15" fill="#c9493b"/>
<rect x="516" y="432" width="4" height="15" fill="#c9493b"/>
<rect x="520" y="432" width="4" height="15" fill="#c9493b"/>
<rect x="524" y="432" width="4" height="15" fill="#c9493b"/>
<rect x="528" y="432" width="4" height="15" fill="#c9493b"/>
<rect x="532" y="432" width="4" height="15" fill="#c9493b"/>
<rect x="536" y="432" width="4" height="15" fill="#c9493b"/>
<rect x="540" y="432" width="4" height="15" fill="#c9493b"/>
<rect x="544" y="432" width="4" height="15" fill="#c9493b"/>
<rect x="548" y="432" width="4" height="15" fill="#c9493b"/>
<rect x="552" y="432" width="4" height="15" fill="#c9493b"/>
<rect x="556" y="432" width="4" height="15" fill="#c9493b"/>
<rect x="560" y="432" width="4" height="15" fill="#c9493b"/>
<rect x="564" y="432" width="4" height="15" fill="#c9493b"/>
<rect x="568" y="432" width="4" height="15" fill="#c9493b"/>
<rect x="572" y="432" width="4" height="15" fill="#c9493b"/>
<rect x="576" y="432" width="4" height="15" fill="#c9493b"/>
<rect x="580" y="432" width="4" height="15" fill="#c9493b"/>
<rect x="584" y="432" width="4" height="15" fill="#c9493b"/>
<rect x="588" y="432" width="4" height="15" fill="#c9493b"/>
<rect x="592" y="432" width="4" height="15" fill="#c9493b"/>
<rect x="596" y="432" width="4" height="15" fill="#c9493b"/>
<rect x="600" y="432" width="4" height="15" fill="#c9493b"/>
<rect x="604" y="432" width="4" height="15" fill="#c9493b"/>
<rect x="608" y="432" width="4" height="15" fill="#c9493b"/>
<rect x="612" y="432" width="4" height="15" fill="#c9493b"/>
<rect x="616" y="432" width="4" height="15" fill="#c9493b"/>
<rect x="620" y="432" width="4" height="15" fill="#c9493b"/>
<rect x="624" y="432" width="4" height="15" fill="#c9493b"/>
<rect x="628" y="432" width="4" height="15" fill="#c9493b"/>
<rect x="632" y="432" width="4" height="15" fill="#c9493b"/>
<rect x="636" y="432" width="4" height="15" fill="#c9493b"/>
<rect x="640" y="432" width="4" height="15" fill="#c9493b"/>
<rect x="644" y="432" width="4" height="15" fill="#c9493b"/>
<rect x="648" y="432" width="4" height="15" fill="#c9493b"/>
<rect x="652" y="432" width="4" height="15" fill="#c9493b"/>
<rect x="656" y="432" width="4" height="15" fill="#c9493b"/>
<rect x="660" y="432" width="4" height="15" fill="#c9493b"/>
<rect x="664" y="432" width="4" height="15" fill="#c9493b"/>
<rect x="668" y="432" width="4" height="15" fill="#c9493b"/>
<rect x="672" y="432" width="4" height="15" fill="#c9493b"/>
<rect x="676" y="432" width="4" height="15" fill="#c9493b"/>
<rect x="680" y="432" width="4" height="15" fill="#c9493b"/>
<rect x="684" y="432" width="4" height="15" fill="#c9493b"/>
<text x="180" y="459" class="warn">⚠ en:10.1 → en:10.126  (127 sections, avg=0.000)</text>
<line x1="20" y1="473" x2="1200" y2="473" stroke="#ccc" stroke-width="1"/>
<text x="20" y="493" class="total">TOTAL: 691 sections   avg=0.134   High=8%   Med=14%   Low=78%</text>
<rect x="20" y="500" width="93.9218523878437" height="10" fill="#2d8a4e" rx="2"/>
<rect x="113.9218523878437" y="500" width="169.05933429811867" height="10" fill="#e8b83d"/>
<rect x="282.98118668596237" y="500" width="917.0188133140377" height="10" fill="#c9493b" rx="2"/>
</svg>