<svg xmlns="http://www.w3.org/2000/svg" width="1220" height="810" viewBox="0 0 1220 810">
<rect width="1220" height="810" fill="#f5f5f5"/>
<style>
  text { font-family: "SF Mono", "Menlo", "Monaco", monospace; }
  .title { font-size: 16px; font-weight: bold; }
  .subtitle { font-size: 11px; fill: #888; }
  .label { font-size: 11px; fill: #333; }
  .stats { font-size: 10px; fill: #666; }
  .warn { font-size: 9px; fill: #c9493b; }
  .total { font-size: 12px; font-weight: bold; fill: #333; }
  .legend-text { font-size: 10px; fill: #555; }
</style>
<text x="20" y="38" class="title">Alignment Quality Map — Theocritus — Εἰδύλλια</text>
<rect x="20" y="50" width="12" height="12" fill="#2d8a4e" rx="2"/>
<text x="36" y="60" class="legend-text">High (≥0.6)</text>
<rect x="160" y="50" width="12" height="12" fill="#e8b83d" rx="2"/>
<text x="176" y="60" class="legend-text">Medium (0.3–0.6)</text>
<rect x="300" y="50" width="12" height="12" fill="#c9493b" rx="2"/>
<text x="316" y="60" class="legend-text">Low (&lt;0.3)</text>
<text x="20" y="92" class="label">Book 1</text>
<text x="988" y="92" class="stats">n=17  avg=0.621  H=59%  M=41%  L=0%</text>
<rect x="180" y="80" width="4" height="15" fill="#e8b83d"/>
<rect x="184" y="80" width="4" height="15" fill="#2d8a4e"/>
<rect x="188" y="80" width="4" height="15" fill="#2d8a4e"/>
<rect x="192" y="80" width="4" height="15" fill="#e8b83d"/>
<rect x="196" y="80" width="4" height="15" fill="#2d8a4e"/>
<rect x="200" y="80" width="4" height="15" fill="#e8b83d"/>
<rect x="204" y="80" width="4" height="15" fill="#2d8a4e"/>
<rect x="208" y="80" width="4" height="15" fill="#2d8a4e"/>
<rect x="212" y="80" width="4" height="15" fill="#2d8a4e"/>
<rect x="216" y="80" width="4" height="15" fill="#e8b83d"/>
<rect x="220" y="80" width="4" height="15" fill="#e8b83d"/>
<rect x="224" y="80" width="4" height="15" fill="#e8b83d"/>
<rect x="228" y="80" width="4" height="15" fill="#2d8a4e"/>
<rect x="232" y="80" width="4" height="15" fill="#2d8a4e"/>
<rect x="236" y="80" width="4" height="15" fill="#2d8a4e"/>
<rect x="240" y="80" width="4" height="15" fill="#e8b83d"/>
<rect x="244" y="80" width="4" height="15" fill="#2d8a4e"/>
<text x="20" y="114" class="label">Book 2</text>
<text x="988" y="114" class="stats">n=18  avg=0.656  H=72%  M=28%  L=0%</text>
<rect x="180" y="102" width="4" height="15" fill="#e8b83d"/>
<rect x="184" y="102" width="4" height="15" fill="#2d8a4e"/>
<rect x="188" y="102" width="4" height="15" fill="#2d8a4e"/>
<rect x="192" y="102" width="4" height="15" fill="#2d8a4e"/>
<rect x="196" y="102" width="4" height="15" fill="#2d8a4e"/>
<rect x="200" y="102" width="4" height="15" fill="#2d8a4e"/>
<rect x="204" y="102" width="4" height="15" fill="#2d8a4e"/>
<rect x="208" y="102" width="4" height="15" fill="#2d8a4e"/>
<rect x="212" y="102" width="4" height="15" fill="#e8b83d"/>
<rect x="216" y="102" width="4" height="15" fill="#e8b83d"/>
<rect x="220" y="102" width="4" height="15" fill="#2d8a4e"/>
<rect x="224" y="102" width="4" height="15" fill="#e8b83d"/>
<rect x="228" y="102" width="4" height="15" fill="#2d8a4e"/>
<rect x="232" y="102" width="4" height="15" fill="#2d8a4e"/>
<rect x="236" y="102" width="4" height="15" fill="#e8b83d"/>
<rect x="240" y="102" width="4" height="15" fill="#2d8a4e"/>
<rect x="244" y="102" width="4" height="15" fill="#2d8a4e"/>
<rect x="248" y="102" width="4" height="15" fill="#2d8a4e"/>
<text x="20" y="136" class="label">Book 3</text>
<text x="988" y="136" class="stats">n=6  avg=0.622  H=67%  M=33%  L=0%</text>
<rect x="180" y="124" width="4" height="15" fill="#e8b83d"/>
<rect x="184" y="124" width="4" height="15" fill="#2d8a4e"/>
<rect x="188" y="124" width="4" height="15" fill="#2d8a4e"/>
<rect x="192" y="124" width="4" height="15" fill="#2d8a4e"/>
<rect x="196" y="124" width="4" height="15" fill="#2d8a4e"/>
<rect x="200" y="124" width="4" height="15" fill="#e8b83d"/>
<text x="20" y="158" class="label">Book 4</text>
<text x="988" y="158" class="stats">n=7  avg=0.635  H=57%  M=43%  L=0%</text>
<rect x="180" y="146" width="4" height="15" fill="#e8b83d"/>
<rect x="184" y="146" width="4" height="15" fill="#e8b83d"/>
<rect x="188" y="146" width="4" height="15" fill="#2d8a4e"/>
<rect x="192" y="146" width="4" height="15" fill="#2d8a4e"/>
<rect x="196" y="146" width="4" height="15" fill="#2d8a4e"/>
<rect x="200" y="146" width="4" height="15" fill="#e8b83d"/>
<rect x="204" y="146" width="4" height="15" fill="#2d8a4e"/>
<text x="20" y="180" class="label">Book 5</text>
<text x="988" y="180" class="stats">n=18  avg=0.687  H=78%  M=22%  L=0%</text>
<rect x="180" y="168" width="4" height="15" fill="#e8b83d"/>
<rect x="184" y="168" width="4" height="15" fill="#2d8a4e"/>
<rect x="188" y="168" width="4" height="15" fill="#2d8a4e"/>
<rect x="192" y="168" width="4" height="15" fill="#2d8a4e"/>
<rect x="196" y="168" width="4" height="15" fill="#e8b83d"/>
<rect x="200" y="168" width="4" height="15" fill="#2d8a4e"/>
<rect x="204" y="168" width="4" height="15" fill="#2d8a4e"/>
<rect x="208" y="168" width="4" height="15" fill="#2d8a4e"/>
<rect x="212" y="168" width="4" height="15" fill="#2d8a4e"/>
<rect x="216" y="168" width="4" height="15" fill="#2d8a4e"/>
<rect x="220" y="168" width="4" height="15" fill="#2d8a4e"/>
<rect x="224" y="168" width="4" height="15" fill="#2d8a4e"/>
<rect x="228" y="168" width="4" height="15" fill="#2d8a4e"/>
<rect x="232" y="168" width="4" height="15" fill="#e8b83d"/>
<rect x="236" y="168" width="4" height="15" fill="#2d8a4e"/>
<rect x="240" y="168" width="4" height="15" fill="#e8b83d"/>
<rect x="244" y="168" width="4" height="15" fill="#2d8a4e"/>
<rect x="248" y="168" width="4" height="15" fill="#2d8a4e"/>
<text x="20" y="202" class="label">Book 6</text>
<text x="988" y="202" class="stats">n=5  avg=0.580  H=40%  M=60%  L=0%</text>
<rect x="180" y="190" width="4" height="15" fill="#e8b83d"/>
<rect x="184" y="190" width="4" height="15" fill="#e8b83d"/>
<rect x="188" y="190" width="4" height="15" fill="#2d8a4e"/>
<rect x="192" y="190" width="4" height="15" fill="#2d8a4e"/>
<rect x="196" y="190" width="4" height="15" fill="#e8b83d"/>
<text x="20" y="224" class="label">Book 7</text>
<text x="988" y="224" class="stats">n=15  avg=0.649  H=80%  M=13%  L=7%</text>
<rect x="180" y="212" width="4" height="15" fill="#e8b83d"/>
<rect x="184" y="212" width="4" height="15" fill="#2d8a4e"/>
<rect x="188" y="212" width="4" height="15" fill="#2d8a4e"/>
<rect x="192" y="212" width="4" height="15" fill="#2d8a4e"/>
<rect x="196" y="212" width="4" height="15" fill="#2d8a4e"/>
<rect x="200" y="212" width="4" height="15" fill="#2d8a4e"/>
<rect x="204" y="212" width="4" height="15" fill="#2d8a4e"/>
<rect x="208" y="212" width="4" height="15" fill="#c9493b"/>
<rect x="212" y="212" width="4" height="15" fill="#2d8a4e"/>
<rect x="216" y="212" width="4" height="15" fill="#e8b83d"/>
<rect x="220" y="212" width="4" height="15" fill="#2d8a4e"/>
<rect x="224" y="212" width="4" height="15" fill="#2d8a4e"/>
<rect x="228" y="212" width="4" height="15" fill="#2d8a4e"/>
<rect x="232" y="212" width="4" height="15" fill="#2d8a4e"/>
<rect x="236" y="212" width="4" height="15" fill="#2d8a4e"/>
<text x="20" y="246" class="label">Book 8</text>
<text x="988" y="246" class="stats">n=12  avg=0.712  H=75%  M=25%  L=0%</text>
<rect x="180" y="234" width="4" height="15" fill="#2d8a4e"/>
<rect x="184" y="234" width="4" height="15" fill="#2d8a4e"/>
<rect x="188" y="234" width="4" height="15" fill="#e8b83d"/>
<rect x="192" y="234" width="4" height="15" fill="#2d8a4e"/>
<rect x="196" y="234" width="4" height="15" fill="#2d8a4e"/>
<rect x="200" y="234" width="4" height="15" fill="#2d8a4e"/>
<rect x="204" y="234" width="4" height="15" fill="#2d8a4e"/>
<rect x="208" y="234" width="4" height="15" fill="#2d8a4e"/>
<rect x="212" y="234" width="4" height="15" fill="#2d8a4e"/>
<rect x="216" y="234" width="4" height="15" fill="#e8b83d"/>
<rect x="220" y="234" width="4" height="15" fill="#2d8a4e"/>
<rect x="224" y="234" width="4" height="15" fill="#e8b83d"/>
<text x="20" y="268" class="label">Book 9</text>
<text x="988" y="268" class="stats">n=4  avg=0.708  H=50%  M=50%  L=0%</text>
<rect x="180" y="256" width="4" height="15" fill="#e8b83d"/>
<rect x="184" y="256" width="4" height="15" fill="#2d8a4e"/>
<rect x="188" y="256" width="4" height="15" fill="#2d8a4e"/>
<rect x="192" y="256" width="4" height="15" fill="#e8b83d"/>
<text x="20" y="290" class="label">Book 10</text>
<text x="988" y="290" class="stats">n=7  avg=0.645  H=43%  M=57%  L=0%</text>
<rect x="180" y="278" width="4" height="15" fill="#e8b83d"/>
<rect x="184" y="278" width="4" height="15" fill="#2d8a4e"/>
<rect x="188" y="278" width="4" height="15" fill="#2d8a4e"/>
<rect x="192" y="278" width="4" height="15" fill="#2d8a4e"/>
<rect x="196" y="278" width="4" height="15" fill="#e8b83d"/>
<rect x="200" y="278" width="4" height="15" fill="#e8b83d"/>
<rect x="204" y="278" width="4" height="15" fill="#e8b83d"/>
<text x="20" y="312" class="label">Book 11</text>
<text x="988" y="312" class="stats">n=10  avg=0.661  H=80%  M=20%  L=0%</text>
<rect x="180" y="300" width="4" height="15" fill="#e8b83d"/>
<rect x="184" y="300" width="4" height="15" fill="#2d8a4e"/>
<rect x="188" y="300" width="4" height="15" fill="#2d8a4e"/>
<rect x="192" y="300" width="4" height="15" fill="#2d8a4e"/>
<rect x="196" y="300" width="4" height="15" fill="#e8b83d"/>
<rect x="200" y="300" width="4" height="15" fill="#2d8a4e"/>
<rect x="204" y="300" width="4" height="15" fill="#2d8a4e"/>
<rect x="208" y="300" width="4" height="15" fill="#2d8a4e"/>
<rect x="212" y="300" width="4" height="15" fill="#2d8a4e"/>
<rect x="216" y="300" width="4" height="15" fill="#2d8a4e"/>
<text x="20" y="334" class="label">Book 12</text>
<text x="988" y="334" class="stats">n=4  avg=0.592  H=50%  M=50%  L=0%</text>
<rect x="180" y="322" width="4" height="15" fill="#e8b83d"/>
<rect x="184" y="322" width="4" height="15" fill="#e8b83d"/>
<rect x="188" y="322" width="4" height="15" fill="#2d8a4e"/>
<rect x="192" y="322" width="4" height="15" fill="#2d8a4e"/>
<text x="20" y="356" class="label">Book 13</text>
<text x="988" y="356" class="stats">n=8  avg=0.574  H=62%  M=38%  L=0%</text>
<rect x="180" y="344" width="4" height="15" fill="#e8b83d"/>
<rect x="184" y="344" width="4" height="15" fill="#2d8a4e"/>
<rect x="188" y="344" width="4" height="15" fill="#2d8a4e"/>
<rect x="192" y="344" width="4" height="15" fill="#2d8a4e"/>
<rect x="196" y="344" width="4" height="15" fill="#2d8a4e"/>
<rect x="200" y="344" width="4" height="15" fill="#2d8a4e"/>
<rect x="204" y="344" width="4" height="15" fill="#e8b83d"/>
<rect x="208" y="344" width="4" height="15" fill="#e8b83d"/>
<text x="20" y="378" class="label">Book 14</text>
<text x="988" y="378" class="stats">n=8  avg=0.602  H=62%  M=38%  L=0%</text>
<rect x="180" y="366" width="4" height="15" fill="#2d8a4e"/>
<rect x="184" y="366" width="4" height="15" fill="#e8b83d"/>
<rect x="188" y="366" width="4" height="15" fill="#2d8a4e"/>
<rect x="192" y="366" width="4" height="15" fill="#2d8a4e"/>
<rect x="196" y="366" width="4" height="15" fill="#2d8a4e"/>
<rect x="200" y="366" width="4" height="15" fill="#e8b83d"/>
<rect x="204" y="366" width="4" height="15" fill="#2d8a4e"/>
<rect x="208" y="366" width="4" height="15" fill="#e8b83d"/>
<text x="20" y="400" class="label">Book 15</text>
<text x="988" y="400" class="stats">n=19  avg=0.735  H=79%  M=21%  L=0%</text>
<rect x="180" y="388" width="4" height="15" fill="#2d8a4e"/>
<rect x="184" y="388" width="4" height="15" fill="#e8b83d"/>
<rect x="188" y="388" width="4" height="15" fill="#2d8a4e"/>
<rect x="192" y="388" width="4" height="15" fill="#2d8a4e"/>
<rect x="196" y="388" width="4" height="15" fill="#2d8a4e"/>
<rect x="200" y="388" width="4" height="15" fill="#2d8a4e"/>
<rect x="204" y="388" width="4" height="15" fill="#e8b83d"/>
<rect x="208" y="388" width="4" height="15" fill="#2d8a4e"/>
<rect x="212" y="388" width="4" height="15" fill="#2d8a4e"/>
<rect x="216" y="388" width="4" height="15" fill="#2d8a4e"/>
<rect x="220" y="388" width="4" height="15" fill="#2d8a4e"/>
<rect x="224" y="388" width="4" height="15" fill="#e8b83d"/>
<rect x="228" y="388" width="4" height="15" fill="#2d8a4e"/>
<rect x="232" y="388" width="4" height="15" fill="#2d8a4e"/>
<rect x="236" y="388" width="4" height="15" fill="#e8b83d"/>
<rect x="240" y="388" width="4" height="15" fill="#2d8a4e"/>
<rect x="244" y="388" width="4" height="15" fill="#2d8a4e"/>
<rect x="248" y="388" width="4" height="15" fill="#2d8a4e"/>
<rect x="252" y="388" width="4" height="15" fill="#2d8a4e"/>
<text x="20" y="422" class="label">Book 16</text>
<text x="988" y="422" class="stats">n=10  avg=0.516  H=50%  M=20%  L=30%</text>
<rect x="180" y="410" width="4" height="15" fill="#c9493b"/>
<rect x="184" y="410" width="4" height="15" fill="#2d8a4e"/>
<rect x="188" y="410" width="4" height="15" fill="#c9493b"/>
<rect x="192" y="410" width="4" height="15" fill="#e8b83d"/>
<rect x="196" y="410" width="4" height="15" fill="#e8b83d"/>
<rect x="200" y="410" width="4" height="15" fill="#2d8a4e"/>
<rect x="204" y="410" width="4" height="15" fill="#2d8a4e"/>
<rect x="208" y="410" width="4" height="15" fill="#2d8a4e"/>
<rect x="212" y="410" width="4" height="15" fill="#c9493b"/>
<rect x="216" y="410" width="4" height="15" fill="#2d8a4e"/>
<text x="20" y="444" class="label">Book 17</text>
<text x="988" y="444" class="stats">n=15  avg=0.639  H=60%  M=40%  L=0%</text>
<rect x="180" y="432" width="4" height="15" fill="#e8b83d"/>
<rect x="184" y="432" width="4" height="15" fill="#2d8a4e"/>
<rect x="188" y="432" width="4" height="15" fill="#e8b83d"/>
<rect x="192" y="432" width="4" height="15" fill="#2d8a4e"/>
<rect x="196" y="432" width="4" height="15" fill="#e8b83d"/>
<rect x="200" y="432" width="4" height="15" fill="#2d8a4e"/>
<rect x="204" y="432" width="4" height="15" fill="#2d8a4e"/>
<rect x="208" y="432" width="4" height="15" fill="#e8b83d"/>
<rect x="212" y="432" width="4" height="15" fill="#2d8a4e"/>
<rect x="216" y="432" width="4" height="15" fill="#2d8a4e"/>
<rect x="220" y="432" width="4" height="15" fill="#e8b83d"/>
<rect x="224" y="432" width="4" height="15" fill="#2d8a4e"/>
<rect x="228" y="432" width="4" height="15" fill="#e8b83d"/>
<rect x="232" y="432" width="4" height="15" fill="#2d8a4e"/>
<rect x="236" y="432" width="4" height="15" fill="#2d8a4e"/>
<text x="20" y="466" class="label">Book 18</text>
<text x="988" y="466" class="stats">n=7  avg=0.482  H=29%  M=57%  L=14%</text>
<rect x="180" y="454" width="4" height="15" fill="#e8b83d"/>
<rect x="184" y="454" width="4" height="15" fill="#2d8a4e"/>
<rect x="188" y="454" width="4" height="15" fill="#e8b83d"/>
<rect x="192" y="454" width="4" height="15" fill="#c9493b"/>
<rect x="196" y="454" width="4" height="15" fill="#e8b83d"/>
<rect x="200" y="454" width="4" height="15" fill="#e8b83d"/>
<rect x="204" y="454" width="4" height="15" fill="#2d8a4e"/>
<text x="20" y="488" class="label">Book 19</text>
<text x="988" y="488" class="stats">n=1  avg=0.602  H=100%  M=0%  L=0%</text>
<rect x="180" y="476" width="4" height="15" fill="#2d8a4e"/>
<text x="20" y="510" class="label">Book 20</text>
<text x="988" y="510" class="stats">n=6  avg=0.622  H=67%  M=33%  L=0%</text>
<rect x="180" y="498" width="4" height="15" fill="#e8b83d"/>
<rect x="184" y="498" width="4" height="15" fill="#2d8a4e"/>
<rect x="188" y="498" width="4" height="15" fill="#2d8a4e"/>
<rect x="192" y="498" width="4" height="15" fill="#e8b83d"/>
<rect x="196" y="498" width="4" height="15" fill="#2d8a4e"/>
<rect x="200" y="498" width="4" height="15" fill="#2d8a4e"/>
<text x="20" y="532" class="label">Book 21</text>
<text x="988" y="532" class="stats">n=7  avg=0.496  H=14%  M=71%  L=14%</text>
<rect x="180" y="520" width="4" height="15" fill="#e8b83d"/>
<rect x="184" y="520" width="4" height="15" fill="#c9493b"/>
<rect x="188" y="520" width="4" height="15" fill="#e8b83d"/>
<rect x="192" y="520" width="4" height="15" fill="#e8b83d"/>
<rect x="196" y="520" width="4" height="15" fill="#2d8a4e"/>
<rect x="200" y="520" width="4" height="15" fill="#e8b83d"/>
<rect x="204" y="520" width="4" height="15" fill="#e8b83d"/>
<text x="20" y="554" class="label">Book 22</text>
<text x="988" y="554" class="stats">n=25  avg=0.634  H=68%  M=32%  L=0%</text>
<rect x="180" y="542" width="4" height="15" fill="#2d8a4e"/>
<rect x="184" y="542" width="4" height="15" fill="#2d8a4e"/>
<rect x="188" y="542" width="4" height="15" fill="#2d8a4e"/>
<rect x="192" y="542" width="4" height="15" fill="#2d8a4e"/>
<rect x="196" y="542" width="4" height="15" fill="#2d8a4e"/>
<rect x="200" y="542" width="4" height="15" fill="#2d8a4e"/>
<rect x="204" y="542" width="4" height="15" fill="#2d8a4e"/>
<rect x="208" y="542" width="4" height="15" fill="#e8b83d"/>
<rect x="212" y="542" width="4" height="15" fill="#2d8a4e"/>
<rect x="216" y="542" width="4" height="15" fill="#e8b83d"/>
<rect x="220" y="542" width="4" height="15" fill="#e8b83d"/>
<rect x="224" y="542" width="4" height="15" fill="#e8b83d"/>
<rect x="228" y="542" width="4" height="15" fill="#2d8a4e"/>
<rect x="232" y="542" width="4" height="15" fill="#2d8a4e"/>
<rect x="236" y="542" width="4" height="15" fill="#2d8a4e"/>
<rect x="240" y="542" width="4" height="15" fill="#2d8a4e"/>
<rect x="244" y="542" width="4" height="15" fill="#e8b83d"/>
<rect x="248" y="542" width="4" height="15" fill="#2d8a4e"/>
<rect x="252" y="542" width="4" height="15" fill="#e8b83d"/>
<rect x="256" y="542" width="4" height="15" fill="#2d8a4e"/>
<rect x="260" y="542" width="4" height="15" fill="#e8b83d"/>
<rect x="264" y="542" width="4" height="15" fill="#2d8a4e"/>
<rect x="268" y="542" width="4" height="15" fill="#2d8a4e"/>
<rect x="272" y="542" width="4" height="15" fill="#e8b83d"/>
<rect x="276" y="542" width="4" height="15" fill="#2d8a4e"/>
<text x="20" y="576" class="label">Book 23</text>
<text x="988" y="576" class="stats">n=7  avg=0.660  H=86%  M=14%  L=0%</text>
<rect x="180" y="564" width="4" height="15" fill="#e8b83d"/>
<rect x="184" y="564" width="4" height="15" fill="#2d8a4e"/>
<rect x="188" y="564" width="4" height="15" fill="#2d8a4e"/>
<rect x="192" y="564" width="4" height="15" fill="#2d8a4e"/>
<rect x="196" y="564" width="4" height="15" fill="#2d8a4e"/>
<rect x="200" y="564" width="4" height="15" fill="#2d8a4e"/>
<rect x="204" y="564" width="4" height="15" fill="#2d8a4e"/>
<text x="20" y="598" class="label">Book 24</text>
<text x="988" y="598" class="stats">n=15  avg=0.683  H=80%  M=20%  L=0%</text>
<rect x="180" y="586" width="4" height="15" fill="#e8b83d"/>
<rect x="184" y="586" width="4" height="15" fill="#2d8a4e"/>
<rect x="188" y="586" width="4" height="15" fill="#2d8a4e"/>
<rect x="192" y="586" width="4" height="15" fill="#e8b83d"/>
<rect x="196" y="586" width="4" height="15" fill="#2d8a4e"/>
<rect x="200" y="586" width="4" height="15" fill="#e8b83d"/>
<rect x="204" y="586" width="4" height="15" fill="#2d8a4e"/>
<rect x="208" y="586" width="4" height="15" fill="#2d8a4e"/>
<rect x="212" y="586" width="4" height="15" fill="#2d8a4e"/>
<rect x="216" y="586" width="4" height="15" fill="#2d8a4e"/>
<rect x="220" y="586" width="4" height="15" fill="#2d8a4e"/>
<rect x="224" y="586" width="4" height="15" fill="#2d8a4e"/>
<rect x="228" y="586" width="4" height="15" fill="#2d8a4e"/>
<rect x="232" y="586" width="4" height="15" fill="#2d8a4e"/>
<rect x="236" y="586" width="4" height="15" fill="#2d8a4e"/>
<text x="20" y="620" class="label">Book 25</text>
<text x="988" y="620" class="stats">n=29  avg=0.608  H=55%  M=45%  L=0%</text>
<rect x="180" y="608" width="4" height="15" fill="#e8b83d"/>
<rect x="184" y="608" width="4" height="15" fill="#2d8a4e"/>
<rect x="188" y="608" width="4" height="15" fill="#2d8a4e"/>
<rect x="192" y="608" width="4" height="15" fill="#e8b83d"/>
<rect x="196" y="608" width="4" height="15" fill="#2d8a4e"/>
<rect x="200" y="608" width="4" height="15" fill="#e8b83d"/>
<rect x="204" y="608" width="4" height="15" fill="#e8b83d"/>
<rect x="208" y="608" width="4" height="15" fill="#e8b83d"/>
<rect x="212" y="608" width="4" height="15" fill="#e8b83d"/>
<rect x="216" y="608" width="4" height="15" fill="#e8b83d"/>
<rect x="220" y="608" width="4" height="15" fill="#2d8a4e"/>
<rect x="224" y="608" width="4" height="15" fill="#2d8a4e"/>
<rect x="228" y="608" width="4" height="15" fill="#e8b83d"/>
<rect x="232" y="608" width="4" height="15" fill="#2d8a4e"/>
<rect x="236" y="608" width="4" height="15" fill="#2d8a4e"/>
<rect x="240" y="608" width="4" height="15" fill="#2d8a4e"/>
<rect x="244" y="608" width="4" height="15" fill="#e8b83d"/>
<rect x="248" y="608" width="4" height="15" fill="#e8b83d"/>
<rect x="252" y="608" width="4" height="15" fill="#e8b83d"/>
<rect x="256" y="608" width="4" height="15" fill="#2d8a4e"/>
<rect x="260" y="608" width="4" height="15" fill="#2d8a4e"/>
<rect x="264" y="608" width="4" height="15" fill="#2d8a4e"/>
<rect x="268" y="608" width="4" height="15" fill="#e8b83d"/>
<rect x="272" y="608" width="4" height="15" fill="#2d8a4e"/>
<rect x="276" y="608" width="4" height="15" fill="#2d8a4e"/>
<rect x="280" y="608" width="4" height="15" fill="#e8b83d"/>
<rect x="284" y="608" width="4" height="15" fill="#2d8a4e"/>
<rect x="288" y="608" width="4" height="15" fill="#2d8a4e"/>
<rect x="292" y="608" width="4" height="15" fill="#2d8a4e"/>
<text x="20" y="642" class="label">Book 26</text>
<text x="988" y="642" class="stats">n=5  avg=0.551  H=60%  M=20%  L=20%</text>
<rect x="180" y="630" width="4" height="15" fill="#c9493b"/>
<rect x="184" y="630" width="4" height="15" fill="#2d8a4e"/>
<rect x="188" y="630" width="4" height="15" fill="#2d8a4e"/>
<rect x="192" y="630" width="4" height="15" fill="#e8b83d"/>
<rect x="196" y="630" width="4" height="15" fill="#2d8a4e"/>
<text x="20" y="664" class="label">Book 27</text>
<text x="988" y="664" class="stats">n=6  avg=0.683  H=83%  M=17%  L=0%</text>
<rect x="180" y="652" width="4" height="15" fill="#2d8a4e"/>
<rect x="184" y="652" width="4" height="15" fill="#2d8a4e"/>
<rect x="188" y="652" width="4" height="15" fill="#2d8a4e"/>
<rect x="192" y="652" width="4" height="15" fill="#2d8a4e"/>
<rect x="196" y="652" width="4" height="15" fill="#e8b83d"/>
<rect x="200" y="652" width="4" height="15" fill="#2d8a4e"/>
<text x="20" y="686" class="label">Book 28</text>
<text x="988" y="686" class="stats">n=2  avg=0.463  H=50%  M=0%  L=50%</text>
<rect x="180" y="674" width="4" height="15" fill="#c9493b"/>
<rect x="184" y="674" width="4" height="15" fill="#2d8a4e"/>
<text x="20" y="708" class="label">Book 29</text>
<text x="988" y="708" class="stats">n=4  avg=0.583  H=50%  M=50%  L=0%</text>
<rect x="180" y="696" width="4" height="15" fill="#2d8a4e"/>
<rect x="184" y="696" width="4" height="15" fill="#e8b83d"/>
<rect x="188" y="696" width="4" height="15" fill="#2d8a4e"/>
<rect x="192" y="696" width="4" height="15" fill="#e8b83d"/>
<text x="20" y="730" class="label">Book 30</text>
<text x="988" y="730" class="stats">n=4  avg=0.344  H=0%  M=50%  L=50%</text>
<rect x="180" y="718" width="4" height="15" fill="#c9493b"/>
<rect x="184" y="718" width="4" height="15" fill="#e8b83d"/>
<rect x="188" y="718" width="4" height="15" fill="#e8b83d"/>
<rect x="192" y="718" width="4" height="15" fill="#c9493b"/>
<line x1="20" y1="745" x2="1200" y2="745" stroke="#ccc" stroke-width="1"/>
<text x="20" y="765" class="total">TOTAL: 301 sections   avg=0.630   High=64%   Med=33%   Low=3%</text>
<rect x="20" y="772" width="752.6910299003322" height="10" fill="#2d8a4e" rx="2"/>
<rect x="772.6910299003322" y="772" width="388.1063122923588" height="10" fill="#e8b83d"/>
<rect x="1160.7973421926908" y="772" width="39.202657807308974" height="10" fill="#c9493b" rx="2"/>
</svg>