<svg xmlns="http://www.w3.org/2000/svg" width="1220" height="678" viewBox="0 0 1220 678">
<rect width="1220" height="678" fill="#f5f5f5"/>
<style>
  text { font-family: "SF Mono", "Menlo", "Monaco", monospace; }
  .title { font-size: 16px; font-weight: bold; }
  .subtitle { font-size: 11px; fill: #888; }
  .label { font-size: 11px; fill: #333; }
  .stats { font-size: 10px; fill: #666; }
  .warn { font-size: 9px; fill: #c9493b; }
  .total { font-size: 12px; font-weight: bold; fill: #333; }
  .legend-text { font-size: 10px; fill: #555; }
</style>
<text x="20" y="38" class="title">Alignment Quality Map — Theocritus — Ἐπιγράμματα</text>
<rect x="20" y="50" width="12" height="12" fill="#2d8a4e" rx="2"/>
<text x="36" y="60" class="legend-text">High (≥0.6)</text>
<rect x="160" y="50" width="12" height="12" fill="#e8b83d" rx="2"/>
<text x="176" y="60" class="legend-text">Medium (0.3–0.6)</text>
<rect x="300" y="50" width="12" height="12" fill="#c9493b" rx="2"/>
<text x="316" y="60" class="legend-text">Low (&lt;0.3)</text>
<text x="20" y="92" class="label">Book 1</text>
<text x="988" y="92" class="stats">n=1  avg=0.826  H=100%  M=0%  L=0%</text>
<rect x="180" y="80" width="4" height="15" fill="#2d8a4e"/>
<text x="20" y="114" class="label">Book 2</text>
<text x="988" y="114" class="stats">n=1  avg=0.476  H=0%  M=100%  L=0%</text>
<rect x="180" y="102" width="4" height="15" fill="#e8b83d"/>
<text x="20" y="136" class="label">Book 3</text>
<text x="988" y="136" class="stats">n=1  avg=0.496  H=0%  M=100%  L=0%</text>
<rect x="180" y="124" width="4" height="15" fill="#e8b83d"/>
<text x="20" y="158" class="label">Book 4</text>
<text x="988" y="158" class="stats">n=1  avg=0.689  H=100%  M=0%  L=0%</text>
<rect x="180" y="146" width="4" height="15" fill="#2d8a4e"/>
<text x="20" y="180" class="label">Book 5</text>
<text x="988" y="180" class="stats">n=1  avg=0.848  H=100%  M=0%  L=0%</text>
<rect x="180" y="168" width="4" height="15" fill="#2d8a4e"/>
<text x="20" y="202" class="label">Book 6</text>
<text x="988" y="202" class="stats">n=1  avg=0.826  H=100%  M=0%  L=0%</text>
<rect x="180" y="190" width="4" height="15" fill="#2d8a4e"/>
<text x="20" y="224" class="label">Book 7</text>
<text x="988" y="224" class="stats">n=1  avg=0.353  H=0%  M=100%  L=0%</text>
<rect x="180" y="212" width="4" height="15" fill="#e8b83d"/>
<text x="20" y="246" class="label">Book 8</text>
<text x="988" y="246" class="stats">n=1  avg=0.239  H=0%  M=0%  L=100%</text>
<rect x="180" y="234" width="4" height="15" fill="#c9493b"/>
<text x="20" y="268" class="label">Book 9</text>
<text x="988" y="268" class="stats">n=1  avg=0.304  H=0%  M=100%  L=0%</text>
<rect x="180" y="256" width="4" height="15" fill="#e8b83d"/>
<text x="20" y="290" class="label">Book 10</text>
<text x="988" y="290" class="stats">n=1  avg=0.499  H=0%  M=100%  L=0%</text>
<rect x="180" y="278" width="4" height="15" fill="#e8b83d"/>
<text x="20" y="312" class="label">Book 11</text>
<text x="988" y="312" class="stats">n=1  avg=0.708  H=100%  M=0%  L=0%</text>
<rect x="180" y="300" width="4" height="15" fill="#2d8a4e"/>
<text x="20" y="334" class="label">Book 12</text>
<text x="988" y="334" class="stats">n=1  avg=0.710  H=100%  M=0%  L=0%</text>
<rect x="180" y="322" width="4" height="15" fill="#2d8a4e"/>
<text x="20" y="356" class="label">Book 13</text>
<text x="988" y="356" class="stats">n=1  avg=0.710  H=100%  M=0%  L=0%</text>
<rect x="180" y="344" width="4" height="15" fill="#2d8a4e"/>
<text x="20" y="378" class="label">Book 14</text>
<text x="988" y="378" class="stats">n=1  avg=0.190  H=0%  M=0%  L=100%</text>
<rect x="180" y="366" width="4" height="15" fill="#c9493b"/>
<text x="20" y="400" class="label">Book 15</text>
<text x="988" y="400" class="stats">n=1  avg=0.642  H=100%  M=0%  L=0%</text>
<rect x="180" y="388" width="4" height="15" fill="#2d8a4e"/>
<text x="20" y="422" class="label">Book 16</text>
<text x="988" y="422" class="stats">n=1  avg=0.168  H=0%  M=0%  L=100%</text>
<rect x="180" y="410" width="4" height="15" fill="#c9493b"/>
<text x="20" y="444" class="label">Book 17</text>
<text x="988" y="444" class="stats">n=1  avg=0.413  H=0%  M=100%  L=0%</text>
<rect x="180" y="432" width="4" height="15" fill="#e8b83d"/>
<text x="20" y="466" class="label">Book 18</text>
<text x="988" y="466" class="stats">n=1  avg=0.239  H=0%  M=0%  L=100%</text>
<rect x="180" y="454" width="4" height="15" fill="#c9493b"/>
<text x="20" y="488" class="label">Book 19</text>
<text x="988" y="488" class="stats">n=1  avg=0.380  H=0%  M=100%  L=0%</text>
<rect x="180" y="476" width="4" height="15" fill="#e8b83d"/>
<text x="20" y="510" class="label">Book 20</text>
<text x="988" y="510" class="stats">n=1  avg=0.209  H=0%  M=0%  L=100%</text>
<rect x="180" y="498" width="4" height="15" fill="#c9493b"/>
<text x="20" y="532" class="label">Book 21</text>
<text x="988" y="532" class="stats">n=1  avg=0.180  H=0%  M=0%  L=100%</text>
<rect x="180" y="520" width="4" height="15" fill="#c9493b"/>
<text x="20" y="554" class="label">Book 22</text>
<text x="988" y="554" class="stats">n=1  avg=0.203  H=0%  M=0%  L=100%</text>
<rect x="180" y="542" width="4" height="15" fill="#c9493b"/>
<text x="20" y="576" class="label">Book 23</text>
<text x="988" y="576" class="stats">n=1  avg=0.309  H=0%  M=100%  L=0%</text>
<rect x="180" y="564" width="4" height="15" fill="#e8b83d"/>
<text x="20" y="598" class="label">Book 24</text>
<text x="988" y="598" class="stats">n=2  avg=0.100  H=0%  M=0%  L=100%</text>
<rect x="180" y="586" width="4" height="15" fill="#c9493b"/>
<rect x="184" y="586" width="4" height="15" fill="#c9493b"/>
<line x1="20" y1="613" x2="1200" y2="613" stroke="#ccc" stroke-width="1"/>
<text x="20" y="633" class="total">TOTAL: 25 sections   avg=0.433   High=32%   Med=32%   Low=36%</text>
<rect x="20" y="640" width="377.6" height="10" fill="#2d8a4e" rx="2"/>
<rect x="397.6" y="640" width="377.6" height="10" fill="#e8b83d"/>
<rect x="775.2" y="640" width="424.8" height="10" fill="#c9493b" rx="2"/>
</svg>