<svg xmlns="http://www.w3.org/2000/svg" width="1220" height="214" viewBox="0 0 1220 214">
<rect width="1220" height="214" fill="#f5f5f5"/>
<style>
  text { font-family: "SF Mono", "Menlo", "Monaco", monospace; }
  .title { font-size: 16px; font-weight: bold; }
  .subtitle { font-size: 11px; fill: #888; }
  .label { font-size: 11px; fill: #333; }
  .stats { font-size: 10px; fill: #666; }
  .warn { font-size: 9px; fill: #c9493b; }
  .total { font-size: 12px; font-weight: bold; fill: #333; }
  .legend-text { font-size: 10px; fill: #555; }
</style>
<text x="20" y="38" class="title">Alignment Quality Map — Aristophanes — Frogs</text>
<rect x="20" y="50" width="12" height="12" fill="#2d8a4e" rx="2"/>
<text x="36" y="60" class="legend-text">High (≥0.5)</text>
<rect x="160" y="50" width="12" height="12" fill="#e8b83d" rx="2"/>
<text x="176" y="60" class="legend-text">Medium (0.2–0.5)</text>
<rect x="300" y="50" width="12" height="12" fill="#c9493b" rx="2"/>
<text x="316" y="60" class="legend-text">Low (&lt;0.2)</text>
<text x="20" y="92" class="label">Book 1</text>
<text x="988" y="92" class="stats">n=193  avg=0.160  H=10%  M=19%  L=72%</text>
<a href="tlg0019.tlg009.perseus-eng80.html#s1-1"><title>1.1 (0.50)</title><rect x="180" y="80" width="4" height="15" fill="#2d8a4e"/></a>
<a href="tlg0019.tlg009.perseus-eng80.html#s1-9"><title>1.9 (0.09)</title><rect x="184" y="80" width="4" height="15" fill="#c9493b"/></a>
<a href="tlg0019.tlg009.perseus-eng80.html#s1-19"><title>1.19 (0.01)</title><rect x="188" y="80" width="4" height="15" fill="#c9493b"/></a>
<a href="tlg0019.tlg009.perseus-eng80.html#s1-27"><title>1.27 (0.02)</title><rect x="192" y="80" width="4" height="15" fill="#c9493b"/></a>
<a href="tlg0019.tlg009.perseus-eng80.html#s1-35"><title>1.35 (0.00)</title><rect x="196" y="80" width="4" height="15" fill="#c9493b"/></a>
<a href="tlg0019.tlg009.perseus-eng80.html#s1-43"><title>1.43 (0.01)</title><rect x="200" y="80" width="4" height="15" fill="#c9493b"/></a>
<a href="tlg0019.tlg009.perseus-eng80.html#s1-51"><title>1.51 (0.02)</title><rect x="204" y="80" width="4" height="15" fill="#c9493b"/></a>
<a href="tlg0019.tlg009.perseus-eng80.html#s1-59"><title>1.59 (0.00)</title><rect x="208" y="80" width="4" height="15" fill="#c9493b"/></a>
<a href="tlg0019.tlg009.perseus-eng80.html#s1-68"><title>1.68 (0.06)</title><rect x="212" y="80" width="4" height="15" fill="#c9493b"/></a>
<a href="tlg0019.tlg009.perseus-eng80.html#s1-76"><title>1.76 (0.02)</title><rect x="216" y="80" width="4" height="15" fill="#c9493b"/></a>
<a href="tlg0019.tlg009.perseus-eng80.html#s1-84"><title>1.84 (0.05)</title><rect x="220" y="80" width="4" height="15" fill="#c9493b"/></a>
<a href="tlg0019.tlg009.perseus-eng80.html#s1-92"><title>1.92 (0.10)</title><rect x="224" y="80" width="4" height="15" fill="#c9493b"/></a>
<a href="tlg0019.tlg009.perseus-eng80.html#s1-103"><title>1.103 (0.02)</title><rect x="228" y="80" width="4" height="15" fill="#c9493b"/></a>
<a href="tlg0019.tlg009.perseus-eng80.html#s1-116"><title>1.116 (0.01)</title><rect x="232" y="80" width="4" height="15" fill="#c9493b"/></a>
<a href="tlg0019.tlg009.perseus-eng80.html#s1-125"><title>1.125 (0.05)</title><rect x="236" y="80" width="4" height="15" fill="#c9493b"/></a>
<a href="tlg0019.tlg009.perseus-eng80.html#s1-134"><title>1.134 (0.03)</title><rect x="240" y="80" width="4" height="15" fill="#c9493b"/></a>
<a href="tlg0019.tlg009.perseus-eng80.html#s1-143"><title>1.143 (0.03)</title><rect x="244" y="80" width="4" height="15" fill="#c9493b"/></a>
<a href="tlg0019.tlg009.perseus-eng80.html#s1-152"><title>1.152 (0.02)</title><rect x="248" y="80" width="4" height="15" fill="#c9493b"/></a>
<a href="tlg0019.tlg009.perseus-eng80.html#s1-160"><title>1.160 (0.00)</title><rect x="252" y="80" width="4" height="15" fill="#c9493b"/></a>
<a href="tlg0019.tlg009.perseus-eng80.html#sen:1-2"><title>en:1.2 (0.00)</title><rect x="256" y="80" width="4" height="15" fill="#c9493b"/></a>
<a href="tlg0019.tlg009.perseus-eng80.html#sen:1-3"><title>en:1.3 (0.00)</title><rect x="260" y="80" width="4" height="15" fill="#c9493b"/></a>
<a href="tlg0019.tlg009.perseus-eng80.html#sen:1-4"><title>en:1.4 (0.00)</title><rect x="264" y="80" width="4" height="15" fill="#c9493b"/></a>
<a href="tlg0019.tlg009.perseus-eng80.html#sen:1-5"><title>en:1.5 (0.00)</title><rect x="268" y="80" width="4" height="15" fill="#c9493b"/></a>
<a href="tlg0019.tlg009.perseus-eng80.html#sen:1-6"><title>en:1.6 (0.00)</title><rect x="272" y="80" width="4" height="15" fill="#c9493b"/></a>
<a href="tlg0019.tlg009.perseus-eng80.html#sen:1-7"><title>en:1.7 (0.00)</title><rect x="276" y="80" width="4" height="15" fill="#c9493b"/></a>
<a href="tlg0019.tlg009.perseus-eng80.html#s1-169"><title>1.169 (0.45)</title><rect x="280" y="80" width="4" height="15" fill="#e8b83d"/></a>
<a href="tlg0019.tlg009.perseus-eng80.html#s1-177"><title>1.177 (0.63)</title><rect x="284" y="80" width="4" height="15" fill="#2d8a4e"/></a>
<a href="tlg0019.tlg009.perseus-eng80.html#s1-185"><title>1.185 (0.03)</title><rect x="288" y="80" width="4" height="15" fill="#c9493b"/></a>
<a href="tlg0019.tlg009.perseus-eng80.html#s1-193"><title>1.193 (0.06)</title><rect x="292" y="80" width="4" height="15" fill="#c9493b"/></a>
<a href="tlg0019.tlg009.perseus-eng80.html#s1-201"><title>1.201 (0.11)</title><rect x="296" y="80" width="4" height="15" fill="#c9493b"/></a>
<a href="tlg0019.tlg009.perseus-eng80.html#s1-209"><title>1.209 (0.63)</title><rect x="300" y="80" width="4" height="15" fill="#2d8a4e"/></a>
<a href="tlg0019.tlg009.perseus-eng80.html#sen:1-12"><title>en:1.12 (0.00)</title><rect x="304" y="80" width="4" height="15" fill="#c9493b"/></a>
<a href="tlg0019.tlg009.perseus-eng80.html#s1-221"><title>1.221 (0.89)</title><rect x="308" y="80" width="4" height="15" fill="#2d8a4e"/></a>
<a href="tlg0019.tlg009.perseus-eng80.html#s1-229"><title>1.229 (0.45)</title><rect x="312" y="80" width="4" height="15" fill="#e8b83d"/></a>
<a href="tlg0019.tlg009.perseus-eng80.html#s1-240"><title>1.240 (0.00)</title><rect x="316" y="80" width="4" height="15" fill="#c9493b"/></a>
<a href="tlg0019.tlg009.perseus-eng80.html#s1-251"><title>1.251 (0.18)</title><rect x="320" y="80" width="4" height="15" fill="#c9493b"/></a>
<a href="tlg0019.tlg009.perseus-eng80.html#s1-261"><title>1.261 (0.36)</title><rect x="324" y="80" width="4" height="15" fill="#e8b83d"/></a>
<a href="tlg0019.tlg009.perseus-eng80.html#s1-269"><title>1.269 (0.37)</title><rect x="328" y="80" width="4" height="15" fill="#e8b83d"/></a>
<a href="tlg0019.tlg009.perseus-eng80.html#s1-277"><title>1.277 (0.05)</title><rect x="332" y="80" width="4" height="15" fill="#c9493b"/></a>
<a href="tlg0019.tlg009.perseus-eng80.html#s1-285"><title>1.285 (0.44)</title><rect x="336" y="80" width="4" height="15" fill="#e8b83d"/></a>
<a href="tlg0019.tlg009.perseus-eng80.html#s1-293"><title>1.293 (0.05)</title><rect x="340" y="80" width="4" height="15" fill="#c9493b"/></a>
<a href="tlg0019.tlg009.perseus-eng80.html#s1-301"><title>1.301 (0.03)</title><rect x="344" y="80" width="4" height="15" fill="#c9493b"/></a>
<a href="tlg0019.tlg009.perseus-eng80.html#s1-309"><title>1.309 (0.07)</title><rect x="348" y="80" width="4" height="15" fill="#c9493b"/></a>
<a href="tlg0019.tlg009.perseus-eng80.html#s1-316"><title>1.316 (0.38)</title><rect x="352" y="80" width="4" height="15" fill="#e8b83d"/></a>
<a href="tlg0019.tlg009.perseus-eng80.html#s1-332"><title>1.332 (0.05)</title><rect x="356" y="80" width="4" height="15" fill="#c9493b"/></a>
<a href="tlg0019.tlg009.perseus-eng80.html#s1-343"><title>1.343 (0.08)</title><rect x="360" y="80" width="4" height="15" fill="#c9493b"/></a>
<a href="tlg0019.tlg009.perseus-eng80.html#sen:1-19"><title>en:1.19 (0.00)</title><rect x="364" y="80" width="4" height="15" fill="#c9493b"/></a>
<a href="tlg0019.tlg009.perseus-eng80.html#s1-354"><title>1.354 (0.00)</title><rect x="368" y="80" width="4" height="15" fill="#c9493b"/></a>
<a href="tlg0019.tlg009.perseus-eng80.html#s1-369"><title>1.369 (0.54)</title><rect x="372" y="80" width="4" height="15" fill="#2d8a4e"/></a>
<a href="tlg0019.tlg009.perseus-eng80.html#s1-378"><title>1.378 (0.34)</title><rect x="376" y="80" width="4" height="15" fill="#e8b83d"/></a>
<a href="tlg0019.tlg009.perseus-eng80.html#s1-386"><title>1.386 (0.46)</title><rect x="380" y="80" width="4" height="15" fill="#e8b83d"/></a>
<a href="tlg0019.tlg009.perseus-eng80.html#s1-396"><title>1.396 (0.34)</title><rect x="384" y="80" width="4" height="15" fill="#e8b83d"/></a>
<a href="tlg0019.tlg009.perseus-eng80.html#s1-404"><title>1.404 (0.00)</title><rect x="388" y="80" width="4" height="15" fill="#c9493b"/></a>
<a href="tlg0019.tlg009.perseus-eng80.html#s1-416"><title>1.416 (0.02)</title><rect x="392" y="80" width="4" height="15" fill="#c9493b"/></a>
<a href="tlg0019.tlg009.perseus-eng80.html#s1-426"><title>1.426 (0.03)</title><rect x="396" y="80" width="4" height="15" fill="#c9493b"/></a>
<a href="tlg0019.tlg009.perseus-eng80.html#s1-435"><title>1.435 (0.06)</title><rect x="400" y="80" width="4" height="15" fill="#c9493b"/></a>
<a href="tlg0019.tlg009.perseus-eng80.html#s1-443"><title>1.443 (0.08)</title><rect x="404" y="80" width="4" height="15" fill="#c9493b"/></a>
<a href="tlg0019.tlg009.perseus-eng80.html#s1-455"><title>1.455 (0.14)</title><rect x="408" y="80" width="4" height="15" fill="#c9493b"/></a>
<a href="tlg0019.tlg009.perseus-eng80.html#s1-460"><title>1.460 (0.10)</title><rect x="412" y="80" width="4" height="15" fill="#c9493b"/></a>
<a href="tlg0019.tlg009.perseus-eng80.html#s1-470"><title>1.470 (0.00)</title><rect x="416" y="80" width="4" height="15" fill="#c9493b"/></a>
<a href="tlg0019.tlg009.perseus-eng80.html#s1-479"><title>1.479 (0.00)</title><rect x="420" y="80" width="4" height="15" fill="#c9493b"/></a>
<a href="tlg0019.tlg009.perseus-eng80.html#sen:1-24"><title>en:1.24 (0.00)</title><rect x="424" y="80" width="4" height="15" fill="#c9493b"/></a>
<a href="tlg0019.tlg009.perseus-eng80.html#s1-487"><title>1.487 (0.35)</title><rect x="428" y="80" width="4" height="15" fill="#e8b83d"/></a>
<a href="tlg0019.tlg009.perseus-eng80.html#s1-497"><title>1.497 (0.35)</title><rect x="432" y="80" width="4" height="15" fill="#e8b83d"/></a>
<a href="tlg0019.tlg009.perseus-eng80.html#s1-508"><title>1.508 (0.28)</title><rect x="436" y="80" width="4" height="15" fill="#e8b83d"/></a>
<a href="tlg0019.tlg009.perseus-eng80.html#s1-516"><title>1.516 (0.31)</title><rect x="440" y="80" width="4" height="15" fill="#e8b83d"/></a>
<a href="tlg0019.tlg009.perseus-eng80.html#s1-524"><title>1.524 (0.36)</title><rect x="444" y="80" width="4" height="15" fill="#e8b83d"/></a>
<a href="tlg0019.tlg009.perseus-eng80.html#s1-532"><title>1.532 (0.40)</title><rect x="448" y="80" width="4" height="15" fill="#e8b83d"/></a>
<a href="tlg0019.tlg009.perseus-eng80.html#s1-547"><title>1.547 (0.33)</title><rect x="452" y="80" width="4" height="15" fill="#e8b83d"/></a>
<a href="tlg0019.tlg009.perseus-eng80.html#s1-555"><title>1.555 (0.01)</title><rect x="456" y="80" width="4" height="15" fill="#c9493b"/></a>
<a href="tlg0019.tlg009.perseus-eng80.html#s1-563"><title>1.563 (0.28)</title><rect x="460" y="80" width="4" height="15" fill="#e8b83d"/></a>
<a href="tlg0019.tlg009.perseus-eng80.html#s1-572"><title>1.572 (0.00)</title><rect x="464" y="80" width="4" height="15" fill="#c9493b"/></a>
<a href="tlg0019.tlg009.perseus-eng80.html#s1-580"><title>1.580 (0.02)</title><rect x="468" y="80" width="4" height="15" fill="#c9493b"/></a>
<a href="tlg0019.tlg009.perseus-eng80.html#sen:1-29"><title>en:1.29 (0.00)</title><rect x="472" y="80" width="4" height="15" fill="#c9493b"/></a>
<a href="tlg0019.tlg009.perseus-eng80.html#s1-589"><title>1.589 (0.18)</title><rect x="476" y="80" width="4" height="15" fill="#c9493b"/></a>
<a href="tlg0019.tlg009.perseus-eng80.html#s1-597"><title>1.597 (0.02)</title><rect x="480" y="80" width="4" height="15" fill="#c9493b"/></a>
<a href="tlg0019.tlg009.perseus-eng80.html#s1-605"><title>1.605 (0.01)</title><rect x="484" y="80" width="4" height="15" fill="#c9493b"/></a>
<a href="tlg0019.tlg009.perseus-eng80.html#sen:1-32"><title>en:1.32 (0.00)</title><rect x="488" y="80" width="4" height="15" fill="#c9493b"/></a>
<a href="tlg0019.tlg009.perseus-eng80.html#s1-613"><title>1.613 (0.00)</title><rect x="492" y="80" width="4" height="15" fill="#c9493b"/></a>
<a href="tlg0019.tlg009.perseus-eng80.html#sen:1-34"><title>en:1.34 (0.00)</title><rect x="496" y="80" width="4" height="15" fill="#c9493b"/></a>
<a href="tlg0019.tlg009.perseus-eng80.html#s1-623"><title>1.623 (0.03)</title><rect x="500" y="80" width="4" height="15" fill="#c9493b"/></a>
<a href="tlg0019.tlg009.perseus-eng80.html#s1-631"><title>1.631 (0.03)</title><rect x="504" y="80" width="4" height="15" fill="#c9493b"/></a>
<a href="tlg0019.tlg009.perseus-eng80.html#sen:1-36"><title>en:1.36 (0.00)</title><rect x="508" y="80" width="4" height="15" fill="#c9493b"/></a>
<a href="tlg0019.tlg009.perseus-eng80.html#s1-640"><title>1.640 (0.07)</title><rect x="512" y="80" width="4" height="15" fill="#c9493b"/></a>
<a href="tlg0019.tlg009.perseus-eng80.html#s1-648"><title>1.648 (0.08)</title><rect x="516" y="80" width="4" height="15" fill="#c9493b"/></a>
<a href="tlg0019.tlg009.perseus-eng80.html#s1-656"><title>1.656 (0.07)</title><rect x="520" y="80" width="4" height="15" fill="#c9493b"/></a>
<a href="tlg0019.tlg009.perseus-eng80.html#s1-664"><title>1.664 (0.05)</title><rect x="524" y="80" width="4" height="15" fill="#c9493b"/></a>
<a href="tlg0019.tlg009.perseus-eng80.html#sen:1-39"><title>en:1.39 (0.00)</title><rect x="528" y="80" width="4" height="15" fill="#c9493b"/></a>
<a href="tlg0019.tlg009.perseus-eng80.html#s1-675"><title>1.675 (0.11)</title><rect x="532" y="80" width="4" height="15" fill="#c9493b"/></a>
<a href="tlg0019.tlg009.perseus-eng80.html#s1-686"><title>1.686 (0.50)</title><rect x="536" y="80" width="4" height="15" fill="#2d8a4e"/></a>
<a href="tlg0019.tlg009.perseus-eng80.html#sen:1-42"><title>en:1.42 (0.00)</title><rect x="540" y="80" width="4" height="15" fill="#c9493b"/></a>
<a href="tlg0019.tlg009.perseus-eng80.html#s1-695"><title>1.695 (0.08)</title><rect x="544" y="80" width="4" height="15" fill="#c9493b"/></a>
<a href="tlg0019.tlg009.perseus-eng80.html#s1-703"><title>1.703 (0.17)</title><rect x="548" y="80" width="4" height="15" fill="#c9493b"/></a>
<a href="tlg0019.tlg009.perseus-eng80.html#s1-718"><title>1.718 (0.13)</title><rect x="552" y="80" width="4" height="15" fill="#c9493b"/></a>
<a href="tlg0019.tlg009.perseus-eng80.html#s1-727"><title>1.727 (0.23)</title><rect x="556" y="80" width="4" height="15" fill="#e8b83d"/></a>
<a href="tlg0019.tlg009.perseus-eng80.html#s1-738"><title>1.738 (0.15)</title><rect x="560" y="80" width="4" height="15" fill="#c9493b"/></a>
<a href="tlg0019.tlg009.perseus-eng80.html#s1-746"><title>1.746 (0.00)</title><rect x="564" y="80" width="4" height="15" fill="#c9493b"/></a>
<a href="tlg0019.tlg009.perseus-eng80.html#s1-754"><title>1.754 (0.04)</title><rect x="568" y="80" width="4" height="15" fill="#c9493b"/></a>
<a href="tlg0019.tlg009.perseus-eng80.html#s1-762"><title>1.762 (0.42)</title><rect x="572" y="80" width="4" height="15" fill="#e8b83d"/></a>
<a href="tlg0019.tlg009.perseus-eng80.html#s1-771"><title>1.771 (0.60)</title><rect x="576" y="80" width="4" height="15" fill="#2d8a4e"/></a>
<a href="tlg0019.tlg009.perseus-eng80.html#s1-779"><title>1.779 (0.40)</title><rect x="580" y="80" width="4" height="15" fill="#e8b83d"/></a>
<a href="tlg0019.tlg009.perseus-eng80.html#sen:1-47"><title>en:1.47 (0.00)</title><rect x="584" y="80" width="4" height="15" fill="#c9493b"/></a>
<a href="tlg0019.tlg009.perseus-eng80.html#s1-787"><title>1.787 (0.00)</title><rect x="588" y="80" width="4" height="15" fill="#c9493b"/></a>
<a href="tlg0019.tlg009.perseus-eng80.html#sen:1-49"><title>en:1.49 (0.00)</title><rect x="592" y="80" width="4" height="15" fill="#c9493b"/></a>
<a href="tlg0019.tlg009.perseus-eng80.html#s1-795"><title>1.795 (0.57)</title><rect x="596" y="80" width="4" height="15" fill="#2d8a4e"/></a>
<a href="tlg0019.tlg009.perseus-eng80.html#sen:1-51"><title>en:1.51 (0.00)</title><rect x="600" y="80" width="4" height="15" fill="#c9493b"/></a>
<a href="tlg0019.tlg009.perseus-eng80.html#s1-803"><title>1.803 (0.00)</title><rect x="604" y="80" width="4" height="15" fill="#c9493b"/></a>
<a href="tlg0019.tlg009.perseus-eng80.html#sen:1-53"><title>en:1.53 (0.00)</title><rect x="608" y="80" width="4" height="15" fill="#c9493b"/></a>
<a href="tlg0019.tlg009.perseus-eng80.html#s1-814"><title>1.814 (0.05)</title><rect x="612" y="80" width="4" height="15" fill="#c9493b"/></a>
<a href="tlg0019.tlg009.perseus-eng80.html#sen:1-55"><title>en:1.55 (0.00)</title><rect x="616" y="80" width="4" height="15" fill="#c9493b"/></a>
<a href="tlg0019.tlg009.perseus-eng80.html#s1-822"><title>1.822 (0.00)</title><rect x="620" y="80" width="4" height="15" fill="#c9493b"/></a>
<a href="tlg0019.tlg009.perseus-eng80.html#s1-830"><title>1.830 (0.05)</title><rect x="624" y="80" width="4" height="15" fill="#c9493b"/></a>
<a href="tlg0019.tlg009.perseus-eng80.html#sen:1-58"><title>en:1.58 (0.00)</title><rect x="628" y="80" width="4" height="15" fill="#c9493b"/></a>
<a href="tlg0019.tlg009.perseus-eng80.html#s1-840"><title>1.840 (0.00)</title><rect x="632" y="80" width="4" height="15" fill="#c9493b"/></a>
<a href="tlg0019.tlg009.perseus-eng80.html#sen:1-60"><title>en:1.60 (0.00)</title><rect x="636" y="80" width="4" height="15" fill="#c9493b"/></a>
<a href="tlg0019.tlg009.perseus-eng80.html#s1-848"><title>1.848 (0.00)</title><rect x="640" y="80" width="4" height="15" fill="#c9493b"/></a>
<a href="tlg0019.tlg009.perseus-eng80.html#s1-856"><title>1.856 (0.00)</title><rect x="644" y="80" width="4" height="15" fill="#c9493b"/></a>
<a href="tlg0019.tlg009.perseus-eng80.html#sen:1-63"><title>en:1.63 (0.00)</title><rect x="648" y="80" width="4" height="15" fill="#c9493b"/></a>
<a href="tlg0019.tlg009.perseus-eng80.html#s1-865"><title>1.865 (0.00)</title><rect x="652" y="80" width="4" height="15" fill="#c9493b"/></a>
<a href="tlg0019.tlg009.perseus-eng80.html#s1-874"><title>1.874 (0.00)</title><rect x="656" y="80" width="4" height="15" fill="#c9493b"/></a>
<a href="tlg0019.tlg009.perseus-eng80.html#s1-882"><title>1.882 (0.00)</title><rect x="660" y="80" width="4" height="15" fill="#c9493b"/></a>
<a href="tlg0019.tlg009.perseus-eng80.html#s1-895"><title>1.895 (0.00)</title><rect x="664" y="80" width="4" height="15" fill="#c9493b"/></a>
<a href="tlg0019.tlg009.perseus-eng80.html#s1-907"><title>1.907 (0.08)</title><rect x="668" y="80" width="4" height="15" fill="#c9493b"/></a>
<a href="tlg0019.tlg009.perseus-eng80.html#s1-915"><title>1.915 (0.05)</title><rect x="672" y="80" width="4" height="15" fill="#c9493b"/></a>
<a href="tlg0019.tlg009.perseus-eng80.html#s1-923"><title>1.923 (0.20)</title><rect x="676" y="80" width="4" height="15" fill="#e8b83d"/></a>
<a href="tlg0019.tlg009.perseus-eng80.html#s1-931"><title>1.931 (0.46)</title><rect x="680" y="80" width="4" height="15" fill="#e8b83d"/></a>
<a href="tlg0019.tlg009.perseus-eng80.html#s1-939"><title>1.939 (0.03)</title><rect x="684" y="80" width="4" height="15" fill="#c9493b"/></a>
<a href="tlg0019.tlg009.perseus-eng80.html#s1-948"><title>1.948 (0.61)</title><rect x="688" y="80" width="4" height="15" fill="#2d8a4e"/></a>
<a href="tlg0019.tlg009.perseus-eng80.html#s1-956"><title>1.956 (0.04)</title><rect x="692" y="80" width="4" height="15" fill="#c9493b"/></a>
<a href="tlg0019.tlg009.perseus-eng80.html#s1-964"><title>1.964 (0.04)</title><rect x="696" y="80" width="4" height="15" fill="#c9493b"/></a>
<a href="tlg0019.tlg009.perseus-eng80.html#s1-979"><title>1.979 (0.27)</title><rect x="700" y="80" width="4" height="15" fill="#e8b83d"/></a>
<a href="tlg0019.tlg009.perseus-eng80.html#s1-987"><title>1.987 (0.89)</title><rect x="704" y="80" width="4" height="15" fill="#2d8a4e"/></a>
<a href="tlg0019.tlg009.perseus-eng80.html#s1-996"><title>1.996 (0.32)</title><rect x="708" y="80" width="4" height="15" fill="#e8b83d"/></a>
<a href="tlg0019.tlg009.perseus-eng80.html#s1-1006"><title>1.1006 (0.00)</title><rect x="712" y="80" width="4" height="15" fill="#c9493b"/></a>
<a href="tlg0019.tlg009.perseus-eng80.html#s1-1018"><title>1.1018 (0.01)</title><rect x="716" y="80" width="4" height="15" fill="#c9493b"/></a>
<a href="tlg0019.tlg009.perseus-eng80.html#s1-1026"><title>1.1026 (0.01)</title><rect x="720" y="80" width="4" height="15" fill="#c9493b"/></a>
<a href="tlg0019.tlg009.perseus-eng80.html#s1-1037"><title>1.1037 (0.00)</title><rect x="724" y="80" width="4" height="15" fill="#c9493b"/></a>
<a href="tlg0019.tlg009.perseus-eng80.html#s1-1045"><title>1.1045 (0.00)</title><rect x="728" y="80" width="4" height="15" fill="#c9493b"/></a>
<a href="tlg0019.tlg009.perseus-eng80.html#s1-1053"><title>1.1053 (0.13)</title><rect x="732" y="80" width="4" height="15" fill="#c9493b"/></a>
<a href="tlg0019.tlg009.perseus-eng80.html#s1-1061"><title>1.1061 (0.11)</title><rect x="736" y="80" width="4" height="15" fill="#c9493b"/></a>
<a href="tlg0019.tlg009.perseus-eng80.html#s1-1069"><title>1.1069 (0.10)</title><rect x="740" y="80" width="4" height="15" fill="#c9493b"/></a>
<a href="tlg0019.tlg009.perseus-eng80.html#s1-1078"><title>1.1078 (0.23)</title><rect x="744" y="80" width="4" height="15" fill="#e8b83d"/></a>
<a href="tlg0019.tlg009.perseus-eng80.html#s1-1089"><title>1.1089 (0.03)</title><rect x="748" y="80" width="4" height="15" fill="#c9493b"/></a>
<a href="tlg0019.tlg009.perseus-eng80.html#s1-1099"><title>1.1099 (0.00)</title><rect x="752" y="80" width="4" height="15" fill="#c9493b"/></a>
<a href="tlg0019.tlg009.perseus-eng80.html#s1-1109"><title>1.1109 (0.02)</title><rect x="756" y="80" width="4" height="15" fill="#c9493b"/></a>
<a href="tlg0019.tlg009.perseus-eng80.html#s1-1119"><title>1.1119 (0.00)</title><rect x="760" y="80" width="4" height="15" fill="#c9493b"/></a>
<a href="tlg0019.tlg009.perseus-eng80.html#s1-1128"><title>1.1128 (0.00)</title><rect x="764" y="80" width="4" height="15" fill="#c9493b"/></a>
<a href="tlg0019.tlg009.perseus-eng80.html#s1-1136"><title>1.1136 (0.00)</title><rect x="768" y="80" width="4" height="15" fill="#c9493b"/></a>
<a href="tlg0019.tlg009.perseus-eng80.html#s1-1144"><title>1.1144 (0.05)</title><rect x="772" y="80" width="4" height="15" fill="#c9493b"/></a>
<a href="tlg0019.tlg009.perseus-eng80.html#s1-1152"><title>1.1152 (0.03)</title><rect x="776" y="80" width="4" height="15" fill="#c9493b"/></a>
<a href="tlg0019.tlg009.perseus-eng80.html#s1-1160"><title>1.1160 (0.14)</title><rect x="780" y="80" width="4" height="15" fill="#c9493b"/></a>
<a href="tlg0019.tlg009.perseus-eng80.html#s1-1168"><title>1.1168 (0.04)</title><rect x="784" y="80" width="4" height="15" fill="#c9493b"/></a>
<a href="tlg0019.tlg009.perseus-eng80.html#s1-1177"><title>1.1177 (0.12)</title><rect x="788" y="80" width="4" height="15" fill="#c9493b"/></a>
<a href="tlg0019.tlg009.perseus-eng80.html#s1-1186"><title>1.1186 (0.21)</title><rect x="792" y="80" width="4" height="15" fill="#e8b83d"/></a>
<a href="tlg0019.tlg009.perseus-eng80.html#s1-1195"><title>1.1195 (0.00)</title><rect x="796" y="80" width="4" height="15" fill="#c9493b"/></a>
<a href="tlg0019.tlg009.perseus-eng80.html#s1-1205"><title>1.1205 (0.18)</title><rect x="800" y="80" width="4" height="15" fill="#c9493b"/></a>
<a href="tlg0019.tlg009.perseus-eng80.html#s1-1215"><title>1.1215 (0.42)</title><rect x="804" y="80" width="4" height="15" fill="#e8b83d"/></a>
<a href="tlg0019.tlg009.perseus-eng80.html#s1-1223"><title>1.1223 (0.25)</title><rect x="808" y="80" width="4" height="15" fill="#e8b83d"/></a>
<a href="tlg0019.tlg009.perseus-eng80.html#s1-1232"><title>1.1232 (0.26)</title><rect x="812" y="80" width="4" height="15" fill="#e8b83d"/></a>
<a href="tlg0019.tlg009.perseus-eng80.html#s1-1240"><title>1.1240 (0.06)</title><rect x="816" y="80" width="4" height="15" fill="#c9493b"/></a>
<a href="tlg0019.tlg009.perseus-eng80.html#s1-1248"><title>1.1248 (0.06)</title><rect x="820" y="80" width="4" height="15" fill="#c9493b"/></a>
<a href="tlg0019.tlg009.perseus-eng80.html#sen:1-77"><title>en:1.77 (0.00)</title><rect x="824" y="80" width="4" height="15" fill="#c9493b"/></a>
<a href="tlg0019.tlg009.perseus-eng80.html#s1-1257"><title>1.1257 (0.00)</title><rect x="828" y="80" width="4" height="15" fill="#c9493b"/></a>
<a href="tlg0019.tlg009.perseus-eng80.html#s1-1266"><title>1.1266 (0.05)</title><rect x="832" y="80" width="4" height="15" fill="#c9493b"/></a>
<a href="tlg0019.tlg009.perseus-eng80.html#s1-1276"><title>1.1276 (0.85)</title><rect x="836" y="80" width="4" height="15" fill="#2d8a4e"/></a>
<a href="tlg0019.tlg009.perseus-eng80.html#s1-1285"><title>1.1285 (0.51)</title><rect x="840" y="80" width="4" height="15" fill="#2d8a4e"/></a>
<a href="tlg0019.tlg009.perseus-eng80.html#s1-1296"><title>1.1296 (0.92)</title><rect x="844" y="80" width="4" height="15" fill="#2d8a4e"/></a>
<a href="tlg0019.tlg009.perseus-eng80.html#s1-1304"><title>1.1304 (0.27)</title><rect x="848" y="80" width="4" height="15" fill="#e8b83d"/></a>
<a href="tlg0019.tlg009.perseus-eng80.html#s1-1313"><title>1.1313 (0.00)</title><rect x="852" y="80" width="4" height="15" fill="#c9493b"/></a>
<a href="tlg0019.tlg009.perseus-eng80.html#s1-1322"><title>1.1322 (0.04)</title><rect x="856" y="80" width="4" height="15" fill="#c9493b"/></a>
<a href="tlg0019.tlg009.perseus-eng80.html#s1-1331"><title>1.1331 (0.02)</title><rect x="860" y="80" width="4" height="15" fill="#c9493b"/></a>
<a href="tlg0019.tlg009.perseus-eng80.html#s1-1341"><title>1.1341 (0.02)</title><rect x="864" y="80" width="4" height="15" fill="#c9493b"/></a>
<a href="tlg0019.tlg009.perseus-eng80.html#s1-1352"><title>1.1352 (0.50)</title><rect x="868" y="80" width="4" height="15" fill="#e8b83d"/></a>
<a href="tlg0019.tlg009.perseus-eng80.html#s1-1365"><title>1.1365 (0.96)</title><rect x="872" y="80" width="4" height="15" fill="#2d8a4e"/></a>
<a href="tlg0019.tlg009.perseus-eng80.html#s1-1374"><title>1.1374 (0.99)</title><rect x="876" y="80" width="4" height="15" fill="#2d8a4e"/></a>
<a href="tlg0019.tlg009.perseus-eng80.html#s1-1382"><title>1.1382 (0.04)</title><rect x="880" y="80" width="4" height="15" fill="#c9493b"/></a>
<a href="tlg0019.tlg009.perseus-eng80.html#s1-1390"><title>1.1390 (0.77)</title><rect x="884" y="80" width="4" height="15" fill="#2d8a4e"/></a>
<a href="tlg0019.tlg009.perseus-eng80.html#s1-1399"><title>1.1399 (0.01)</title><rect x="888" y="80" width="4" height="15" fill="#c9493b"/></a>
<a href="tlg0019.tlg009.perseus-eng80.html#s1-1407"><title>1.1407 (0.00)</title><rect x="892" y="80" width="4" height="15" fill="#c9493b"/></a>
<a href="tlg0019.tlg009.perseus-eng80.html#s1-1415"><title>1.1415 (0.33)</title><rect x="896" y="80" width="4" height="15" fill="#e8b83d"/></a>
<a href="tlg0019.tlg009.perseus-eng80.html#s1-1424"><title>1.1424 (0.00)</title><rect x="900" y="80" width="4" height="15" fill="#c9493b"/></a>
<a href="tlg0019.tlg009.perseus-eng80.html#s1-1433"><title>1.1433 (0.27)</title><rect x="904" y="80" width="4" height="15" fill="#e8b83d"/></a>
<a href="tlg0019.tlg009.perseus-eng80.html#s1-1442"><title>1.1442 (0.07)</title><rect x="908" y="80" width="4" height="15" fill="#c9493b"/></a>
<a href="tlg0019.tlg009.perseus-eng80.html#s1-1451"><title>1.1451 (0.52)</title><rect x="912" y="80" width="4" height="15" fill="#2d8a4e"/></a>
<a href="tlg0019.tlg009.perseus-eng80.html#s1-1460"><title>1.1460 (0.03)</title><rect x="916" y="80" width="4" height="15" fill="#c9493b"/></a>
<a href="tlg0019.tlg009.perseus-eng80.html#s1-1468"><title>1.1468 (0.44)</title><rect x="920" y="80" width="4" height="15" fill="#e8b83d"/></a>
<a href="tlg0019.tlg009.perseus-eng80.html#s1-1476"><title>1.1476 (0.03)</title><rect x="924" y="80" width="4" height="15" fill="#c9493b"/></a>
<a href="tlg0019.tlg009.perseus-eng80.html#s1-1482"><title>1.1482 (0.34)</title><rect x="928" y="80" width="4" height="15" fill="#e8b83d"/></a>
<a href="tlg0019.tlg009.perseus-eng80.html#s1-1491"><title>1.1491 (0.82)</title><rect x="932" y="80" width="4" height="15" fill="#2d8a4e"/></a>
<a href="tlg0019.tlg009.perseus-eng80.html#s1-1500"><title>1.1500 (1.00)</title><rect x="936" y="80" width="4" height="15" fill="#2d8a4e"/></a>
<a href="tlg0019.tlg009.perseus-eng80.html#s1-1508"><title>1.1508 (0.00)</title><rect x="940" y="80" width="4" height="15" fill="#c9493b"/></a>
<a href="tlg0019.tlg009.perseus-eng80.html#s1-1520"><title>1.1520 (0.04)</title><rect x="944" y="80" width="4" height="15" fill="#c9493b"/></a>
<a href="tlg0019.tlg009.perseus-eng80.html#s1-1528"><title>1.1528 (0.43)</title><rect x="948" y="80" width="4" height="15" fill="#e8b83d"/></a>
<text x="180" y="107" class="warn">⚠ 1.9 → en:1.7  (24 sections, avg=0.022)</text>
<text x="180" y="121" class="warn">⚠ en:1.51 → 1.915  (19 sections, avg=0.012)</text>
<text x="180" y="135" class="warn">⚠ 1.572 → 1.675  (18 sections, avg=0.037)</text>
<line x1="20" y1="149" x2="1200" y2="149" stroke="#ccc" stroke-width="1"/>
<text x="20" y="169" class="total">TOTAL: 193 sections   avg=0.160   High=10%   Med=19%   Low=72%</text>
<rect x="20" y="176" width="116.16580310880829" height="10" fill="#2d8a4e" rx="2"/>
<rect x="136.1658031088083" y="176" width="220.10362694300517" height="10" fill="#e8b83d"/>
<rect x="356.26943005181346" y="176" width="843.7305699481865" height="10" fill="#c9493b" rx="2"/>
</svg>