<svg xmlns="http://www.w3.org/2000/svg" width="1220" height="172" viewBox="0 0 1220 172">
<rect width="1220" height="172" fill="#f5f5f5"/>
<style>
  text { font-family: "SF Mono", "Menlo", "Monaco", monospace; }
  .title { font-size: 16px; font-weight: bold; }
  .subtitle { font-size: 11px; fill: #888; }
  .label { font-size: 11px; fill: #333; }
  .stats { font-size: 10px; fill: #666; }
  .warn { font-size: 9px; fill: #c9493b; }
  .total { font-size: 12px; font-weight: bold; fill: #333; }
  .legend-text { font-size: 10px; fill: #555; }
</style>
<text x="20" y="38" class="title">Alignment Quality Map — Bion of Phlossa — Epitaphius Adonis</text>
<rect x="20" y="50" width="12" height="12" fill="#2d8a4e" rx="2"/>
<text x="36" y="60" class="legend-text">High (≥0.5)</text>
<rect x="160" y="50" width="12" height="12" fill="#e8b83d" rx="2"/>
<text x="176" y="60" class="legend-text">Medium (0.25–0.5)</text>
<rect x="300" y="50" width="12" height="12" fill="#c9493b" rx="2"/>
<text x="316" y="60" class="legend-text">Low (&lt;0.25)</text>
<text x="20" y="92" class="label">Book </text>
<text x="988" y="92" class="stats">n=27  avg=0.475  H=33%  M=67%  L=0%</text>
<a href="tlg0036.tlg003.perseus-eng80.html#s1-1"><title>1.1 (0.42)</title><rect x="180" y="80" width="4" height="15" fill="#e8b83d"/></a>
<a href="tlg0036.tlg003.perseus-eng80.html#s1-13"><title>1.13 (0.27)</title><rect x="184" y="80" width="4" height="15" fill="#e8b83d"/></a>
<a href="tlg0036.tlg003.perseus-eng80.html#s1-23"><title>1.23 (0.26)</title><rect x="188" y="80" width="4" height="15" fill="#e8b83d"/></a>
<a href="tlg0036.tlg003.perseus-eng80.html#s1-31"><title>1.31 (0.39)</title><rect x="192" y="80" width="4" height="15" fill="#e8b83d"/></a>
<a href="tlg0036.tlg003.perseus-eng80.html#s1-39"><title>1.39 (0.37)</title><rect x="196" y="80" width="4" height="15" fill="#e8b83d"/></a>
<a href="tlg0036.tlg003.perseus-eng80.html#s1-54"><title>1.54 (0.45)</title><rect x="200" y="80" width="4" height="15" fill="#e8b83d"/></a>
<a href="tlg0036.tlg003.perseus-eng80.html#s1-64"><title>1.64 (0.62)</title><rect x="204" y="80" width="4" height="15" fill="#2d8a4e"/></a>
<a href="tlg0036.tlg003.perseus-eng80.html#s1-72"><title>1.72 (0.50)</title><rect x="208" y="80" width="4" height="15" fill="#2d8a4e"/></a>
<a href="tlg0036.tlg003.perseus-eng80.html#s1-80"><title>1.80 (0.76)</title><rect x="212" y="80" width="4" height="15" fill="#2d8a4e"/></a>
<a href="tlg0036.tlg003.perseus-eng80.html#s1-91"><title>1.91 (0.82)</title><rect x="216" y="80" width="4" height="15" fill="#2d8a4e"/></a>
<a href="tlg0036.tlg003.perseus-eng80.html#s2-1"><title>2.1 (0.86)</title><rect x="220" y="80" width="4" height="15" fill="#2d8a4e"/></a>
<a href="tlg0036.tlg003.perseus-eng80.html#s2-10"><title>2.10 (0.48)</title><rect x="224" y="80" width="4" height="15" fill="#e8b83d"/></a>
<a href="tlg0036.tlg003.perseus-eng80.html#s2-18"><title>2.18 (0.34)</title><rect x="228" y="80" width="4" height="15" fill="#e8b83d"/></a>
<a href="tlg0036.tlg003.perseus-eng80.html#s2-27"><title>2.27 (0.53)</title><rect x="232" y="80" width="4" height="15" fill="#2d8a4e"/></a>
<a href="tlg0036.tlg003.perseus-eng80.html#s3-1"><title>3.1 (0.27)</title><rect x="236" y="80" width="4" height="15" fill="#e8b83d"/></a>
<a href="tlg0036.tlg003.perseus-eng80.html#s3-9"><title>3.9 (0.35)</title><rect x="240" y="80" width="4" height="15" fill="#e8b83d"/></a>
<a href="tlg0036.tlg003.perseus-eng80.html#s3-17"><title>3.17 (0.51)</title><rect x="244" y="80" width="4" height="15" fill="#2d8a4e"/></a>
<a href="tlg0036.tlg003.perseus-eng80.html#s3-7"><title>3.7 (0.50)</title><rect x="248" y="80" width="4" height="15" fill="#e8b83d"/></a>
<a href="tlg0036.tlg003.perseus-eng80.html#s3-1"><title>3.1 (0.45)</title><rect x="252" y="80" width="4" height="15" fill="#e8b83d"/></a>
<a href="tlg0036.tlg003.perseus-eng80.html#s3-9"><title>3.9 (0.61)</title><rect x="256" y="80" width="4" height="15" fill="#2d8a4e"/></a>
<a href="tlg0036.tlg003.perseus-eng80.html#s3-5"><title>3.5 (0.48)</title><rect x="260" y="80" width="4" height="15" fill="#e8b83d"/></a>
<a href="tlg0036.tlg003.perseus-eng80.html#s3-2"><title>3.2 (0.48)</title><rect x="264" y="80" width="4" height="15" fill="#e8b83d"/></a>
<a href="tlg0036.tlg003.perseus-eng80.html#s3-14"><title>3.14 (0.48)</title><rect x="268" y="80" width="4" height="15" fill="#e8b83d"/></a>
<a href="tlg0036.tlg003.perseus-eng80.html#s3-7"><title>3.7 (0.29)</title><rect x="272" y="80" width="4" height="15" fill="#e8b83d"/></a>
<a href="tlg0036.tlg003.perseus-eng80.html#s3-8"><title>3.8 (0.71)</title><rect x="276" y="80" width="4" height="15" fill="#2d8a4e"/></a>
<a href="tlg0036.tlg003.perseus-eng80.html#s3-1"><title>3.1 (0.30)</title><rect x="280" y="80" width="4" height="15" fill="#e8b83d"/></a>
<a href="tlg0036.tlg003.perseus-eng80.html#s3-2"><title>3.2 (0.32)</title><rect x="284" y="80" width="4" height="15" fill="#e8b83d"/></a>
<line x1="20" y1="107" x2="1200" y2="107" stroke="#ccc" stroke-width="1"/>
<text x="20" y="127" class="total">TOTAL: 27 sections   avg=0.475   High=33%   Med=67%   Low=0%</text>
<rect x="20" y="134" width="393.3333333333333" height="10" fill="#2d8a4e" rx="2"/>
<rect x="413.3333333333333" y="134" width="786.6666666666666" height="10" fill="#e8b83d"/>
<rect x="1200.0" y="134" width="0.0" height="10" fill="#c9493b" rx="2"/>
</svg>