<svg xmlns="http://www.w3.org/2000/svg" width="1220" height="214" viewBox="0 0 1220 214">
<rect width="1220" height="214" fill="#f5f5f5"/>
<style>
  text { font-family: "SF Mono", "Menlo", "Monaco", monospace; }
  .title { font-size: 16px; font-weight: bold; }
  .subtitle { font-size: 11px; fill: #888; }
  .label { font-size: 11px; fill: #333; }
  .stats { font-size: 10px; fill: #666; }
  .warn { font-size: 9px; fill: #c9493b; }
  .total { font-size: 12px; font-weight: bold; fill: #333; }
  .legend-text { font-size: 10px; fill: #555; }
</style>
<text x="20" y="38" class="title">Alignment Quality Map — Aristophanes — Ecclesiazusae</text>
<rect x="20" y="50" width="12" height="12" fill="#2d8a4e" rx="2"/>
<text x="36" y="60" class="legend-text">High (≥0.6)</text>
<rect x="160" y="50" width="12" height="12" fill="#e8b83d" rx="2"/>
<text x="176" y="60" class="legend-text">Medium (0.3–0.6)</text>
<rect x="300" y="50" width="12" height="12" fill="#c9493b" rx="2"/>
<text x="316" y="60" class="legend-text">Low (&lt;0.3)</text>
<text x="20" y="92" class="label">Book 1</text>
<text x="988" y="92" class="stats">n=137  avg=0.136  H=0%  M=12%  L=88%</text>
<rect x="180" y="80" width="4" height="15" fill="#c9493b"/>
<rect x="184" y="80" width="4" height="15" fill="#c9493b"/>
<rect x="188" y="80" width="4" height="15" fill="#c9493b"/>
<rect x="192" y="80" width="4" height="15" fill="#c9493b"/>
<rect x="196" y="80" width="4" height="15" fill="#c9493b"/>
<rect x="200" y="80" width="4" height="15" fill="#c9493b"/>
<rect x="204" y="80" width="4" height="15" fill="#c9493b"/>
<rect x="208" y="80" width="4" height="15" fill="#c9493b"/>
<rect x="212" y="80" width="4" height="15" fill="#c9493b"/>
<rect x="216" y="80" width="4" height="15" fill="#c9493b"/>
<rect x="220" y="80" width="4" height="15" fill="#c9493b"/>
<rect x="224" y="80" width="4" height="15" fill="#c9493b"/>
<rect x="228" y="80" width="4" height="15" fill="#c9493b"/>
<rect x="232" y="80" width="4" height="15" fill="#c9493b"/>
<rect x="236" y="80" width="4" height="15" fill="#c9493b"/>
<rect x="240" y="80" width="4" height="15" fill="#c9493b"/>
<rect x="244" y="80" width="4" height="15" fill="#c9493b"/>
<rect x="248" y="80" width="4" height="15" fill="#c9493b"/>
<rect x="252" y="80" width="4" height="15" fill="#c9493b"/>
<rect x="256" y="80" width="4" height="15" fill="#c9493b"/>
<rect x="260" y="80" width="4" height="15" fill="#c9493b"/>
<rect x="264" y="80" width="4" height="15" fill="#c9493b"/>
<rect x="268" y="80" width="4" height="15" fill="#c9493b"/>
<rect x="272" y="80" width="4" height="15" fill="#c9493b"/>
<rect x="276" y="80" width="4" height="15" fill="#c9493b"/>
<rect x="280" y="80" width="4" height="15" fill="#c9493b"/>
<rect x="284" y="80" width="4" height="15" fill="#c9493b"/>
<rect x="288" y="80" width="4" height="15" fill="#c9493b"/>
<rect x="292" y="80" width="4" height="15" fill="#c9493b"/>
<rect x="296" y="80" width="4" height="15" fill="#c9493b"/>
<rect x="300" y="80" width="4" height="15" fill="#c9493b"/>
<rect x="304" y="80" width="4" height="15" fill="#c9493b"/>
<rect x="308" y="80" width="4" height="15" fill="#c9493b"/>
<rect x="312" y="80" width="4" height="15" fill="#c9493b"/>
<rect x="316" y="80" width="4" height="15" fill="#c9493b"/>
<rect x="320" y="80" width="4" height="15" fill="#c9493b"/>
<rect x="324" y="80" width="4" height="15" fill="#c9493b"/>
<rect x="328" y="80" width="4" height="15" fill="#c9493b"/>
<rect x="332" y="80" width="4" height="15" fill="#c9493b"/>
<rect x="336" y="80" width="4" height="15" fill="#c9493b"/>
<rect x="340" y="80" width="4" height="15" fill="#c9493b"/>
<rect x="344" y="80" width="4" height="15" fill="#c9493b"/>
<rect x="348" y="80" width="4" height="15" fill="#c9493b"/>
<rect x="352" y="80" width="4" height="15" fill="#c9493b"/>
<rect x="356" y="80" width="4" height="15" fill="#e8b83d"/>
<rect x="360" y="80" width="4" height="15" fill="#c9493b"/>
<rect x="364" y="80" width="4" height="15" fill="#c9493b"/>
<rect x="368" y="80" width="4" height="15" fill="#c9493b"/>
<rect x="372" y="80" width="4" height="15" fill="#c9493b"/>
<rect x="376" y="80" width="4" height="15" fill="#e8b83d"/>
<rect x="380" y="80" width="4" height="15" fill="#c9493b"/>
<rect x="384" y="80" width="4" height="15" fill="#c9493b"/>
<rect x="388" y="80" width="4" height="15" fill="#c9493b"/>
<rect x="392" y="80" width="4" height="15" fill="#c9493b"/>
<rect x="396" y="80" width="4" height="15" fill="#c9493b"/>
<rect x="400" y="80" width="4" height="15" fill="#c9493b"/>
<rect x="404" y="80" width="4" height="15" fill="#c9493b"/>
<rect x="408" y="80" width="4" height="15" fill="#c9493b"/>
<rect x="412" y="80" width="4" height="15" fill="#c9493b"/>
<rect x="416" y="80" width="4" height="15" fill="#c9493b"/>
<rect x="420" y="80" width="4" height="15" fill="#c9493b"/>
<rect x="424" y="80" width="4" height="15" fill="#c9493b"/>
<rect x="428" y="80" width="4" height="15" fill="#c9493b"/>
<rect x="432" y="80" width="4" height="15" fill="#c9493b"/>
<rect x="436" y="80" width="4" height="15" fill="#c9493b"/>
<rect x="440" y="80" width="4" height="15" fill="#c9493b"/>
<rect x="444" y="80" width="4" height="15" fill="#c9493b"/>
<rect x="448" y="80" width="4" height="15" fill="#c9493b"/>
<rect x="452" y="80" width="4" height="15" fill="#c9493b"/>
<rect x="456" y="80" width="4" height="15" fill="#c9493b"/>
<rect x="460" y="80" width="4" height="15" fill="#c9493b"/>
<rect x="464" y="80" width="4" height="15" fill="#c9493b"/>
<rect x="468" y="80" width="4" height="15" fill="#c9493b"/>
<rect x="472" y="80" width="4" height="15" fill="#c9493b"/>
<rect x="476" y="80" width="4" height="15" fill="#c9493b"/>
<rect x="480" y="80" width="4" height="15" fill="#c9493b"/>
<rect x="484" y="80" width="4" height="15" fill="#c9493b"/>
<rect x="488" y="80" width="4" height="15" fill="#c9493b"/>
<rect x="492" y="80" width="4" height="15" fill="#c9493b"/>
<rect x="496" y="80" width="4" height="15" fill="#c9493b"/>
<rect x="500" y="80" width="4" height="15" fill="#c9493b"/>
<rect x="504" y="80" width="4" height="15" fill="#c9493b"/>
<rect x="508" y="80" width="4" height="15" fill="#c9493b"/>
<rect x="512" y="80" width="4" height="15" fill="#e8b83d"/>
<rect x="516" y="80" width="4" height="15" fill="#e8b83d"/>
<rect x="520" y="80" width="4" height="15" fill="#e8b83d"/>
<rect x="524" y="80" width="4" height="15" fill="#c9493b"/>
<rect x="528" y="80" width="4" height="15" fill="#e8b83d"/>
<rect x="532" y="80" width="4" height="15" fill="#e8b83d"/>
<rect x="536" y="80" width="4" height="15" fill="#c9493b"/>
<rect x="540" y="80" width="4" height="15" fill="#e8b83d"/>
<rect x="544" y="80" width="4" height="15" fill="#c9493b"/>
<rect x="548" y="80" width="4" height="15" fill="#c9493b"/>
<rect x="552" y="80" width="4" height="15" fill="#e8b83d"/>
<rect x="556" y="80" width="4" height="15" fill="#c9493b"/>
<rect x="560" y="80" width="4" height="15" fill="#c9493b"/>
<rect x="564" y="80" width="4" height="15" fill="#c9493b"/>
<rect x="568" y="80" width="4" height="15" fill="#c9493b"/>
<rect x="572" y="80" width="4" height="15" fill="#c9493b"/>
<rect x="576" y="80" width="4" height="15" fill="#c9493b"/>
<rect x="580" y="80" width="4" height="15" fill="#c9493b"/>
<rect x="584" y="80" width="4" height="15" fill="#c9493b"/>
<rect x="588" y="80" width="4" height="15" fill="#c9493b"/>
<rect x="592" y="80" width="4" height="15" fill="#c9493b"/>
<rect x="596" y="80" width="4" height="15" fill="#e8b83d"/>
<rect x="600" y="80" width="4" height="15" fill="#c9493b"/>
<rect x="604" y="80" width="4" height="15" fill="#c9493b"/>
<rect x="608" y="80" width="4" height="15" fill="#c9493b"/>
<rect x="612" y="80" width="4" height="15" fill="#c9493b"/>
<rect x="616" y="80" width="4" height="15" fill="#c9493b"/>
<rect x="620" y="80" width="4" height="15" fill="#e8b83d"/>
<rect x="624" y="80" width="4" height="15" fill="#c9493b"/>
<rect x="628" y="80" width="4" height="15" fill="#c9493b"/>
<rect x="632" y="80" width="4" height="15" fill="#e8b83d"/>
<rect x="636" y="80" width="4" height="15" fill="#c9493b"/>
<rect x="640" y="80" width="4" height="15" fill="#c9493b"/>
<rect x="644" y="80" width="4" height="15" fill="#c9493b"/>
<rect x="648" y="80" width="4" height="15" fill="#e8b83d"/>
<rect x="652" y="80" width="4" height="15" fill="#c9493b"/>
<rect x="656" y="80" width="4" height="15" fill="#c9493b"/>
<rect x="660" y="80" width="4" height="15" fill="#e8b83d"/>
<rect x="664" y="80" width="4" height="15" fill="#c9493b"/>
<rect x="668" y="80" width="4" height="15" fill="#c9493b"/>
<rect x="672" y="80" width="4" height="15" fill="#c9493b"/>
<rect x="676" y="80" width="4" height="15" fill="#e8b83d"/>
<rect x="680" y="80" width="4" height="15" fill="#c9493b"/>
<rect x="684" y="80" width="4" height="15" fill="#c9493b"/>
<rect x="688" y="80" width="4" height="15" fill="#c9493b"/>
<rect x="692" y="80" width="4" height="15" fill="#c9493b"/>
<rect x="696" y="80" width="4" height="15" fill="#e8b83d"/>
<rect x="700" y="80" width="4" height="15" fill="#c9493b"/>
<rect x="704" y="80" width="4" height="15" fill="#c9493b"/>
<rect x="708" y="80" width="4" height="15" fill="#c9493b"/>
<rect x="712" y="80" width="4" height="15" fill="#c9493b"/>
<rect x="716" y="80" width="4" height="15" fill="#c9493b"/>
<rect x="720" y="80" width="4" height="15" fill="#c9493b"/>
<rect x="724" y="80" width="4" height="15" fill="#c9493b"/>
<text x="180" y="107" class="warn">⚠ 1.1 → 1.380  (44 sections, avg=0.070)</text>
<text x="180" y="121" class="warn">⚠ 1.445 → 1.714  (33 sections, avg=0.121)</text>
<text x="180" y="135" class="warn">⚠ 1.810 → 1.885  (10 sections, avg=0.127)</text>
<line x1="20" y1="149" x2="1200" y2="149" stroke="#ccc" stroke-width="1"/>
<text x="20" y="169" class="total">TOTAL: 137 sections   avg=0.136   High=0%   Med=12%   Low=88%</text>
<rect x="20" y="176" width="0.0" height="10" fill="#2d8a4e" rx="2"/>
<rect x="20.0" y="176" width="137.8102189781022" height="10" fill="#e8b83d"/>
<rect x="157.8102189781022" y="176" width="1042.189781021898" height="10" fill="#c9493b" rx="2"/>
</svg>