<svg xmlns="http://www.w3.org/2000/svg" width="1220" height="370" viewBox="0 0 1220 370">
<rect width="1220" height="370" fill="#f5f5f5"/>
<style>
  text { font-family: "SF Mono", "Menlo", "Monaco", monospace; }
  .title { font-size: 16px; font-weight: bold; }
  .subtitle { font-size: 11px; fill: #888; }
  .label { font-size: 11px; fill: #333; }
  .stats { font-size: 10px; fill: #666; }
  .warn { font-size: 9px; fill: #c9493b; }
  .total { font-size: 12px; font-weight: bold; fill: #333; }
  .legend-text { font-size: 10px; fill: #555; }
</style>
<text x="20" y="38" class="title">Alignment Quality Map — Alignment</text>
<rect x="20" y="50" width="12" height="12" fill="#2d8a4e" rx="2"/>
<text x="36" y="60" class="legend-text">High (≥0.5)</text>
<rect x="160" y="50" width="12" height="12" fill="#e8b83d" rx="2"/>
<text x="176" y="60" class="legend-text">Medium (0.2–0.5)</text>
<rect x="300" y="50" width="12" height="12" fill="#c9493b" rx="2"/>
<text x="316" y="60" class="legend-text">Low (&lt;0.2)</text>
<text x="20" y="92" class="label">Book 1</text>
<text x="988" y="92" class="stats">n=33  avg=0.817  H=100%  M=0%  L=0%</text>
<a href="tlg0658.tlg001.perseus-eng80.html#s1-1"><title>1.1 (0.68)</title><rect x="180" y="80" width="4" height="15" fill="#2d8a4e"/></a>
<a href="tlg0658.tlg001.perseus-eng80.html#s1-2"><title>1.2 (0.50)</title><rect x="184" y="80" width="4" height="15" fill="#2d8a4e"/></a>
<a href="tlg0658.tlg001.perseus-eng80.html#s1-3"><title>1.3 (0.96)</title><rect x="188" y="80" width="4" height="15" fill="#2d8a4e"/></a>
<a href="tlg0658.tlg001.perseus-eng80.html#s1-4"><title>1.4 (0.50)</title><rect x="192" y="80" width="4" height="15" fill="#2d8a4e"/></a>
<a href="tlg0658.tlg001.perseus-eng80.html#s1-5"><title>1.5 (0.50)</title><rect x="196" y="80" width="4" height="15" fill="#2d8a4e"/></a>
<a href="tlg0658.tlg001.perseus-eng80.html#s1-6"><title>1.6 (0.83)</title><rect x="200" y="80" width="4" height="15" fill="#2d8a4e"/></a>
<a href="tlg0658.tlg001.perseus-eng80.html#s1-7"><title>1.7 (0.85)</title><rect x="204" y="80" width="4" height="15" fill="#2d8a4e"/></a>
<a href="tlg0658.tlg001.perseus-eng80.html#s1-8"><title>1.8 (0.78)</title><rect x="208" y="80" width="4" height="15" fill="#2d8a4e"/></a>
<a href="tlg0658.tlg001.perseus-eng80.html#s1-9"><title>1.9 (0.97)</title><rect x="212" y="80" width="4" height="15" fill="#2d8a4e"/></a>
<a href="tlg0658.tlg001.perseus-eng80.html#s1-10"><title>1.10 (0.98)</title><rect x="216" y="80" width="4" height="15" fill="#2d8a4e"/></a>
<a href="tlg0658.tlg001.perseus-eng80.html#s1-11"><title>1.11 (0.99)</title><rect x="220" y="80" width="4" height="15" fill="#2d8a4e"/></a>
<a href="tlg0658.tlg001.perseus-eng80.html#s1-12"><title>1.12 (0.99)</title><rect x="224" y="80" width="4" height="15" fill="#2d8a4e"/></a>
<a href="tlg0658.tlg001.perseus-eng80.html#s1-13"><title>1.13 (0.96)</title><rect x="228" y="80" width="4" height="15" fill="#2d8a4e"/></a>
<a href="tlg0658.tlg001.perseus-eng80.html#s1-14"><title>1.14 (0.89)</title><rect x="232" y="80" width="4" height="15" fill="#2d8a4e"/></a>
<a href="tlg0658.tlg001.perseus-eng80.html#s1-15"><title>1.15 (0.50)</title><rect x="236" y="80" width="4" height="15" fill="#2d8a4e"/></a>
<a href="tlg0658.tlg001.perseus-eng80.html#s1-16"><title>1.16 (0.50)</title><rect x="240" y="80" width="4" height="15" fill="#2d8a4e"/></a>
<a href="tlg0658.tlg001.perseus-eng80.html#s1-17"><title>1.17 (0.68)</title><rect x="244" y="80" width="4" height="15" fill="#2d8a4e"/></a>
<a href="tlg0658.tlg001.perseus-eng80.html#s1-18"><title>1.18 (0.93)</title><rect x="248" y="80" width="4" height="15" fill="#2d8a4e"/></a>
<a href="tlg0658.tlg001.perseus-eng80.html#s1-19"><title>1.19 (0.50)</title><rect x="252" y="80" width="4" height="15" fill="#2d8a4e"/></a>
<a href="tlg0658.tlg001.perseus-eng80.html#s1-20"><title>1.20 (0.80)</title><rect x="256" y="80" width="4" height="15" fill="#2d8a4e"/></a>
<a href="tlg0658.tlg001.perseus-eng80.html#s1-21"><title>1.21 (0.93)</title><rect x="260" y="80" width="4" height="15" fill="#2d8a4e"/></a>
<a href="tlg0658.tlg001.perseus-eng80.html#s1-22"><title>1.22 (0.96)</title><rect x="264" y="80" width="4" height="15" fill="#2d8a4e"/></a>
<a href="tlg0658.tlg001.perseus-eng80.html#s1-23"><title>1.23 (0.73)</title><rect x="268" y="80" width="4" height="15" fill="#2d8a4e"/></a>
<a href="tlg0658.tlg001.perseus-eng80.html#s1-24"><title>1.24 (0.80)</title><rect x="272" y="80" width="4" height="15" fill="#2d8a4e"/></a>
<a href="tlg0658.tlg001.perseus-eng80.html#s1-25"><title>1.25 (0.97)</title><rect x="276" y="80" width="4" height="15" fill="#2d8a4e"/></a>
<a href="tlg0658.tlg001.perseus-eng80.html#s1-26"><title>1.26 (0.96)</title><rect x="280" y="80" width="4" height="15" fill="#2d8a4e"/></a>
<a href="tlg0658.tlg001.perseus-eng80.html#s1-27"><title>1.27 (0.78)</title><rect x="284" y="80" width="4" height="15" fill="#2d8a4e"/></a>
<a href="tlg0658.tlg001.perseus-eng80.html#s1-28"><title>1.28 (0.75)</title><rect x="288" y="80" width="4" height="15" fill="#2d8a4e"/></a>
<a href="tlg0658.tlg001.perseus-eng80.html#s1-29"><title>1.29 (0.97)</title><rect x="292" y="80" width="4" height="15" fill="#2d8a4e"/></a>
<a href="tlg0658.tlg001.perseus-eng80.html#s1-30"><title>1.30 (1.00)</title><rect x="296" y="80" width="4" height="15" fill="#2d8a4e"/></a>
<a href="tlg0658.tlg001.perseus-eng80.html#s1-31"><title>1.31 (0.94)</title><rect x="300" y="80" width="4" height="15" fill="#2d8a4e"/></a>
<a href="tlg0658.tlg001.perseus-eng80.html#s1-32"><title>1.32 (0.85)</title><rect x="304" y="80" width="4" height="15" fill="#2d8a4e"/></a>
<a href="tlg0658.tlg001.perseus-eng80.html#s1-33"><title>1.33 (1.00)</title><rect x="308" y="80" width="4" height="15" fill="#2d8a4e"/></a>
<text x="20" y="114" class="label">Book 2</text>
<text x="988" y="114" class="stats">n=37  avg=0.800  H=100%  M=0%  L=0%</text>
<a href="tlg0658.tlg001.perseus-eng80.html#s2-1"><title>2.1 (0.97)</title><rect x="180" y="102" width="4" height="15" fill="#2d8a4e"/></a>
<a href="tlg0658.tlg001.perseus-eng80.html#s2-2"><title>2.2 (1.00)</title><rect x="184" y="102" width="4" height="15" fill="#2d8a4e"/></a>
<a href="tlg0658.tlg001.perseus-eng80.html#s2-3"><title>2.3 (0.78)</title><rect x="188" y="102" width="4" height="15" fill="#2d8a4e"/></a>
<a href="tlg0658.tlg001.perseus-eng80.html#s2-4"><title>2.4 (0.79)</title><rect x="192" y="102" width="4" height="15" fill="#2d8a4e"/></a>
<a href="tlg0658.tlg001.perseus-eng80.html#s2-5"><title>2.5 (1.00)</title><rect x="196" y="102" width="4" height="15" fill="#2d8a4e"/></a>
<a href="tlg0658.tlg001.perseus-eng80.html#s2-6"><title>2.6 (1.00)</title><rect x="200" y="102" width="4" height="15" fill="#2d8a4e"/></a>
<a href="tlg0658.tlg001.perseus-eng80.html#s2-7"><title>2.7 (0.92)</title><rect x="204" y="102" width="4" height="15" fill="#2d8a4e"/></a>
<a href="tlg0658.tlg001.perseus-eng80.html#s2-8"><title>2.8 (0.50)</title><rect x="208" y="102" width="4" height="15" fill="#2d8a4e"/></a>
<a href="tlg0658.tlg001.perseus-eng80.html#s2-9"><title>2.9 (0.90)</title><rect x="212" y="102" width="4" height="15" fill="#2d8a4e"/></a>
<a href="tlg0658.tlg001.perseus-eng80.html#s2-10"><title>2.10 (1.00)</title><rect x="216" y="102" width="4" height="15" fill="#2d8a4e"/></a>
<a href="tlg0658.tlg001.perseus-eng80.html#s2-11"><title>2.11 (0.86)</title><rect x="220" y="102" width="4" height="15" fill="#2d8a4e"/></a>
<a href="tlg0658.tlg001.perseus-eng80.html#s2-12"><title>2.12 (0.50)</title><rect x="224" y="102" width="4" height="15" fill="#2d8a4e"/></a>
<a href="tlg0658.tlg001.perseus-eng80.html#s2-13"><title>2.13 (0.57)</title><rect x="228" y="102" width="4" height="15" fill="#2d8a4e"/></a>
<a href="tlg0658.tlg001.perseus-eng80.html#s2-14"><title>2.14 (1.00)</title><rect x="232" y="102" width="4" height="15" fill="#2d8a4e"/></a>
<a href="tlg0658.tlg001.perseus-eng80.html#s2-15"><title>2.15 (0.84)</title><rect x="236" y="102" width="4" height="15" fill="#2d8a4e"/></a>
<a href="tlg0658.tlg001.perseus-eng80.html#s2-16"><title>2.16 (0.50)</title><rect x="240" y="102" width="4" height="15" fill="#2d8a4e"/></a>
<a href="tlg0658.tlg001.perseus-eng80.html#s2-17"><title>2.17 (0.99)</title><rect x="244" y="102" width="4" height="15" fill="#2d8a4e"/></a>
<a href="tlg0658.tlg001.perseus-eng80.html#s2-18"><title>2.18 (0.50)</title><rect x="248" y="102" width="4" height="15" fill="#2d8a4e"/></a>
<a href="tlg0658.tlg001.perseus-eng80.html#s2-19"><title>2.19 (0.81)</title><rect x="252" y="102" width="4" height="15" fill="#2d8a4e"/></a>
<a href="tlg0658.tlg001.perseus-eng80.html#s2-20"><title>2.20 (0.93)</title><rect x="256" y="102" width="4" height="15" fill="#2d8a4e"/></a>
<a href="tlg0658.tlg001.perseus-eng80.html#s2-21"><title>2.21 (0.50)</title><rect x="260" y="102" width="4" height="15" fill="#2d8a4e"/></a>
<a href="tlg0658.tlg001.perseus-eng80.html#s2-22"><title>2.22 (0.98)</title><rect x="264" y="102" width="4" height="15" fill="#2d8a4e"/></a>
<a href="tlg0658.tlg001.perseus-eng80.html#s2-23"><title>2.23 (0.82)</title><rect x="268" y="102" width="4" height="15" fill="#2d8a4e"/></a>
<a href="tlg0658.tlg001.perseus-eng80.html#sen:2-23-1"><title>en:2.23.1 (0.50)</title><rect x="272" y="102" width="4" height="15" fill="#2d8a4e"/></a>
<a href="tlg0658.tlg001.perseus-eng80.html#s2-24"><title>2.24 (0.98)</title><rect x="276" y="102" width="4" height="15" fill="#2d8a4e"/></a>
<a href="tlg0658.tlg001.perseus-eng80.html#s2-25"><title>2.25 (1.00)</title><rect x="280" y="102" width="4" height="15" fill="#2d8a4e"/></a>
<a href="tlg0658.tlg001.perseus-eng80.html#s2-26"><title>2.26 (0.99)</title><rect x="284" y="102" width="4" height="15" fill="#2d8a4e"/></a>
<a href="tlg0658.tlg001.perseus-eng80.html#s2-27"><title>2.27 (0.82)</title><rect x="288" y="102" width="4" height="15" fill="#2d8a4e"/></a>
<a href="tlg0658.tlg001.perseus-eng80.html#s2-28"><title>2.28 (0.59)</title><rect x="292" y="102" width="4" height="15" fill="#2d8a4e"/></a>
<a href="tlg0658.tlg001.perseus-eng80.html#s2-29"><title>2.29 (1.00)</title><rect x="296" y="102" width="4" height="15" fill="#2d8a4e"/></a>
<a href="tlg0658.tlg001.perseus-eng80.html#s2-30"><title>2.30 (0.97)</title><rect x="300" y="102" width="4" height="15" fill="#2d8a4e"/></a>
<a href="tlg0658.tlg001.perseus-eng80.html#s2-31"><title>2.31 (0.81)</title><rect x="304" y="102" width="4" height="15" fill="#2d8a4e"/></a>
<a href="tlg0658.tlg001.perseus-eng80.html#s2-32"><title>2.32 (0.80)</title><rect x="308" y="102" width="4" height="15" fill="#2d8a4e"/></a>
<a href="tlg0658.tlg001.perseus-eng80.html#s2-33"><title>2.33 (0.50)</title><rect x="312" y="102" width="4" height="15" fill="#2d8a4e"/></a>
<a href="tlg0658.tlg001.perseus-eng80.html#s2-34"><title>2.34 (0.50)</title><rect x="316" y="102" width="4" height="15" fill="#2d8a4e"/></a>
<a href="tlg0658.tlg001.perseus-eng80.html#s2-35"><title>2.35 (0.63)</title><rect x="320" y="102" width="4" height="15" fill="#2d8a4e"/></a>
<a href="tlg0658.tlg001.perseus-eng80.html#s2-36"><title>2.36 (0.85)</title><rect x="324" y="102" width="4" height="15" fill="#2d8a4e"/></a>
<text x="20" y="136" class="label">Book 3</text>
<text x="988" y="136" class="stats">n=19  avg=0.842  H=100%  M=0%  L=0%</text>
<a href="tlg0658.tlg001.perseus-eng80.html#s3-1"><title>3.1 (0.71)</title><rect x="180" y="124" width="4" height="15" fill="#2d8a4e"/></a>
<a href="tlg0658.tlg001.perseus-eng80.html#s3-2"><title>3.2 (0.82)</title><rect x="184" y="124" width="4" height="15" fill="#2d8a4e"/></a>
<a href="tlg0658.tlg001.perseus-eng80.html#s3-3"><title>3.3 (0.98)</title><rect x="188" y="124" width="4" height="15" fill="#2d8a4e"/></a>
<a href="tlg0658.tlg001.perseus-eng80.html#s3-4"><title>3.4 (0.67)</title><rect x="192" y="124" width="4" height="15" fill="#2d8a4e"/></a>
<a href="tlg0658.tlg001.perseus-eng80.html#s3-5"><title>3.5 (0.65)</title><rect x="196" y="124" width="4" height="15" fill="#2d8a4e"/></a>
<a href="tlg0658.tlg001.perseus-eng80.html#s3-6"><title>3.6 (0.74)</title><rect x="200" y="124" width="4" height="15" fill="#2d8a4e"/></a>
<a href="tlg0658.tlg001.perseus-eng80.html#s3-7"><title>3.7 (0.98)</title><rect x="204" y="124" width="4" height="15" fill="#2d8a4e"/></a>
<a href="tlg0658.tlg001.perseus-eng80.html#s3-8"><title>3.8 (0.78)</title><rect x="208" y="124" width="4" height="15" fill="#2d8a4e"/></a>
<a href="tlg0658.tlg001.perseus-eng80.html#s3-9"><title>3.9 (0.77)</title><rect x="212" y="124" width="4" height="15" fill="#2d8a4e"/></a>
<a href="tlg0658.tlg001.perseus-eng80.html#s3-10"><title>3.10 (0.99)</title><rect x="216" y="124" width="4" height="15" fill="#2d8a4e"/></a>
<a href="tlg0658.tlg001.perseus-eng80.html#s3-11"><title>3.11 (0.50)</title><rect x="220" y="124" width="4" height="15" fill="#2d8a4e"/></a>
<a href="tlg0658.tlg001.perseus-eng80.html#s3-12"><title>3.12 (0.62)</title><rect x="224" y="124" width="4" height="15" fill="#2d8a4e"/></a>
<a href="tlg0658.tlg001.perseus-eng80.html#s3-13"><title>3.13 (0.98)</title><rect x="228" y="124" width="4" height="15" fill="#2d8a4e"/></a>
<a href="tlg0658.tlg001.perseus-eng80.html#s3-14"><title>3.14 (0.99)</title><rect x="232" y="124" width="4" height="15" fill="#2d8a4e"/></a>
<a href="tlg0658.tlg001.perseus-eng80.html#s3-15"><title>3.15 (0.93)</title><rect x="236" y="124" width="4" height="15" fill="#2d8a4e"/></a>
<a href="tlg0658.tlg001.perseus-eng80.html#s3-16"><title>3.16 (0.98)</title><rect x="240" y="124" width="4" height="15" fill="#2d8a4e"/></a>
<a href="tlg0658.tlg001.perseus-eng80.html#s3-17"><title>3.17 (0.97)</title><rect x="244" y="124" width="4" height="15" fill="#2d8a4e"/></a>
<a href="tlg0658.tlg001.perseus-eng80.html#s3-18"><title>3.18 (0.97)</title><rect x="248" y="124" width="4" height="15" fill="#2d8a4e"/></a>
<a href="tlg0658.tlg001.perseus-eng80.html#s3-19"><title>3.19 (0.96)</title><rect x="252" y="124" width="4" height="15" fill="#2d8a4e"/></a>
<text x="20" y="158" class="label">Book 4</text>
<text x="988" y="158" class="stats">n=21  avg=0.859  H=100%  M=0%  L=0%</text>
<a href="tlg0658.tlg001.perseus-eng80.html#s4-1"><title>4.1 (0.94)</title><rect x="180" y="146" width="4" height="15" fill="#2d8a4e"/></a>
<a href="tlg0658.tlg001.perseus-eng80.html#s4-2"><title>4.2 (0.96)</title><rect x="184" y="146" width="4" height="15" fill="#2d8a4e"/></a>
<a href="tlg0658.tlg001.perseus-eng80.html#s4-3"><title>4.3 (0.61)</title><rect x="188" y="146" width="4" height="15" fill="#2d8a4e"/></a>
<a href="tlg0658.tlg001.perseus-eng80.html#s4-4"><title>4.4 (1.00)</title><rect x="192" y="146" width="4" height="15" fill="#2d8a4e"/></a>
<a href="tlg0658.tlg001.perseus-eng80.html#s4-5"><title>4.5 (0.81)</title><rect x="196" y="146" width="4" height="15" fill="#2d8a4e"/></a>
<a href="tlg0658.tlg001.perseus-eng80.html#s4-6"><title>4.6 (0.80)</title><rect x="200" y="146" width="4" height="15" fill="#2d8a4e"/></a>
<a href="tlg0658.tlg001.perseus-eng80.html#s4-7"><title>4.7 (0.58)</title><rect x="204" y="146" width="4" height="15" fill="#2d8a4e"/></a>
<a href="tlg0658.tlg001.perseus-eng80.html#s4-8"><title>4.8 (0.88)</title><rect x="208" y="146" width="4" height="15" fill="#2d8a4e"/></a>
<a href="tlg0658.tlg001.perseus-eng80.html#s4-9"><title>4.9 (1.00)</title><rect x="212" y="146" width="4" height="15" fill="#2d8a4e"/></a>
<a href="tlg0658.tlg001.perseus-eng80.html#s4-10"><title>4.10 (0.93)</title><rect x="216" y="146" width="4" height="15" fill="#2d8a4e"/></a>
<a href="tlg0658.tlg001.perseus-eng80.html#s4-11"><title>4.11 (0.50)</title><rect x="220" y="146" width="4" height="15" fill="#2d8a4e"/></a>
<a href="tlg0658.tlg001.perseus-eng80.html#s4-12"><title>4.12 (0.79)</title><rect x="224" y="146" width="4" height="15" fill="#2d8a4e"/></a>
<a href="tlg0658.tlg001.perseus-eng80.html#s4-13"><title>4.13 (1.00)</title><rect x="228" y="146" width="4" height="15" fill="#2d8a4e"/></a>
<a href="tlg0658.tlg001.perseus-eng80.html#s4-14"><title>4.14 (1.00)</title><rect x="232" y="146" width="4" height="15" fill="#2d8a4e"/></a>
<a href="tlg0658.tlg001.perseus-eng80.html#s4-15"><title>4.15 (0.81)</title><rect x="236" y="146" width="4" height="15" fill="#2d8a4e"/></a>
<a href="tlg0658.tlg001.perseus-eng80.html#s4-16"><title>4.16 (0.99)</title><rect x="240" y="146" width="4" height="15" fill="#2d8a4e"/></a>
<a href="tlg0658.tlg001.perseus-eng80.html#s4-17"><title>4.17 (0.88)</title><rect x="244" y="146" width="4" height="15" fill="#2d8a4e"/></a>
<a href="tlg0658.tlg001.perseus-eng80.html#s4-18"><title>4.18 (0.95)</title><rect x="248" y="146" width="4" height="15" fill="#2d8a4e"/></a>
<a href="tlg0658.tlg001.perseus-eng80.html#s4-19"><title>4.19 (0.78)</title><rect x="252" y="146" width="4" height="15" fill="#2d8a4e"/></a>
<a href="tlg0658.tlg001.perseus-eng80.html#s4-20"><title>4.20 (0.93)</title><rect x="256" y="146" width="4" height="15" fill="#2d8a4e"/></a>
<a href="tlg0658.tlg001.perseus-eng80.html#s4-21"><title>4.21 (0.91)</title><rect x="260" y="146" width="4" height="15" fill="#2d8a4e"/></a>
<text x="20" y="180" class="label">Book 5</text>
<text x="988" y="180" class="stats">n=35  avg=0.870  H=100%  M=0%  L=0%</text>
<a href="tlg0658.tlg001.perseus-eng80.html#s5-1"><title>5.1 (0.60)</title><rect x="180" y="168" width="4" height="15" fill="#2d8a4e"/></a>
<a href="tlg0658.tlg001.perseus-eng80.html#s5-2"><title>5.2 (0.50)</title><rect x="184" y="168" width="4" height="15" fill="#2d8a4e"/></a>
<a href="tlg0658.tlg001.perseus-eng80.html#s5-3"><title>5.3 (0.91)</title><rect x="188" y="168" width="4" height="15" fill="#2d8a4e"/></a>
<a href="tlg0658.tlg001.perseus-eng80.html#s5-4"><title>5.4 (0.95)</title><rect x="192" y="168" width="4" height="15" fill="#2d8a4e"/></a>
<a href="tlg0658.tlg001.perseus-eng80.html#s5-5"><title>5.5 (0.50)</title><rect x="196" y="168" width="4" height="15" fill="#2d8a4e"/></a>
<a href="tlg0658.tlg001.perseus-eng80.html#s5-6"><title>5.6 (0.93)</title><rect x="200" y="168" width="4" height="15" fill="#2d8a4e"/></a>
<a href="tlg0658.tlg001.perseus-eng80.html#s5-7"><title>5.7 (0.99)</title><rect x="204" y="168" width="4" height="15" fill="#2d8a4e"/></a>
<a href="tlg0658.tlg001.perseus-eng80.html#s5-8"><title>5.8 (0.99)</title><rect x="208" y="168" width="4" height="15" fill="#2d8a4e"/></a>
<a href="tlg0658.tlg001.perseus-eng80.html#s5-9"><title>5.9 (0.76)</title><rect x="212" y="168" width="4" height="15" fill="#2d8a4e"/></a>
<a href="tlg0658.tlg001.perseus-eng80.html#s5-10"><title>5.10 (0.85)</title><rect x="216" y="168" width="4" height="15" fill="#2d8a4e"/></a>
<a href="tlg0658.tlg001.perseus-eng80.html#s5-11"><title>5.11 (0.82)</title><rect x="220" y="168" width="4" height="15" fill="#2d8a4e"/></a>
<a href="tlg0658.tlg001.perseus-eng80.html#s5-12"><title>5.12 (0.93)</title><rect x="224" y="168" width="4" height="15" fill="#2d8a4e"/></a>
<a href="tlg0658.tlg001.perseus-eng80.html#s5-13"><title>5.13 (0.93)</title><rect x="228" y="168" width="4" height="15" fill="#2d8a4e"/></a>
<a href="tlg0658.tlg001.perseus-eng80.html#s5-14"><title>5.14 (0.97)</title><rect x="232" y="168" width="4" height="15" fill="#2d8a4e"/></a>
<a href="tlg0658.tlg001.perseus-eng80.html#s5-15"><title>5.15 (0.93)</title><rect x="236" y="168" width="4" height="15" fill="#2d8a4e"/></a>
<a href="tlg0658.tlg001.perseus-eng80.html#s5-16"><title>5.16 (0.96)</title><rect x="240" y="168" width="4" height="15" fill="#2d8a4e"/></a>
<a href="tlg0658.tlg001.perseus-eng80.html#s5-17"><title>5.17 (0.74)</title><rect x="244" y="168" width="4" height="15" fill="#2d8a4e"/></a>
<a href="tlg0658.tlg001.perseus-eng80.html#s5-18"><title>5.18 (0.67)</title><rect x="248" y="168" width="4" height="15" fill="#2d8a4e"/></a>
<a href="tlg0658.tlg001.perseus-eng80.html#s5-19"><title>5.19 (0.98)</title><rect x="252" y="168" width="4" height="15" fill="#2d8a4e"/></a>
<a href="tlg0658.tlg001.perseus-eng80.html#s5-20"><title>5.20 (0.76)</title><rect x="256" y="168" width="4" height="15" fill="#2d8a4e"/></a>
<a href="tlg0658.tlg001.perseus-eng80.html#s5-21"><title>5.21 (0.99)</title><rect x="260" y="168" width="4" height="15" fill="#2d8a4e"/></a>
<a href="tlg0658.tlg001.perseus-eng80.html#s5-22"><title>5.22 (0.85)</title><rect x="264" y="168" width="4" height="15" fill="#2d8a4e"/></a>
<a href="tlg0658.tlg001.perseus-eng80.html#s5-23"><title>5.23 (0.97)</title><rect x="268" y="168" width="4" height="15" fill="#2d8a4e"/></a>
<a href="tlg0658.tlg001.perseus-eng80.html#s5-24"><title>5.24 (0.94)</title><rect x="272" y="168" width="4" height="15" fill="#2d8a4e"/></a>
<a href="tlg0658.tlg001.perseus-eng80.html#s5-25"><title>5.25 (0.97)</title><rect x="276" y="168" width="4" height="15" fill="#2d8a4e"/></a>
<a href="tlg0658.tlg001.perseus-eng80.html#s5-26"><title>5.26 (1.00)</title><rect x="280" y="168" width="4" height="15" fill="#2d8a4e"/></a>
<a href="tlg0658.tlg001.perseus-eng80.html#s5-27"><title>5.27 (0.97)</title><rect x="284" y="168" width="4" height="15" fill="#2d8a4e"/></a>
<a href="tlg0658.tlg001.perseus-eng80.html#s5-28"><title>5.28 (0.50)</title><rect x="288" y="168" width="4" height="15" fill="#2d8a4e"/></a>
<a href="tlg0658.tlg001.perseus-eng80.html#s5-29"><title>5.29 (0.92)</title><rect x="292" y="168" width="4" height="15" fill="#2d8a4e"/></a>
<a href="tlg0658.tlg001.perseus-eng80.html#s5-30"><title>5.30 (0.95)</title><rect x="296" y="168" width="4" height="15" fill="#2d8a4e"/></a>
<a href="tlg0658.tlg001.perseus-eng80.html#s5-31"><title>5.31 (0.97)</title><rect x="300" y="168" width="4" height="15" fill="#2d8a4e"/></a>
<a href="tlg0658.tlg001.perseus-eng80.html#s5-32"><title>5.32 (1.00)</title><rect x="304" y="168" width="4" height="15" fill="#2d8a4e"/></a>
<a href="tlg0658.tlg001.perseus-eng80.html#s5-33"><title>5.33 (0.87)</title><rect x="308" y="168" width="4" height="15" fill="#2d8a4e"/></a>
<a href="tlg0658.tlg001.perseus-eng80.html#s5-34"><title>5.34 (0.99)</title><rect x="312" y="168" width="4" height="15" fill="#2d8a4e"/></a>
<a href="tlg0658.tlg001.perseus-eng80.html#s5-35"><title>5.35 (0.89)</title><rect x="316" y="168" width="4" height="15" fill="#2d8a4e"/></a>
<text x="20" y="202" class="label">Book 6</text>
<text x="988" y="202" class="stats">n=15  avg=0.945  H=100%  M=0%  L=0%</text>
<a href="tlg0658.tlg001.perseus-eng80.html#s6-1"><title>6.1 (0.95)</title><rect x="180" y="190" width="4" height="15" fill="#2d8a4e"/></a>
<a href="tlg0658.tlg001.perseus-eng80.html#s6-2"><title>6.2 (0.98)</title><rect x="184" y="190" width="4" height="15" fill="#2d8a4e"/></a>
<a href="tlg0658.tlg001.perseus-eng80.html#s6-3"><title>6.3 (0.95)</title><rect x="188" y="190" width="4" height="15" fill="#2d8a4e"/></a>
<a href="tlg0658.tlg001.perseus-eng80.html#s6-4"><title>6.4 (0.96)</title><rect x="192" y="190" width="4" height="15" fill="#2d8a4e"/></a>
<a href="tlg0658.tlg001.perseus-eng80.html#s6-5"><title>6.5 (1.00)</title><rect x="196" y="190" width="4" height="15" fill="#2d8a4e"/></a>
<a href="tlg0658.tlg001.perseus-eng80.html#s6-6"><title>6.6 (0.92)</title><rect x="200" y="190" width="4" height="15" fill="#2d8a4e"/></a>
<a href="tlg0658.tlg001.perseus-eng80.html#s6-7"><title>6.7 (0.99)</title><rect x="204" y="190" width="4" height="15" fill="#2d8a4e"/></a>
<a href="tlg0658.tlg001.perseus-eng80.html#s6-8"><title>6.8 (0.50)</title><rect x="208" y="190" width="4" height="15" fill="#2d8a4e"/></a>
<a href="tlg0658.tlg001.perseus-eng80.html#s6-9"><title>6.9 (1.00)</title><rect x="212" y="190" width="4" height="15" fill="#2d8a4e"/></a>
<a href="tlg0658.tlg001.perseus-eng80.html#s6-10"><title>6.10 (0.98)</title><rect x="216" y="190" width="4" height="15" fill="#2d8a4e"/></a>
<a href="tlg0658.tlg001.perseus-eng80.html#s6-11"><title>6.11 (0.99)</title><rect x="220" y="190" width="4" height="15" fill="#2d8a4e"/></a>
<a href="tlg0658.tlg001.perseus-eng80.html#s6-12"><title>6.12 (1.00)</title><rect x="224" y="190" width="4" height="15" fill="#2d8a4e"/></a>
<a href="tlg0658.tlg001.perseus-eng80.html#s6-13"><title>6.13 (1.00)</title><rect x="228" y="190" width="4" height="15" fill="#2d8a4e"/></a>
<a href="tlg0658.tlg001.perseus-eng80.html#s6-14"><title>6.14 (0.98)</title><rect x="232" y="190" width="4" height="15" fill="#2d8a4e"/></a>
<a href="tlg0658.tlg001.perseus-eng80.html#s6-15"><title>6.15 (0.98)</title><rect x="236" y="190" width="4" height="15" fill="#2d8a4e"/></a>
<text x="20" y="224" class="label">Book 7</text>
<text x="988" y="224" class="stats">n=29  avg=0.925  H=100%  M=0%  L=0%</text>
<a href="tlg0658.tlg001.perseus-eng80.html#s7-1"><title>7.1 (0.94)</title><rect x="180" y="212" width="4" height="15" fill="#2d8a4e"/></a>
<a href="tlg0658.tlg001.perseus-eng80.html#s7-2"><title>7.2 (0.91)</title><rect x="184" y="212" width="4" height="15" fill="#2d8a4e"/></a>
<a href="tlg0658.tlg001.perseus-eng80.html#s7-3"><title>7.3 (0.80)</title><rect x="188" y="212" width="4" height="15" fill="#2d8a4e"/></a>
<a href="tlg0658.tlg001.perseus-eng80.html#s7-4"><title>7.4 (0.91)</title><rect x="192" y="212" width="4" height="15" fill="#2d8a4e"/></a>
<a href="tlg0658.tlg001.perseus-eng80.html#s7-5"><title>7.5 (1.00)</title><rect x="196" y="212" width="4" height="15" fill="#2d8a4e"/></a>
<a href="tlg0658.tlg001.perseus-eng80.html#s7-6"><title>7.6 (1.00)</title><rect x="200" y="212" width="4" height="15" fill="#2d8a4e"/></a>
<a href="tlg0658.tlg001.perseus-eng80.html#s7-7"><title>7.7 (0.89)</title><rect x="204" y="212" width="4" height="15" fill="#2d8a4e"/></a>
<a href="tlg0658.tlg001.perseus-eng80.html#s7-8"><title>7.8 (0.91)</title><rect x="208" y="212" width="4" height="15" fill="#2d8a4e"/></a>
<a href="tlg0658.tlg001.perseus-eng80.html#s7-9"><title>7.9 (1.00)</title><rect x="212" y="212" width="4" height="15" fill="#2d8a4e"/></a>
<a href="tlg0658.tlg001.perseus-eng80.html#s7-10"><title>7.10 (1.00)</title><rect x="216" y="212" width="4" height="15" fill="#2d8a4e"/></a>
<a href="tlg0658.tlg001.perseus-eng80.html#s7-11"><title>7.11 (0.91)</title><rect x="220" y="212" width="4" height="15" fill="#2d8a4e"/></a>
<a href="tlg0658.tlg001.perseus-eng80.html#s7-12"><title>7.12 (0.96)</title><rect x="224" y="212" width="4" height="15" fill="#2d8a4e"/></a>
<a href="tlg0658.tlg001.perseus-eng80.html#s7-13"><title>7.13 (0.78)</title><rect x="228" y="212" width="4" height="15" fill="#2d8a4e"/></a>
<a href="tlg0658.tlg001.perseus-eng80.html#s7-14"><title>7.14 (0.94)</title><rect x="232" y="212" width="4" height="15" fill="#2d8a4e"/></a>
<a href="tlg0658.tlg001.perseus-eng80.html#s7-15"><title>7.15 (0.98)</title><rect x="236" y="212" width="4" height="15" fill="#2d8a4e"/></a>
<a href="tlg0658.tlg001.perseus-eng80.html#s7-16"><title>7.16 (0.92)</title><rect x="240" y="212" width="4" height="15" fill="#2d8a4e"/></a>
<a href="tlg0658.tlg001.perseus-eng80.html#s7-17"><title>7.17 (0.80)</title><rect x="244" y="212" width="4" height="15" fill="#2d8a4e"/></a>
<a href="tlg0658.tlg001.perseus-eng80.html#s7-18"><title>7.18 (1.00)</title><rect x="248" y="212" width="4" height="15" fill="#2d8a4e"/></a>
<a href="tlg0658.tlg001.perseus-eng80.html#s7-19"><title>7.19 (1.00)</title><rect x="252" y="212" width="4" height="15" fill="#2d8a4e"/></a>
<a href="tlg0658.tlg001.perseus-eng80.html#s7-20"><title>7.20 (0.98)</title><rect x="256" y="212" width="4" height="15" fill="#2d8a4e"/></a>
<a href="tlg0658.tlg001.perseus-eng80.html#s7-21"><title>7.21 (0.99)</title><rect x="260" y="212" width="4" height="15" fill="#2d8a4e"/></a>
<a href="tlg0658.tlg001.perseus-eng80.html#s7-22"><title>7.22 (0.93)</title><rect x="264" y="212" width="4" height="15" fill="#2d8a4e"/></a>
<a href="tlg0658.tlg001.perseus-eng80.html#s7-23"><title>7.23 (0.79)</title><rect x="268" y="212" width="4" height="15" fill="#2d8a4e"/></a>
<a href="tlg0658.tlg001.perseus-eng80.html#s7-24"><title>7.24 (0.98)</title><rect x="272" y="212" width="4" height="15" fill="#2d8a4e"/></a>
<a href="tlg0658.tlg001.perseus-eng80.html#s7-25"><title>7.25 (0.98)</title><rect x="276" y="212" width="4" height="15" fill="#2d8a4e"/></a>
<a href="tlg0658.tlg001.perseus-eng80.html#s7-26"><title>7.26 (0.81)</title><rect x="280" y="212" width="4" height="15" fill="#2d8a4e"/></a>
<a href="tlg0658.tlg001.perseus-eng80.html#s7-27"><title>7.27 (1.00)</title><rect x="284" y="212" width="4" height="15" fill="#2d8a4e"/></a>
<a href="tlg0658.tlg001.perseus-eng80.html#s7-28"><title>7.28 (0.95)</title><rect x="288" y="212" width="4" height="15" fill="#2d8a4e"/></a>
<a href="tlg0658.tlg001.perseus-eng80.html#s7-29"><title>7.29 (0.78)</title><rect x="292" y="212" width="4" height="15" fill="#2d8a4e"/></a>
<text x="20" y="246" class="label">Book 8</text>
<text x="988" y="246" class="stats">n=18  avg=0.799  H=100%  M=0%  L=0%</text>
<a href="tlg0658.tlg001.perseus-eng80.html#s8-1"><title>8.1 (0.72)</title><rect x="180" y="234" width="4" height="15" fill="#2d8a4e"/></a>
<a href="tlg0658.tlg001.perseus-eng80.html#s8-2"><title>8.2 (0.86)</title><rect x="184" y="234" width="4" height="15" fill="#2d8a4e"/></a>
<a href="tlg0658.tlg001.perseus-eng80.html#s8-3"><title>8.3 (0.50)</title><rect x="188" y="234" width="4" height="15" fill="#2d8a4e"/></a>
<a href="tlg0658.tlg001.perseus-eng80.html#s8-4"><title>8.4 (0.95)</title><rect x="192" y="234" width="4" height="15" fill="#2d8a4e"/></a>
<a href="tlg0658.tlg001.perseus-eng80.html#s8-5"><title>8.5 (0.50)</title><rect x="196" y="234" width="4" height="15" fill="#2d8a4e"/></a>
<a href="tlg0658.tlg001.perseus-eng80.html#s8-6"><title>8.6 (1.00)</title><rect x="200" y="234" width="4" height="15" fill="#2d8a4e"/></a>
<a href="tlg0658.tlg001.perseus-eng80.html#s8-7"><title>8.7 (0.97)</title><rect x="204" y="234" width="4" height="15" fill="#2d8a4e"/></a>
<a href="tlg0658.tlg001.perseus-eng80.html#s8-8"><title>8.8 (0.87)</title><rect x="208" y="234" width="4" height="15" fill="#2d8a4e"/></a>
<a href="tlg0658.tlg001.perseus-eng80.html#s8-9-0"><title>8.9.0 (0.50)</title><rect x="212" y="234" width="4" height="15" fill="#2d8a4e"/></a>
<a href="tlg0658.tlg001.perseus-eng80.html#s8-9-1"><title>8.9.1 (0.50)</title><rect x="216" y="234" width="4" height="15" fill="#2d8a4e"/></a>
<a href="tlg0658.tlg001.perseus-eng80.html#s8-10"><title>8.10 (0.76)</title><rect x="220" y="234" width="4" height="15" fill="#2d8a4e"/></a>
<a href="tlg0658.tlg001.perseus-eng80.html#s8-11"><title>8.11 (0.81)</title><rect x="224" y="234" width="4" height="15" fill="#2d8a4e"/></a>
<a href="tlg0658.tlg001.perseus-eng80.html#s8-12"><title>8.12 (0.84)</title><rect x="228" y="234" width="4" height="15" fill="#2d8a4e"/></a>
<a href="tlg0658.tlg001.perseus-eng80.html#s8-13"><title>8.13 (0.82)</title><rect x="232" y="234" width="4" height="15" fill="#2d8a4e"/></a>
<a href="tlg0658.tlg001.perseus-eng80.html#s8-14"><title>8.14 (0.85)</title><rect x="236" y="234" width="4" height="15" fill="#2d8a4e"/></a>
<a href="tlg0658.tlg001.perseus-eng80.html#s8-15"><title>8.15 (0.95)</title><rect x="240" y="234" width="4" height="15" fill="#2d8a4e"/></a>
<a href="tlg0658.tlg001.perseus-eng80.html#s8-16"><title>8.16 (0.98)</title><rect x="244" y="234" width="4" height="15" fill="#2d8a4e"/></a>
<a href="tlg0658.tlg001.perseus-eng80.html#s8-17"><title>8.17 (0.99)</title><rect x="248" y="234" width="4" height="15" fill="#2d8a4e"/></a>
<text x="20" y="268" class="label">Book 9</text>
<text x="988" y="268" class="stats">n=27  avg=0.884  H=100%  M=0%  L=0%</text>
<a href="tlg0658.tlg001.perseus-eng80.html#s9-1"><title>9.1 (0.57)</title><rect x="180" y="256" width="4" height="15" fill="#2d8a4e"/></a>
<a href="tlg0658.tlg001.perseus-eng80.html#s9-2"><title>9.2 (0.96)</title><rect x="184" y="256" width="4" height="15" fill="#2d8a4e"/></a>
<a href="tlg0658.tlg001.perseus-eng80.html#s9-3"><title>9.3 (0.82)</title><rect x="188" y="256" width="4" height="15" fill="#2d8a4e"/></a>
<a href="tlg0658.tlg001.perseus-eng80.html#s9-4"><title>9.4 (1.00)</title><rect x="192" y="256" width="4" height="15" fill="#2d8a4e"/></a>
<a href="tlg0658.tlg001.perseus-eng80.html#s9-5"><title>9.5 (0.50)</title><rect x="196" y="256" width="4" height="15" fill="#2d8a4e"/></a>
<a href="tlg0658.tlg001.perseus-eng80.html#s9-6"><title>9.6 (1.00)</title><rect x="200" y="256" width="4" height="15" fill="#2d8a4e"/></a>
<a href="tlg0658.tlg001.perseus-eng80.html#s9-7"><title>9.7 (1.00)</title><rect x="204" y="256" width="4" height="15" fill="#2d8a4e"/></a>
<a href="tlg0658.tlg001.perseus-eng80.html#s9-8"><title>9.8 (0.64)</title><rect x="208" y="256" width="4" height="15" fill="#2d8a4e"/></a>
<a href="tlg0658.tlg001.perseus-eng80.html#s9-9"><title>9.9 (0.94)</title><rect x="212" y="256" width="4" height="15" fill="#2d8a4e"/></a>
<a href="tlg0658.tlg001.perseus-eng80.html#s9-10"><title>9.10 (0.87)</title><rect x="216" y="256" width="4" height="15" fill="#2d8a4e"/></a>
<a href="tlg0658.tlg001.perseus-eng80.html#s9-11"><title>9.11 (0.96)</title><rect x="220" y="256" width="4" height="15" fill="#2d8a4e"/></a>
<a href="tlg0658.tlg001.perseus-eng80.html#s9-12"><title>9.12 (0.92)</title><rect x="224" y="256" width="4" height="15" fill="#2d8a4e"/></a>
<a href="tlg0658.tlg001.perseus-eng80.html#s9-13"><title>9.13 (0.95)</title><rect x="228" y="256" width="4" height="15" fill="#2d8a4e"/></a>
<a href="tlg0658.tlg001.perseus-eng80.html#s9-14"><title>9.14 (0.97)</title><rect x="232" y="256" width="4" height="15" fill="#2d8a4e"/></a>
<a href="tlg0658.tlg001.perseus-eng80.html#s9-15"><title>9.15 (0.86)</title><rect x="236" y="256" width="4" height="15" fill="#2d8a4e"/></a>
<a href="tlg0658.tlg001.perseus-eng80.html#s9-16"><title>9.16 (0.94)</title><rect x="240" y="256" width="4" height="15" fill="#2d8a4e"/></a>
<a href="tlg0658.tlg001.perseus-eng80.html#s9-17"><title>9.17 (0.91)</title><rect x="244" y="256" width="4" height="15" fill="#2d8a4e"/></a>
<a href="tlg0658.tlg001.perseus-eng80.html#s9-18"><title>9.18 (0.93)</title><rect x="248" y="256" width="4" height="15" fill="#2d8a4e"/></a>
<a href="tlg0658.tlg001.perseus-eng80.html#s9-19"><title>9.19 (1.00)</title><rect x="252" y="256" width="4" height="15" fill="#2d8a4e"/></a>
<a href="tlg0658.tlg001.perseus-eng80.html#s9-20"><title>9.20 (0.98)</title><rect x="256" y="256" width="4" height="15" fill="#2d8a4e"/></a>
<a href="tlg0658.tlg001.perseus-eng80.html#s9-21"><title>9.21 (0.99)</title><rect x="260" y="256" width="4" height="15" fill="#2d8a4e"/></a>
<a href="tlg0658.tlg001.perseus-eng80.html#s9-22"><title>9.22 (0.99)</title><rect x="264" y="256" width="4" height="15" fill="#2d8a4e"/></a>
<a href="tlg0658.tlg001.perseus-eng80.html#s9-23"><title>9.23 (0.92)</title><rect x="268" y="256" width="4" height="15" fill="#2d8a4e"/></a>
<a href="tlg0658.tlg001.perseus-eng80.html#s9-24"><title>9.24 (0.50)</title><rect x="272" y="256" width="4" height="15" fill="#2d8a4e"/></a>
<a href="tlg0658.tlg001.perseus-eng80.html#s9-25"><title>9.25 (1.00)</title><rect x="276" y="256" width="4" height="15" fill="#2d8a4e"/></a>
<a href="tlg0658.tlg001.perseus-eng80.html#s9-26"><title>9.26 (0.99)</title><rect x="280" y="256" width="4" height="15" fill="#2d8a4e"/></a>
<a href="tlg0658.tlg001.perseus-eng80.html#s9-27"><title>9.27 (0.76)</title><rect x="284" y="256" width="4" height="15" fill="#2d8a4e"/></a>
<text x="20" y="290" class="label">Book 10</text>
<text x="988" y="290" class="stats">n=41  avg=0.830  H=100%  M=0%  L=0%</text>
<a href="tlg0658.tlg001.perseus-eng80.html#s10-1"><title>10.1 (1.00)</title><rect x="180" y="278" width="4" height="15" fill="#2d8a4e"/></a>
<a href="tlg0658.tlg001.perseus-eng80.html#s10-2"><title>10.2 (0.88)</title><rect x="184" y="278" width="4" height="15" fill="#2d8a4e"/></a>
<a href="tlg0658.tlg001.perseus-eng80.html#s10-3"><title>10.3 (0.82)</title><rect x="188" y="278" width="4" height="15" fill="#2d8a4e"/></a>
<a href="tlg0658.tlg001.perseus-eng80.html#s10-4"><title>10.4 (0.53)</title><rect x="192" y="278" width="4" height="15" fill="#2d8a4e"/></a>
<a href="tlg0658.tlg001.perseus-eng80.html#s10-5"><title>10.5 (0.99)</title><rect x="196" y="278" width="4" height="15" fill="#2d8a4e"/></a>
<a href="tlg0658.tlg001.perseus-eng80.html#s10-6"><title>10.6 (0.53)</title><rect x="200" y="278" width="4" height="15" fill="#2d8a4e"/></a>
<a href="tlg0658.tlg001.perseus-eng80.html#s10-7"><title>10.7 (0.50)</title><rect x="204" y="278" width="4" height="15" fill="#2d8a4e"/></a>
<a href="tlg0658.tlg001.perseus-eng80.html#s10-8"><title>10.8 (0.92)</title><rect x="208" y="278" width="4" height="15" fill="#2d8a4e"/></a>
<a href="tlg0658.tlg001.perseus-eng80.html#s10-9"><title>10.9 (0.50)</title><rect x="212" y="278" width="4" height="15" fill="#2d8a4e"/></a>
<a href="tlg0658.tlg001.perseus-eng80.html#s10-10"><title>10.10 (0.97)</title><rect x="216" y="278" width="4" height="15" fill="#2d8a4e"/></a>
<a href="tlg0658.tlg001.perseus-eng80.html#s10-11"><title>10.11 (0.94)</title><rect x="220" y="278" width="4" height="15" fill="#2d8a4e"/></a>
<a href="tlg0658.tlg001.perseus-eng80.html#s10-12"><title>10.12 (0.91)</title><rect x="224" y="278" width="4" height="15" fill="#2d8a4e"/></a>
<a href="tlg0658.tlg001.perseus-eng80.html#s10-13"><title>10.13 (0.99)</title><rect x="228" y="278" width="4" height="15" fill="#2d8a4e"/></a>
<a href="tlg0658.tlg001.perseus-eng80.html#s10-14"><title>10.14 (0.93)</title><rect x="232" y="278" width="4" height="15" fill="#2d8a4e"/></a>
<a href="tlg0658.tlg001.perseus-eng80.html#s10-15"><title>10.15 (0.87)</title><rect x="236" y="278" width="4" height="15" fill="#2d8a4e"/></a>
<a href="tlg0658.tlg001.perseus-eng80.html#s10-16"><title>10.16 (0.50)</title><rect x="240" y="278" width="4" height="15" fill="#2d8a4e"/></a>
<a href="tlg0658.tlg001.perseus-eng80.html#s10-17"><title>10.17 (0.99)</title><rect x="244" y="278" width="4" height="15" fill="#2d8a4e"/></a>
<a href="tlg0658.tlg001.perseus-eng80.html#s10-18"><title>10.18 (0.96)</title><rect x="248" y="278" width="4" height="15" fill="#2d8a4e"/></a>
<a href="tlg0658.tlg001.perseus-eng80.html#s10-19"><title>10.19 (0.72)</title><rect x="252" y="278" width="4" height="15" fill="#2d8a4e"/></a>
<a href="tlg0658.tlg001.perseus-eng80.html#s10-20"><title>10.20 (0.96)</title><rect x="256" y="278" width="4" height="15" fill="#2d8a4e"/></a>
<a href="tlg0658.tlg001.perseus-eng80.html#s10-21"><title>10.21 (0.99)</title><rect x="260" y="278" width="4" height="15" fill="#2d8a4e"/></a>
<a href="tlg0658.tlg001.perseus-eng80.html#s10-22"><title>10.22 (0.50)</title><rect x="264" y="278" width="4" height="15" fill="#2d8a4e"/></a>
<a href="tlg0658.tlg001.perseus-eng80.html#s10-23"><title>10.23 (0.99)</title><rect x="268" y="278" width="4" height="15" fill="#2d8a4e"/></a>
<a href="tlg0658.tlg001.perseus-eng80.html#s10-24"><title>10.24 (0.91)</title><rect x="272" y="278" width="4" height="15" fill="#2d8a4e"/></a>
<a href="tlg0658.tlg001.perseus-eng80.html#s10-25"><title>10.25 (0.93)</title><rect x="276" y="278" width="4" height="15" fill="#2d8a4e"/></a>
<a href="tlg0658.tlg001.perseus-eng80.html#s10-26"><title>10.26 (0.99)</title><rect x="280" y="278" width="4" height="15" fill="#2d8a4e"/></a>
<a href="tlg0658.tlg001.perseus-eng80.html#s10-27"><title>10.27 (0.88)</title><rect x="284" y="278" width="4" height="15" fill="#2d8a4e"/></a>
<a href="tlg0658.tlg001.perseus-eng80.html#s10-28"><title>10.28 (0.50)</title><rect x="288" y="278" width="4" height="15" fill="#2d8a4e"/></a>
<a href="tlg0658.tlg001.perseus-eng80.html#s10-29"><title>10.29 (0.50)</title><rect x="292" y="278" width="4" height="15" fill="#2d8a4e"/></a>
<a href="tlg0658.tlg001.perseus-eng80.html#s10-30"><title>10.30 (0.94)</title><rect x="296" y="278" width="4" height="15" fill="#2d8a4e"/></a>
<a href="tlg0658.tlg001.perseus-eng80.html#s10-31"><title>10.31 (0.59)</title><rect x="300" y="278" width="4" height="15" fill="#2d8a4e"/></a>
<a href="tlg0658.tlg001.perseus-eng80.html#s10-32"><title>10.32 (0.90)</title><rect x="304" y="278" width="4" height="15" fill="#2d8a4e"/></a>
<a href="tlg0658.tlg001.perseus-eng80.html#s10-33"><title>10.33 (0.92)</title><rect x="308" y="278" width="4" height="15" fill="#2d8a4e"/></a>
<a href="tlg0658.tlg001.perseus-eng80.html#s10-34"><title>10.34 (0.62)</title><rect x="312" y="278" width="4" height="15" fill="#2d8a4e"/></a>
<a href="tlg0658.tlg001.perseus-eng80.html#s10-35"><title>10.35 (0.95)</title><rect x="316" y="278" width="4" height="15" fill="#2d8a4e"/></a>
<a href="tlg0658.tlg001.perseus-eng80.html#s10-36"><title>10.36 (0.95)</title><rect x="320" y="278" width="4" height="15" fill="#2d8a4e"/></a>
<a href="tlg0658.tlg001.perseus-eng80.html#s10-37"><title>10.37 (0.98)</title><rect x="324" y="278" width="4" height="15" fill="#2d8a4e"/></a>
<a href="tlg0658.tlg001.perseus-eng80.html#s10-38"><title>10.38 (0.99)</title><rect x="328" y="278" width="4" height="15" fill="#2d8a4e"/></a>
<a href="tlg0658.tlg001.perseus-eng80.html#s10-39"><title>10.39 (0.84)</title><rect x="332" y="278" width="4" height="15" fill="#2d8a4e"/></a>
<a href="tlg0658.tlg001.perseus-eng80.html#s10-40"><title>10.40 (0.77)</title><rect x="336" y="278" width="4" height="15" fill="#2d8a4e"/></a>
<a href="tlg0658.tlg001.perseus-eng80.html#s10-41"><title>10.41 (1.00)</title><rect x="340" y="278" width="4" height="15" fill="#2d8a4e"/></a>
<line x1="20" y1="305" x2="1200" y2="305" stroke="#ccc" stroke-width="1"/>
<text x="20" y="325" class="total">TOTAL: 275 sections   avg=0.852   High=100%   Med=0%   Low=0%</text>
<rect x="20" y="332" width="1180.0" height="10" fill="#2d8a4e" rx="2"/>
<rect x="1200.0" y="332" width="0.0" height="10" fill="#e8b83d"/>
<rect x="1200.0" y="332" width="0.0" height="10" fill="#c9493b" rx="2"/>
</svg>