<svg xmlns="http://www.w3.org/2000/svg" width="1220" height="186" viewBox="0 0 1220 186">
<rect width="1220" height="186" fill="#f5f5f5"/>
<style>
  text { font-family: "SF Mono", "Menlo", "Monaco", monospace; }
  .title { font-size: 16px; font-weight: bold; }
  .subtitle { font-size: 11px; fill: #888; }
  .label { font-size: 11px; fill: #333; }
  .stats { font-size: 10px; fill: #666; }
  .warn { font-size: 9px; fill: #c9493b; }
  .total { font-size: 12px; font-weight: bold; fill: #333; }
  .legend-text { font-size: 10px; fill: #555; }
</style>
<text x="20" y="38" class="title">Alignment Quality Map — Moschus — Eros Drapeta</text>
<rect x="20" y="50" width="12" height="12" fill="#2d8a4e" rx="2"/>
<text x="36" y="60" class="legend-text">High (≥0.5)</text>
<rect x="160" y="50" width="12" height="12" fill="#e8b83d" rx="2"/>
<text x="176" y="60" class="legend-text">Medium (0.25–0.5)</text>
<rect x="300" y="50" width="12" height="12" fill="#c9493b" rx="2"/>
<text x="316" y="60" class="legend-text">Low (&lt;0.25)</text>
<text x="20" y="92" class="label">Book </text>
<text x="988" y="92" class="stats">n=57  avg=0.398  H=32%  M=40%  L=28%</text>
<a href="tlg0035.tlg004.perseus-eng80.html#s1-1"><title>1.1 (0.63)</title><rect x="180" y="80" width="4" height="15" fill="#2d8a4e"/></a>
<a href="tlg0035.tlg004.perseus-eng80.html#s1-9"><title>1.9 (0.37)</title><rect x="184" y="80" width="4" height="15" fill="#e8b83d"/></a>
<a href="tlg0035.tlg004.perseus-eng80.html#s1-18"><title>1.18 (0.57)</title><rect x="188" y="80" width="4" height="15" fill="#2d8a4e"/></a>
<a href="tlg0035.tlg004.perseus-eng80.html#s1-26"><title>1.26 (0.75)</title><rect x="192" y="80" width="4" height="15" fill="#2d8a4e"/></a>
<a href="tlg0035.tlg004.perseus-eng80.html#s2-1"><title>2.1 (0.16)</title><rect x="196" y="80" width="4" height="15" fill="#c9493b"/></a>
<a href="tlg0035.tlg004.perseus-eng80.html#s2-10"><title>2.10 (0.28)</title><rect x="200" y="80" width="4" height="15" fill="#e8b83d"/></a>
<a href="tlg0035.tlg004.perseus-eng80.html#s2-18"><title>2.18 (0.37)</title><rect x="204" y="80" width="4" height="15" fill="#e8b83d"/></a>
<a href="tlg0035.tlg004.perseus-eng80.html#s2-27"><title>2.27 (0.37)</title><rect x="208" y="80" width="4" height="15" fill="#e8b83d"/></a>
<a href="tlg0035.tlg004.perseus-eng80.html#s2-37"><title>2.37 (0.41)</title><rect x="212" y="80" width="4" height="15" fill="#e8b83d"/></a>
<a href="tlg0035.tlg004.perseus-eng80.html#s2-46"><title>2.46 (0.33)</title><rect x="216" y="80" width="4" height="15" fill="#e8b83d"/></a>
<a href="tlg0035.tlg004.perseus-eng80.html#s2-55"><title>2.55 (0.38)</title><rect x="220" y="80" width="4" height="15" fill="#e8b83d"/></a>
<a href="tlg0035.tlg004.perseus-eng80.html#s2-63"><title>2.63 (0.48)</title><rect x="224" y="80" width="4" height="15" fill="#e8b83d"/></a>
<a href="tlg0035.tlg004.perseus-eng80.html#s2-72"><title>2.72 (0.33)</title><rect x="228" y="80" width="4" height="15" fill="#e8b83d"/></a>
<a href="tlg0035.tlg004.perseus-eng80.html#s2-84"><title>2.84 (0.52)</title><rect x="232" y="80" width="4" height="15" fill="#2d8a4e"/></a>
<a href="tlg0035.tlg004.perseus-eng80.html#s2-93"><title>2.93 (0.48)</title><rect x="236" y="80" width="4" height="15" fill="#e8b83d"/></a>
<a href="tlg0035.tlg004.perseus-eng80.html#s2-101"><title>2.101 (0.32)</title><rect x="240" y="80" width="4" height="15" fill="#e8b83d"/></a>
<a href="tlg0035.tlg004.perseus-eng80.html#s2-111"><title>2.111 (0.38)</title><rect x="244" y="80" width="4" height="15" fill="#e8b83d"/></a>
<a href="tlg0035.tlg004.perseus-eng80.html#s2-120"><title>2.120 (0.08)</title><rect x="248" y="80" width="4" height="15" fill="#c9493b"/></a>
<a href="tlg0035.tlg004.perseus-eng80.html#s2-129"><title>2.129 (0.24)</title><rect x="252" y="80" width="4" height="15" fill="#c9493b"/></a>
<a href="tlg0035.tlg004.perseus-eng80.html#s2-139"><title>2.139 (0.41)</title><rect x="256" y="80" width="4" height="15" fill="#e8b83d"/></a>
<a href="tlg0035.tlg004.perseus-eng80.html#s2-149"><title>2.149 (0.15)</title><rect x="260" y="80" width="4" height="15" fill="#c9493b"/></a>
<a href="tlg0035.tlg004.perseus-eng80.html#s2-157"><title>2.157 (0.08)</title><rect x="264" y="80" width="4" height="15" fill="#c9493b"/></a>
<a href="tlg0035.tlg004.perseus-eng80.html#s3-1"><title>3.1 (0.59)</title><rect x="268" y="80" width="4" height="15" fill="#2d8a4e"/></a>
<a href="tlg0035.tlg004.perseus-eng80.html#s3-9"><title>3.9 (0.40)</title><rect x="272" y="80" width="4" height="15" fill="#e8b83d"/></a>
<a href="tlg0035.tlg004.perseus-eng80.html#s3-19"><title>3.19 (0.38)</title><rect x="276" y="80" width="4" height="15" fill="#e8b83d"/></a>
<a href="tlg0035.tlg004.perseus-eng80.html#s3-28"><title>3.28 (0.33)</title><rect x="280" y="80" width="4" height="15" fill="#e8b83d"/></a>
<a href="tlg0035.tlg004.perseus-eng80.html#s3-36"><title>3.36 (0.12)</title><rect x="284" y="80" width="4" height="15" fill="#c9493b"/></a>
<a href="tlg0035.tlg004.perseus-eng80.html#s3-45"><title>3.45 (0.17)</title><rect x="288" y="80" width="4" height="15" fill="#c9493b"/></a>
<a href="tlg0035.tlg004.perseus-eng80.html#s3-53"><title>3.53 (0.38)</title><rect x="292" y="80" width="4" height="15" fill="#e8b83d"/></a>
<a href="tlg0035.tlg004.perseus-eng80.html#s3-53"><title>3.53 (0.38)</title><rect x="296" y="80" width="4" height="15" fill="#e8b83d"/></a>
<a href="tlg0035.tlg004.perseus-eng80.html#s3-62"><title>3.62 (0.42)</title><rect x="300" y="80" width="4" height="15" fill="#e8b83d"/></a>
<a href="tlg0035.tlg004.perseus-eng80.html#s3-62"><title>3.62 (0.10)</title><rect x="304" y="80" width="4" height="15" fill="#c9493b"/></a>
<a href="tlg0035.tlg004.perseus-eng80.html#s3-70"><title>3.70 (0.15)</title><rect x="308" y="80" width="4" height="15" fill="#c9493b"/></a>
<a href="tlg0035.tlg004.perseus-eng80.html#s3-78"><title>3.78 (0.70)</title><rect x="312" y="80" width="4" height="15" fill="#2d8a4e"/></a>
<a href="tlg0035.tlg004.perseus-eng80.html#s3-86"><title>3.86 (0.63)</title><rect x="316" y="80" width="4" height="15" fill="#2d8a4e"/></a>
<a href="tlg0035.tlg004.perseus-eng80.html#s3-98"><title>3.98 (0.76)</title><rect x="320" y="80" width="4" height="15" fill="#2d8a4e"/></a>
<a href="tlg0035.tlg004.perseus-eng80.html#s3-107"><title>3.107 (0.68)</title><rect x="324" y="80" width="4" height="15" fill="#2d8a4e"/></a>
<a href="tlg0035.tlg004.perseus-eng80.html#s3-121"><title>3.121 (0.51)</title><rect x="328" y="80" width="4" height="15" fill="#2d8a4e"/></a>
<a href="tlg0035.tlg004.perseus-eng80.html#s4-1"><title>4.1 (0.65)</title><rect x="332" y="80" width="4" height="15" fill="#2d8a4e"/></a>
<a href="tlg0035.tlg004.perseus-eng80.html#s4-11"><title>4.11 (0.47)</title><rect x="336" y="80" width="4" height="15" fill="#e8b83d"/></a>
<a href="tlg0035.tlg004.perseus-eng80.html#s4-19"><title>4.19 (0.66)</title><rect x="340" y="80" width="4" height="15" fill="#2d8a4e"/></a>
<a href="tlg0035.tlg004.perseus-eng80.html#s4-27"><title>4.27 (0.65)</title><rect x="344" y="80" width="4" height="15" fill="#2d8a4e"/></a>
<a href="tlg0035.tlg004.perseus-eng80.html#s4-36"><title>4.36 (0.70)</title><rect x="348" y="80" width="4" height="15" fill="#2d8a4e"/></a>
<a href="tlg0035.tlg004.perseus-eng80.html#s4-47"><title>4.47 (0.62)</title><rect x="352" y="80" width="4" height="15" fill="#2d8a4e"/></a>
<a href="tlg0035.tlg004.perseus-eng80.html#s4-56"><title>4.56 (0.70)</title><rect x="356" y="80" width="4" height="15" fill="#2d8a4e"/></a>
<a href="tlg0035.tlg004.perseus-eng80.html#s4-65"><title>4.65 (0.59)</title><rect x="360" y="80" width="4" height="15" fill="#2d8a4e"/></a>
<a href="tlg0035.tlg004.perseus-eng80.html#s4-75"><title>4.75 (0.66)</title><rect x="364" y="80" width="4" height="15" fill="#2d8a4e"/></a>
<a href="tlg0035.tlg004.perseus-eng80.html#s4-83"><title>4.83 (0.14)</title><rect x="368" y="80" width="4" height="15" fill="#c9493b"/></a>
<a href="tlg0035.tlg004.perseus-eng80.html#s4-91"><title>4.91 (0.15)</title><rect x="372" y="80" width="4" height="15" fill="#c9493b"/></a>
<a href="tlg0035.tlg004.perseus-eng80.html#s4-99"><title>4.99 (0.06)</title><rect x="376" y="80" width="4" height="15" fill="#c9493b"/></a>
<a href="tlg0035.tlg004.perseus-eng80.html#s4-107"><title>4.107 (0.09)</title><rect x="380" y="80" width="4" height="15" fill="#c9493b"/></a>
<a href="tlg0035.tlg004.perseus-eng80.html#s4-118"><title>4.118 (0.17)</title><rect x="384" y="80" width="4" height="15" fill="#c9493b"/></a>
<a href="tlg0035.tlg004.perseus-eng80.html#s5-1"><title>5.1 (0.18)</title><rect x="388" y="80" width="4" height="15" fill="#c9493b"/></a>
<a href="tlg0035.tlg004.perseus-eng80.html#s5-9"><title>5.9 (0.14)</title><rect x="392" y="80" width="4" height="15" fill="#c9493b"/></a>
<a href="tlg0035.tlg004.perseus-eng80.html#s5-5"><title>5.5 (0.39)</title><rect x="396" y="80" width="4" height="15" fill="#e8b83d"/></a>
<a href="tlg0035.tlg004.perseus-eng80.html#s5-7"><title>5.7 (0.45)</title><rect x="400" y="80" width="4" height="15" fill="#e8b83d"/></a>
<a href="tlg0035.tlg004.perseus-eng80.html#s5-7"><title>5.7 (0.45)</title><rect x="404" y="80" width="4" height="15" fill="#e8b83d"/></a>
<text x="180" y="107" class="warn">⚠ 4.83 → 5.9  (7 sections, avg=0.133)</text>
<line x1="20" y1="121" x2="1200" y2="121" stroke="#ccc" stroke-width="1"/>
<text x="20" y="141" class="total">TOTAL: 57 sections   avg=0.398   High=32%   Med=40%   Low=28%</text>
<rect x="20" y="148" width="372.6315789473684" height="10" fill="#2d8a4e" rx="2"/>
<rect x="392.6315789473684" y="148" width="476.14035087719293" height="10" fill="#e8b83d"/>
<rect x="868.7719298245613" y="148" width="331.2280701754386" height="10" fill="#c9493b" rx="2"/>
</svg>