<svg xmlns="http://www.w3.org/2000/svg" width="1220" height="172" viewBox="0 0 1220 172">
<rect width="1220" height="172" fill="#f5f5f5"/>
<style>
  text { font-family: "SF Mono", "Menlo", "Monaco", monospace; }
  .title { font-size: 16px; font-weight: bold; }
  .subtitle { font-size: 11px; fill: #888; }
  .label { font-size: 11px; fill: #333; }
  .stats { font-size: 10px; fill: #666; }
  .warn { font-size: 9px; fill: #c9493b; }
  .total { font-size: 12px; font-weight: bold; fill: #333; }
  .legend-text { font-size: 10px; fill: #555; }
</style>
<text x="20" y="38" class="title">Alignment Quality Map — Moschus — Eros Drapeta</text>
<rect x="20" y="50" width="12" height="12" fill="#2d8a4e" rx="2"/>
<text x="36" y="60" class="legend-text">High (≥0.6)</text>
<rect x="160" y="50" width="12" height="12" fill="#e8b83d" rx="2"/>
<text x="176" y="60" class="legend-text">Medium (0.3–0.6)</text>
<rect x="300" y="50" width="12" height="12" fill="#c9493b" rx="2"/>
<text x="316" y="60" class="legend-text">Low (&lt;0.3)</text>
<text x="20" y="92" class="label">Book </text>
<text x="988" y="92" class="stats">n=55  avg=0.484  H=24%  M=67%  L=9%</text>
<rect x="180" y="80" width="4" height="15" fill="#2d8a4e"/>
<rect x="184" y="80" width="4" height="15" fill="#e8b83d"/>
<rect x="188" y="80" width="4" height="15" fill="#e8b83d"/>
<rect x="192" y="80" width="4" height="15" fill="#e8b83d"/>
<rect x="196" y="80" width="4" height="15" fill="#e8b83d"/>
<rect x="200" y="80" width="4" height="15" fill="#2d8a4e"/>
<rect x="204" y="80" width="4" height="15" fill="#e8b83d"/>
<rect x="208" y="80" width="4" height="15" fill="#e8b83d"/>
<rect x="212" y="80" width="4" height="15" fill="#2d8a4e"/>
<rect x="216" y="80" width="4" height="15" fill="#e8b83d"/>
<rect x="220" y="80" width="4" height="15" fill="#e8b83d"/>
<rect x="224" y="80" width="4" height="15" fill="#e8b83d"/>
<rect x="228" y="80" width="4" height="15" fill="#c9493b"/>
<rect x="232" y="80" width="4" height="15" fill="#e8b83d"/>
<rect x="236" y="80" width="4" height="15" fill="#c9493b"/>
<rect x="240" y="80" width="4" height="15" fill="#e8b83d"/>
<rect x="244" y="80" width="4" height="15" fill="#e8b83d"/>
<rect x="248" y="80" width="4" height="15" fill="#2d8a4e"/>
<rect x="252" y="80" width="4" height="15" fill="#e8b83d"/>
<rect x="256" y="80" width="4" height="15" fill="#2d8a4e"/>
<rect x="260" y="80" width="4" height="15" fill="#e8b83d"/>
<rect x="264" y="80" width="4" height="15" fill="#e8b83d"/>
<rect x="268" y="80" width="4" height="15" fill="#e8b83d"/>
<rect x="272" y="80" width="4" height="15" fill="#e8b83d"/>
<rect x="276" y="80" width="4" height="15" fill="#c9493b"/>
<rect x="280" y="80" width="4" height="15" fill="#2d8a4e"/>
<rect x="284" y="80" width="4" height="15" fill="#e8b83d"/>
<rect x="288" y="80" width="4" height="15" fill="#e8b83d"/>
<rect x="292" y="80" width="4" height="15" fill="#e8b83d"/>
<rect x="296" y="80" width="4" height="15" fill="#2d8a4e"/>
<rect x="300" y="80" width="4" height="15" fill="#2d8a4e"/>
<rect x="304" y="80" width="4" height="15" fill="#2d8a4e"/>
<rect x="308" y="80" width="4" height="15" fill="#e8b83d"/>
<rect x="312" y="80" width="4" height="15" fill="#e8b83d"/>
<rect x="316" y="80" width="4" height="15" fill="#e8b83d"/>
<rect x="320" y="80" width="4" height="15" fill="#e8b83d"/>
<rect x="324" y="80" width="4" height="15" fill="#2d8a4e"/>
<rect x="328" y="80" width="4" height="15" fill="#e8b83d"/>
<rect x="332" y="80" width="4" height="15" fill="#e8b83d"/>
<rect x="336" y="80" width="4" height="15" fill="#e8b83d"/>
<rect x="340" y="80" width="4" height="15" fill="#2d8a4e"/>
<rect x="344" y="80" width="4" height="15" fill="#e8b83d"/>
<rect x="348" y="80" width="4" height="15" fill="#e8b83d"/>
<rect x="352" y="80" width="4" height="15" fill="#e8b83d"/>
<rect x="356" y="80" width="4" height="15" fill="#c9493b"/>
<rect x="360" y="80" width="4" height="15" fill="#e8b83d"/>
<rect x="364" y="80" width="4" height="15" fill="#e8b83d"/>
<rect x="368" y="80" width="4" height="15" fill="#e8b83d"/>
<rect x="372" y="80" width="4" height="15" fill="#2d8a4e"/>
<rect x="376" y="80" width="4" height="15" fill="#e8b83d"/>
<rect x="380" y="80" width="4" height="15" fill="#e8b83d"/>
<rect x="384" y="80" width="4" height="15" fill="#e8b83d"/>
<rect x="388" y="80" width="4" height="15" fill="#2d8a4e"/>
<rect x="392" y="80" width="4" height="15" fill="#e8b83d"/>
<rect x="396" y="80" width="4" height="15" fill="#c9493b"/>
<line x1="20" y1="107" x2="1200" y2="107" stroke="#ccc" stroke-width="1"/>
<text x="20" y="127" class="total">TOTAL: 55 sections   avg=0.484   High=24%   Med=67%   Low=9%</text>
<rect x="20" y="134" width="278.9090909090909" height="10" fill="#2d8a4e" rx="2"/>
<rect x="298.9090909090909" y="134" width="793.8181818181819" height="10" fill="#e8b83d"/>
<rect x="1092.7272727272727" y="134" width="107.27272727272728" height="10" fill="#c9493b" rx="2"/>
</svg>