<svg xmlns="http://www.w3.org/2000/svg" width="1220" height="846" viewBox="0 0 1220 846">
<rect width="1220" height="846" fill="#f5f5f5"/>
<style>
  text { font-family: "SF Mono", "Menlo", "Monaco", monospace; }
  .title { font-size: 16px; font-weight: bold; }
  .subtitle { font-size: 11px; fill: #888; }
  .label { font-size: 11px; fill: #333; }
  .stats { font-size: 10px; fill: #666; }
  .warn { font-size: 9px; fill: #c9493b; }
  .total { font-size: 12px; font-weight: bold; fill: #333; }
  .legend-text { font-size: 10px; fill: #555; }
</style>
<text x="20" y="38" class="title">Alignment Quality Map — Theophrastus — Characters</text>
<rect x="20" y="50" width="12" height="12" fill="#2d8a4e" rx="2"/>
<text x="36" y="60" class="legend-text">High (≥0.6)</text>
<rect x="160" y="50" width="12" height="12" fill="#e8b83d" rx="2"/>
<text x="176" y="60" class="legend-text">Medium (0.3–0.6)</text>
<rect x="300" y="50" width="12" height="12" fill="#c9493b" rx="2"/>
<text x="316" y="60" class="legend-text">Low (&lt;0.3)</text>
<text x="20" y="92" class="label">Book 0</text>
<text x="988" y="92" class="stats">n=5  avg=0.667  H=80%  M=20%  L=0%</text>
<rect x="180" y="80" width="4" height="15" fill="#2d8a4e"/>
<rect x="184" y="80" width="4" height="15" fill="#2d8a4e"/>
<rect x="188" y="80" width="4" height="15" fill="#2d8a4e"/>
<rect x="192" y="80" width="4" height="15" fill="#2d8a4e"/>
<rect x="196" y="80" width="4" height="15" fill="#e8b83d"/>
<text x="20" y="114" class="label">Book 1</text>
<text x="988" y="114" class="stats">n=7  avg=0.558  H=57%  M=43%  L=0%</text>
<rect x="180" y="102" width="4" height="15" fill="#2d8a4e"/>
<rect x="184" y="102" width="4" height="15" fill="#2d8a4e"/>
<rect x="188" y="102" width="4" height="15" fill="#2d8a4e"/>
<rect x="192" y="102" width="4" height="15" fill="#e8b83d"/>
<rect x="196" y="102" width="4" height="15" fill="#2d8a4e"/>
<rect x="200" y="102" width="4" height="15" fill="#e8b83d"/>
<rect x="204" y="102" width="4" height="15" fill="#e8b83d"/>
<text x="20" y="136" class="label">Book 2</text>
<text x="988" y="136" class="stats">n=13  avg=0.439  H=8%  M=69%  L=23%</text>
<rect x="180" y="124" width="4" height="15" fill="#e8b83d"/>
<rect x="184" y="124" width="4" height="15" fill="#e8b83d"/>
<rect x="188" y="124" width="4" height="15" fill="#c9493b"/>
<rect x="192" y="124" width="4" height="15" fill="#e8b83d"/>
<rect x="196" y="124" width="4" height="15" fill="#c9493b"/>
<rect x="200" y="124" width="4" height="15" fill="#e8b83d"/>
<rect x="204" y="124" width="4" height="15" fill="#e8b83d"/>
<rect x="208" y="124" width="4" height="15" fill="#e8b83d"/>
<rect x="212" y="124" width="4" height="15" fill="#c9493b"/>
<rect x="216" y="124" width="4" height="15" fill="#2d8a4e"/>
<rect x="220" y="124" width="4" height="15" fill="#e8b83d"/>
<rect x="224" y="124" width="4" height="15" fill="#e8b83d"/>
<rect x="228" y="124" width="4" height="15" fill="#e8b83d"/>
<text x="20" y="158" class="label">Book 3</text>
<text x="988" y="158" class="stats">n=6  avg=0.547  H=50%  M=33%  L=17%</text>
<rect x="180" y="146" width="4" height="15" fill="#2d8a4e"/>
<rect x="184" y="146" width="4" height="15" fill="#e8b83d"/>
<rect x="188" y="146" width="4" height="15" fill="#e8b83d"/>
<rect x="192" y="146" width="4" height="15" fill="#2d8a4e"/>
<rect x="196" y="146" width="4" height="15" fill="#2d8a4e"/>
<rect x="200" y="146" width="4" height="15" fill="#c9493b"/>
<text x="20" y="180" class="label">Book 4</text>
<text x="988" y="180" class="stats">n=14  avg=0.428  H=21%  M=50%  L=29%</text>
<rect x="180" y="168" width="4" height="15" fill="#e8b83d"/>
<rect x="184" y="168" width="4" height="15" fill="#e8b83d"/>
<rect x="188" y="168" width="4" height="15" fill="#c9493b"/>
<rect x="192" y="168" width="4" height="15" fill="#e8b83d"/>
<rect x="196" y="168" width="4" height="15" fill="#c9493b"/>
<rect x="200" y="168" width="4" height="15" fill="#e8b83d"/>
<rect x="204" y="168" width="4" height="15" fill="#e8b83d"/>
<rect x="208" y="168" width="4" height="15" fill="#c9493b"/>
<rect x="212" y="168" width="4" height="15" fill="#e8b83d"/>
<rect x="216" y="168" width="4" height="15" fill="#2d8a4e"/>
<rect x="220" y="168" width="4" height="15" fill="#2d8a4e"/>
<rect x="224" y="168" width="4" height="15" fill="#2d8a4e"/>
<rect x="228" y="168" width="4" height="15" fill="#e8b83d"/>
<rect x="232" y="168" width="4" height="15" fill="#c9493b"/>
<text x="20" y="202" class="label">Book 5</text>
<text x="988" y="202" class="stats">n=10  avg=0.337  H=10%  M=50%  L=40%</text>
<rect x="180" y="190" width="4" height="15" fill="#2d8a4e"/>
<rect x="184" y="190" width="4" height="15" fill="#e8b83d"/>
<rect x="188" y="190" width="4" height="15" fill="#e8b83d"/>
<rect x="192" y="190" width="4" height="15" fill="#e8b83d"/>
<rect x="196" y="190" width="4" height="15" fill="#c9493b"/>
<rect x="200" y="190" width="4" height="15" fill="#e8b83d"/>
<rect x="204" y="190" width="4" height="15" fill="#e8b83d"/>
<rect x="208" y="190" width="4" height="15" fill="#c9493b"/>
<rect x="212" y="190" width="4" height="15" fill="#c9493b"/>
<rect x="216" y="190" width="4" height="15" fill="#c9493b"/>
<text x="180" y="217" class="warn">⚠ 5.8 → 5.10  (3 sections, avg=0.125)</text>
<text x="20" y="238" class="label">Book 6</text>
<text x="988" y="238" class="stats">n=10  avg=0.587  H=50%  M=50%  L=0%</text>
<rect x="180" y="226" width="4" height="15" fill="#2d8a4e"/>
<rect x="184" y="226" width="4" height="15" fill="#2d8a4e"/>
<rect x="188" y="226" width="4" height="15" fill="#2d8a4e"/>
<rect x="192" y="226" width="4" height="15" fill="#e8b83d"/>
<rect x="196" y="226" width="4" height="15" fill="#2d8a4e"/>
<rect x="200" y="226" width="4" height="15" fill="#2d8a4e"/>
<rect x="204" y="226" width="4" height="15" fill="#e8b83d"/>
<rect x="208" y="226" width="4" height="15" fill="#e8b83d"/>
<rect x="212" y="226" width="4" height="15" fill="#e8b83d"/>
<rect x="216" y="226" width="4" height="15" fill="#e8b83d"/>
<text x="20" y="260" class="label">Book 7</text>
<text x="988" y="260" class="stats">n=10  avg=0.526  H=30%  M=60%  L=10%</text>
<rect x="180" y="248" width="4" height="15" fill="#e8b83d"/>
<rect x="184" y="248" width="4" height="15" fill="#2d8a4e"/>
<rect x="188" y="248" width="4" height="15" fill="#2d8a4e"/>
<rect x="192" y="248" width="4" height="15" fill="#e8b83d"/>
<rect x="196" y="248" width="4" height="15" fill="#2d8a4e"/>
<rect x="200" y="248" width="4" height="15" fill="#e8b83d"/>
<rect x="204" y="248" width="4" height="15" fill="#e8b83d"/>
<rect x="208" y="248" width="4" height="15" fill="#c9493b"/>
<rect x="212" y="248" width="4" height="15" fill="#e8b83d"/>
<rect x="216" y="248" width="4" height="15" fill="#e8b83d"/>
<text x="20" y="282" class="label">Book 8</text>
<text x="988" y="282" class="stats">n=15  avg=0.415  H=20%  M=47%  L=33%</text>
<rect x="180" y="270" width="4" height="15" fill="#2d8a4e"/>
<rect x="184" y="270" width="4" height="15" fill="#2d8a4e"/>
<rect x="188" y="270" width="4" height="15" fill="#2d8a4e"/>
<rect x="192" y="270" width="4" height="15" fill="#e8b83d"/>
<rect x="196" y="270" width="4" height="15" fill="#e8b83d"/>
<rect x="200" y="270" width="4" height="15" fill="#c9493b"/>
<rect x="204" y="270" width="4" height="15" fill="#c9493b"/>
<rect x="208" y="270" width="4" height="15" fill="#e8b83d"/>
<rect x="212" y="270" width="4" height="15" fill="#c9493b"/>
<rect x="216" y="270" width="4" height="15" fill="#e8b83d"/>
<rect x="220" y="270" width="4" height="15" fill="#c9493b"/>
<rect x="224" y="270" width="4" height="15" fill="#e8b83d"/>
<rect x="228" y="270" width="4" height="15" fill="#e8b83d"/>
<rect x="232" y="270" width="4" height="15" fill="#c9493b"/>
<rect x="236" y="270" width="4" height="15" fill="#e8b83d"/>
<text x="20" y="304" class="label">Book 9</text>
<text x="988" y="304" class="stats">n=8  avg=0.650  H=75%  M=25%  L=0%</text>
<rect x="180" y="292" width="4" height="15" fill="#2d8a4e"/>
<rect x="184" y="292" width="4" height="15" fill="#2d8a4e"/>
<rect x="188" y="292" width="4" height="15" fill="#2d8a4e"/>
<rect x="192" y="292" width="4" height="15" fill="#e8b83d"/>
<rect x="196" y="292" width="4" height="15" fill="#2d8a4e"/>
<rect x="200" y="292" width="4" height="15" fill="#2d8a4e"/>
<rect x="204" y="292" width="4" height="15" fill="#2d8a4e"/>
<rect x="208" y="292" width="4" height="15" fill="#e8b83d"/>
<text x="20" y="326" class="label">Book 10</text>
<text x="988" y="326" class="stats">n=14  avg=0.549  H=36%  M=64%  L=0%</text>
<rect x="180" y="314" width="4" height="15" fill="#e8b83d"/>
<rect x="184" y="314" width="4" height="15" fill="#2d8a4e"/>
<rect x="188" y="314" width="4" height="15" fill="#e8b83d"/>
<rect x="192" y="314" width="4" height="15" fill="#e8b83d"/>
<rect x="196" y="314" width="4" height="15" fill="#e8b83d"/>
<rect x="200" y="314" width="4" height="15" fill="#2d8a4e"/>
<rect x="204" y="314" width="4" height="15" fill="#2d8a4e"/>
<rect x="208" y="314" width="4" height="15" fill="#2d8a4e"/>
<rect x="212" y="314" width="4" height="15" fill="#2d8a4e"/>
<rect x="216" y="314" width="4" height="15" fill="#e8b83d"/>
<rect x="220" y="314" width="4" height="15" fill="#e8b83d"/>
<rect x="224" y="314" width="4" height="15" fill="#e8b83d"/>
<rect x="228" y="314" width="4" height="15" fill="#e8b83d"/>
<rect x="232" y="314" width="4" height="15" fill="#e8b83d"/>
<text x="20" y="348" class="label">Book 11</text>
<text x="988" y="348" class="stats">n=8  avg=0.595  H=75%  M=25%  L=0%</text>
<rect x="180" y="336" width="4" height="15" fill="#2d8a4e"/>
<rect x="184" y="336" width="4" height="15" fill="#2d8a4e"/>
<rect x="188" y="336" width="4" height="15" fill="#2d8a4e"/>
<rect x="192" y="336" width="4" height="15" fill="#e8b83d"/>
<rect x="196" y="336" width="4" height="15" fill="#e8b83d"/>
<rect x="200" y="336" width="4" height="15" fill="#2d8a4e"/>
<rect x="204" y="336" width="4" height="15" fill="#2d8a4e"/>
<rect x="208" y="336" width="4" height="15" fill="#2d8a4e"/>
<text x="20" y="370" class="label">Book 12</text>
<text x="988" y="370" class="stats">n=15  avg=0.532  H=40%  M=47%  L=13%</text>
<rect x="180" y="358" width="4" height="15" fill="#2d8a4e"/>
<rect x="184" y="358" width="4" height="15" fill="#e8b83d"/>
<rect x="188" y="358" width="4" height="15" fill="#c9493b"/>
<rect x="192" y="358" width="4" height="15" fill="#e8b83d"/>
<rect x="196" y="358" width="4" height="15" fill="#e8b83d"/>
<rect x="200" y="358" width="4" height="15" fill="#2d8a4e"/>
<rect x="204" y="358" width="4" height="15" fill="#2d8a4e"/>
<rect x="208" y="358" width="4" height="15" fill="#e8b83d"/>
<rect x="212" y="358" width="4" height="15" fill="#c9493b"/>
<rect x="216" y="358" width="4" height="15" fill="#e8b83d"/>
<rect x="220" y="358" width="4" height="15" fill="#2d8a4e"/>
<rect x="224" y="358" width="4" height="15" fill="#e8b83d"/>
<rect x="228" y="358" width="4" height="15" fill="#e8b83d"/>
<rect x="232" y="358" width="4" height="15" fill="#2d8a4e"/>
<rect x="236" y="358" width="4" height="15" fill="#2d8a4e"/>
<text x="20" y="392" class="label">Book 13</text>
<text x="988" y="392" class="stats">n=11  avg=0.594  H=55%  M=45%  L=0%</text>
<rect x="180" y="380" width="4" height="15" fill="#2d8a4e"/>
<rect x="184" y="380" width="4" height="15" fill="#e8b83d"/>
<rect x="188" y="380" width="4" height="15" fill="#2d8a4e"/>
<rect x="192" y="380" width="4" height="15" fill="#e8b83d"/>
<rect x="196" y="380" width="4" height="15" fill="#e8b83d"/>
<rect x="200" y="380" width="4" height="15" fill="#e8b83d"/>
<rect x="204" y="380" width="4" height="15" fill="#2d8a4e"/>
<rect x="208" y="380" width="4" height="15" fill="#2d8a4e"/>
<rect x="212" y="380" width="4" height="15" fill="#2d8a4e"/>
<rect x="216" y="380" width="4" height="15" fill="#2d8a4e"/>
<rect x="220" y="380" width="4" height="15" fill="#e8b83d"/>
<text x="20" y="414" class="label">Book 14</text>
<text x="988" y="414" class="stats">n=13  avg=0.557  H=46%  M=54%  L=0%</text>
<rect x="180" y="402" width="4" height="15" fill="#e8b83d"/>
<rect x="184" y="402" width="4" height="15" fill="#e8b83d"/>
<rect x="188" y="402" width="4" height="15" fill="#e8b83d"/>
<rect x="192" y="402" width="4" height="15" fill="#e8b83d"/>
<rect x="196" y="402" width="4" height="15" fill="#2d8a4e"/>
<rect x="200" y="402" width="4" height="15" fill="#2d8a4e"/>
<rect x="204" y="402" width="4" height="15" fill="#2d8a4e"/>
<rect x="208" y="402" width="4" height="15" fill="#e8b83d"/>
<rect x="212" y="402" width="4" height="15" fill="#2d8a4e"/>
<rect x="216" y="402" width="4" height="15" fill="#2d8a4e"/>
<rect x="220" y="402" width="4" height="15" fill="#2d8a4e"/>
<rect x="224" y="402" width="4" height="15" fill="#e8b83d"/>
<rect x="228" y="402" width="4" height="15" fill="#e8b83d"/>
<text x="20" y="436" class="label">Book 15</text>
<text x="988" y="436" class="stats">n=11  avg=0.558  H=45%  M=55%  L=0%</text>
<rect x="180" y="424" width="4" height="15" fill="#2d8a4e"/>
<rect x="184" y="424" width="4" height="15" fill="#2d8a4e"/>
<rect x="188" y="424" width="4" height="15" fill="#e8b83d"/>
<rect x="192" y="424" width="4" height="15" fill="#2d8a4e"/>
<rect x="196" y="424" width="4" height="15" fill="#2d8a4e"/>
<rect x="200" y="424" width="4" height="15" fill="#e8b83d"/>
<rect x="204" y="424" width="4" height="15" fill="#e8b83d"/>
<rect x="208" y="424" width="4" height="15" fill="#e8b83d"/>
<rect x="212" y="424" width="4" height="15" fill="#e8b83d"/>
<rect x="216" y="424" width="4" height="15" fill="#e8b83d"/>
<rect x="220" y="424" width="4" height="15" fill="#2d8a4e"/>
<text x="20" y="458" class="label">Book 16</text>
<text x="988" y="458" class="stats">n=15  avg=0.591  H=60%  M=40%  L=0%</text>
<rect x="180" y="446" width="4" height="15" fill="#2d8a4e"/>
<rect x="184" y="446" width="4" height="15" fill="#2d8a4e"/>
<rect x="188" y="446" width="4" height="15" fill="#2d8a4e"/>
<rect x="192" y="446" width="4" height="15" fill="#e8b83d"/>
<rect x="196" y="446" width="4" height="15" fill="#2d8a4e"/>
<rect x="200" y="446" width="4" height="15" fill="#2d8a4e"/>
<rect x="204" y="446" width="4" height="15" fill="#e8b83d"/>
<rect x="208" y="446" width="4" height="15" fill="#e8b83d"/>
<rect x="212" y="446" width="4" height="15" fill="#2d8a4e"/>
<rect x="216" y="446" width="4" height="15" fill="#2d8a4e"/>
<rect x="220" y="446" width="4" height="15" fill="#2d8a4e"/>
<rect x="224" y="446" width="4" height="15" fill="#e8b83d"/>
<rect x="228" y="446" width="4" height="15" fill="#e8b83d"/>
<rect x="232" y="446" width="4" height="15" fill="#2d8a4e"/>
<rect x="236" y="446" width="4" height="15" fill="#e8b83d"/>
<text x="20" y="480" class="label">Book 17</text>
<text x="988" y="480" class="stats">n=9  avg=0.504  H=11%  M=89%  L=0%</text>
<rect x="180" y="468" width="4" height="15" fill="#e8b83d"/>
<rect x="184" y="468" width="4" height="15" fill="#2d8a4e"/>
<rect x="188" y="468" width="4" height="15" fill="#e8b83d"/>
<rect x="192" y="468" width="4" height="15" fill="#e8b83d"/>
<rect x="196" y="468" width="4" height="15" fill="#e8b83d"/>
<rect x="200" y="468" width="4" height="15" fill="#e8b83d"/>
<rect x="204" y="468" width="4" height="15" fill="#e8b83d"/>
<rect x="208" y="468" width="4" height="15" fill="#e8b83d"/>
<rect x="212" y="468" width="4" height="15" fill="#e8b83d"/>
<text x="20" y="502" class="label">Book 18</text>
<text x="988" y="502" class="stats">n=9  avg=0.624  H=78%  M=22%  L=0%</text>
<rect x="180" y="490" width="4" height="15" fill="#2d8a4e"/>
<rect x="184" y="490" width="4" height="15" fill="#e8b83d"/>
<rect x="188" y="490" width="4" height="15" fill="#2d8a4e"/>
<rect x="192" y="490" width="4" height="15" fill="#2d8a4e"/>
<rect x="196" y="490" width="4" height="15" fill="#e8b83d"/>
<rect x="200" y="490" width="4" height="15" fill="#2d8a4e"/>
<rect x="204" y="490" width="4" height="15" fill="#2d8a4e"/>
<rect x="208" y="490" width="4" height="15" fill="#2d8a4e"/>
<rect x="212" y="490" width="4" height="15" fill="#2d8a4e"/>
<text x="20" y="524" class="label">Book 19</text>
<text x="988" y="524" class="stats">n=11  avg=0.545  H=36%  M=64%  L=0%</text>
<rect x="180" y="512" width="4" height="15" fill="#e8b83d"/>
<rect x="184" y="512" width="4" height="15" fill="#2d8a4e"/>
<rect x="188" y="512" width="4" height="15" fill="#2d8a4e"/>
<rect x="192" y="512" width="4" height="15" fill="#e8b83d"/>
<rect x="196" y="512" width="4" height="15" fill="#e8b83d"/>
<rect x="200" y="512" width="4" height="15" fill="#e8b83d"/>
<rect x="204" y="512" width="4" height="15" fill="#2d8a4e"/>
<rect x="208" y="512" width="4" height="15" fill="#e8b83d"/>
<rect x="212" y="512" width="4" height="15" fill="#e8b83d"/>
<rect x="216" y="512" width="4" height="15" fill="#e8b83d"/>
<rect x="220" y="512" width="4" height="15" fill="#2d8a4e"/>
<text x="20" y="546" class="label">Book 20</text>
<text x="988" y="546" class="stats">n=10  avg=0.418  H=0%  M=100%  L=0%</text>
<rect x="180" y="534" width="4" height="15" fill="#e8b83d"/>
<rect x="184" y="534" width="4" height="15" fill="#e8b83d"/>
<rect x="188" y="534" width="4" height="15" fill="#e8b83d"/>
<rect x="192" y="534" width="4" height="15" fill="#e8b83d"/>
<rect x="196" y="534" width="4" height="15" fill="#e8b83d"/>
<rect x="200" y="534" width="4" height="15" fill="#e8b83d"/>
<rect x="204" y="534" width="4" height="15" fill="#e8b83d"/>
<rect x="208" y="534" width="4" height="15" fill="#e8b83d"/>
<rect x="212" y="534" width="4" height="15" fill="#e8b83d"/>
<rect x="216" y="534" width="4" height="15" fill="#e8b83d"/>
<text x="20" y="568" class="label">Book 21</text>
<text x="988" y="568" class="stats">n=11  avg=0.490  H=27%  M=55%  L=18%</text>
<rect x="180" y="556" width="4" height="15" fill="#2d8a4e"/>
<rect x="184" y="556" width="4" height="15" fill="#2d8a4e"/>
<rect x="188" y="556" width="4" height="15" fill="#2d8a4e"/>
<rect x="192" y="556" width="4" height="15" fill="#e8b83d"/>
<rect x="196" y="556" width="4" height="15" fill="#e8b83d"/>
<rect x="200" y="556" width="4" height="15" fill="#e8b83d"/>
<rect x="204" y="556" width="4" height="15" fill="#e8b83d"/>
<rect x="208" y="556" width="4" height="15" fill="#e8b83d"/>
<rect x="212" y="556" width="4" height="15" fill="#c9493b"/>
<rect x="216" y="556" width="4" height="15" fill="#e8b83d"/>
<rect x="220" y="556" width="4" height="15" fill="#c9493b"/>
<text x="20" y="590" class="label">Book 22</text>
<text x="988" y="590" class="stats">n=13  avg=0.559  H=54%  M=38%  L=8%</text>
<rect x="180" y="578" width="4" height="15" fill="#2d8a4e"/>
<rect x="184" y="578" width="4" height="15" fill="#2d8a4e"/>
<rect x="188" y="578" width="4" height="15" fill="#e8b83d"/>
<rect x="192" y="578" width="4" height="15" fill="#2d8a4e"/>
<rect x="196" y="578" width="4" height="15" fill="#e8b83d"/>
<rect x="200" y="578" width="4" height="15" fill="#c9493b"/>
<rect x="204" y="578" width="4" height="15" fill="#e8b83d"/>
<rect x="208" y="578" width="4" height="15" fill="#e8b83d"/>
<rect x="212" y="578" width="4" height="15" fill="#2d8a4e"/>
<rect x="216" y="578" width="4" height="15" fill="#2d8a4e"/>
<rect x="220" y="578" width="4" height="15" fill="#2d8a4e"/>
<rect x="224" y="578" width="4" height="15" fill="#e8b83d"/>
<rect x="228" y="578" width="4" height="15" fill="#2d8a4e"/>
<text x="20" y="612" class="label">Book 23</text>
<text x="988" y="612" class="stats">n=9  avg=0.495  H=44%  M=44%  L=11%</text>
<rect x="180" y="600" width="4" height="15" fill="#2d8a4e"/>
<rect x="184" y="600" width="4" height="15" fill="#2d8a4e"/>
<rect x="188" y="600" width="4" height="15" fill="#e8b83d"/>
<rect x="192" y="600" width="4" height="15" fill="#2d8a4e"/>
<rect x="196" y="600" width="4" height="15" fill="#c9493b"/>
<rect x="200" y="600" width="4" height="15" fill="#e8b83d"/>
<rect x="204" y="600" width="4" height="15" fill="#e8b83d"/>
<rect x="208" y="600" width="4" height="15" fill="#2d8a4e"/>
<rect x="212" y="600" width="4" height="15" fill="#e8b83d"/>
<text x="20" y="634" class="label">Book 24</text>
<text x="988" y="634" class="stats">n=13  avg=0.577  H=62%  M=38%  L=0%</text>
<rect x="180" y="622" width="4" height="15" fill="#2d8a4e"/>
<rect x="184" y="622" width="4" height="15" fill="#e8b83d"/>
<rect x="188" y="622" width="4" height="15" fill="#e8b83d"/>
<rect x="192" y="622" width="4" height="15" fill="#e8b83d"/>
<rect x="196" y="622" width="4" height="15" fill="#e8b83d"/>
<rect x="200" y="622" width="4" height="15" fill="#e8b83d"/>
<rect x="204" y="622" width="4" height="15" fill="#2d8a4e"/>
<rect x="208" y="622" width="4" height="15" fill="#2d8a4e"/>
<rect x="212" y="622" width="4" height="15" fill="#2d8a4e"/>
<rect x="216" y="622" width="4" height="15" fill="#2d8a4e"/>
<rect x="220" y="622" width="4" height="15" fill="#2d8a4e"/>
<rect x="224" y="622" width="4" height="15" fill="#2d8a4e"/>
<rect x="228" y="622" width="4" height="15" fill="#2d8a4e"/>
<text x="20" y="656" class="label">Book 25</text>
<text x="988" y="656" class="stats">n=6  avg=0.572  H=17%  M=83%  L=0%</text>
<rect x="180" y="644" width="4" height="15" fill="#e8b83d"/>
<rect x="184" y="644" width="4" height="15" fill="#e8b83d"/>
<rect x="188" y="644" width="4" height="15" fill="#2d8a4e"/>
<rect x="192" y="644" width="4" height="15" fill="#e8b83d"/>
<rect x="196" y="644" width="4" height="15" fill="#e8b83d"/>
<rect x="200" y="644" width="4" height="15" fill="#e8b83d"/>
<text x="20" y="678" class="label">Book 26</text>
<text x="988" y="678" class="stats">n=7  avg=0.452  H=29%  M=57%  L=14%</text>
<rect x="180" y="666" width="4" height="15" fill="#e8b83d"/>
<rect x="184" y="666" width="4" height="15" fill="#2d8a4e"/>
<rect x="188" y="666" width="4" height="15" fill="#c9493b"/>
<rect x="192" y="666" width="4" height="15" fill="#e8b83d"/>
<rect x="196" y="666" width="4" height="15" fill="#e8b83d"/>
<rect x="200" y="666" width="4" height="15" fill="#2d8a4e"/>
<rect x="204" y="666" width="4" height="15" fill="#e8b83d"/>
<text x="20" y="700" class="label">Book 27</text>
<text x="988" y="700" class="stats">n=15  avg=0.559  H=60%  M=40%  L=0%</text>
<rect x="180" y="688" width="4" height="15" fill="#2d8a4e"/>
<rect x="184" y="688" width="4" height="15" fill="#2d8a4e"/>
<rect x="188" y="688" width="4" height="15" fill="#2d8a4e"/>
<rect x="192" y="688" width="4" height="15" fill="#e8b83d"/>
<rect x="196" y="688" width="4" height="15" fill="#2d8a4e"/>
<rect x="200" y="688" width="4" height="15" fill="#2d8a4e"/>
<rect x="204" y="688" width="4" height="15" fill="#2d8a4e"/>
<rect x="208" y="688" width="4" height="15" fill="#e8b83d"/>
<rect x="212" y="688" width="4" height="15" fill="#e8b83d"/>
<rect x="216" y="688" width="4" height="15" fill="#e8b83d"/>
<rect x="220" y="688" width="4" height="15" fill="#e8b83d"/>
<rect x="224" y="688" width="4" height="15" fill="#e8b83d"/>
<rect x="228" y="688" width="4" height="15" fill="#2d8a4e"/>
<rect x="232" y="688" width="4" height="15" fill="#2d8a4e"/>
<rect x="236" y="688" width="4" height="15" fill="#2d8a4e"/>
<text x="20" y="722" class="label">Book 28</text>
<text x="988" y="722" class="stats">n=7  avg=0.456  H=14%  M=71%  L=14%</text>
<rect x="180" y="710" width="4" height="15" fill="#e8b83d"/>
<rect x="184" y="710" width="4" height="15" fill="#2d8a4e"/>
<rect x="188" y="710" width="4" height="15" fill="#e8b83d"/>
<rect x="192" y="710" width="4" height="15" fill="#e8b83d"/>
<rect x="196" y="710" width="4" height="15" fill="#c9493b"/>
<rect x="200" y="710" width="4" height="15" fill="#e8b83d"/>
<rect x="204" y="710" width="4" height="15" fill="#e8b83d"/>
<text x="20" y="744" class="label">Book 29</text>
<text x="988" y="744" class="stats">n=7  avg=0.492  H=43%  M=29%  L=29%</text>
<rect x="180" y="732" width="4" height="15" fill="#2d8a4e"/>
<rect x="184" y="732" width="4" height="15" fill="#2d8a4e"/>
<rect x="188" y="732" width="4" height="15" fill="#e8b83d"/>
<rect x="192" y="732" width="4" height="15" fill="#e8b83d"/>
<rect x="196" y="732" width="4" height="15" fill="#2d8a4e"/>
<rect x="200" y="732" width="4" height="15" fill="#c9493b"/>
<rect x="204" y="732" width="4" height="15" fill="#c9493b"/>
<text x="20" y="766" class="label">Book 30</text>
<text x="988" y="766" class="stats">n=20  avg=0.516  H=25%  M=70%  L=5%</text>
<rect x="180" y="754" width="4" height="15" fill="#2d8a4e"/>
<rect x="184" y="754" width="4" height="15" fill="#e8b83d"/>
<rect x="188" y="754" width="4" height="15" fill="#e8b83d"/>
<rect x="192" y="754" width="4" height="15" fill="#e8b83d"/>
<rect x="196" y="754" width="4" height="15" fill="#e8b83d"/>
<rect x="200" y="754" width="4" height="15" fill="#e8b83d"/>
<rect x="204" y="754" width="4" height="15" fill="#e8b83d"/>
<rect x="208" y="754" width="4" height="15" fill="#e8b83d"/>
<rect x="212" y="754" width="4" height="15" fill="#e8b83d"/>
<rect x="216" y="754" width="4" height="15" fill="#c9493b"/>
<rect x="220" y="754" width="4" height="15" fill="#e8b83d"/>
<rect x="224" y="754" width="4" height="15" fill="#2d8a4e"/>
<rect x="228" y="754" width="4" height="15" fill="#2d8a4e"/>
<rect x="232" y="754" width="4" height="15" fill="#e8b83d"/>
<rect x="236" y="754" width="4" height="15" fill="#e8b83d"/>
<rect x="240" y="754" width="4" height="15" fill="#e8b83d"/>
<rect x="244" y="754" width="4" height="15" fill="#e8b83d"/>
<rect x="248" y="754" width="4" height="15" fill="#2d8a4e"/>
<rect x="252" y="754" width="4" height="15" fill="#2d8a4e"/>
<rect x="256" y="754" width="4" height="15" fill="#e8b83d"/>
<line x1="20" y1="781" x2="1200" y2="781" stroke="#ccc" stroke-width="1"/>
<text x="20" y="801" class="total">TOTAL: 332 sections   avg=0.525   High=39%   Med=52%   Low=9%</text>
<rect x="20" y="808" width="465.60240963855426" height="10" fill="#2d8a4e" rx="2"/>
<rect x="485.60240963855426" y="808" width="611.3253012048193" height="10" fill="#e8b83d"/>
<rect x="1096.9277108433735" y="808" width="103.07228915662651" height="10" fill="#c9493b" rx="2"/>
</svg>