<svg xmlns="http://www.w3.org/2000/svg" width="1220" height="214" viewBox="0 0 1220 214">
<rect width="1220" height="214" fill="#f5f5f5"/>
<style>
  text { font-family: "SF Mono", "Menlo", "Monaco", monospace; }
  .title { font-size: 16px; font-weight: bold; }
  .subtitle { font-size: 11px; fill: #888; }
  .label { font-size: 11px; fill: #333; }
  .stats { font-size: 10px; fill: #666; }
  .warn { font-size: 9px; fill: #c9493b; }
  .total { font-size: 12px; font-weight: bold; fill: #333; }
  .legend-text { font-size: 10px; fill: #555; }
</style>
<text x="20" y="38" class="title">Alignment Quality Map — Aristophanes — Ecclesiazusae</text>
<rect x="20" y="50" width="12" height="12" fill="#2d8a4e" rx="2"/>
<text x="36" y="60" class="legend-text">High (≥0.5)</text>
<rect x="160" y="50" width="12" height="12" fill="#e8b83d" rx="2"/>
<text x="176" y="60" class="legend-text">Medium (0.2–0.5)</text>
<rect x="300" y="50" width="12" height="12" fill="#c9493b" rx="2"/>
<text x="316" y="60" class="legend-text">Low (&lt;0.2)</text>
<text x="20" y="92" class="label">Book 1</text>
<text x="988" y="92" class="stats">n=142  avg=0.221  H=15%  M=20%  L=65%</text>
<a href="tlg0019.tlg010.perseus-eng80.html#s1-1"><title>1.1 (0.50)</title><rect x="180" y="80" width="4" height="15" fill="#2d8a4e"/></a>
<a href="tlg0019.tlg010.perseus-eng80.html#s1-12"><title>1.12 (0.08)</title><rect x="184" y="80" width="4" height="15" fill="#c9493b"/></a>
<a href="tlg0019.tlg010.perseus-eng80.html#s1-20"><title>1.20 (0.28)</title><rect x="188" y="80" width="4" height="15" fill="#e8b83d"/></a>
<a href="tlg0019.tlg010.perseus-eng80.html#s1-30"><title>1.30 (0.17)</title><rect x="192" y="80" width="4" height="15" fill="#c9493b"/></a>
<a href="tlg0019.tlg010.perseus-eng80.html#s1-41"><title>1.41 (0.42)</title><rect x="196" y="80" width="4" height="15" fill="#e8b83d"/></a>
<a href="tlg0019.tlg010.perseus-eng80.html#s1-49"><title>1.49 (0.04)</title><rect x="200" y="80" width="4" height="15" fill="#c9493b"/></a>
<a href="tlg0019.tlg010.perseus-eng80.html#s1-57"><title>1.57 (0.00)</title><rect x="204" y="80" width="4" height="15" fill="#c9493b"/></a>
<a href="tlg0019.tlg010.perseus-eng80.html#s1-65"><title>1.65 (0.03)</title><rect x="208" y="80" width="4" height="15" fill="#c9493b"/></a>
<a href="tlg0019.tlg010.perseus-eng80.html#s1-73"><title>1.73 (0.19)</title><rect x="212" y="80" width="4" height="15" fill="#c9493b"/></a>
<a href="tlg0019.tlg010.perseus-eng80.html#s1-82"><title>1.82 (0.00)</title><rect x="216" y="80" width="4" height="15" fill="#c9493b"/></a>
<a href="tlg0019.tlg010.perseus-eng80.html#s1-90"><title>1.90 (0.00)</title><rect x="220" y="80" width="4" height="15" fill="#c9493b"/></a>
<a href="tlg0019.tlg010.perseus-eng80.html#sen:1-7"><title>en:1.7 (0.00)</title><rect x="224" y="80" width="4" height="15" fill="#c9493b"/></a>
<a href="tlg0019.tlg010.perseus-eng80.html#s1-98"><title>1.98 (0.03)</title><rect x="228" y="80" width="4" height="15" fill="#c9493b"/></a>
<a href="tlg0019.tlg010.perseus-eng80.html#s1-109"><title>1.109 (0.08)</title><rect x="232" y="80" width="4" height="15" fill="#c9493b"/></a>
<a href="tlg0019.tlg010.perseus-eng80.html#s1-118"><title>1.118 (0.02)</title><rect x="236" y="80" width="4" height="15" fill="#c9493b"/></a>
<a href="tlg0019.tlg010.perseus-eng80.html#s1-126"><title>1.126 (0.04)</title><rect x="240" y="80" width="4" height="15" fill="#c9493b"/></a>
<a href="tlg0019.tlg010.perseus-eng80.html#s1-134"><title>1.134 (0.03)</title><rect x="244" y="80" width="4" height="15" fill="#c9493b"/></a>
<a href="tlg0019.tlg010.perseus-eng80.html#s1-142"><title>1.142 (0.00)</title><rect x="248" y="80" width="4" height="15" fill="#c9493b"/></a>
<a href="tlg0019.tlg010.perseus-eng80.html#s1-151"><title>1.151 (0.06)</title><rect x="252" y="80" width="4" height="15" fill="#c9493b"/></a>
<a href="tlg0019.tlg010.perseus-eng80.html#s1-160"><title>1.160 (0.02)</title><rect x="256" y="80" width="4" height="15" fill="#c9493b"/></a>
<a href="tlg0019.tlg010.perseus-eng80.html#s1-169"><title>1.169 (0.11)</title><rect x="260" y="80" width="4" height="15" fill="#c9493b"/></a>
<a href="tlg0019.tlg010.perseus-eng80.html#s1-179"><title>1.179 (0.05)</title><rect x="264" y="80" width="4" height="15" fill="#c9493b"/></a>
<a href="tlg0019.tlg010.perseus-eng80.html#s1-189"><title>1.189 (0.02)</title><rect x="268" y="80" width="4" height="15" fill="#c9493b"/></a>
<a href="tlg0019.tlg010.perseus-eng80.html#s1-197"><title>1.197 (0.29)</title><rect x="272" y="80" width="4" height="15" fill="#e8b83d"/></a>
<a href="tlg0019.tlg010.perseus-eng80.html#s1-205"><title>1.205 (0.01)</title><rect x="276" y="80" width="4" height="15" fill="#c9493b"/></a>
<a href="tlg0019.tlg010.perseus-eng80.html#s1-213"><title>1.213 (0.02)</title><rect x="280" y="80" width="4" height="15" fill="#c9493b"/></a>
<a href="tlg0019.tlg010.perseus-eng80.html#s1-221"><title>1.221 (0.04)</title><rect x="284" y="80" width="4" height="15" fill="#c9493b"/></a>
<a href="tlg0019.tlg010.perseus-eng80.html#s1-229"><title>1.229 (0.03)</title><rect x="288" y="80" width="4" height="15" fill="#c9493b"/></a>
<a href="tlg0019.tlg010.perseus-eng80.html#s1-238"><title>1.238 (0.03)</title><rect x="292" y="80" width="4" height="15" fill="#c9493b"/></a>
<a href="tlg0019.tlg010.perseus-eng80.html#s1-246"><title>1.246 (0.02)</title><rect x="296" y="80" width="4" height="15" fill="#c9493b"/></a>
<a href="tlg0019.tlg010.perseus-eng80.html#s1-254"><title>1.254 (0.08)</title><rect x="300" y="80" width="4" height="15" fill="#c9493b"/></a>
<a href="tlg0019.tlg010.perseus-eng80.html#s1-265"><title>1.265 (0.27)</title><rect x="304" y="80" width="4" height="15" fill="#e8b83d"/></a>
<a href="tlg0019.tlg010.perseus-eng80.html#s1-280"><title>1.280 (0.07)</title><rect x="308" y="80" width="4" height="15" fill="#c9493b"/></a>
<a href="tlg0019.tlg010.perseus-eng80.html#s1-285"><title>1.285 (0.01)</title><rect x="312" y="80" width="4" height="15" fill="#c9493b"/></a>
<a href="tlg0019.tlg010.perseus-eng80.html#s1-300"><title>1.300 (0.15)</title><rect x="316" y="80" width="4" height="15" fill="#c9493b"/></a>
<a href="tlg0019.tlg010.perseus-eng80.html#s1-311"><title>1.311 (0.12)</title><rect x="320" y="80" width="4" height="15" fill="#c9493b"/></a>
<a href="tlg0019.tlg010.perseus-eng80.html#s1-320"><title>1.320 (0.05)</title><rect x="324" y="80" width="4" height="15" fill="#c9493b"/></a>
<a href="tlg0019.tlg010.perseus-eng80.html#s1-328"><title>1.328 (0.49)</title><rect x="328" y="80" width="4" height="15" fill="#e8b83d"/></a>
<a href="tlg0019.tlg010.perseus-eng80.html#s1-336"><title>1.336 (0.65)</title><rect x="332" y="80" width="4" height="15" fill="#2d8a4e"/></a>
<a href="tlg0019.tlg010.perseus-eng80.html#s1-344"><title>1.344 (0.95)</title><rect x="336" y="80" width="4" height="15" fill="#2d8a4e"/></a>
<a href="tlg0019.tlg010.perseus-eng80.html#s1-354"><title>1.354 (0.72)</title><rect x="340" y="80" width="4" height="15" fill="#2d8a4e"/></a>
<a href="tlg0019.tlg010.perseus-eng80.html#s1-363"><title>1.363 (1.00)</title><rect x="344" y="80" width="4" height="15" fill="#2d8a4e"/></a>
<a href="tlg0019.tlg010.perseus-eng80.html#s1-372"><title>1.372 (0.05)</title><rect x="348" y="80" width="4" height="15" fill="#c9493b"/></a>
<a href="tlg0019.tlg010.perseus-eng80.html#sen:1-19"><title>en:1.19 (0.00)</title><rect x="352" y="80" width="4" height="15" fill="#c9493b"/></a>
<a href="tlg0019.tlg010.perseus-eng80.html#s1-380"><title>1.380 (0.34)</title><rect x="356" y="80" width="4" height="15" fill="#e8b83d"/></a>
<a href="tlg0019.tlg010.perseus-eng80.html#s1-388"><title>1.388 (0.30)</title><rect x="360" y="80" width="4" height="15" fill="#e8b83d"/></a>
<a href="tlg0019.tlg010.perseus-eng80.html#s1-396"><title>1.396 (0.03)</title><rect x="364" y="80" width="4" height="15" fill="#c9493b"/></a>
<a href="tlg0019.tlg010.perseus-eng80.html#s1-405"><title>1.405 (0.09)</title><rect x="368" y="80" width="4" height="15" fill="#c9493b"/></a>
<a href="tlg0019.tlg010.perseus-eng80.html#s1-415"><title>1.415 (0.23)</title><rect x="372" y="80" width="4" height="15" fill="#e8b83d"/></a>
<a href="tlg0019.tlg010.perseus-eng80.html#s1-427"><title>1.427 (0.17)</title><rect x="376" y="80" width="4" height="15" fill="#c9493b"/></a>
<a href="tlg0019.tlg010.perseus-eng80.html#s1-437"><title>1.437 (0.10)</title><rect x="380" y="80" width="4" height="15" fill="#c9493b"/></a>
<a href="tlg0019.tlg010.perseus-eng80.html#s1-445"><title>1.445 (0.09)</title><rect x="384" y="80" width="4" height="15" fill="#c9493b"/></a>
<a href="tlg0019.tlg010.perseus-eng80.html#s1-455"><title>1.455 (0.13)</title><rect x="388" y="80" width="4" height="15" fill="#c9493b"/></a>
<a href="tlg0019.tlg010.perseus-eng80.html#s1-463"><title>1.463 (0.34)</title><rect x="392" y="80" width="4" height="15" fill="#e8b83d"/></a>
<a href="tlg0019.tlg010.perseus-eng80.html#s1-471"><title>1.471 (0.14)</title><rect x="396" y="80" width="4" height="15" fill="#c9493b"/></a>
<a href="tlg0019.tlg010.perseus-eng80.html#s1-478"><title>1.478 (0.44)</title><rect x="400" y="80" width="4" height="15" fill="#e8b83d"/></a>
<a href="tlg0019.tlg010.perseus-eng80.html#s1-486"><title>1.486 (0.09)</title><rect x="404" y="80" width="4" height="15" fill="#c9493b"/></a>
<a href="tlg0019.tlg010.perseus-eng80.html#s1-496"><title>1.496 (0.40)</title><rect x="408" y="80" width="4" height="15" fill="#e8b83d"/></a>
<a href="tlg0019.tlg010.perseus-eng80.html#s1-504"><title>1.504 (0.13)</title><rect x="412" y="80" width="4" height="15" fill="#c9493b"/></a>
<a href="tlg0019.tlg010.perseus-eng80.html#s1-514"><title>1.514 (0.03)</title><rect x="416" y="80" width="4" height="15" fill="#c9493b"/></a>
<a href="tlg0019.tlg010.perseus-eng80.html#s1-522"><title>1.522 (0.00)</title><rect x="420" y="80" width="4" height="15" fill="#c9493b"/></a>
<a href="tlg0019.tlg010.perseus-eng80.html#s1-530"><title>1.530 (0.17)</title><rect x="424" y="80" width="4" height="15" fill="#c9493b"/></a>
<a href="tlg0019.tlg010.perseus-eng80.html#s1-539"><title>1.539 (0.06)</title><rect x="428" y="80" width="4" height="15" fill="#c9493b"/></a>
<a href="tlg0019.tlg010.perseus-eng80.html#sen:1-29"><title>en:1.29 (0.00)</title><rect x="432" y="80" width="4" height="15" fill="#c9493b"/></a>
<a href="tlg0019.tlg010.perseus-eng80.html#s1-547"><title>1.547 (0.33)</title><rect x="436" y="80" width="4" height="15" fill="#e8b83d"/></a>
<a href="tlg0019.tlg010.perseus-eng80.html#s1-555"><title>1.555 (0.23)</title><rect x="440" y="80" width="4" height="15" fill="#e8b83d"/></a>
<a href="tlg0019.tlg010.perseus-eng80.html#s1-564"><title>1.564 (0.69)</title><rect x="444" y="80" width="4" height="15" fill="#2d8a4e"/></a>
<a href="tlg0019.tlg010.perseus-eng80.html#s1-571"><title>1.571 (0.06)</title><rect x="448" y="80" width="4" height="15" fill="#c9493b"/></a>
<a href="tlg0019.tlg010.perseus-eng80.html#s1-580"><title>1.580 (0.49)</title><rect x="452" y="80" width="4" height="15" fill="#e8b83d"/></a>
<a href="tlg0019.tlg010.perseus-eng80.html#s1-588"><title>1.588 (0.05)</title><rect x="456" y="80" width="4" height="15" fill="#c9493b"/></a>
<a href="tlg0019.tlg010.perseus-eng80.html#s1-596"><title>1.596 (0.28)</title><rect x="460" y="80" width="4" height="15" fill="#e8b83d"/></a>
<a href="tlg0019.tlg010.perseus-eng80.html#s1-604"><title>1.604 (0.22)</title><rect x="464" y="80" width="4" height="15" fill="#e8b83d"/></a>
<a href="tlg0019.tlg010.perseus-eng80.html#s1-614"><title>1.614 (0.90)</title><rect x="468" y="80" width="4" height="15" fill="#2d8a4e"/></a>
<a href="tlg0019.tlg010.perseus-eng80.html#s1-622"><title>1.622 (0.42)</title><rect x="472" y="80" width="4" height="15" fill="#e8b83d"/></a>
<a href="tlg0019.tlg010.perseus-eng80.html#s1-630"><title>1.630 (0.00)</title><rect x="476" y="80" width="4" height="15" fill="#c9493b"/></a>
<a href="tlg0019.tlg010.perseus-eng80.html#s1-638"><title>1.638 (0.36)</title><rect x="480" y="80" width="4" height="15" fill="#e8b83d"/></a>
<a href="tlg0019.tlg010.perseus-eng80.html#s1-646"><title>1.646 (0.31)</title><rect x="484" y="80" width="4" height="15" fill="#e8b83d"/></a>
<a href="tlg0019.tlg010.perseus-eng80.html#s1-654"><title>1.654 (0.16)</title><rect x="488" y="80" width="4" height="15" fill="#c9493b"/></a>
<a href="tlg0019.tlg010.perseus-eng80.html#s1-662"><title>1.662 (0.05)</title><rect x="492" y="80" width="4" height="15" fill="#c9493b"/></a>
<a href="tlg0019.tlg010.perseus-eng80.html#sen:1-36"><title>en:1.36 (0.00)</title><rect x="496" y="80" width="4" height="15" fill="#c9493b"/></a>
<a href="tlg0019.tlg010.perseus-eng80.html#s1-670"><title>1.670 (0.70)</title><rect x="500" y="80" width="4" height="15" fill="#2d8a4e"/></a>
<a href="tlg0019.tlg010.perseus-eng80.html#s1-679"><title>1.679 (0.72)</title><rect x="504" y="80" width="4" height="15" fill="#2d8a4e"/></a>
<a href="tlg0019.tlg010.perseus-eng80.html#s1-687"><title>1.687 (1.00)</title><rect x="508" y="80" width="4" height="15" fill="#2d8a4e"/></a>
<a href="tlg0019.tlg010.perseus-eng80.html#s1-696"><title>1.696 (0.63)</title><rect x="512" y="80" width="4" height="15" fill="#2d8a4e"/></a>
<a href="tlg0019.tlg010.perseus-eng80.html#s1-704"><title>1.704 (0.01)</title><rect x="516" y="80" width="4" height="15" fill="#c9493b"/></a>
<a href="tlg0019.tlg010.perseus-eng80.html#s1-714"><title>1.714 (0.13)</title><rect x="520" y="80" width="4" height="15" fill="#c9493b"/></a>
<a href="tlg0019.tlg010.perseus-eng80.html#s1-725"><title>1.725 (0.13)</title><rect x="524" y="80" width="4" height="15" fill="#c9493b"/></a>
<a href="tlg0019.tlg010.perseus-eng80.html#s1-730"><title>1.730 (0.16)</title><rect x="528" y="80" width="4" height="15" fill="#c9493b"/></a>
<a href="tlg0019.tlg010.perseus-eng80.html#sen:1-41"><title>en:1.41 (0.00)</title><rect x="532" y="80" width="4" height="15" fill="#c9493b"/></a>
<a href="tlg0019.tlg010.perseus-eng80.html#s1-738"><title>1.738 (0.40)</title><rect x="536" y="80" width="4" height="15" fill="#e8b83d"/></a>
<a href="tlg0019.tlg010.perseus-eng80.html#s1-746"><title>1.746 (0.24)</title><rect x="540" y="80" width="4" height="15" fill="#e8b83d"/></a>
<a href="tlg0019.tlg010.perseus-eng80.html#s1-754"><title>1.754 (0.10)</title><rect x="544" y="80" width="4" height="15" fill="#c9493b"/></a>
<a href="tlg0019.tlg010.perseus-eng80.html#s1-762"><title>1.762 (0.01)</title><rect x="548" y="80" width="4" height="15" fill="#c9493b"/></a>
<a href="tlg0019.tlg010.perseus-eng80.html#s1-770"><title>1.770 (0.28)</title><rect x="552" y="80" width="4" height="15" fill="#e8b83d"/></a>
<a href="tlg0019.tlg010.perseus-eng80.html#s1-778"><title>1.778 (0.32)</title><rect x="556" y="80" width="4" height="15" fill="#e8b83d"/></a>
<a href="tlg0019.tlg010.perseus-eng80.html#s1-786"><title>1.786 (0.02)</title><rect x="560" y="80" width="4" height="15" fill="#c9493b"/></a>
<a href="tlg0019.tlg010.perseus-eng80.html#s1-794"><title>1.794 (0.02)</title><rect x="564" y="80" width="4" height="15" fill="#c9493b"/></a>
<a href="tlg0019.tlg010.perseus-eng80.html#s1-802"><title>1.802 (0.05)</title><rect x="568" y="80" width="4" height="15" fill="#c9493b"/></a>
<a href="tlg0019.tlg010.perseus-eng80.html#s1-810"><title>1.810 (0.00)</title><rect x="572" y="80" width="4" height="15" fill="#c9493b"/></a>
<a href="tlg0019.tlg010.perseus-eng80.html#s1-820"><title>1.820 (0.00)</title><rect x="576" y="80" width="4" height="15" fill="#c9493b"/></a>
<a href="tlg0019.tlg010.perseus-eng80.html#s1-830"><title>1.830 (0.54)</title><rect x="580" y="80" width="4" height="15" fill="#2d8a4e"/></a>
<a href="tlg0019.tlg010.perseus-eng80.html#s1-838"><title>1.838 (0.27)</title><rect x="584" y="80" width="4" height="15" fill="#e8b83d"/></a>
<a href="tlg0019.tlg010.perseus-eng80.html#s1-846"><title>1.846 (0.97)</title><rect x="588" y="80" width="4" height="15" fill="#2d8a4e"/></a>
<a href="tlg0019.tlg010.perseus-eng80.html#s1-855"><title>1.855 (0.02)</title><rect x="592" y="80" width="4" height="15" fill="#c9493b"/></a>
<a href="tlg0019.tlg010.perseus-eng80.html#s1-863"><title>1.863 (0.04)</title><rect x="596" y="80" width="4" height="15" fill="#c9493b"/></a>
<a href="tlg0019.tlg010.perseus-eng80.html#s1-872"><title>1.872 (0.47)</title><rect x="600" y="80" width="4" height="15" fill="#e8b83d"/></a>
<a href="tlg0019.tlg010.perseus-eng80.html#s1-877"><title>1.877 (0.00)</title><rect x="604" y="80" width="4" height="15" fill="#c9493b"/></a>
<a href="tlg0019.tlg010.perseus-eng80.html#s1-885"><title>1.885 (0.40)</title><rect x="608" y="80" width="4" height="15" fill="#e8b83d"/></a>
<a href="tlg0019.tlg010.perseus-eng80.html#s1-893"><title>1.893 (0.09)</title><rect x="612" y="80" width="4" height="15" fill="#c9493b"/></a>
<a href="tlg0019.tlg010.perseus-eng80.html#s1-901"><title>1.901 (0.75)</title><rect x="616" y="80" width="4" height="15" fill="#2d8a4e"/></a>
<a href="tlg0019.tlg010.perseus-eng80.html#s1-912"><title>1.912 (0.64)</title><rect x="620" y="80" width="4" height="15" fill="#2d8a4e"/></a>
<a href="tlg0019.tlg010.perseus-eng80.html#s1-921"><title>1.921 (0.06)</title><rect x="624" y="80" width="4" height="15" fill="#c9493b"/></a>
<a href="tlg0019.tlg010.perseus-eng80.html#s1-929"><title>1.929 (0.06)</title><rect x="628" y="80" width="4" height="15" fill="#c9493b"/></a>
<a href="tlg0019.tlg010.perseus-eng80.html#s1-937"><title>1.937 (0.06)</title><rect x="632" y="80" width="4" height="15" fill="#c9493b"/></a>
<a href="tlg0019.tlg010.perseus-eng80.html#s1-946"><title>1.946 (0.72)</title><rect x="636" y="80" width="4" height="15" fill="#2d8a4e"/></a>
<a href="tlg0019.tlg010.perseus-eng80.html#s1-956"><title>1.956 (0.57)</title><rect x="640" y="80" width="4" height="15" fill="#2d8a4e"/></a>
<a href="tlg0019.tlg010.perseus-eng80.html#s1-966"><title>1.966 (1.00)</title><rect x="644" y="80" width="4" height="15" fill="#2d8a4e"/></a>
<a href="tlg0019.tlg010.perseus-eng80.html#s1-975"><title>1.975 (0.30)</title><rect x="648" y="80" width="4" height="15" fill="#e8b83d"/></a>
<a href="tlg0019.tlg010.perseus-eng80.html#s1-984"><title>1.984 (0.37)</title><rect x="652" y="80" width="4" height="15" fill="#e8b83d"/></a>
<a href="tlg0019.tlg010.perseus-eng80.html#s1-992"><title>1.992 (0.62)</title><rect x="656" y="80" width="4" height="15" fill="#2d8a4e"/></a>
<a href="tlg0019.tlg010.perseus-eng80.html#s1-1001"><title>1.1001 (0.02)</title><rect x="660" y="80" width="4" height="15" fill="#c9493b"/></a>
<a href="tlg0019.tlg010.perseus-eng80.html#s1-1010"><title>1.1010 (0.59)</title><rect x="664" y="80" width="4" height="15" fill="#2d8a4e"/></a>
<a href="tlg0019.tlg010.perseus-eng80.html#s1-1021"><title>1.1021 (0.01)</title><rect x="668" y="80" width="4" height="15" fill="#c9493b"/></a>
<a href="tlg0019.tlg010.perseus-eng80.html#s1-1029"><title>1.1029 (0.18)</title><rect x="672" y="80" width="4" height="15" fill="#c9493b"/></a>
<a href="tlg0019.tlg010.perseus-eng80.html#s1-1037"><title>1.1037 (0.03)</title><rect x="676" y="80" width="4" height="15" fill="#c9493b"/></a>
<a href="tlg0019.tlg010.perseus-eng80.html#sen:1-55"><title>en:1.55 (0.00)</title><rect x="680" y="80" width="4" height="15" fill="#c9493b"/></a>
<a href="tlg0019.tlg010.perseus-eng80.html#s1-1045"><title>1.1045 (0.04)</title><rect x="684" y="80" width="4" height="15" fill="#c9493b"/></a>
<a href="tlg0019.tlg010.perseus-eng80.html#s1-1053"><title>1.1053 (0.79)</title><rect x="688" y="80" width="4" height="15" fill="#2d8a4e"/></a>
<a href="tlg0019.tlg010.perseus-eng80.html#s1-1063"><title>1.1063 (0.93)</title><rect x="692" y="80" width="4" height="15" fill="#2d8a4e"/></a>
<a href="tlg0019.tlg010.perseus-eng80.html#s1-1071"><title>1.1071 (0.00)</title><rect x="696" y="80" width="4" height="15" fill="#c9493b"/></a>
<a href="tlg0019.tlg010.perseus-eng80.html#s1-1079"><title>1.1079 (0.08)</title><rect x="700" y="80" width="4" height="15" fill="#c9493b"/></a>
<a href="tlg0019.tlg010.perseus-eng80.html#s1-1087"><title>1.1087 (0.16)</title><rect x="704" y="80" width="4" height="15" fill="#c9493b"/></a>
<a href="tlg0019.tlg010.perseus-eng80.html#s1-1095"><title>1.1095 (0.18)</title><rect x="708" y="80" width="4" height="15" fill="#c9493b"/></a>
<a href="tlg0019.tlg010.perseus-eng80.html#s1-1105"><title>1.1105 (0.19)</title><rect x="712" y="80" width="4" height="15" fill="#c9493b"/></a>
<a href="tlg0019.tlg010.perseus-eng80.html#s1-1112"><title>1.1112 (0.13)</title><rect x="716" y="80" width="4" height="15" fill="#c9493b"/></a>
<a href="tlg0019.tlg010.perseus-eng80.html#s1-1120"><title>1.1120 (0.08)</title><rect x="720" y="80" width="4" height="15" fill="#c9493b"/></a>
<a href="tlg0019.tlg010.perseus-eng80.html#s1-1128"><title>1.1128 (0.00)</title><rect x="724" y="80" width="4" height="15" fill="#c9493b"/></a>
<a href="tlg0019.tlg010.perseus-eng80.html#s1-1136"><title>1.1136 (0.06)</title><rect x="728" y="80" width="4" height="15" fill="#c9493b"/></a>
<a href="tlg0019.tlg010.perseus-eng80.html#s1-1144"><title>1.1144 (0.00)</title><rect x="732" y="80" width="4" height="15" fill="#c9493b"/></a>
<a href="tlg0019.tlg010.perseus-eng80.html#s1-1155"><title>1.1155 (0.00)</title><rect x="736" y="80" width="4" height="15" fill="#c9493b"/></a>
<a href="tlg0019.tlg010.perseus-eng80.html#s1-1163"><title>1.1163 (0.00)</title><rect x="740" y="80" width="4" height="15" fill="#c9493b"/></a>
<a href="tlg0019.tlg010.perseus-eng80.html#s1-1177"><title>1.1177 (0.00)</title><rect x="744" y="80" width="4" height="15" fill="#c9493b"/></a>
<text x="180" y="107" class="warn">⚠ 1.49 → 1.189  (18 sections, avg=0.040)</text>
<text x="180" y="121" class="warn">⚠ 1.1071 → 1.1177  (13 sections, avg=0.068)</text>
<text x="180" y="135" class="warn">⚠ 1.205 → 1.254  (7 sections, avg=0.031)</text>
<line x1="20" y1="149" x2="1200" y2="149" stroke="#ccc" stroke-width="1"/>
<text x="20" y="169" class="total">TOTAL: 142 sections   avg=0.221   High=15%   Med=20%   Low=65%</text>
<rect x="20" y="176" width="182.8169014084507" height="10" fill="#2d8a4e" rx="2"/>
<rect x="202.8169014084507" y="176" width="232.67605633802816" height="10" fill="#e8b83d"/>
<rect x="435.49295774647885" y="176" width="764.5070422535211" height="10" fill="#c9493b" rx="2"/>
</svg>