<svg xmlns="http://www.w3.org/2000/svg" width="1220" height="218" viewBox="0 0 1220 218">
<rect width="1220" height="218" fill="#f5f5f5"/>
<style>
  text { font-family: "SF Mono", "Menlo", "Monaco", monospace; }
  .title { font-size: 16px; font-weight: bold; }
  .subtitle { font-size: 11px; fill: #888; }
  .label { font-size: 11px; fill: #333; }
  .stats { font-size: 10px; fill: #666; }
  .warn { font-size: 9px; fill: #c9493b; }
  .total { font-size: 12px; font-weight: bold; fill: #333; }
  .legend-text { font-size: 10px; fill: #555; }
</style>
<text x="20" y="38" class="title">Alignment Quality Map — Alignment</text>
<rect x="20" y="50" width="12" height="12" fill="#2d8a4e" rx="2"/>
<text x="36" y="60" class="legend-text">High (≥0.6)</text>
<rect x="160" y="50" width="12" height="12" fill="#e8b83d" rx="2"/>
<text x="176" y="60" class="legend-text">Medium (0.3–0.6)</text>
<rect x="300" y="50" width="12" height="12" fill="#c9493b" rx="2"/>
<text x="316" y="60" class="legend-text">Low (&lt;0.3)</text>
<text x="20" y="92" class="label">Book 1</text>
<text x="988" y="92" class="stats">n=534  avg=0.000  H=0%  M=0%  L=100%</text>
<rect x="180" y="80" width="4" height="15" fill="#c9493b"/>
<rect x="184" y="80" width="4" height="15" fill="#c9493b"/>
<rect x="188" y="80" width="4" height="15" fill="#c9493b"/>
<rect x="192" y="80" width="4" height="15" fill="#c9493b"/>
<rect x="196" y="80" width="4" height="15" fill="#c9493b"/>
<rect x="200" y="80" width="4" height="15" fill="#c9493b"/>
<rect x="204" y="80" width="4" height="15" fill="#c9493b"/>
<rect x="208" y="80" width="4" height="15" fill="#c9493b"/>
<rect x="212" y="80" width="4" height="15" fill="#c9493b"/>
<rect x="216" y="80" width="4" height="15" fill="#c9493b"/>
<rect x="220" y="80" width="4" height="15" fill="#c9493b"/>
<rect x="224" y="80" width="4" height="15" fill="#c9493b"/>
<rect x="228" y="80" width="4" height="15" fill="#c9493b"/>
<rect x="232" y="80" width="4" height="15" fill="#c9493b"/>
<rect x="236" y="80" width="4" height="15" fill="#c9493b"/>
<rect x="240" y="80" width="4" height="15" fill="#c9493b"/>
<rect x="244" y="80" width="4" height="15" fill="#c9493b"/>
<rect x="248" y="80" width="4" height="15" fill="#c9493b"/>
<rect x="252" y="80" width="4" height="15" fill="#c9493b"/>
<rect x="256" y="80" width="4" height="15" fill="#c9493b"/>
<rect x="260" y="80" width="4" height="15" fill="#c9493b"/>
<rect x="264" y="80" width="4" height="15" fill="#c9493b"/>
<rect x="268" y="80" width="4" height="15" fill="#c9493b"/>
<rect x="272" y="80" width="4" height="15" fill="#c9493b"/>
<rect x="276" y="80" width="4" height="15" fill="#c9493b"/>
<rect x="280" y="80" width="4" height="15" fill="#c9493b"/>
<rect x="284" y="80" width="4" height="15" fill="#c9493b"/>
<rect x="288" y="80" width="4" height="15" fill="#c9493b"/>
<rect x="292" y="80" width="4" height="15" fill="#c9493b"/>
<rect x="296" y="80" width="4" height="15" fill="#c9493b"/>
<rect x="300" y="80" width="4" height="15" fill="#c9493b"/>
<rect x="304" y="80" width="4" height="15" fill="#c9493b"/>
<rect x="308" y="80" width="4" height="15" fill="#c9493b"/>
<rect x="312" y="80" width="4" height="15" fill="#c9493b"/>
<rect x="316" y="80" width="4" height="15" fill="#c9493b"/>
<rect x="320" y="80" width="4" height="15" fill="#c9493b"/>
<rect x="324" y="80" width="4" height="15" fill="#c9493b"/>
<rect x="328" y="80" width="4" height="15" fill="#c9493b"/>
<rect x="332" y="80" width="4" height="15" fill="#c9493b"/>
<rect x="336" y="80" width="4" height="15" fill="#c9493b"/>
<rect x="340" y="80" width="4" height="15" fill="#c9493b"/>
<rect x="344" y="80" width="4" height="15" fill="#c9493b"/>
<rect x="348" y="80" width="4" height="15" fill="#c9493b"/>
<rect x="352" y="80" width="4" height="15" fill="#c9493b"/>
<rect x="356" y="80" width="4" height="15" fill="#c9493b"/>
<rect x="360" y="80" width="4" height="15" fill="#c9493b"/>
<rect x="364" y="80" width="4" height="15" fill="#c9493b"/>
<rect x="368" y="80" width="4" height="15" fill="#c9493b"/>
<rect x="372" y="80" width="4" height="15" fill="#c9493b"/>
<rect x="376" y="80" width="4" height="15" fill="#c9493b"/>
<rect x="380" y="80" width="4" height="15" fill="#c9493b"/>
<rect x="384" y="80" width="4" height="15" fill="#c9493b"/>
<rect x="388" y="80" width="4" height="15" fill="#c9493b"/>
<rect x="392" y="80" width="4" height="15" fill="#c9493b"/>
<rect x="396" y="80" width="4" height="15" fill="#c9493b"/>
<rect x="400" y="80" width="4" height="15" fill="#c9493b"/>
<rect x="404" y="80" width="4" height="15" fill="#c9493b"/>
<rect x="408" y="80" width="4" height="15" fill="#c9493b"/>
<rect x="412" y="80" width="4" height="15" fill="#c9493b"/>
<rect x="416" y="80" width="4" height="15" fill="#c9493b"/>
<rect x="420" y="80" width="4" height="15" fill="#c9493b"/>
<rect x="424" y="80" width="4" height="15" fill="#c9493b"/>
<rect x="428" y="80" width="4" height="15" fill="#c9493b"/>
<rect x="432" y="80" width="4" height="15" fill="#c9493b"/>
<rect x="436" y="80" width="4" height="15" fill="#c9493b"/>
<rect x="440" y="80" width="4" height="15" fill="#c9493b"/>
<rect x="444" y="80" width="4" height="15" fill="#c9493b"/>
<rect x="448" y="80" width="4" height="15" fill="#c9493b"/>
<rect x="452" y="80" width="4" height="15" fill="#c9493b"/>
<rect x="456" y="80" width="4" height="15" fill="#c9493b"/>
<rect x="460" y="80" width="4" height="15" fill="#c9493b"/>
<rect x="464" y="80" width="4" height="15" fill="#c9493b"/>
<rect x="468" y="80" width="4" height="15" fill="#c9493b"/>
<rect x="472" y="80" width="4" height="15" fill="#c9493b"/>
<rect x="476" y="80" width="4" height="15" fill="#c9493b"/>
<rect x="480" y="80" width="4" height="15" fill="#c9493b"/>
<rect x="484" y="80" width="4" height="15" fill="#c9493b"/>
<rect x="488" y="80" width="4" height="15" fill="#c9493b"/>
<rect x="492" y="80" width="4" height="15" fill="#c9493b"/>
<rect x="496" y="80" width="4" height="15" fill="#c9493b"/>
<rect x="500" y="80" width="4" height="15" fill="#c9493b"/>
<rect x="504" y="80" width="4" height="15" fill="#c9493b"/>
<rect x="508" y="80" width="4" height="15" fill="#c9493b"/>
<rect x="512" y="80" width="4" height="15" fill="#c9493b"/>
<rect x="516" y="80" width="4" height="15" fill="#c9493b"/>
<rect x="520" y="80" width="4" height="15" fill="#c9493b"/>
<rect x="524" y="80" width="4" height="15" fill="#c9493b"/>
<rect x="528" y="80" width="4" height="15" fill="#c9493b"/>
<rect x="532" y="80" width="4" height="15" fill="#c9493b"/>
<rect x="536" y="80" width="4" height="15" fill="#c9493b"/>
<rect x="540" y="80" width="4" height="15" fill="#c9493b"/>
<rect x="544" y="80" width="4" height="15" fill="#c9493b"/>
<rect x="548" y="80" width="4" height="15" fill="#c9493b"/>
<rect x="552" y="80" width="4" height="15" fill="#c9493b"/>
<rect x="556" y="80" width="4" height="15" fill="#c9493b"/>
<rect x="560" y="80" width="4" height="15" fill="#c9493b"/>
<rect x="564" y="80" width="4" height="15" fill="#c9493b"/>
<rect x="568" y="80" width="4" height="15" fill="#c9493b"/>
<rect x="572" y="80" width="4" height="15" fill="#c9493b"/>
<rect x="576" y="80" width="4" height="15" fill="#c9493b"/>
<rect x="580" y="80" width="4" height="15" fill="#c9493b"/>
<rect x="584" y="80" width="4" height="15" fill="#c9493b"/>
<rect x="588" y="80" width="4" height="15" fill="#c9493b"/>
<rect x="592" y="80" width="4" height="15" fill="#c9493b"/>
<rect x="596" y="80" width="4" height="15" fill="#c9493b"/>
<rect x="600" y="80" width="4" height="15" fill="#c9493b"/>
<rect x="604" y="80" width="4" height="15" fill="#c9493b"/>
<rect x="608" y="80" width="4" height="15" fill="#c9493b"/>
<rect x="612" y="80" width="4" height="15" fill="#c9493b"/>
<rect x="616" y="80" width="4" height="15" fill="#c9493b"/>
<rect x="620" y="80" width="4" height="15" fill="#c9493b"/>
<rect x="624" y="80" width="4" height="15" fill="#c9493b"/>
<rect x="628" y="80" width="4" height="15" fill="#c9493b"/>
<rect x="632" y="80" width="4" height="15" fill="#c9493b"/>
<rect x="636" y="80" width="4" height="15" fill="#c9493b"/>
<rect x="640" y="80" width="4" height="15" fill="#c9493b"/>
<rect x="644" y="80" width="4" height="15" fill="#c9493b"/>
<rect x="648" y="80" width="4" height="15" fill="#c9493b"/>
<rect x="652" y="80" width="4" height="15" fill="#c9493b"/>
<rect x="656" y="80" width="4" height="15" fill="#c9493b"/>
<rect x="660" y="80" width="4" height="15" fill="#c9493b"/>
<rect x="664" y="80" width="4" height="15" fill="#c9493b"/>
<rect x="668" y="80" width="4" height="15" fill="#c9493b"/>
<rect x="672" y="80" width="4" height="15" fill="#c9493b"/>
<rect x="676" y="80" width="4" height="15" fill="#c9493b"/>
<rect x="680" y="80" width="4" height="15" fill="#c9493b"/>
<rect x="684" y="80" width="4" height="15" fill="#c9493b"/>
<rect x="688" y="80" width="4" height="15" fill="#c9493b"/>
<rect x="692" y="80" width="4" height="15" fill="#c9493b"/>
<rect x="696" y="80" width="4" height="15" fill="#c9493b"/>
<rect x="700" y="80" width="4" height="15" fill="#c9493b"/>
<rect x="704" y="80" width="4" height="15" fill="#c9493b"/>
<rect x="708" y="80" width="4" height="15" fill="#c9493b"/>
<rect x="712" y="80" width="4" height="15" fill="#c9493b"/>
<rect x="716" y="80" width="4" height="15" fill="#c9493b"/>
<rect x="720" y="80" width="4" height="15" fill="#c9493b"/>
<rect x="724" y="80" width="4" height="15" fill="#c9493b"/>
<rect x="728" y="80" width="4" height="15" fill="#c9493b"/>
<rect x="732" y="80" width="4" height="15" fill="#c9493b"/>
<rect x="736" y="80" width="4" height="15" fill="#c9493b"/>
<rect x="740" y="80" width="4" height="15" fill="#c9493b"/>
<rect x="744" y="80" width="4" height="15" fill="#c9493b"/>
<rect x="748" y="80" width="4" height="15" fill="#c9493b"/>
<rect x="752" y="80" width="4" height="15" fill="#c9493b"/>
<rect x="756" y="80" width="4" height="15" fill="#c9493b"/>
<rect x="760" y="80" width="4" height="15" fill="#c9493b"/>
<rect x="764" y="80" width="4" height="15" fill="#c9493b"/>
<rect x="768" y="80" width="4" height="15" fill="#c9493b"/>
<rect x="772" y="80" width="4" height="15" fill="#c9493b"/>
<rect x="776" y="80" width="4" height="15" fill="#c9493b"/>
<rect x="780" y="80" width="4" height="15" fill="#c9493b"/>
<rect x="784" y="80" width="4" height="15" fill="#c9493b"/>
<rect x="788" y="80" width="4" height="15" fill="#c9493b"/>
<rect x="792" y="80" width="4" height="15" fill="#c9493b"/>
<rect x="796" y="80" width="4" height="15" fill="#c9493b"/>
<rect x="800" y="80" width="4" height="15" fill="#c9493b"/>
<rect x="804" y="80" width="4" height="15" fill="#c9493b"/>
<rect x="808" y="80" width="4" height="15" fill="#c9493b"/>
<rect x="812" y="80" width="4" height="15" fill="#c9493b"/>
<rect x="816" y="80" width="4" height="15" fill="#c9493b"/>
<rect x="820" y="80" width="4" height="15" fill="#c9493b"/>
<rect x="824" y="80" width="4" height="15" fill="#c9493b"/>
<rect x="828" y="80" width="4" height="15" fill="#c9493b"/>
<rect x="832" y="80" width="4" height="15" fill="#c9493b"/>
<rect x="836" y="80" width="4" height="15" fill="#c9493b"/>
<rect x="840" y="80" width="4" height="15" fill="#c9493b"/>
<rect x="844" y="80" width="4" height="15" fill="#c9493b"/>
<rect x="848" y="80" width="4" height="15" fill="#c9493b"/>
<rect x="852" y="80" width="4" height="15" fill="#c9493b"/>
<rect x="856" y="80" width="4" height="15" fill="#c9493b"/>
<rect x="860" y="80" width="4" height="15" fill="#c9493b"/>
<rect x="864" y="80" width="4" height="15" fill="#c9493b"/>
<rect x="868" y="80" width="4" height="15" fill="#c9493b"/>
<rect x="872" y="80" width="4" height="15" fill="#c9493b"/>
<rect x="876" y="80" width="4" height="15" fill="#c9493b"/>
<rect x="880" y="80" width="4" height="15" fill="#c9493b"/>
<rect x="884" y="80" width="4" height="15" fill="#c9493b"/>
<rect x="888" y="80" width="4" height="15" fill="#c9493b"/>
<rect x="892" y="80" width="4" height="15" fill="#c9493b"/>
<rect x="896" y="80" width="4" height="15" fill="#c9493b"/>
<rect x="900" y="80" width="4" height="15" fill="#c9493b"/>
<rect x="904" y="80" width="4" height="15" fill="#c9493b"/>
<rect x="908" y="80" width="4" height="15" fill="#c9493b"/>
<rect x="912" y="80" width="4" height="15" fill="#c9493b"/>
<rect x="916" y="80" width="4" height="15" fill="#c9493b"/>
<rect x="920" y="80" width="4" height="15" fill="#c9493b"/>
<rect x="924" y="80" width="4" height="15" fill="#c9493b"/>
<rect x="928" y="80" width="4" height="15" fill="#c9493b"/>
<rect x="932" y="80" width="4" height="15" fill="#c9493b"/>
<rect x="936" y="80" width="4" height="15" fill="#c9493b"/>
<rect x="940" y="80" width="4" height="15" fill="#c9493b"/>
<rect x="944" y="80" width="4" height="15" fill="#c9493b"/>
<rect x="948" y="80" width="4" height="15" fill="#c9493b"/>
<rect x="952" y="80" width="4" height="15" fill="#c9493b"/>
<rect x="956" y="80" width="4" height="15" fill="#c9493b"/>
<rect x="960" y="80" width="4" height="15" fill="#c9493b"/>
<rect x="964" y="80" width="4" height="15" fill="#c9493b"/>
<rect x="968" y="80" width="4" height="15" fill="#c9493b"/>
<rect x="972" y="80" width="4" height="15" fill="#c9493b"/>
<rect x="976" y="80" width="4" height="15" fill="#c9493b"/>
<rect x="180" y="96" width="4" height="15" fill="#c9493b"/>
<rect x="184" y="96" width="4" height="15" fill="#c9493b"/>
<rect x="188" y="96" width="4" height="15" fill="#c9493b"/>
<rect x="192" y="96" width="4" height="15" fill="#c9493b"/>
<rect x="196" y="96" width="4" height="15" fill="#c9493b"/>
<rect x="200" y="96" width="4" height="15" fill="#c9493b"/>
<rect x="204" y="96" width="4" height="15" fill="#c9493b"/>
<rect x="208" y="96" width="4" height="15" fill="#c9493b"/>
<rect x="212" y="96" width="4" height="15" fill="#c9493b"/>
<rect x="216" y="96" width="4" height="15" fill="#c9493b"/>
<rect x="220" y="96" width="4" height="15" fill="#c9493b"/>
<rect x="224" y="96" width="4" height="15" fill="#c9493b"/>
<rect x="228" y="96" width="4" height="15" fill="#c9493b"/>
<rect x="232" y="96" width="4" height="15" fill="#c9493b"/>
<rect x="236" y="96" width="4" height="15" fill="#c9493b"/>
<rect x="240" y="96" width="4" height="15" fill="#c9493b"/>
<rect x="244" y="96" width="4" height="15" fill="#c9493b"/>
<rect x="248" y="96" width="4" height="15" fill="#c9493b"/>
<rect x="252" y="96" width="4" height="15" fill="#c9493b"/>
<rect x="256" y="96" width="4" height="15" fill="#c9493b"/>
<rect x="260" y="96" width="4" height="15" fill="#c9493b"/>
<rect x="264" y="96" width="4" height="15" fill="#c9493b"/>
<rect x="268" y="96" width="4" height="15" fill="#c9493b"/>
<rect x="272" y="96" width="4" height="15" fill="#c9493b"/>
<rect x="276" y="96" width="4" height="15" fill="#c9493b"/>
<rect x="280" y="96" width="4" height="15" fill="#c9493b"/>
<rect x="284" y="96" width="4" height="15" fill="#c9493b"/>
<rect x="288" y="96" width="4" height="15" fill="#c9493b"/>
<rect x="292" y="96" width="4" height="15" fill="#c9493b"/>
<rect x="296" y="96" width="4" height="15" fill="#c9493b"/>
<rect x="300" y="96" width="4" height="15" fill="#c9493b"/>
<rect x="304" y="96" width="4" height="15" fill="#c9493b"/>
<rect x="308" y="96" width="4" height="15" fill="#c9493b"/>
<rect x="312" y="96" width="4" height="15" fill="#c9493b"/>
<rect x="316" y="96" width="4" height="15" fill="#c9493b"/>
<rect x="320" y="96" width="4" height="15" fill="#c9493b"/>
<rect x="324" y="96" width="4" height="15" fill="#c9493b"/>
<rect x="328" y="96" width="4" height="15" fill="#c9493b"/>
<rect x="332" y="96" width="4" height="15" fill="#c9493b"/>
<rect x="336" y="96" width="4" height="15" fill="#c9493b"/>
<rect x="340" y="96" width="4" height="15" fill="#c9493b"/>
<rect x="344" y="96" width="4" height="15" fill="#c9493b"/>
<rect x="348" y="96" width="4" height="15" fill="#c9493b"/>
<rect x="352" y="96" width="4" height="15" fill="#c9493b"/>
<rect x="356" y="96" width="4" height="15" fill="#c9493b"/>
<rect x="360" y="96" width="4" height="15" fill="#c9493b"/>
<rect x="364" y="96" width="4" height="15" fill="#c9493b"/>
<rect x="368" y="96" width="4" height="15" fill="#c9493b"/>
<rect x="372" y="96" width="4" height="15" fill="#c9493b"/>
<rect x="376" y="96" width="4" height="15" fill="#c9493b"/>
<rect x="380" y="96" width="4" height="15" fill="#c9493b"/>
<rect x="384" y="96" width="4" height="15" fill="#c9493b"/>
<rect x="388" y="96" width="4" height="15" fill="#c9493b"/>
<rect x="392" y="96" width="4" height="15" fill="#c9493b"/>
<rect x="396" y="96" width="4" height="15" fill="#c9493b"/>
<rect x="400" y="96" width="4" height="15" fill="#c9493b"/>
<rect x="404" y="96" width="4" height="15" fill="#c9493b"/>
<rect x="408" y="96" width="4" height="15" fill="#c9493b"/>
<rect x="412" y="96" width="4" height="15" fill="#c9493b"/>
<rect x="416" y="96" width="4" height="15" fill="#c9493b"/>
<rect x="420" y="96" width="4" height="15" fill="#c9493b"/>
<rect x="424" y="96" width="4" height="15" fill="#c9493b"/>
<rect x="428" y="96" width="4" height="15" fill="#c9493b"/>
<rect x="432" y="96" width="4" height="15" fill="#c9493b"/>
<rect x="436" y="96" width="4" height="15" fill="#c9493b"/>
<rect x="440" y="96" width="4" height="15" fill="#c9493b"/>
<rect x="444" y="96" width="4" height="15" fill="#c9493b"/>
<rect x="448" y="96" width="4" height="15" fill="#c9493b"/>
<rect x="452" y="96" width="4" height="15" fill="#c9493b"/>
<rect x="456" y="96" width="4" height="15" fill="#c9493b"/>
<rect x="460" y="96" width="4" height="15" fill="#c9493b"/>
<rect x="464" y="96" width="4" height="15" fill="#c9493b"/>
<rect x="468" y="96" width="4" height="15" fill="#c9493b"/>
<rect x="472" y="96" width="4" height="15" fill="#c9493b"/>
<rect x="476" y="96" width="4" height="15" fill="#c9493b"/>
<rect x="480" y="96" width="4" height="15" fill="#c9493b"/>
<rect x="484" y="96" width="4" height="15" fill="#c9493b"/>
<rect x="488" y="96" width="4" height="15" fill="#c9493b"/>
<rect x="492" y="96" width="4" height="15" fill="#c9493b"/>
<rect x="496" y="96" width="4" height="15" fill="#c9493b"/>
<rect x="500" y="96" width="4" height="15" fill="#c9493b"/>
<rect x="504" y="96" width="4" height="15" fill="#c9493b"/>
<rect x="508" y="96" width="4" height="15" fill="#c9493b"/>
<rect x="512" y="96" width="4" height="15" fill="#c9493b"/>
<rect x="516" y="96" width="4" height="15" fill="#c9493b"/>
<rect x="520" y="96" width="4" height="15" fill="#c9493b"/>
<rect x="524" y="96" width="4" height="15" fill="#c9493b"/>
<rect x="528" y="96" width="4" height="15" fill="#c9493b"/>
<rect x="532" y="96" width="4" height="15" fill="#c9493b"/>
<rect x="536" y="96" width="4" height="15" fill="#c9493b"/>
<rect x="540" y="96" width="4" height="15" fill="#c9493b"/>
<rect x="544" y="96" width="4" height="15" fill="#c9493b"/>
<rect x="548" y="96" width="4" height="15" fill="#c9493b"/>
<rect x="552" y="96" width="4" height="15" fill="#c9493b"/>
<rect x="556" y="96" width="4" height="15" fill="#c9493b"/>
<rect x="560" y="96" width="4" height="15" fill="#c9493b"/>
<rect x="564" y="96" width="4" height="15" fill="#c9493b"/>
<rect x="568" y="96" width="4" height="15" fill="#c9493b"/>
<rect x="572" y="96" width="4" height="15" fill="#c9493b"/>
<rect x="576" y="96" width="4" height="15" fill="#c9493b"/>
<rect x="580" y="96" width="4" height="15" fill="#c9493b"/>
<rect x="584" y="96" width="4" height="15" fill="#c9493b"/>
<rect x="588" y="96" width="4" height="15" fill="#c9493b"/>
<rect x="592" y="96" width="4" height="15" fill="#c9493b"/>
<rect x="596" y="96" width="4" height="15" fill="#c9493b"/>
<rect x="600" y="96" width="4" height="15" fill="#c9493b"/>
<rect x="604" y="96" width="4" height="15" fill="#c9493b"/>
<rect x="608" y="96" width="4" height="15" fill="#c9493b"/>
<rect x="612" y="96" width="4" height="15" fill="#c9493b"/>
<rect x="616" y="96" width="4" height="15" fill="#c9493b"/>
<rect x="620" y="96" width="4" height="15" fill="#c9493b"/>
<rect x="624" y="96" width="4" height="15" fill="#c9493b"/>
<rect x="628" y="96" width="4" height="15" fill="#c9493b"/>
<rect x="632" y="96" width="4" height="15" fill="#c9493b"/>
<rect x="636" y="96" width="4" height="15" fill="#c9493b"/>
<rect x="640" y="96" width="4" height="15" fill="#c9493b"/>
<rect x="644" y="96" width="4" height="15" fill="#c9493b"/>
<rect x="648" y="96" width="4" height="15" fill="#c9493b"/>
<rect x="652" y="96" width="4" height="15" fill="#c9493b"/>
<rect x="656" y="96" width="4" height="15" fill="#c9493b"/>
<rect x="660" y="96" width="4" height="15" fill="#c9493b"/>
<rect x="664" y="96" width="4" height="15" fill="#c9493b"/>
<rect x="668" y="96" width="4" height="15" fill="#c9493b"/>
<rect x="672" y="96" width="4" height="15" fill="#c9493b"/>
<rect x="676" y="96" width="4" height="15" fill="#c9493b"/>
<rect x="680" y="96" width="4" height="15" fill="#c9493b"/>
<rect x="684" y="96" width="4" height="15" fill="#c9493b"/>
<rect x="688" y="96" width="4" height="15" fill="#c9493b"/>
<rect x="692" y="96" width="4" height="15" fill="#c9493b"/>
<rect x="696" y="96" width="4" height="15" fill="#c9493b"/>
<rect x="700" y="96" width="4" height="15" fill="#c9493b"/>
<rect x="704" y="96" width="4" height="15" fill="#c9493b"/>
<rect x="708" y="96" width="4" height="15" fill="#c9493b"/>
<rect x="712" y="96" width="4" height="15" fill="#c9493b"/>
<rect x="716" y="96" width="4" height="15" fill="#c9493b"/>
<rect x="720" y="96" width="4" height="15" fill="#c9493b"/>
<rect x="724" y="96" width="4" height="15" fill="#c9493b"/>
<rect x="728" y="96" width="4" height="15" fill="#c9493b"/>
<rect x="732" y="96" width="4" height="15" fill="#c9493b"/>
<rect x="736" y="96" width="4" height="15" fill="#c9493b"/>
<rect x="740" y="96" width="4" height="15" fill="#c9493b"/>
<rect x="744" y="96" width="4" height="15" fill="#c9493b"/>
<rect x="748" y="96" width="4" height="15" fill="#c9493b"/>
<rect x="752" y="96" width="4" height="15" fill="#c9493b"/>
<rect x="756" y="96" width="4" height="15" fill="#c9493b"/>
<rect x="760" y="96" width="4" height="15" fill="#c9493b"/>
<rect x="764" y="96" width="4" height="15" fill="#c9493b"/>
<rect x="768" y="96" width="4" height="15" fill="#c9493b"/>
<rect x="772" y="96" width="4" height="15" fill="#c9493b"/>
<rect x="776" y="96" width="4" height="15" fill="#c9493b"/>
<rect x="780" y="96" width="4" height="15" fill="#c9493b"/>
<rect x="784" y="96" width="4" height="15" fill="#c9493b"/>
<rect x="788" y="96" width="4" height="15" fill="#c9493b"/>
<rect x="792" y="96" width="4" height="15" fill="#c9493b"/>
<rect x="796" y="96" width="4" height="15" fill="#c9493b"/>
<rect x="800" y="96" width="4" height="15" fill="#c9493b"/>
<rect x="804" y="96" width="4" height="15" fill="#c9493b"/>
<rect x="808" y="96" width="4" height="15" fill="#c9493b"/>
<rect x="812" y="96" width="4" height="15" fill="#c9493b"/>
<rect x="816" y="96" width="4" height="15" fill="#c9493b"/>
<rect x="820" y="96" width="4" height="15" fill="#c9493b"/>
<rect x="824" y="96" width="4" height="15" fill="#c9493b"/>
<rect x="828" y="96" width="4" height="15" fill="#c9493b"/>
<rect x="832" y="96" width="4" height="15" fill="#c9493b"/>
<rect x="836" y="96" width="4" height="15" fill="#c9493b"/>
<rect x="840" y="96" width="4" height="15" fill="#c9493b"/>
<rect x="844" y="96" width="4" height="15" fill="#c9493b"/>
<rect x="848" y="96" width="4" height="15" fill="#c9493b"/>
<rect x="852" y="96" width="4" height="15" fill="#c9493b"/>
<rect x="856" y="96" width="4" height="15" fill="#c9493b"/>
<rect x="860" y="96" width="4" height="15" fill="#c9493b"/>
<rect x="864" y="96" width="4" height="15" fill="#c9493b"/>
<rect x="868" y="96" width="4" height="15" fill="#c9493b"/>
<rect x="872" y="96" width="4" height="15" fill="#c9493b"/>
<rect x="876" y="96" width="4" height="15" fill="#c9493b"/>
<rect x="880" y="96" width="4" height="15" fill="#c9493b"/>
<rect x="884" y="96" width="4" height="15" fill="#c9493b"/>
<rect x="888" y="96" width="4" height="15" fill="#c9493b"/>
<rect x="892" y="96" width="4" height="15" fill="#c9493b"/>
<rect x="896" y="96" width="4" height="15" fill="#c9493b"/>
<rect x="900" y="96" width="4" height="15" fill="#c9493b"/>
<rect x="904" y="96" width="4" height="15" fill="#c9493b"/>
<rect x="908" y="96" width="4" height="15" fill="#c9493b"/>
<rect x="912" y="96" width="4" height="15" fill="#c9493b"/>
<rect x="916" y="96" width="4" height="15" fill="#c9493b"/>
<rect x="920" y="96" width="4" height="15" fill="#c9493b"/>
<rect x="924" y="96" width="4" height="15" fill="#c9493b"/>
<rect x="928" y="96" width="4" height="15" fill="#c9493b"/>
<rect x="932" y="96" width="4" height="15" fill="#c9493b"/>
<rect x="936" y="96" width="4" height="15" fill="#c9493b"/>
<rect x="940" y="96" width="4" height="15" fill="#c9493b"/>
<rect x="944" y="96" width="4" height="15" fill="#c9493b"/>
<rect x="948" y="96" width="4" height="15" fill="#c9493b"/>
<rect x="952" y="96" width="4" height="15" fill="#c9493b"/>
<rect x="956" y="96" width="4" height="15" fill="#c9493b"/>
<rect x="960" y="96" width="4" height="15" fill="#c9493b"/>
<rect x="964" y="96" width="4" height="15" fill="#c9493b"/>
<rect x="968" y="96" width="4" height="15" fill="#c9493b"/>
<rect x="972" y="96" width="4" height="15" fill="#c9493b"/>
<rect x="976" y="96" width="4" height="15" fill="#c9493b"/>
<rect x="180" y="112" width="4" height="15" fill="#c9493b"/>
<rect x="184" y="112" width="4" height="15" fill="#c9493b"/>
<rect x="188" y="112" width="4" height="15" fill="#c9493b"/>
<rect x="192" y="112" width="4" height="15" fill="#c9493b"/>
<rect x="196" y="112" width="4" height="15" fill="#c9493b"/>
<rect x="200" y="112" width="4" height="15" fill="#c9493b"/>
<rect x="204" y="112" width="4" height="15" fill="#c9493b"/>
<rect x="208" y="112" width="4" height="15" fill="#c9493b"/>
<rect x="212" y="112" width="4" height="15" fill="#c9493b"/>
<rect x="216" y="112" width="4" height="15" fill="#c9493b"/>
<rect x="220" y="112" width="4" height="15" fill="#c9493b"/>
<rect x="224" y="112" width="4" height="15" fill="#c9493b"/>
<rect x="228" y="112" width="4" height="15" fill="#c9493b"/>
<rect x="232" y="112" width="4" height="15" fill="#c9493b"/>
<rect x="236" y="112" width="4" height="15" fill="#c9493b"/>
<rect x="240" y="112" width="4" height="15" fill="#c9493b"/>
<rect x="244" y="112" width="4" height="15" fill="#c9493b"/>
<rect x="248" y="112" width="4" height="15" fill="#c9493b"/>
<rect x="252" y="112" width="4" height="15" fill="#c9493b"/>
<rect x="256" y="112" width="4" height="15" fill="#c9493b"/>
<rect x="260" y="112" width="4" height="15" fill="#c9493b"/>
<rect x="264" y="112" width="4" height="15" fill="#c9493b"/>
<rect x="268" y="112" width="4" height="15" fill="#c9493b"/>
<rect x="272" y="112" width="4" height="15" fill="#c9493b"/>
<rect x="276" y="112" width="4" height="15" fill="#c9493b"/>
<rect x="280" y="112" width="4" height="15" fill="#c9493b"/>
<rect x="284" y="112" width="4" height="15" fill="#c9493b"/>
<rect x="288" y="112" width="4" height="15" fill="#c9493b"/>
<rect x="292" y="112" width="4" height="15" fill="#c9493b"/>
<rect x="296" y="112" width="4" height="15" fill="#c9493b"/>
<rect x="300" y="112" width="4" height="15" fill="#c9493b"/>
<rect x="304" y="112" width="4" height="15" fill="#c9493b"/>
<rect x="308" y="112" width="4" height="15" fill="#c9493b"/>
<rect x="312" y="112" width="4" height="15" fill="#c9493b"/>
<rect x="316" y="112" width="4" height="15" fill="#c9493b"/>
<rect x="320" y="112" width="4" height="15" fill="#c9493b"/>
<rect x="324" y="112" width="4" height="15" fill="#c9493b"/>
<rect x="328" y="112" width="4" height="15" fill="#c9493b"/>
<rect x="332" y="112" width="4" height="15" fill="#c9493b"/>
<rect x="336" y="112" width="4" height="15" fill="#c9493b"/>
<rect x="340" y="112" width="4" height="15" fill="#c9493b"/>
<rect x="344" y="112" width="4" height="15" fill="#c9493b"/>
<rect x="348" y="112" width="4" height="15" fill="#c9493b"/>
<rect x="352" y="112" width="4" height="15" fill="#c9493b"/>
<rect x="356" y="112" width="4" height="15" fill="#c9493b"/>
<rect x="360" y="112" width="4" height="15" fill="#c9493b"/>
<rect x="364" y="112" width="4" height="15" fill="#c9493b"/>
<rect x="368" y="112" width="4" height="15" fill="#c9493b"/>
<rect x="372" y="112" width="4" height="15" fill="#c9493b"/>
<rect x="376" y="112" width="4" height="15" fill="#c9493b"/>
<rect x="380" y="112" width="4" height="15" fill="#c9493b"/>
<rect x="384" y="112" width="4" height="15" fill="#c9493b"/>
<rect x="388" y="112" width="4" height="15" fill="#c9493b"/>
<rect x="392" y="112" width="4" height="15" fill="#c9493b"/>
<rect x="396" y="112" width="4" height="15" fill="#c9493b"/>
<rect x="400" y="112" width="4" height="15" fill="#c9493b"/>
<rect x="404" y="112" width="4" height="15" fill="#c9493b"/>
<rect x="408" y="112" width="4" height="15" fill="#c9493b"/>
<rect x="412" y="112" width="4" height="15" fill="#c9493b"/>
<rect x="416" y="112" width="4" height="15" fill="#c9493b"/>
<rect x="420" y="112" width="4" height="15" fill="#c9493b"/>
<rect x="424" y="112" width="4" height="15" fill="#c9493b"/>
<rect x="428" y="112" width="4" height="15" fill="#c9493b"/>
<rect x="432" y="112" width="4" height="15" fill="#c9493b"/>
<rect x="436" y="112" width="4" height="15" fill="#c9493b"/>
<rect x="440" y="112" width="4" height="15" fill="#c9493b"/>
<rect x="444" y="112" width="4" height="15" fill="#c9493b"/>
<rect x="448" y="112" width="4" height="15" fill="#c9493b"/>
<rect x="452" y="112" width="4" height="15" fill="#c9493b"/>
<rect x="456" y="112" width="4" height="15" fill="#c9493b"/>
<rect x="460" y="112" width="4" height="15" fill="#c9493b"/>
<rect x="464" y="112" width="4" height="15" fill="#c9493b"/>
<rect x="468" y="112" width="4" height="15" fill="#c9493b"/>
<rect x="472" y="112" width="4" height="15" fill="#c9493b"/>
<rect x="476" y="112" width="4" height="15" fill="#c9493b"/>
<rect x="480" y="112" width="4" height="15" fill="#c9493b"/>
<rect x="484" y="112" width="4" height="15" fill="#c9493b"/>
<rect x="488" y="112" width="4" height="15" fill="#c9493b"/>
<rect x="492" y="112" width="4" height="15" fill="#c9493b"/>
<rect x="496" y="112" width="4" height="15" fill="#c9493b"/>
<rect x="500" y="112" width="4" height="15" fill="#c9493b"/>
<rect x="504" y="112" width="4" height="15" fill="#c9493b"/>
<rect x="508" y="112" width="4" height="15" fill="#c9493b"/>
<rect x="512" y="112" width="4" height="15" fill="#c9493b"/>
<rect x="516" y="112" width="4" height="15" fill="#c9493b"/>
<rect x="520" y="112" width="4" height="15" fill="#c9493b"/>
<rect x="524" y="112" width="4" height="15" fill="#c9493b"/>
<rect x="528" y="112" width="4" height="15" fill="#c9493b"/>
<rect x="532" y="112" width="4" height="15" fill="#c9493b"/>
<rect x="536" y="112" width="4" height="15" fill="#c9493b"/>
<rect x="540" y="112" width="4" height="15" fill="#c9493b"/>
<rect x="544" y="112" width="4" height="15" fill="#c9493b"/>
<rect x="548" y="112" width="4" height="15" fill="#c9493b"/>
<rect x="552" y="112" width="4" height="15" fill="#c9493b"/>
<rect x="556" y="112" width="4" height="15" fill="#c9493b"/>
<rect x="560" y="112" width="4" height="15" fill="#c9493b"/>
<rect x="564" y="112" width="4" height="15" fill="#c9493b"/>
<rect x="568" y="112" width="4" height="15" fill="#c9493b"/>
<rect x="572" y="112" width="4" height="15" fill="#c9493b"/>
<rect x="576" y="112" width="4" height="15" fill="#c9493b"/>
<rect x="580" y="112" width="4" height="15" fill="#c9493b"/>
<rect x="584" y="112" width="4" height="15" fill="#c9493b"/>
<rect x="588" y="112" width="4" height="15" fill="#c9493b"/>
<rect x="592" y="112" width="4" height="15" fill="#c9493b"/>
<rect x="596" y="112" width="4" height="15" fill="#c9493b"/>
<rect x="600" y="112" width="4" height="15" fill="#c9493b"/>
<rect x="604" y="112" width="4" height="15" fill="#c9493b"/>
<rect x="608" y="112" width="4" height="15" fill="#c9493b"/>
<rect x="612" y="112" width="4" height="15" fill="#c9493b"/>
<rect x="616" y="112" width="4" height="15" fill="#c9493b"/>
<rect x="620" y="112" width="4" height="15" fill="#c9493b"/>
<rect x="624" y="112" width="4" height="15" fill="#c9493b"/>
<rect x="628" y="112" width="4" height="15" fill="#c9493b"/>
<rect x="632" y="112" width="4" height="15" fill="#c9493b"/>
<rect x="636" y="112" width="4" height="15" fill="#c9493b"/>
<rect x="640" y="112" width="4" height="15" fill="#c9493b"/>
<rect x="644" y="112" width="4" height="15" fill="#c9493b"/>
<rect x="648" y="112" width="4" height="15" fill="#c9493b"/>
<rect x="652" y="112" width="4" height="15" fill="#c9493b"/>
<rect x="656" y="112" width="4" height="15" fill="#c9493b"/>
<rect x="660" y="112" width="4" height="15" fill="#c9493b"/>
<rect x="664" y="112" width="4" height="15" fill="#c9493b"/>
<rect x="668" y="112" width="4" height="15" fill="#c9493b"/>
<rect x="672" y="112" width="4" height="15" fill="#c9493b"/>
<rect x="676" y="112" width="4" height="15" fill="#c9493b"/>
<rect x="680" y="112" width="4" height="15" fill="#c9493b"/>
<rect x="684" y="112" width="4" height="15" fill="#c9493b"/>
<rect x="688" y="112" width="4" height="15" fill="#c9493b"/>
<rect x="692" y="112" width="4" height="15" fill="#c9493b"/>
<rect x="696" y="112" width="4" height="15" fill="#c9493b"/>
<rect x="700" y="112" width="4" height="15" fill="#c9493b"/>
<rect x="704" y="112" width="4" height="15" fill="#c9493b"/>
<rect x="708" y="112" width="4" height="15" fill="#c9493b"/>
<rect x="712" y="112" width="4" height="15" fill="#c9493b"/>
<text x="180" y="139" class="warn">⚠ en:1.1 → en:1.532  (534 sections, avg=0.000)</text>
<line x1="20" y1="153" x2="1200" y2="153" stroke="#ccc" stroke-width="1"/>
<text x="20" y="173" class="total">TOTAL: 534 sections   avg=0.000   High=0%   Med=0%   Low=100%</text>
<rect x="20" y="180" width="0.0" height="10" fill="#2d8a4e" rx="2"/>
<rect x="20.0" y="180" width="0.0" height="10" fill="#e8b83d"/>
<rect x="20.0" y="180" width="1180.0" height="10" fill="#c9493b" rx="2"/>
</svg>