<svg xmlns="http://www.w3.org/2000/svg" width="1220" height="280" viewBox="0 0 1220 280">
<rect width="1220" height="280" fill="#f5f5f5"/>
<style>
  text { font-family: "SF Mono", "Menlo", "Monaco", monospace; }
  .title { font-size: 16px; font-weight: bold; }
  .subtitle { font-size: 11px; fill: #888; }
  .label { font-size: 11px; fill: #333; }
  .stats { font-size: 10px; fill: #666; }
  .warn { font-size: 9px; fill: #c9493b; }
  .total { font-size: 12px; font-weight: bold; fill: #333; }
  .legend-text { font-size: 10px; fill: #555; }
</style>
<text x="20" y="38" class="title">Alignment Quality Map — Longus — Daphnis and Chloe</text>
<rect x="20" y="50" width="12" height="12" fill="#2d8a4e" rx="2"/>
<text x="36" y="60" class="legend-text">High (≥0.6)</text>
<rect x="160" y="50" width="12" height="12" fill="#e8b83d" rx="2"/>
<text x="176" y="60" class="legend-text">Medium (0.3–0.6)</text>
<rect x="300" y="50" width="12" height="12" fill="#c9493b" rx="2"/>
<text x="316" y="60" class="legend-text">Low (&lt;0.3)</text>
<text x="20" y="92" class="label">Book 1</text>
<text x="988" y="92" class="stats">n=119  avg=0.618  H=64%  M=31%  L=5%</text>
<rect x="180" y="80" width="4" height="15" fill="#e8b83d"/>
<rect x="184" y="80" width="4" height="15" fill="#e8b83d"/>
<rect x="188" y="80" width="4" height="15" fill="#c9493b"/>
<rect x="192" y="80" width="4" height="15" fill="#2d8a4e"/>
<rect x="196" y="80" width="4" height="15" fill="#e8b83d"/>
<rect x="200" y="80" width="4" height="15" fill="#2d8a4e"/>
<rect x="204" y="80" width="4" height="15" fill="#e8b83d"/>
<rect x="208" y="80" width="4" height="15" fill="#2d8a4e"/>
<rect x="212" y="80" width="4" height="15" fill="#2d8a4e"/>
<rect x="216" y="80" width="4" height="15" fill="#e8b83d"/>
<rect x="220" y="80" width="4" height="15" fill="#2d8a4e"/>
<rect x="224" y="80" width="4" height="15" fill="#2d8a4e"/>
<rect x="228" y="80" width="4" height="15" fill="#2d8a4e"/>
<rect x="232" y="80" width="4" height="15" fill="#2d8a4e"/>
<rect x="236" y="80" width="4" height="15" fill="#2d8a4e"/>
<rect x="240" y="80" width="4" height="15" fill="#e8b83d"/>
<rect x="244" y="80" width="4" height="15" fill="#2d8a4e"/>
<rect x="248" y="80" width="4" height="15" fill="#2d8a4e"/>
<rect x="252" y="80" width="4" height="15" fill="#2d8a4e"/>
<rect x="256" y="80" width="4" height="15" fill="#2d8a4e"/>
<rect x="260" y="80" width="4" height="15" fill="#2d8a4e"/>
<rect x="264" y="80" width="4" height="15" fill="#2d8a4e"/>
<rect x="268" y="80" width="4" height="15" fill="#e8b83d"/>
<rect x="272" y="80" width="4" height="15" fill="#e8b83d"/>
<rect x="276" y="80" width="4" height="15" fill="#c9493b"/>
<rect x="280" y="80" width="4" height="15" fill="#e8b83d"/>
<rect x="284" y="80" width="4" height="15" fill="#2d8a4e"/>
<rect x="288" y="80" width="4" height="15" fill="#2d8a4e"/>
<rect x="292" y="80" width="4" height="15" fill="#2d8a4e"/>
<rect x="296" y="80" width="4" height="15" fill="#e8b83d"/>
<rect x="300" y="80" width="4" height="15" fill="#e8b83d"/>
<rect x="304" y="80" width="4" height="15" fill="#e8b83d"/>
<rect x="308" y="80" width="4" height="15" fill="#2d8a4e"/>
<rect x="312" y="80" width="4" height="15" fill="#e8b83d"/>
<rect x="316" y="80" width="4" height="15" fill="#2d8a4e"/>
<rect x="320" y="80" width="4" height="15" fill="#2d8a4e"/>
<rect x="324" y="80" width="4" height="15" fill="#2d8a4e"/>
<rect x="328" y="80" width="4" height="15" fill="#e8b83d"/>
<rect x="332" y="80" width="4" height="15" fill="#2d8a4e"/>
<rect x="336" y="80" width="4" height="15" fill="#2d8a4e"/>
<rect x="340" y="80" width="4" height="15" fill="#2d8a4e"/>
<rect x="344" y="80" width="4" height="15" fill="#2d8a4e"/>
<rect x="348" y="80" width="4" height="15" fill="#2d8a4e"/>
<rect x="352" y="80" width="4" height="15" fill="#e8b83d"/>
<rect x="356" y="80" width="4" height="15" fill="#2d8a4e"/>
<rect x="360" y="80" width="4" height="15" fill="#2d8a4e"/>
<rect x="364" y="80" width="4" height="15" fill="#2d8a4e"/>
<rect x="368" y="80" width="4" height="15" fill="#2d8a4e"/>
<rect x="372" y="80" width="4" height="15" fill="#2d8a4e"/>
<rect x="376" y="80" width="4" height="15" fill="#e8b83d"/>
<rect x="380" y="80" width="4" height="15" fill="#2d8a4e"/>
<rect x="384" y="80" width="4" height="15" fill="#2d8a4e"/>
<rect x="388" y="80" width="4" height="15" fill="#2d8a4e"/>
<rect x="392" y="80" width="4" height="15" fill="#2d8a4e"/>
<rect x="396" y="80" width="4" height="15" fill="#2d8a4e"/>
<rect x="400" y="80" width="4" height="15" fill="#e8b83d"/>
<rect x="404" y="80" width="4" height="15" fill="#e8b83d"/>
<rect x="408" y="80" width="4" height="15" fill="#e8b83d"/>
<rect x="412" y="80" width="4" height="15" fill="#2d8a4e"/>
<rect x="416" y="80" width="4" height="15" fill="#2d8a4e"/>
<rect x="420" y="80" width="4" height="15" fill="#e8b83d"/>
<rect x="424" y="80" width="4" height="15" fill="#2d8a4e"/>
<rect x="428" y="80" width="4" height="15" fill="#2d8a4e"/>
<rect x="432" y="80" width="4" height="15" fill="#2d8a4e"/>
<rect x="436" y="80" width="4" height="15" fill="#e8b83d"/>
<rect x="440" y="80" width="4" height="15" fill="#2d8a4e"/>
<rect x="444" y="80" width="4" height="15" fill="#2d8a4e"/>
<rect x="448" y="80" width="4" height="15" fill="#2d8a4e"/>
<rect x="452" y="80" width="4" height="15" fill="#e8b83d"/>
<rect x="456" y="80" width="4" height="15" fill="#e8b83d"/>
<rect x="460" y="80" width="4" height="15" fill="#e8b83d"/>
<rect x="464" y="80" width="4" height="15" fill="#2d8a4e"/>
<rect x="468" y="80" width="4" height="15" fill="#2d8a4e"/>
<rect x="472" y="80" width="4" height="15" fill="#2d8a4e"/>
<rect x="476" y="80" width="4" height="15" fill="#2d8a4e"/>
<rect x="480" y="80" width="4" height="15" fill="#2d8a4e"/>
<rect x="484" y="80" width="4" height="15" fill="#e8b83d"/>
<rect x="488" y="80" width="4" height="15" fill="#2d8a4e"/>
<rect x="492" y="80" width="4" height="15" fill="#e8b83d"/>
<rect x="496" y="80" width="4" height="15" fill="#2d8a4e"/>
<rect x="500" y="80" width="4" height="15" fill="#e8b83d"/>
<rect x="504" y="80" width="4" height="15" fill="#2d8a4e"/>
<rect x="508" y="80" width="4" height="15" fill="#2d8a4e"/>
<rect x="512" y="80" width="4" height="15" fill="#2d8a4e"/>
<rect x="516" y="80" width="4" height="15" fill="#2d8a4e"/>
<rect x="520" y="80" width="4" height="15" fill="#2d8a4e"/>
<rect x="524" y="80" width="4" height="15" fill="#c9493b"/>
<rect x="528" y="80" width="4" height="15" fill="#2d8a4e"/>
<rect x="532" y="80" width="4" height="15" fill="#e8b83d"/>
<rect x="536" y="80" width="4" height="15" fill="#e8b83d"/>
<rect x="540" y="80" width="4" height="15" fill="#2d8a4e"/>
<rect x="544" y="80" width="4" height="15" fill="#2d8a4e"/>
<rect x="548" y="80" width="4" height="15" fill="#2d8a4e"/>
<rect x="552" y="80" width="4" height="15" fill="#2d8a4e"/>
<rect x="556" y="80" width="4" height="15" fill="#2d8a4e"/>
<rect x="560" y="80" width="4" height="15" fill="#2d8a4e"/>
<rect x="564" y="80" width="4" height="15" fill="#e8b83d"/>
<rect x="568" y="80" width="4" height="15" fill="#e8b83d"/>
<rect x="572" y="80" width="4" height="15" fill="#e8b83d"/>
<rect x="576" y="80" width="4" height="15" fill="#2d8a4e"/>
<rect x="580" y="80" width="4" height="15" fill="#2d8a4e"/>
<rect x="584" y="80" width="4" height="15" fill="#2d8a4e"/>
<rect x="588" y="80" width="4" height="15" fill="#2d8a4e"/>
<rect x="592" y="80" width="4" height="15" fill="#c9493b"/>
<rect x="596" y="80" width="4" height="15" fill="#e8b83d"/>
<rect x="600" y="80" width="4" height="15" fill="#e8b83d"/>
<rect x="604" y="80" width="4" height="15" fill="#2d8a4e"/>
<rect x="608" y="80" width="4" height="15" fill="#2d8a4e"/>
<rect x="612" y="80" width="4" height="15" fill="#e8b83d"/>
<rect x="616" y="80" width="4" height="15" fill="#c9493b"/>
<rect x="620" y="80" width="4" height="15" fill="#e8b83d"/>
<rect x="624" y="80" width="4" height="15" fill="#c9493b"/>
<rect x="628" y="80" width="4" height="15" fill="#2d8a4e"/>
<rect x="632" y="80" width="4" height="15" fill="#e8b83d"/>
<rect x="636" y="80" width="4" height="15" fill="#2d8a4e"/>
<rect x="640" y="80" width="4" height="15" fill="#2d8a4e"/>
<rect x="644" y="80" width="4" height="15" fill="#2d8a4e"/>
<rect x="648" y="80" width="4" height="15" fill="#2d8a4e"/>
<rect x="652" y="80" width="4" height="15" fill="#2d8a4e"/>
<text x="20" y="114" class="label">Book 2</text>
<text x="988" y="114" class="stats">n=144  avg=0.587  H=53%  M=40%  L=7%</text>
<rect x="180" y="102" width="4" height="15" fill="#2d8a4e"/>
<rect x="184" y="102" width="4" height="15" fill="#2d8a4e"/>
<rect x="188" y="102" width="4" height="15" fill="#2d8a4e"/>
<rect x="192" y="102" width="4" height="15" fill="#2d8a4e"/>
<rect x="196" y="102" width="4" height="15" fill="#2d8a4e"/>
<rect x="200" y="102" width="4" height="15" fill="#2d8a4e"/>
<rect x="204" y="102" width="4" height="15" fill="#2d8a4e"/>
<rect x="208" y="102" width="4" height="15" fill="#2d8a4e"/>
<rect x="212" y="102" width="4" height="15" fill="#e8b83d"/>
<rect x="216" y="102" width="4" height="15" fill="#e8b83d"/>
<rect x="220" y="102" width="4" height="15" fill="#c9493b"/>
<rect x="224" y="102" width="4" height="15" fill="#2d8a4e"/>
<rect x="228" y="102" width="4" height="15" fill="#e8b83d"/>
<rect x="232" y="102" width="4" height="15" fill="#2d8a4e"/>
<rect x="236" y="102" width="4" height="15" fill="#2d8a4e"/>
<rect x="240" y="102" width="4" height="15" fill="#2d8a4e"/>
<rect x="244" y="102" width="4" height="15" fill="#e8b83d"/>
<rect x="248" y="102" width="4" height="15" fill="#e8b83d"/>
<rect x="252" y="102" width="4" height="15" fill="#2d8a4e"/>
<rect x="256" y="102" width="4" height="15" fill="#2d8a4e"/>
<rect x="260" y="102" width="4" height="15" fill="#e8b83d"/>
<rect x="264" y="102" width="4" height="15" fill="#e8b83d"/>
<rect x="268" y="102" width="4" height="15" fill="#2d8a4e"/>
<rect x="272" y="102" width="4" height="15" fill="#e8b83d"/>
<rect x="276" y="102" width="4" height="15" fill="#e8b83d"/>
<rect x="280" y="102" width="4" height="15" fill="#e8b83d"/>
<rect x="284" y="102" width="4" height="15" fill="#e8b83d"/>
<rect x="288" y="102" width="4" height="15" fill="#c9493b"/>
<rect x="292" y="102" width="4" height="15" fill="#e8b83d"/>
<rect x="296" y="102" width="4" height="15" fill="#e8b83d"/>
<rect x="300" y="102" width="4" height="15" fill="#e8b83d"/>
<rect x="304" y="102" width="4" height="15" fill="#c9493b"/>
<rect x="308" y="102" width="4" height="15" fill="#e8b83d"/>
<rect x="312" y="102" width="4" height="15" fill="#e8b83d"/>
<rect x="316" y="102" width="4" height="15" fill="#e8b83d"/>
<rect x="320" y="102" width="4" height="15" fill="#e8b83d"/>
<rect x="324" y="102" width="4" height="15" fill="#2d8a4e"/>
<rect x="328" y="102" width="4" height="15" fill="#e8b83d"/>
<rect x="332" y="102" width="4" height="15" fill="#2d8a4e"/>
<rect x="336" y="102" width="4" height="15" fill="#e8b83d"/>
<rect x="340" y="102" width="4" height="15" fill="#e8b83d"/>
<rect x="344" y="102" width="4" height="15" fill="#2d8a4e"/>
<rect x="348" y="102" width="4" height="15" fill="#2d8a4e"/>
<rect x="352" y="102" width="4" height="15" fill="#e8b83d"/>
<rect x="356" y="102" width="4" height="15" fill="#e8b83d"/>
<rect x="360" y="102" width="4" height="15" fill="#c9493b"/>
<rect x="364" y="102" width="4" height="15" fill="#e8b83d"/>
<rect x="368" y="102" width="4" height="15" fill="#2d8a4e"/>
<rect x="372" y="102" width="4" height="15" fill="#2d8a4e"/>
<rect x="376" y="102" width="4" height="15" fill="#2d8a4e"/>
<rect x="380" y="102" width="4" height="15" fill="#2d8a4e"/>
<rect x="384" y="102" width="4" height="15" fill="#2d8a4e"/>
<rect x="388" y="102" width="4" height="15" fill="#e8b83d"/>
<rect x="392" y="102" width="4" height="15" fill="#2d8a4e"/>
<rect x="396" y="102" width="4" height="15" fill="#e8b83d"/>
<rect x="400" y="102" width="4" height="15" fill="#2d8a4e"/>
<rect x="404" y="102" width="4" height="15" fill="#2d8a4e"/>
<rect x="408" y="102" width="4" height="15" fill="#2d8a4e"/>
<rect x="412" y="102" width="4" height="15" fill="#2d8a4e"/>
<rect x="416" y="102" width="4" height="15" fill="#e8b83d"/>
<rect x="420" y="102" width="4" height="15" fill="#c9493b"/>
<rect x="424" y="102" width="4" height="15" fill="#e8b83d"/>
<rect x="428" y="102" width="4" height="15" fill="#c9493b"/>
<rect x="432" y="102" width="4" height="15" fill="#e8b83d"/>
<rect x="436" y="102" width="4" height="15" fill="#c9493b"/>
<rect x="440" y="102" width="4" height="15" fill="#2d8a4e"/>
<rect x="444" y="102" width="4" height="15" fill="#2d8a4e"/>
<rect x="448" y="102" width="4" height="15" fill="#2d8a4e"/>
<rect x="452" y="102" width="4" height="15" fill="#2d8a4e"/>
<rect x="456" y="102" width="4" height="15" fill="#e8b83d"/>
<rect x="460" y="102" width="4" height="15" fill="#c9493b"/>
<rect x="464" y="102" width="4" height="15" fill="#e8b83d"/>
<rect x="468" y="102" width="4" height="15" fill="#e8b83d"/>
<rect x="472" y="102" width="4" height="15" fill="#e8b83d"/>
<rect x="476" y="102" width="4" height="15" fill="#2d8a4e"/>
<rect x="480" y="102" width="4" height="15" fill="#2d8a4e"/>
<rect x="484" y="102" width="4" height="15" fill="#2d8a4e"/>
<rect x="488" y="102" width="4" height="15" fill="#e8b83d"/>
<rect x="492" y="102" width="4" height="15" fill="#2d8a4e"/>
<rect x="496" y="102" width="4" height="15" fill="#e8b83d"/>
<rect x="500" y="102" width="4" height="15" fill="#e8b83d"/>
<rect x="504" y="102" width="4" height="15" fill="#2d8a4e"/>
<rect x="508" y="102" width="4" height="15" fill="#e8b83d"/>
<rect x="512" y="102" width="4" height="15" fill="#2d8a4e"/>
<rect x="516" y="102" width="4" height="15" fill="#2d8a4e"/>
<rect x="520" y="102" width="4" height="15" fill="#2d8a4e"/>
<rect x="524" y="102" width="4" height="15" fill="#e8b83d"/>
<rect x="528" y="102" width="4" height="15" fill="#2d8a4e"/>
<rect x="532" y="102" width="4" height="15" fill="#2d8a4e"/>
<rect x="536" y="102" width="4" height="15" fill="#2d8a4e"/>
<rect x="540" y="102" width="4" height="15" fill="#2d8a4e"/>
<rect x="544" y="102" width="4" height="15" fill="#e8b83d"/>
<rect x="548" y="102" width="4" height="15" fill="#e8b83d"/>
<rect x="552" y="102" width="4" height="15" fill="#2d8a4e"/>
<rect x="556" y="102" width="4" height="15" fill="#e8b83d"/>
<rect x="560" y="102" width="4" height="15" fill="#2d8a4e"/>
<rect x="564" y="102" width="4" height="15" fill="#e8b83d"/>
<rect x="568" y="102" width="4" height="15" fill="#2d8a4e"/>
<rect x="572" y="102" width="4" height="15" fill="#2d8a4e"/>
<rect x="576" y="102" width="4" height="15" fill="#2d8a4e"/>
<rect x="580" y="102" width="4" height="15" fill="#e8b83d"/>
<rect x="584" y="102" width="4" height="15" fill="#2d8a4e"/>
<rect x="588" y="102" width="4" height="15" fill="#2d8a4e"/>
<rect x="592" y="102" width="4" height="15" fill="#2d8a4e"/>
<rect x="596" y="102" width="4" height="15" fill="#e8b83d"/>
<rect x="600" y="102" width="4" height="15" fill="#2d8a4e"/>
<rect x="604" y="102" width="4" height="15" fill="#e8b83d"/>
<rect x="608" y="102" width="4" height="15" fill="#e8b83d"/>
<rect x="612" y="102" width="4" height="15" fill="#e8b83d"/>
<rect x="616" y="102" width="4" height="15" fill="#2d8a4e"/>
<rect x="620" y="102" width="4" height="15" fill="#e8b83d"/>
<rect x="624" y="102" width="4" height="15" fill="#2d8a4e"/>
<rect x="628" y="102" width="4" height="15" fill="#2d8a4e"/>
<rect x="632" y="102" width="4" height="15" fill="#2d8a4e"/>
<rect x="636" y="102" width="4" height="15" fill="#2d8a4e"/>
<rect x="640" y="102" width="4" height="15" fill="#2d8a4e"/>
<rect x="644" y="102" width="4" height="15" fill="#2d8a4e"/>
<rect x="648" y="102" width="4" height="15" fill="#2d8a4e"/>
<rect x="652" y="102" width="4" height="15" fill="#e8b83d"/>
<rect x="656" y="102" width="4" height="15" fill="#c9493b"/>
<rect x="660" y="102" width="4" height="15" fill="#c9493b"/>
<rect x="664" y="102" width="4" height="15" fill="#e8b83d"/>
<rect x="668" y="102" width="4" height="15" fill="#e8b83d"/>
<rect x="672" y="102" width="4" height="15" fill="#2d8a4e"/>
<rect x="676" y="102" width="4" height="15" fill="#e8b83d"/>
<rect x="680" y="102" width="4" height="15" fill="#e8b83d"/>
<rect x="684" y="102" width="4" height="15" fill="#2d8a4e"/>
<rect x="688" y="102" width="4" height="15" fill="#e8b83d"/>
<rect x="692" y="102" width="4" height="15" fill="#e8b83d"/>
<rect x="696" y="102" width="4" height="15" fill="#e8b83d"/>
<rect x="700" y="102" width="4" height="15" fill="#2d8a4e"/>
<rect x="704" y="102" width="4" height="15" fill="#2d8a4e"/>
<rect x="708" y="102" width="4" height="15" fill="#2d8a4e"/>
<rect x="712" y="102" width="4" height="15" fill="#2d8a4e"/>
<rect x="716" y="102" width="4" height="15" fill="#2d8a4e"/>
<rect x="720" y="102" width="4" height="15" fill="#2d8a4e"/>
<rect x="724" y="102" width="4" height="15" fill="#2d8a4e"/>
<rect x="728" y="102" width="4" height="15" fill="#2d8a4e"/>
<rect x="732" y="102" width="4" height="15" fill="#e8b83d"/>
<rect x="736" y="102" width="4" height="15" fill="#2d8a4e"/>
<rect x="740" y="102" width="4" height="15" fill="#e8b83d"/>
<rect x="744" y="102" width="4" height="15" fill="#2d8a4e"/>
<rect x="748" y="102" width="4" height="15" fill="#2d8a4e"/>
<rect x="752" y="102" width="4" height="15" fill="#2d8a4e"/>
<text x="20" y="136" class="label">Book 3</text>
<text x="988" y="136" class="stats">n=135  avg=0.542  H=47%  M=39%  L=14%</text>
<rect x="180" y="124" width="4" height="15" fill="#e8b83d"/>
<rect x="184" y="124" width="4" height="15" fill="#e8b83d"/>
<rect x="188" y="124" width="4" height="15" fill="#c9493b"/>
<rect x="192" y="124" width="4" height="15" fill="#e8b83d"/>
<rect x="196" y="124" width="4" height="15" fill="#2d8a4e"/>
<rect x="200" y="124" width="4" height="15" fill="#e8b83d"/>
<rect x="204" y="124" width="4" height="15" fill="#e8b83d"/>
<rect x="208" y="124" width="4" height="15" fill="#e8b83d"/>
<rect x="212" y="124" width="4" height="15" fill="#e8b83d"/>
<rect x="216" y="124" width="4" height="15" fill="#2d8a4e"/>
<rect x="220" y="124" width="4" height="15" fill="#e8b83d"/>
<rect x="224" y="124" width="4" height="15" fill="#2d8a4e"/>
<rect x="228" y="124" width="4" height="15" fill="#2d8a4e"/>
<rect x="232" y="124" width="4" height="15" fill="#2d8a4e"/>
<rect x="236" y="124" width="4" height="15" fill="#2d8a4e"/>
<rect x="240" y="124" width="4" height="15" fill="#2d8a4e"/>
<rect x="244" y="124" width="4" height="15" fill="#2d8a4e"/>
<rect x="248" y="124" width="4" height="15" fill="#2d8a4e"/>
<rect x="252" y="124" width="4" height="15" fill="#2d8a4e"/>
<rect x="256" y="124" width="4" height="15" fill="#2d8a4e"/>
<rect x="260" y="124" width="4" height="15" fill="#e8b83d"/>
<rect x="264" y="124" width="4" height="15" fill="#c9493b"/>
<rect x="268" y="124" width="4" height="15" fill="#e8b83d"/>
<rect x="272" y="124" width="4" height="15" fill="#c9493b"/>
<rect x="276" y="124" width="4" height="15" fill="#e8b83d"/>
<rect x="280" y="124" width="4" height="15" fill="#c9493b"/>
<rect x="284" y="124" width="4" height="15" fill="#2d8a4e"/>
<rect x="288" y="124" width="4" height="15" fill="#e8b83d"/>
<rect x="292" y="124" width="4" height="15" fill="#2d8a4e"/>
<rect x="296" y="124" width="4" height="15" fill="#2d8a4e"/>
<rect x="300" y="124" width="4" height="15" fill="#c9493b"/>
<rect x="304" y="124" width="4" height="15" fill="#c9493b"/>
<rect x="308" y="124" width="4" height="15" fill="#c9493b"/>
<rect x="312" y="124" width="4" height="15" fill="#c9493b"/>
<rect x="316" y="124" width="4" height="15" fill="#c9493b"/>
<rect x="320" y="124" width="4" height="15" fill="#c9493b"/>
<rect x="324" y="124" width="4" height="15" fill="#e8b83d"/>
<rect x="328" y="124" width="4" height="15" fill="#c9493b"/>
<rect x="332" y="124" width="4" height="15" fill="#e8b83d"/>
<rect x="336" y="124" width="4" height="15" fill="#e8b83d"/>
<rect x="340" y="124" width="4" height="15" fill="#2d8a4e"/>
<rect x="344" y="124" width="4" height="15" fill="#2d8a4e"/>
<rect x="348" y="124" width="4" height="15" fill="#e8b83d"/>
<rect x="352" y="124" width="4" height="15" fill="#2d8a4e"/>
<rect x="356" y="124" width="4" height="15" fill="#e8b83d"/>
<rect x="360" y="124" width="4" height="15" fill="#2d8a4e"/>
<rect x="364" y="124" width="4" height="15" fill="#2d8a4e"/>
<rect x="368" y="124" width="4" height="15" fill="#2d8a4e"/>
<rect x="372" y="124" width="4" height="15" fill="#2d8a4e"/>
<rect x="376" y="124" width="4" height="15" fill="#c9493b"/>
<rect x="380" y="124" width="4" height="15" fill="#2d8a4e"/>
<rect x="384" y="124" width="4" height="15" fill="#e8b83d"/>
<rect x="388" y="124" width="4" height="15" fill="#2d8a4e"/>
<rect x="392" y="124" width="4" height="15" fill="#c9493b"/>
<rect x="396" y="124" width="4" height="15" fill="#e8b83d"/>
<rect x="400" y="124" width="4" height="15" fill="#e8b83d"/>
<rect x="404" y="124" width="4" height="15" fill="#2d8a4e"/>
<rect x="408" y="124" width="4" height="15" fill="#e8b83d"/>
<rect x="412" y="124" width="4" height="15" fill="#2d8a4e"/>
<rect x="416" y="124" width="4" height="15" fill="#e8b83d"/>
<rect x="420" y="124" width="4" height="15" fill="#e8b83d"/>
<rect x="424" y="124" width="4" height="15" fill="#2d8a4e"/>
<rect x="428" y="124" width="4" height="15" fill="#2d8a4e"/>
<rect x="432" y="124" width="4" height="15" fill="#e8b83d"/>
<rect x="436" y="124" width="4" height="15" fill="#e8b83d"/>
<rect x="440" y="124" width="4" height="15" fill="#e8b83d"/>
<rect x="444" y="124" width="4" height="15" fill="#e8b83d"/>
<rect x="448" y="124" width="4" height="15" fill="#2d8a4e"/>
<rect x="452" y="124" width="4" height="15" fill="#e8b83d"/>
<rect x="456" y="124" width="4" height="15" fill="#e8b83d"/>
<rect x="460" y="124" width="4" height="15" fill="#e8b83d"/>
<rect x="464" y="124" width="4" height="15" fill="#e8b83d"/>
<rect x="468" y="124" width="4" height="15" fill="#e8b83d"/>
<rect x="472" y="124" width="4" height="15" fill="#e8b83d"/>
<rect x="476" y="124" width="4" height="15" fill="#e8b83d"/>
<rect x="480" y="124" width="4" height="15" fill="#c9493b"/>
<rect x="484" y="124" width="4" height="15" fill="#c9493b"/>
<rect x="488" y="124" width="4" height="15" fill="#c9493b"/>
<rect x="492" y="124" width="4" height="15" fill="#e8b83d"/>
<rect x="496" y="124" width="4" height="15" fill="#e8b83d"/>
<rect x="500" y="124" width="4" height="15" fill="#e8b83d"/>
<rect x="504" y="124" width="4" height="15" fill="#e8b83d"/>
<rect x="508" y="124" width="4" height="15" fill="#c9493b"/>
<rect x="512" y="124" width="4" height="15" fill="#e8b83d"/>
<rect x="516" y="124" width="4" height="15" fill="#e8b83d"/>
<rect x="520" y="124" width="4" height="15" fill="#2d8a4e"/>
<rect x="524" y="124" width="4" height="15" fill="#e8b83d"/>
<rect x="528" y="124" width="4" height="15" fill="#2d8a4e"/>
<rect x="532" y="124" width="4" height="15" fill="#2d8a4e"/>
<rect x="536" y="124" width="4" height="15" fill="#e8b83d"/>
<rect x="540" y="124" width="4" height="15" fill="#2d8a4e"/>
<rect x="544" y="124" width="4" height="15" fill="#2d8a4e"/>
<rect x="548" y="124" width="4" height="15" fill="#e8b83d"/>
<rect x="552" y="124" width="4" height="15" fill="#2d8a4e"/>
<rect x="556" y="124" width="4" height="15" fill="#2d8a4e"/>
<rect x="560" y="124" width="4" height="15" fill="#2d8a4e"/>
<rect x="564" y="124" width="4" height="15" fill="#2d8a4e"/>
<rect x="568" y="124" width="4" height="15" fill="#2d8a4e"/>
<rect x="572" y="124" width="4" height="15" fill="#2d8a4e"/>
<rect x="576" y="124" width="4" height="15" fill="#2d8a4e"/>
<rect x="580" y="124" width="4" height="15" fill="#2d8a4e"/>
<rect x="584" y="124" width="4" height="15" fill="#2d8a4e"/>
<rect x="588" y="124" width="4" height="15" fill="#2d8a4e"/>
<rect x="592" y="124" width="4" height="15" fill="#2d8a4e"/>
<rect x="596" y="124" width="4" height="15" fill="#2d8a4e"/>
<rect x="600" y="124" width="4" height="15" fill="#c9493b"/>
<rect x="604" y="124" width="4" height="15" fill="#2d8a4e"/>
<rect x="608" y="124" width="4" height="15" fill="#2d8a4e"/>
<rect x="612" y="124" width="4" height="15" fill="#2d8a4e"/>
<rect x="616" y="124" width="4" height="15" fill="#2d8a4e"/>
<rect x="620" y="124" width="4" height="15" fill="#e8b83d"/>
<rect x="624" y="124" width="4" height="15" fill="#e8b83d"/>
<rect x="628" y="124" width="4" height="15" fill="#2d8a4e"/>
<rect x="632" y="124" width="4" height="15" fill="#2d8a4e"/>
<rect x="636" y="124" width="4" height="15" fill="#2d8a4e"/>
<rect x="640" y="124" width="4" height="15" fill="#2d8a4e"/>
<rect x="644" y="124" width="4" height="15" fill="#2d8a4e"/>
<rect x="648" y="124" width="4" height="15" fill="#2d8a4e"/>
<rect x="652" y="124" width="4" height="15" fill="#e8b83d"/>
<rect x="656" y="124" width="4" height="15" fill="#e8b83d"/>
<rect x="660" y="124" width="4" height="15" fill="#2d8a4e"/>
<rect x="664" y="124" width="4" height="15" fill="#2d8a4e"/>
<rect x="668" y="124" width="4" height="15" fill="#2d8a4e"/>
<rect x="672" y="124" width="4" height="15" fill="#e8b83d"/>
<rect x="676" y="124" width="4" height="15" fill="#e8b83d"/>
<rect x="680" y="124" width="4" height="15" fill="#e8b83d"/>
<rect x="684" y="124" width="4" height="15" fill="#2d8a4e"/>
<rect x="688" y="124" width="4" height="15" fill="#2d8a4e"/>
<rect x="692" y="124" width="4" height="15" fill="#2d8a4e"/>
<rect x="696" y="124" width="4" height="15" fill="#2d8a4e"/>
<rect x="700" y="124" width="4" height="15" fill="#e8b83d"/>
<rect x="704" y="124" width="4" height="15" fill="#2d8a4e"/>
<rect x="708" y="124" width="4" height="15" fill="#e8b83d"/>
<rect x="712" y="124" width="4" height="15" fill="#c9493b"/>
<rect x="716" y="124" width="4" height="15" fill="#e8b83d"/>
<text x="180" y="151" class="warn">⚠ 3.9.1 → 3.9.5  (6 sections, avg=0.187)</text>
<text x="180" y="165" class="warn">⚠ 3.20.1 → 3.20.3  (3 sections, avg=0.197)</text>
<text x="20" y="186" class="label">Book 4</text>
<text x="988" y="186" class="stats">n=143  avg=0.613  H=61%  M=32%  L=7%</text>
<rect x="180" y="174" width="4" height="15" fill="#2d8a4e"/>
<rect x="184" y="174" width="4" height="15" fill="#2d8a4e"/>
<rect x="188" y="174" width="4" height="15" fill="#2d8a4e"/>
<rect x="192" y="174" width="4" height="15" fill="#2d8a4e"/>
<rect x="196" y="174" width="4" height="15" fill="#2d8a4e"/>
<rect x="200" y="174" width="4" height="15" fill="#e8b83d"/>
<rect x="204" y="174" width="4" height="15" fill="#e8b83d"/>
<rect x="208" y="174" width="4" height="15" fill="#e8b83d"/>
<rect x="212" y="174" width="4" height="15" fill="#e8b83d"/>
<rect x="216" y="174" width="4" height="15" fill="#e8b83d"/>
<rect x="220" y="174" width="4" height="15" fill="#2d8a4e"/>
<rect x="224" y="174" width="4" height="15" fill="#2d8a4e"/>
<rect x="228" y="174" width="4" height="15" fill="#2d8a4e"/>
<rect x="232" y="174" width="4" height="15" fill="#2d8a4e"/>
<rect x="236" y="174" width="4" height="15" fill="#e8b83d"/>
<rect x="240" y="174" width="4" height="15" fill="#2d8a4e"/>
<rect x="244" y="174" width="4" height="15" fill="#2d8a4e"/>
<rect x="248" y="174" width="4" height="15" fill="#2d8a4e"/>
<rect x="252" y="174" width="4" height="15" fill="#e8b83d"/>
<rect x="256" y="174" width="4" height="15" fill="#2d8a4e"/>
<rect x="260" y="174" width="4" height="15" fill="#e8b83d"/>
<rect x="264" y="174" width="4" height="15" fill="#c9493b"/>
<rect x="268" y="174" width="4" height="15" fill="#e8b83d"/>
<rect x="272" y="174" width="4" height="15" fill="#c9493b"/>
<rect x="276" y="174" width="4" height="15" fill="#e8b83d"/>
<rect x="280" y="174" width="4" height="15" fill="#2d8a4e"/>
<rect x="284" y="174" width="4" height="15" fill="#2d8a4e"/>
<rect x="288" y="174" width="4" height="15" fill="#2d8a4e"/>
<rect x="292" y="174" width="4" height="15" fill="#e8b83d"/>
<rect x="296" y="174" width="4" height="15" fill="#2d8a4e"/>
<rect x="300" y="174" width="4" height="15" fill="#2d8a4e"/>
<rect x="304" y="174" width="4" height="15" fill="#2d8a4e"/>
<rect x="308" y="174" width="4" height="15" fill="#e8b83d"/>
<rect x="312" y="174" width="4" height="15" fill="#e8b83d"/>
<rect x="316" y="174" width="4" height="15" fill="#2d8a4e"/>
<rect x="320" y="174" width="4" height="15" fill="#2d8a4e"/>
<rect x="324" y="174" width="4" height="15" fill="#e8b83d"/>
<rect x="328" y="174" width="4" height="15" fill="#2d8a4e"/>
<rect x="332" y="174" width="4" height="15" fill="#2d8a4e"/>
<rect x="336" y="174" width="4" height="15" fill="#e8b83d"/>
<rect x="340" y="174" width="4" height="15" fill="#e8b83d"/>
<rect x="344" y="174" width="4" height="15" fill="#e8b83d"/>
<rect x="348" y="174" width="4" height="15" fill="#c9493b"/>
<rect x="352" y="174" width="4" height="15" fill="#c9493b"/>
<rect x="356" y="174" width="4" height="15" fill="#c9493b"/>
<rect x="360" y="174" width="4" height="15" fill="#e8b83d"/>
<rect x="364" y="174" width="4" height="15" fill="#2d8a4e"/>
<rect x="368" y="174" width="4" height="15" fill="#e8b83d"/>
<rect x="372" y="174" width="4" height="15" fill="#2d8a4e"/>
<rect x="376" y="174" width="4" height="15" fill="#e8b83d"/>
<rect x="380" y="174" width="4" height="15" fill="#e8b83d"/>
<rect x="384" y="174" width="4" height="15" fill="#2d8a4e"/>
<rect x="388" y="174" width="4" height="15" fill="#2d8a4e"/>
<rect x="392" y="174" width="4" height="15" fill="#e8b83d"/>
<rect x="396" y="174" width="4" height="15" fill="#e8b83d"/>
<rect x="400" y="174" width="4" height="15" fill="#e8b83d"/>
<rect x="404" y="174" width="4" height="15" fill="#2d8a4e"/>
<rect x="408" y="174" width="4" height="15" fill="#2d8a4e"/>
<rect x="412" y="174" width="4" height="15" fill="#2d8a4e"/>
<rect x="416" y="174" width="4" height="15" fill="#e8b83d"/>
<rect x="420" y="174" width="4" height="15" fill="#c9493b"/>
<rect x="424" y="174" width="4" height="15" fill="#e8b83d"/>
<rect x="428" y="174" width="4" height="15" fill="#e8b83d"/>
<rect x="432" y="174" width="4" height="15" fill="#2d8a4e"/>
<rect x="436" y="174" width="4" height="15" fill="#2d8a4e"/>
<rect x="440" y="174" width="4" height="15" fill="#2d8a4e"/>
<rect x="444" y="174" width="4" height="15" fill="#e8b83d"/>
<rect x="448" y="174" width="4" height="15" fill="#2d8a4e"/>
<rect x="452" y="174" width="4" height="15" fill="#e8b83d"/>
<rect x="456" y="174" width="4" height="15" fill="#2d8a4e"/>
<rect x="460" y="174" width="4" height="15" fill="#2d8a4e"/>
<rect x="464" y="174" width="4" height="15" fill="#2d8a4e"/>
<rect x="468" y="174" width="4" height="15" fill="#2d8a4e"/>
<rect x="472" y="174" width="4" height="15" fill="#2d8a4e"/>
<rect x="476" y="174" width="4" height="15" fill="#2d8a4e"/>
<rect x="480" y="174" width="4" height="15" fill="#e8b83d"/>
<rect x="484" y="174" width="4" height="15" fill="#2d8a4e"/>
<rect x="488" y="174" width="4" height="15" fill="#2d8a4e"/>
<rect x="492" y="174" width="4" height="15" fill="#e8b83d"/>
<rect x="496" y="174" width="4" height="15" fill="#2d8a4e"/>
<rect x="500" y="174" width="4" height="15" fill="#2d8a4e"/>
<rect x="504" y="174" width="4" height="15" fill="#2d8a4e"/>
<rect x="508" y="174" width="4" height="15" fill="#2d8a4e"/>
<rect x="512" y="174" width="4" height="15" fill="#e8b83d"/>
<rect x="516" y="174" width="4" height="15" fill="#2d8a4e"/>
<rect x="520" y="174" width="4" height="15" fill="#2d8a4e"/>
<rect x="524" y="174" width="4" height="15" fill="#e8b83d"/>
<rect x="528" y="174" width="4" height="15" fill="#2d8a4e"/>
<rect x="532" y="174" width="4" height="15" fill="#2d8a4e"/>
<rect x="536" y="174" width="4" height="15" fill="#2d8a4e"/>
<rect x="540" y="174" width="4" height="15" fill="#e8b83d"/>
<rect x="544" y="174" width="4" height="15" fill="#2d8a4e"/>
<rect x="548" y="174" width="4" height="15" fill="#2d8a4e"/>
<rect x="552" y="174" width="4" height="15" fill="#2d8a4e"/>
<rect x="556" y="174" width="4" height="15" fill="#2d8a4e"/>
<rect x="560" y="174" width="4" height="15" fill="#2d8a4e"/>
<rect x="564" y="174" width="4" height="15" fill="#2d8a4e"/>
<rect x="568" y="174" width="4" height="15" fill="#e8b83d"/>
<rect x="572" y="174" width="4" height="15" fill="#2d8a4e"/>
<rect x="576" y="174" width="4" height="15" fill="#2d8a4e"/>
<rect x="580" y="174" width="4" height="15" fill="#2d8a4e"/>
<rect x="584" y="174" width="4" height="15" fill="#2d8a4e"/>
<rect x="588" y="174" width="4" height="15" fill="#2d8a4e"/>
<rect x="592" y="174" width="4" height="15" fill="#e8b83d"/>
<rect x="596" y="174" width="4" height="15" fill="#e8b83d"/>
<rect x="600" y="174" width="4" height="15" fill="#2d8a4e"/>
<rect x="604" y="174" width="4" height="15" fill="#2d8a4e"/>
<rect x="608" y="174" width="4" height="15" fill="#2d8a4e"/>
<rect x="612" y="174" width="4" height="15" fill="#2d8a4e"/>
<rect x="616" y="174" width="4" height="15" fill="#c9493b"/>
<rect x="620" y="174" width="4" height="15" fill="#2d8a4e"/>
<rect x="624" y="174" width="4" height="15" fill="#2d8a4e"/>
<rect x="628" y="174" width="4" height="15" fill="#2d8a4e"/>
<rect x="632" y="174" width="4" height="15" fill="#2d8a4e"/>
<rect x="636" y="174" width="4" height="15" fill="#2d8a4e"/>
<rect x="640" y="174" width="4" height="15" fill="#2d8a4e"/>
<rect x="644" y="174" width="4" height="15" fill="#2d8a4e"/>
<rect x="648" y="174" width="4" height="15" fill="#2d8a4e"/>
<rect x="652" y="174" width="4" height="15" fill="#2d8a4e"/>
<rect x="656" y="174" width="4" height="15" fill="#e8b83d"/>
<rect x="660" y="174" width="4" height="15" fill="#2d8a4e"/>
<rect x="664" y="174" width="4" height="15" fill="#e8b83d"/>
<rect x="668" y="174" width="4" height="15" fill="#e8b83d"/>
<rect x="672" y="174" width="4" height="15" fill="#e8b83d"/>
<rect x="676" y="174" width="4" height="15" fill="#c9493b"/>
<rect x="680" y="174" width="4" height="15" fill="#c9493b"/>
<rect x="684" y="174" width="4" height="15" fill="#e8b83d"/>
<rect x="688" y="174" width="4" height="15" fill="#e8b83d"/>
<rect x="692" y="174" width="4" height="15" fill="#2d8a4e"/>
<rect x="696" y="174" width="4" height="15" fill="#2d8a4e"/>
<rect x="700" y="174" width="4" height="15" fill="#2d8a4e"/>
<rect x="704" y="174" width="4" height="15" fill="#2d8a4e"/>
<rect x="708" y="174" width="4" height="15" fill="#2d8a4e"/>
<rect x="712" y="174" width="4" height="15" fill="#2d8a4e"/>
<rect x="716" y="174" width="4" height="15" fill="#2d8a4e"/>
<rect x="720" y="174" width="4" height="15" fill="#2d8a4e"/>
<rect x="724" y="174" width="4" height="15" fill="#2d8a4e"/>
<rect x="728" y="174" width="4" height="15" fill="#2d8a4e"/>
<rect x="732" y="174" width="4" height="15" fill="#2d8a4e"/>
<rect x="736" y="174" width="4" height="15" fill="#e8b83d"/>
<rect x="740" y="174" width="4" height="15" fill="#c9493b"/>
<rect x="744" y="174" width="4" height="15" fill="#e8b83d"/>
<rect x="748" y="174" width="4" height="15" fill="#e8b83d"/>
<text x="180" y="201" class="warn">⚠ 4.12.4 → 4.13.2  (3 sections, avg=0.253)</text>
<line x1="20" y1="215" x2="1200" y2="215" stroke="#ccc" stroke-width="1"/>
<text x="20" y="235" class="total">TOTAL: 541 sections   avg=0.590   High=56%   Med=36%   Low=8%</text>
<rect x="20" y="242" width="658.706099815157" height="10" fill="#2d8a4e" rx="2"/>
<rect x="678.706099815157" y="242" width="423.1423290203327" height="10" fill="#e8b83d"/>
<rect x="1101.8484288354898" y="242" width="98.15157116451016" height="10" fill="#c9493b" rx="2"/>
</svg>