<svg xmlns="http://www.w3.org/2000/svg" width="1220" height="280" viewBox="0 0 1220 280">
<rect width="1220" height="280" fill="#f5f5f5"/>
<style>
  text { font-family: "SF Mono", "Menlo", "Monaco", monospace; }
  .title { font-size: 16px; font-weight: bold; }
  .subtitle { font-size: 11px; fill: #888; }
  .label { font-size: 11px; fill: #333; }
  .stats { font-size: 10px; fill: #666; }
  .warn { font-size: 9px; fill: #c9493b; }
  .total { font-size: 12px; font-weight: bold; fill: #333; }
  .legend-text { font-size: 10px; fill: #555; }
</style>
<text x="20" y="38" class="title">Alignment Quality Map — Apollonius Rhodius — Argonautica</text>
<rect x="20" y="50" width="12" height="12" fill="#2d8a4e" rx="2"/>
<text x="36" y="60" class="legend-text">High (≥0.6)</text>
<rect x="160" y="50" width="12" height="12" fill="#e8b83d" rx="2"/>
<text x="176" y="60" class="legend-text">Medium (0.3–0.6)</text>
<rect x="300" y="50" width="12" height="12" fill="#c9493b" rx="2"/>
<text x="316" y="60" class="legend-text">Low (&lt;0.3)</text>
<text x="20" y="92" class="label">Book 1</text>
<text x="988" y="92" class="stats">n=188  avg=0.229  H=3%  M=36%  L=61%</text>
<rect x="180" y="80" width="4" height="15" fill="#c9493b"/>
<rect x="184" y="80" width="4" height="15" fill="#c9493b"/>
<rect x="188" y="80" width="4" height="15" fill="#c9493b"/>
<rect x="192" y="80" width="4" height="15" fill="#c9493b"/>
<rect x="196" y="80" width="4" height="15" fill="#c9493b"/>
<rect x="200" y="80" width="4" height="15" fill="#c9493b"/>
<rect x="204" y="80" width="4" height="15" fill="#c9493b"/>
<rect x="208" y="80" width="4" height="15" fill="#c9493b"/>
<rect x="212" y="80" width="4" height="15" fill="#c9493b"/>
<rect x="216" y="80" width="4" height="15" fill="#e8b83d"/>
<rect x="220" y="80" width="4" height="15" fill="#c9493b"/>
<rect x="224" y="80" width="4" height="15" fill="#c9493b"/>
<rect x="228" y="80" width="4" height="15" fill="#c9493b"/>
<rect x="232" y="80" width="4" height="15" fill="#c9493b"/>
<rect x="236" y="80" width="4" height="15" fill="#c9493b"/>
<rect x="240" y="80" width="4" height="15" fill="#c9493b"/>
<rect x="244" y="80" width="4" height="15" fill="#c9493b"/>
<rect x="248" y="80" width="4" height="15" fill="#c9493b"/>
<rect x="252" y="80" width="4" height="15" fill="#c9493b"/>
<rect x="256" y="80" width="4" height="15" fill="#c9493b"/>
<rect x="260" y="80" width="4" height="15" fill="#c9493b"/>
<rect x="264" y="80" width="4" height="15" fill="#c9493b"/>
<rect x="268" y="80" width="4" height="15" fill="#c9493b"/>
<rect x="272" y="80" width="4" height="15" fill="#c9493b"/>
<rect x="276" y="80" width="4" height="15" fill="#c9493b"/>
<rect x="280" y="80" width="4" height="15" fill="#c9493b"/>
<rect x="284" y="80" width="4" height="15" fill="#c9493b"/>
<rect x="288" y="80" width="4" height="15" fill="#e8b83d"/>
<rect x="292" y="80" width="4" height="15" fill="#e8b83d"/>
<rect x="296" y="80" width="4" height="15" fill="#c9493b"/>
<rect x="300" y="80" width="4" height="15" fill="#e8b83d"/>
<rect x="304" y="80" width="4" height="15" fill="#e8b83d"/>
<rect x="308" y="80" width="4" height="15" fill="#e8b83d"/>
<rect x="312" y="80" width="4" height="15" fill="#c9493b"/>
<rect x="316" y="80" width="4" height="15" fill="#c9493b"/>
<rect x="320" y="80" width="4" height="15" fill="#c9493b"/>
<rect x="324" y="80" width="4" height="15" fill="#c9493b"/>
<rect x="328" y="80" width="4" height="15" fill="#c9493b"/>
<rect x="332" y="80" width="4" height="15" fill="#c9493b"/>
<rect x="336" y="80" width="4" height="15" fill="#e8b83d"/>
<rect x="340" y="80" width="4" height="15" fill="#c9493b"/>
<rect x="344" y="80" width="4" height="15" fill="#c9493b"/>
<rect x="348" y="80" width="4" height="15" fill="#c9493b"/>
<rect x="352" y="80" width="4" height="15" fill="#c9493b"/>
<rect x="356" y="80" width="4" height="15" fill="#c9493b"/>
<rect x="360" y="80" width="4" height="15" fill="#c9493b"/>
<rect x="364" y="80" width="4" height="15" fill="#c9493b"/>
<rect x="368" y="80" width="4" height="15" fill="#c9493b"/>
<rect x="372" y="80" width="4" height="15" fill="#c9493b"/>
<rect x="376" y="80" width="4" height="15" fill="#c9493b"/>
<rect x="380" y="80" width="4" height="15" fill="#c9493b"/>
<rect x="384" y="80" width="4" height="15" fill="#c9493b"/>
<rect x="388" y="80" width="4" height="15" fill="#c9493b"/>
<rect x="392" y="80" width="4" height="15" fill="#c9493b"/>
<rect x="396" y="80" width="4" height="15" fill="#c9493b"/>
<rect x="400" y="80" width="4" height="15" fill="#c9493b"/>
<rect x="404" y="80" width="4" height="15" fill="#c9493b"/>
<rect x="408" y="80" width="4" height="15" fill="#c9493b"/>
<rect x="412" y="80" width="4" height="15" fill="#c9493b"/>
<rect x="416" y="80" width="4" height="15" fill="#c9493b"/>
<rect x="420" y="80" width="4" height="15" fill="#c9493b"/>
<rect x="424" y="80" width="4" height="15" fill="#e8b83d"/>
<rect x="428" y="80" width="4" height="15" fill="#c9493b"/>
<rect x="432" y="80" width="4" height="15" fill="#c9493b"/>
<rect x="436" y="80" width="4" height="15" fill="#c9493b"/>
<rect x="440" y="80" width="4" height="15" fill="#e8b83d"/>
<rect x="444" y="80" width="4" height="15" fill="#c9493b"/>
<rect x="448" y="80" width="4" height="15" fill="#e8b83d"/>
<rect x="452" y="80" width="4" height="15" fill="#e8b83d"/>
<rect x="456" y="80" width="4" height="15" fill="#c9493b"/>
<rect x="460" y="80" width="4" height="15" fill="#c9493b"/>
<rect x="464" y="80" width="4" height="15" fill="#c9493b"/>
<rect x="468" y="80" width="4" height="15" fill="#c9493b"/>
<rect x="472" y="80" width="4" height="15" fill="#c9493b"/>
<rect x="476" y="80" width="4" height="15" fill="#c9493b"/>
<rect x="480" y="80" width="4" height="15" fill="#e8b83d"/>
<rect x="484" y="80" width="4" height="15" fill="#e8b83d"/>
<rect x="488" y="80" width="4" height="15" fill="#e8b83d"/>
<rect x="492" y="80" width="4" height="15" fill="#e8b83d"/>
<rect x="496" y="80" width="4" height="15" fill="#e8b83d"/>
<rect x="500" y="80" width="4" height="15" fill="#e8b83d"/>
<rect x="504" y="80" width="4" height="15" fill="#c9493b"/>
<rect x="508" y="80" width="4" height="15" fill="#c9493b"/>
<rect x="512" y="80" width="4" height="15" fill="#c9493b"/>
<rect x="516" y="80" width="4" height="15" fill="#c9493b"/>
<rect x="520" y="80" width="4" height="15" fill="#c9493b"/>
<rect x="524" y="80" width="4" height="15" fill="#e8b83d"/>
<rect x="528" y="80" width="4" height="15" fill="#c9493b"/>
<rect x="532" y="80" width="4" height="15" fill="#c9493b"/>
<rect x="536" y="80" width="4" height="15" fill="#e8b83d"/>
<rect x="540" y="80" width="4" height="15" fill="#e8b83d"/>
<rect x="544" y="80" width="4" height="15" fill="#e8b83d"/>
<rect x="548" y="80" width="4" height="15" fill="#e8b83d"/>
<rect x="552" y="80" width="4" height="15" fill="#c9493b"/>
<rect x="556" y="80" width="4" height="15" fill="#c9493b"/>
<rect x="560" y="80" width="4" height="15" fill="#c9493b"/>
<rect x="564" y="80" width="4" height="15" fill="#c9493b"/>
<rect x="568" y="80" width="4" height="15" fill="#e8b83d"/>
<rect x="572" y="80" width="4" height="15" fill="#c9493b"/>
<rect x="576" y="80" width="4" height="15" fill="#c9493b"/>
<rect x="580" y="80" width="4" height="15" fill="#e8b83d"/>
<rect x="584" y="80" width="4" height="15" fill="#c9493b"/>
<rect x="588" y="80" width="4" height="15" fill="#c9493b"/>
<rect x="592" y="80" width="4" height="15" fill="#e8b83d"/>
<rect x="596" y="80" width="4" height="15" fill="#c9493b"/>
<rect x="600" y="80" width="4" height="15" fill="#e8b83d"/>
<rect x="604" y="80" width="4" height="15" fill="#c9493b"/>
<rect x="608" y="80" width="4" height="15" fill="#e8b83d"/>
<rect x="612" y="80" width="4" height="15" fill="#c9493b"/>
<rect x="616" y="80" width="4" height="15" fill="#e8b83d"/>
<rect x="620" y="80" width="4" height="15" fill="#e8b83d"/>
<rect x="624" y="80" width="4" height="15" fill="#c9493b"/>
<rect x="628" y="80" width="4" height="15" fill="#c9493b"/>
<rect x="632" y="80" width="4" height="15" fill="#c9493b"/>
<rect x="636" y="80" width="4" height="15" fill="#c9493b"/>
<rect x="640" y="80" width="4" height="15" fill="#e8b83d"/>
<rect x="644" y="80" width="4" height="15" fill="#e8b83d"/>
<rect x="648" y="80" width="4" height="15" fill="#e8b83d"/>
<rect x="652" y="80" width="4" height="15" fill="#e8b83d"/>
<rect x="656" y="80" width="4" height="15" fill="#e8b83d"/>
<rect x="660" y="80" width="4" height="15" fill="#e8b83d"/>
<rect x="664" y="80" width="4" height="15" fill="#e8b83d"/>
<rect x="668" y="80" width="4" height="15" fill="#e8b83d"/>
<rect x="672" y="80" width="4" height="15" fill="#c9493b"/>
<rect x="676" y="80" width="4" height="15" fill="#c9493b"/>
<rect x="680" y="80" width="4" height="15" fill="#c9493b"/>
<rect x="684" y="80" width="4" height="15" fill="#e8b83d"/>
<rect x="688" y="80" width="4" height="15" fill="#c9493b"/>
<rect x="692" y="80" width="4" height="15" fill="#c9493b"/>
<rect x="696" y="80" width="4" height="15" fill="#c9493b"/>
<rect x="700" y="80" width="4" height="15" fill="#e8b83d"/>
<rect x="704" y="80" width="4" height="15" fill="#e8b83d"/>
<rect x="708" y="80" width="4" height="15" fill="#c9493b"/>
<rect x="712" y="80" width="4" height="15" fill="#c9493b"/>
<rect x="716" y="80" width="4" height="15" fill="#c9493b"/>
<rect x="720" y="80" width="4" height="15" fill="#c9493b"/>
<rect x="724" y="80" width="4" height="15" fill="#c9493b"/>
<rect x="728" y="80" width="4" height="15" fill="#c9493b"/>
<rect x="732" y="80" width="4" height="15" fill="#c9493b"/>
<rect x="736" y="80" width="4" height="15" fill="#c9493b"/>
<rect x="740" y="80" width="4" height="15" fill="#c9493b"/>
<rect x="744" y="80" width="4" height="15" fill="#c9493b"/>
<rect x="748" y="80" width="4" height="15" fill="#c9493b"/>
<rect x="752" y="80" width="4" height="15" fill="#e8b83d"/>
<rect x="756" y="80" width="4" height="15" fill="#e8b83d"/>
<rect x="760" y="80" width="4" height="15" fill="#e8b83d"/>
<rect x="764" y="80" width="4" height="15" fill="#e8b83d"/>
<rect x="768" y="80" width="4" height="15" fill="#c9493b"/>
<rect x="772" y="80" width="4" height="15" fill="#c9493b"/>
<rect x="776" y="80" width="4" height="15" fill="#e8b83d"/>
<rect x="780" y="80" width="4" height="15" fill="#c9493b"/>
<rect x="784" y="80" width="4" height="15" fill="#c9493b"/>
<rect x="788" y="80" width="4" height="15" fill="#e8b83d"/>
<rect x="792" y="80" width="4" height="15" fill="#c9493b"/>
<rect x="796" y="80" width="4" height="15" fill="#e8b83d"/>
<rect x="800" y="80" width="4" height="15" fill="#c9493b"/>
<rect x="804" y="80" width="4" height="15" fill="#c9493b"/>
<rect x="808" y="80" width="4" height="15" fill="#e8b83d"/>
<rect x="812" y="80" width="4" height="15" fill="#e8b83d"/>
<rect x="816" y="80" width="4" height="15" fill="#e8b83d"/>
<rect x="820" y="80" width="4" height="15" fill="#e8b83d"/>
<rect x="824" y="80" width="4" height="15" fill="#e8b83d"/>
<rect x="828" y="80" width="4" height="15" fill="#e8b83d"/>
<rect x="832" y="80" width="4" height="15" fill="#e8b83d"/>
<rect x="836" y="80" width="4" height="15" fill="#c9493b"/>
<rect x="840" y="80" width="4" height="15" fill="#c9493b"/>
<rect x="844" y="80" width="4" height="15" fill="#c9493b"/>
<rect x="848" y="80" width="4" height="15" fill="#e8b83d"/>
<rect x="852" y="80" width="4" height="15" fill="#c9493b"/>
<rect x="856" y="80" width="4" height="15" fill="#e8b83d"/>
<rect x="860" y="80" width="4" height="15" fill="#e8b83d"/>
<rect x="864" y="80" width="4" height="15" fill="#c9493b"/>
<rect x="868" y="80" width="4" height="15" fill="#e8b83d"/>
<rect x="872" y="80" width="4" height="15" fill="#e8b83d"/>
<rect x="876" y="80" width="4" height="15" fill="#e8b83d"/>
<rect x="880" y="80" width="4" height="15" fill="#e8b83d"/>
<rect x="884" y="80" width="4" height="15" fill="#e8b83d"/>
<rect x="888" y="80" width="4" height="15" fill="#2d8a4e"/>
<rect x="892" y="80" width="4" height="15" fill="#2d8a4e"/>
<rect x="896" y="80" width="4" height="15" fill="#e8b83d"/>
<rect x="900" y="80" width="4" height="15" fill="#e8b83d"/>
<rect x="904" y="80" width="4" height="15" fill="#e8b83d"/>
<rect x="908" y="80" width="4" height="15" fill="#e8b83d"/>
<rect x="912" y="80" width="4" height="15" fill="#e8b83d"/>
<rect x="916" y="80" width="4" height="15" fill="#2d8a4e"/>
<rect x="920" y="80" width="4" height="15" fill="#2d8a4e"/>
<rect x="924" y="80" width="4" height="15" fill="#2d8a4e"/>
<rect x="928" y="80" width="4" height="15" fill="#e8b83d"/>
<text x="180" y="107" class="warn">⚠ 1.242 → 1.351  (21 sections, avg=0.040)</text>
<text x="180" y="121" class="warn">⚠ 1.57 → 1.161  (17 sections, avg=0.013)</text>
<text x="180" y="135" class="warn">⚠ 1.934 → 1.980  (11 sections, avg=0.178)</text>
<text x="20" y="156" class="label">Book 2</text>
<text x="988" y="156" class="stats">n=135  avg=0.546  H=37%  M=58%  L=5%</text>
<rect x="180" y="144" width="4" height="15" fill="#e8b83d"/>
<rect x="184" y="144" width="4" height="15" fill="#2d8a4e"/>
<rect x="188" y="144" width="4" height="15" fill="#e8b83d"/>
<rect x="192" y="144" width="4" height="15" fill="#2d8a4e"/>
<rect x="196" y="144" width="4" height="15" fill="#2d8a4e"/>
<rect x="200" y="144" width="4" height="15" fill="#e8b83d"/>
<rect x="204" y="144" width="4" height="15" fill="#2d8a4e"/>
<rect x="208" y="144" width="4" height="15" fill="#2d8a4e"/>
<rect x="212" y="144" width="4" height="15" fill="#e8b83d"/>
<rect x="216" y="144" width="4" height="15" fill="#2d8a4e"/>
<rect x="220" y="144" width="4" height="15" fill="#2d8a4e"/>
<rect x="224" y="144" width="4" height="15" fill="#e8b83d"/>
<rect x="228" y="144" width="4" height="15" fill="#e8b83d"/>
<rect x="232" y="144" width="4" height="15" fill="#e8b83d"/>
<rect x="236" y="144" width="4" height="15" fill="#2d8a4e"/>
<rect x="240" y="144" width="4" height="15" fill="#e8b83d"/>
<rect x="244" y="144" width="4" height="15" fill="#e8b83d"/>
<rect x="248" y="144" width="4" height="15" fill="#2d8a4e"/>
<rect x="252" y="144" width="4" height="15" fill="#e8b83d"/>
<rect x="256" y="144" width="4" height="15" fill="#e8b83d"/>
<rect x="260" y="144" width="4" height="15" fill="#c9493b"/>
<rect x="264" y="144" width="4" height="15" fill="#e8b83d"/>
<rect x="268" y="144" width="4" height="15" fill="#e8b83d"/>
<rect x="272" y="144" width="4" height="15" fill="#2d8a4e"/>
<rect x="276" y="144" width="4" height="15" fill="#2d8a4e"/>
<rect x="280" y="144" width="4" height="15" fill="#2d8a4e"/>
<rect x="284" y="144" width="4" height="15" fill="#e8b83d"/>
<rect x="288" y="144" width="4" height="15" fill="#2d8a4e"/>
<rect x="292" y="144" width="4" height="15" fill="#2d8a4e"/>
<rect x="296" y="144" width="4" height="15" fill="#2d8a4e"/>
<rect x="300" y="144" width="4" height="15" fill="#e8b83d"/>
<rect x="304" y="144" width="4" height="15" fill="#c9493b"/>
<rect x="308" y="144" width="4" height="15" fill="#e8b83d"/>
<rect x="312" y="144" width="4" height="15" fill="#e8b83d"/>
<rect x="316" y="144" width="4" height="15" fill="#e8b83d"/>
<rect x="320" y="144" width="4" height="15" fill="#2d8a4e"/>
<rect x="324" y="144" width="4" height="15" fill="#2d8a4e"/>
<rect x="328" y="144" width="4" height="15" fill="#2d8a4e"/>
<rect x="332" y="144" width="4" height="15" fill="#2d8a4e"/>
<rect x="336" y="144" width="4" height="15" fill="#e8b83d"/>
<rect x="340" y="144" width="4" height="15" fill="#2d8a4e"/>
<rect x="344" y="144" width="4" height="15" fill="#e8b83d"/>
<rect x="348" y="144" width="4" height="15" fill="#2d8a4e"/>
<rect x="352" y="144" width="4" height="15" fill="#e8b83d"/>
<rect x="356" y="144" width="4" height="15" fill="#e8b83d"/>
<rect x="360" y="144" width="4" height="15" fill="#2d8a4e"/>
<rect x="364" y="144" width="4" height="15" fill="#2d8a4e"/>
<rect x="368" y="144" width="4" height="15" fill="#c9493b"/>
<rect x="372" y="144" width="4" height="15" fill="#e8b83d"/>
<rect x="376" y="144" width="4" height="15" fill="#e8b83d"/>
<rect x="380" y="144" width="4" height="15" fill="#c9493b"/>
<rect x="384" y="144" width="4" height="15" fill="#e8b83d"/>
<rect x="388" y="144" width="4" height="15" fill="#e8b83d"/>
<rect x="392" y="144" width="4" height="15" fill="#2d8a4e"/>
<rect x="396" y="144" width="4" height="15" fill="#e8b83d"/>
<rect x="400" y="144" width="4" height="15" fill="#e8b83d"/>
<rect x="404" y="144" width="4" height="15" fill="#e8b83d"/>
<rect x="408" y="144" width="4" height="15" fill="#e8b83d"/>
<rect x="412" y="144" width="4" height="15" fill="#e8b83d"/>
<rect x="416" y="144" width="4" height="15" fill="#e8b83d"/>
<rect x="420" y="144" width="4" height="15" fill="#2d8a4e"/>
<rect x="424" y="144" width="4" height="15" fill="#c9493b"/>
<rect x="428" y="144" width="4" height="15" fill="#e8b83d"/>
<rect x="432" y="144" width="4" height="15" fill="#e8b83d"/>
<rect x="436" y="144" width="4" height="15" fill="#e8b83d"/>
<rect x="440" y="144" width="4" height="15" fill="#2d8a4e"/>
<rect x="444" y="144" width="4" height="15" fill="#2d8a4e"/>
<rect x="448" y="144" width="4" height="15" fill="#e8b83d"/>
<rect x="452" y="144" width="4" height="15" fill="#2d8a4e"/>
<rect x="456" y="144" width="4" height="15" fill="#2d8a4e"/>
<rect x="460" y="144" width="4" height="15" fill="#e8b83d"/>
<rect x="464" y="144" width="4" height="15" fill="#e8b83d"/>
<rect x="468" y="144" width="4" height="15" fill="#e8b83d"/>
<rect x="472" y="144" width="4" height="15" fill="#e8b83d"/>
<rect x="476" y="144" width="4" height="15" fill="#e8b83d"/>
<rect x="480" y="144" width="4" height="15" fill="#e8b83d"/>
<rect x="484" y="144" width="4" height="15" fill="#2d8a4e"/>
<rect x="488" y="144" width="4" height="15" fill="#e8b83d"/>
<rect x="492" y="144" width="4" height="15" fill="#e8b83d"/>
<rect x="496" y="144" width="4" height="15" fill="#e8b83d"/>
<rect x="500" y="144" width="4" height="15" fill="#e8b83d"/>
<rect x="504" y="144" width="4" height="15" fill="#2d8a4e"/>
<rect x="508" y="144" width="4" height="15" fill="#2d8a4e"/>
<rect x="512" y="144" width="4" height="15" fill="#c9493b"/>
<rect x="516" y="144" width="4" height="15" fill="#e8b83d"/>
<rect x="520" y="144" width="4" height="15" fill="#e8b83d"/>
<rect x="524" y="144" width="4" height="15" fill="#e8b83d"/>
<rect x="528" y="144" width="4" height="15" fill="#e8b83d"/>
<rect x="532" y="144" width="4" height="15" fill="#e8b83d"/>
<rect x="536" y="144" width="4" height="15" fill="#e8b83d"/>
<rect x="540" y="144" width="4" height="15" fill="#e8b83d"/>
<rect x="544" y="144" width="4" height="15" fill="#e8b83d"/>
<rect x="548" y="144" width="4" height="15" fill="#e8b83d"/>
<rect x="552" y="144" width="4" height="15" fill="#c9493b"/>
<rect x="556" y="144" width="4" height="15" fill="#2d8a4e"/>
<rect x="560" y="144" width="4" height="15" fill="#e8b83d"/>
<rect x="564" y="144" width="4" height="15" fill="#2d8a4e"/>
<rect x="568" y="144" width="4" height="15" fill="#2d8a4e"/>
<rect x="572" y="144" width="4" height="15" fill="#e8b83d"/>
<rect x="576" y="144" width="4" height="15" fill="#e8b83d"/>
<rect x="580" y="144" width="4" height="15" fill="#e8b83d"/>
<rect x="584" y="144" width="4" height="15" fill="#e8b83d"/>
<rect x="588" y="144" width="4" height="15" fill="#2d8a4e"/>
<rect x="592" y="144" width="4" height="15" fill="#e8b83d"/>
<rect x="596" y="144" width="4" height="15" fill="#2d8a4e"/>
<rect x="600" y="144" width="4" height="15" fill="#e8b83d"/>
<rect x="604" y="144" width="4" height="15" fill="#e8b83d"/>
<rect x="608" y="144" width="4" height="15" fill="#2d8a4e"/>
<rect x="612" y="144" width="4" height="15" fill="#2d8a4e"/>
<rect x="616" y="144" width="4" height="15" fill="#e8b83d"/>
<rect x="620" y="144" width="4" height="15" fill="#e8b83d"/>
<rect x="624" y="144" width="4" height="15" fill="#e8b83d"/>
<rect x="628" y="144" width="4" height="15" fill="#e8b83d"/>
<rect x="632" y="144" width="4" height="15" fill="#e8b83d"/>
<rect x="636" y="144" width="4" height="15" fill="#2d8a4e"/>
<rect x="640" y="144" width="4" height="15" fill="#2d8a4e"/>
<rect x="644" y="144" width="4" height="15" fill="#2d8a4e"/>
<rect x="648" y="144" width="4" height="15" fill="#2d8a4e"/>
<rect x="652" y="144" width="4" height="15" fill="#e8b83d"/>
<rect x="656" y="144" width="4" height="15" fill="#2d8a4e"/>
<rect x="660" y="144" width="4" height="15" fill="#2d8a4e"/>
<rect x="664" y="144" width="4" height="15" fill="#2d8a4e"/>
<rect x="668" y="144" width="4" height="15" fill="#e8b83d"/>
<rect x="672" y="144" width="4" height="15" fill="#2d8a4e"/>
<rect x="676" y="144" width="4" height="15" fill="#2d8a4e"/>
<rect x="680" y="144" width="4" height="15" fill="#e8b83d"/>
<rect x="684" y="144" width="4" height="15" fill="#e8b83d"/>
<rect x="688" y="144" width="4" height="15" fill="#e8b83d"/>
<rect x="692" y="144" width="4" height="15" fill="#e8b83d"/>
<rect x="696" y="144" width="4" height="15" fill="#2d8a4e"/>
<rect x="700" y="144" width="4" height="15" fill="#e8b83d"/>
<rect x="704" y="144" width="4" height="15" fill="#2d8a4e"/>
<rect x="708" y="144" width="4" height="15" fill="#e8b83d"/>
<rect x="712" y="144" width="4" height="15" fill="#e8b83d"/>
<rect x="716" y="144" width="4" height="15" fill="#e8b83d"/>
<text x="20" y="178" class="label">Book 3</text>
<text x="988" y="178" class="stats">n=148  avg=0.507  H=31%  M=58%  L=11%</text>
<rect x="180" y="166" width="4" height="15" fill="#e8b83d"/>
<rect x="184" y="166" width="4" height="15" fill="#c9493b"/>
<rect x="188" y="166" width="4" height="15" fill="#c9493b"/>
<rect x="192" y="166" width="4" height="15" fill="#e8b83d"/>
<rect x="196" y="166" width="4" height="15" fill="#e8b83d"/>
<rect x="200" y="166" width="4" height="15" fill="#e8b83d"/>
<rect x="204" y="166" width="4" height="15" fill="#e8b83d"/>
<rect x="208" y="166" width="4" height="15" fill="#e8b83d"/>
<rect x="212" y="166" width="4" height="15" fill="#2d8a4e"/>
<rect x="216" y="166" width="4" height="15" fill="#e8b83d"/>
<rect x="220" y="166" width="4" height="15" fill="#e8b83d"/>
<rect x="224" y="166" width="4" height="15" fill="#2d8a4e"/>
<rect x="228" y="166" width="4" height="15" fill="#2d8a4e"/>
<rect x="232" y="166" width="4" height="15" fill="#e8b83d"/>
<rect x="236" y="166" width="4" height="15" fill="#c9493b"/>
<rect x="240" y="166" width="4" height="15" fill="#e8b83d"/>
<rect x="244" y="166" width="4" height="15" fill="#e8b83d"/>
<rect x="248" y="166" width="4" height="15" fill="#e8b83d"/>
<rect x="252" y="166" width="4" height="15" fill="#e8b83d"/>
<rect x="256" y="166" width="4" height="15" fill="#e8b83d"/>
<rect x="260" y="166" width="4" height="15" fill="#2d8a4e"/>
<rect x="264" y="166" width="4" height="15" fill="#e8b83d"/>
<rect x="268" y="166" width="4" height="15" fill="#2d8a4e"/>
<rect x="272" y="166" width="4" height="15" fill="#e8b83d"/>
<rect x="276" y="166" width="4" height="15" fill="#e8b83d"/>
<rect x="280" y="166" width="4" height="15" fill="#e8b83d"/>
<rect x="284" y="166" width="4" height="15" fill="#c9493b"/>
<rect x="288" y="166" width="4" height="15" fill="#e8b83d"/>
<rect x="292" y="166" width="4" height="15" fill="#e8b83d"/>
<rect x="296" y="166" width="4" height="15" fill="#2d8a4e"/>
<rect x="300" y="166" width="4" height="15" fill="#2d8a4e"/>
<rect x="304" y="166" width="4" height="15" fill="#e8b83d"/>
<rect x="308" y="166" width="4" height="15" fill="#2d8a4e"/>
<rect x="312" y="166" width="4" height="15" fill="#2d8a4e"/>
<rect x="316" y="166" width="4" height="15" fill="#e8b83d"/>
<rect x="320" y="166" width="4" height="15" fill="#2d8a4e"/>
<rect x="324" y="166" width="4" height="15" fill="#2d8a4e"/>
<rect x="328" y="166" width="4" height="15" fill="#e8b83d"/>
<rect x="332" y="166" width="4" height="15" fill="#c9493b"/>
<rect x="336" y="166" width="4" height="15" fill="#2d8a4e"/>
<rect x="340" y="166" width="4" height="15" fill="#2d8a4e"/>
<rect x="344" y="166" width="4" height="15" fill="#e8b83d"/>
<rect x="348" y="166" width="4" height="15" fill="#e8b83d"/>
<rect x="352" y="166" width="4" height="15" fill="#e8b83d"/>
<rect x="356" y="166" width="4" height="15" fill="#e8b83d"/>
<rect x="360" y="166" width="4" height="15" fill="#2d8a4e"/>
<rect x="364" y="166" width="4" height="15" fill="#2d8a4e"/>
<rect x="368" y="166" width="4" height="15" fill="#e8b83d"/>
<rect x="372" y="166" width="4" height="15" fill="#e8b83d"/>
<rect x="376" y="166" width="4" height="15" fill="#2d8a4e"/>
<rect x="380" y="166" width="4" height="15" fill="#e8b83d"/>
<rect x="384" y="166" width="4" height="15" fill="#2d8a4e"/>
<rect x="388" y="166" width="4" height="15" fill="#2d8a4e"/>
<rect x="392" y="166" width="4" height="15" fill="#e8b83d"/>
<rect x="396" y="166" width="4" height="15" fill="#2d8a4e"/>
<rect x="400" y="166" width="4" height="15" fill="#e8b83d"/>
<rect x="404" y="166" width="4" height="15" fill="#e8b83d"/>
<rect x="408" y="166" width="4" height="15" fill="#e8b83d"/>
<rect x="412" y="166" width="4" height="15" fill="#e8b83d"/>
<rect x="416" y="166" width="4" height="15" fill="#e8b83d"/>
<rect x="420" y="166" width="4" height="15" fill="#e8b83d"/>
<rect x="424" y="166" width="4" height="15" fill="#e8b83d"/>
<rect x="428" y="166" width="4" height="15" fill="#c9493b"/>
<rect x="432" y="166" width="4" height="15" fill="#e8b83d"/>
<rect x="436" y="166" width="4" height="15" fill="#2d8a4e"/>
<rect x="440" y="166" width="4" height="15" fill="#e8b83d"/>
<rect x="444" y="166" width="4" height="15" fill="#e8b83d"/>
<rect x="448" y="166" width="4" height="15" fill="#e8b83d"/>
<rect x="452" y="166" width="4" height="15" fill="#e8b83d"/>
<rect x="456" y="166" width="4" height="15" fill="#e8b83d"/>
<rect x="460" y="166" width="4" height="15" fill="#2d8a4e"/>
<rect x="464" y="166" width="4" height="15" fill="#2d8a4e"/>
<rect x="468" y="166" width="4" height="15" fill="#e8b83d"/>
<rect x="472" y="166" width="4" height="15" fill="#2d8a4e"/>
<rect x="476" y="166" width="4" height="15" fill="#e8b83d"/>
<rect x="480" y="166" width="4" height="15" fill="#e8b83d"/>
<rect x="484" y="166" width="4" height="15" fill="#2d8a4e"/>
<rect x="488" y="166" width="4" height="15" fill="#2d8a4e"/>
<rect x="492" y="166" width="4" height="15" fill="#2d8a4e"/>
<rect x="496" y="166" width="4" height="15" fill="#e8b83d"/>
<rect x="500" y="166" width="4" height="15" fill="#2d8a4e"/>
<rect x="504" y="166" width="4" height="15" fill="#e8b83d"/>
<rect x="508" y="166" width="4" height="15" fill="#c9493b"/>
<rect x="512" y="166" width="4" height="15" fill="#e8b83d"/>
<rect x="516" y="166" width="4" height="15" fill="#c9493b"/>
<rect x="520" y="166" width="4" height="15" fill="#e8b83d"/>
<rect x="524" y="166" width="4" height="15" fill="#e8b83d"/>
<rect x="528" y="166" width="4" height="15" fill="#e8b83d"/>
<rect x="532" y="166" width="4" height="15" fill="#c9493b"/>
<rect x="536" y="166" width="4" height="15" fill="#e8b83d"/>
<rect x="540" y="166" width="4" height="15" fill="#2d8a4e"/>
<rect x="544" y="166" width="4" height="15" fill="#e8b83d"/>
<rect x="548" y="166" width="4" height="15" fill="#2d8a4e"/>
<rect x="552" y="166" width="4" height="15" fill="#e8b83d"/>
<rect x="556" y="166" width="4" height="15" fill="#e8b83d"/>
<rect x="560" y="166" width="4" height="15" fill="#2d8a4e"/>
<rect x="564" y="166" width="4" height="15" fill="#c9493b"/>
<rect x="568" y="166" width="4" height="15" fill="#e8b83d"/>
<rect x="572" y="166" width="4" height="15" fill="#e8b83d"/>
<rect x="576" y="166" width="4" height="15" fill="#e8b83d"/>
<rect x="580" y="166" width="4" height="15" fill="#2d8a4e"/>
<rect x="584" y="166" width="4" height="15" fill="#2d8a4e"/>
<rect x="588" y="166" width="4" height="15" fill="#e8b83d"/>
<rect x="592" y="166" width="4" height="15" fill="#e8b83d"/>
<rect x="596" y="166" width="4" height="15" fill="#e8b83d"/>
<rect x="600" y="166" width="4" height="15" fill="#c9493b"/>
<rect x="604" y="166" width="4" height="15" fill="#c9493b"/>
<rect x="608" y="166" width="4" height="15" fill="#e8b83d"/>
<rect x="612" y="166" width="4" height="15" fill="#e8b83d"/>
<rect x="616" y="166" width="4" height="15" fill="#e8b83d"/>
<rect x="620" y="166" width="4" height="15" fill="#2d8a4e"/>
<rect x="624" y="166" width="4" height="15" fill="#e8b83d"/>
<rect x="628" y="166" width="4" height="15" fill="#2d8a4e"/>
<rect x="632" y="166" width="4" height="15" fill="#2d8a4e"/>
<rect x="636" y="166" width="4" height="15" fill="#2d8a4e"/>
<rect x="640" y="166" width="4" height="15" fill="#e8b83d"/>
<rect x="644" y="166" width="4" height="15" fill="#e8b83d"/>
<rect x="648" y="166" width="4" height="15" fill="#2d8a4e"/>
<rect x="652" y="166" width="4" height="15" fill="#2d8a4e"/>
<rect x="656" y="166" width="4" height="15" fill="#2d8a4e"/>
<rect x="660" y="166" width="4" height="15" fill="#2d8a4e"/>
<rect x="664" y="166" width="4" height="15" fill="#e8b83d"/>
<rect x="668" y="166" width="4" height="15" fill="#2d8a4e"/>
<rect x="672" y="166" width="4" height="15" fill="#e8b83d"/>
<rect x="676" y="166" width="4" height="15" fill="#e8b83d"/>
<rect x="680" y="166" width="4" height="15" fill="#e8b83d"/>
<rect x="684" y="166" width="4" height="15" fill="#c9493b"/>
<rect x="688" y="166" width="4" height="15" fill="#e8b83d"/>
<rect x="692" y="166" width="4" height="15" fill="#e8b83d"/>
<rect x="696" y="166" width="4" height="15" fill="#2d8a4e"/>
<rect x="700" y="166" width="4" height="15" fill="#e8b83d"/>
<rect x="704" y="166" width="4" height="15" fill="#e8b83d"/>
<rect x="708" y="166" width="4" height="15" fill="#c9493b"/>
<rect x="712" y="166" width="4" height="15" fill="#e8b83d"/>
<rect x="716" y="166" width="4" height="15" fill="#e8b83d"/>
<rect x="720" y="166" width="4" height="15" fill="#e8b83d"/>
<rect x="724" y="166" width="4" height="15" fill="#e8b83d"/>
<rect x="728" y="166" width="4" height="15" fill="#2d8a4e"/>
<rect x="732" y="166" width="4" height="15" fill="#2d8a4e"/>
<rect x="736" y="166" width="4" height="15" fill="#c9493b"/>
<rect x="740" y="166" width="4" height="15" fill="#e8b83d"/>
<rect x="744" y="166" width="4" height="15" fill="#2d8a4e"/>
<rect x="748" y="166" width="4" height="15" fill="#e8b83d"/>
<rect x="752" y="166" width="4" height="15" fill="#2d8a4e"/>
<rect x="756" y="166" width="4" height="15" fill="#e8b83d"/>
<rect x="760" y="166" width="4" height="15" fill="#e8b83d"/>
<rect x="764" y="166" width="4" height="15" fill="#e8b83d"/>
<rect x="768" y="166" width="4" height="15" fill="#c9493b"/>
<text x="20" y="200" class="label">Book 4</text>
<text x="988" y="200" class="stats">n=179  avg=0.506  H=30%  M=58%  L=12%</text>
<rect x="180" y="188" width="4" height="15" fill="#c9493b"/>
<rect x="184" y="188" width="4" height="15" fill="#c9493b"/>
<rect x="188" y="188" width="4" height="15" fill="#e8b83d"/>
<rect x="192" y="188" width="4" height="15" fill="#c9493b"/>
<rect x="196" y="188" width="4" height="15" fill="#e8b83d"/>
<rect x="200" y="188" width="4" height="15" fill="#e8b83d"/>
<rect x="204" y="188" width="4" height="15" fill="#e8b83d"/>
<rect x="208" y="188" width="4" height="15" fill="#e8b83d"/>
<rect x="212" y="188" width="4" height="15" fill="#2d8a4e"/>
<rect x="216" y="188" width="4" height="15" fill="#2d8a4e"/>
<rect x="220" y="188" width="4" height="15" fill="#e8b83d"/>
<rect x="224" y="188" width="4" height="15" fill="#e8b83d"/>
<rect x="228" y="188" width="4" height="15" fill="#e8b83d"/>
<rect x="232" y="188" width="4" height="15" fill="#2d8a4e"/>
<rect x="236" y="188" width="4" height="15" fill="#e8b83d"/>
<rect x="240" y="188" width="4" height="15" fill="#e8b83d"/>
<rect x="244" y="188" width="4" height="15" fill="#e8b83d"/>
<rect x="248" y="188" width="4" height="15" fill="#2d8a4e"/>
<rect x="252" y="188" width="4" height="15" fill="#e8b83d"/>
<rect x="256" y="188" width="4" height="15" fill="#e8b83d"/>
<rect x="260" y="188" width="4" height="15" fill="#e8b83d"/>
<rect x="264" y="188" width="4" height="15" fill="#e8b83d"/>
<rect x="268" y="188" width="4" height="15" fill="#e8b83d"/>
<rect x="272" y="188" width="4" height="15" fill="#c9493b"/>
<rect x="276" y="188" width="4" height="15" fill="#e8b83d"/>
<rect x="280" y="188" width="4" height="15" fill="#e8b83d"/>
<rect x="284" y="188" width="4" height="15" fill="#c9493b"/>
<rect x="288" y="188" width="4" height="15" fill="#e8b83d"/>
<rect x="292" y="188" width="4" height="15" fill="#2d8a4e"/>
<rect x="296" y="188" width="4" height="15" fill="#e8b83d"/>
<rect x="300" y="188" width="4" height="15" fill="#e8b83d"/>
<rect x="304" y="188" width="4" height="15" fill="#2d8a4e"/>
<rect x="308" y="188" width="4" height="15" fill="#2d8a4e"/>
<rect x="312" y="188" width="4" height="15" fill="#e8b83d"/>
<rect x="316" y="188" width="4" height="15" fill="#c9493b"/>
<rect x="320" y="188" width="4" height="15" fill="#e8b83d"/>
<rect x="324" y="188" width="4" height="15" fill="#2d8a4e"/>
<rect x="328" y="188" width="4" height="15" fill="#2d8a4e"/>
<rect x="332" y="188" width="4" height="15" fill="#e8b83d"/>
<rect x="336" y="188" width="4" height="15" fill="#2d8a4e"/>
<rect x="340" y="188" width="4" height="15" fill="#e8b83d"/>
<rect x="344" y="188" width="4" height="15" fill="#e8b83d"/>
<rect x="348" y="188" width="4" height="15" fill="#e8b83d"/>
<rect x="352" y="188" width="4" height="15" fill="#2d8a4e"/>
<rect x="356" y="188" width="4" height="15" fill="#e8b83d"/>
<rect x="360" y="188" width="4" height="15" fill="#e8b83d"/>
<rect x="364" y="188" width="4" height="15" fill="#e8b83d"/>
<rect x="368" y="188" width="4" height="15" fill="#e8b83d"/>
<rect x="372" y="188" width="4" height="15" fill="#e8b83d"/>
<rect x="376" y="188" width="4" height="15" fill="#c9493b"/>
<rect x="380" y="188" width="4" height="15" fill="#e8b83d"/>
<rect x="384" y="188" width="4" height="15" fill="#e8b83d"/>
<rect x="388" y="188" width="4" height="15" fill="#e8b83d"/>
<rect x="392" y="188" width="4" height="15" fill="#2d8a4e"/>
<rect x="396" y="188" width="4" height="15" fill="#e8b83d"/>
<rect x="400" y="188" width="4" height="15" fill="#e8b83d"/>
<rect x="404" y="188" width="4" height="15" fill="#e8b83d"/>
<rect x="408" y="188" width="4" height="15" fill="#e8b83d"/>
<rect x="412" y="188" width="4" height="15" fill="#e8b83d"/>
<rect x="416" y="188" width="4" height="15" fill="#2d8a4e"/>
<rect x="420" y="188" width="4" height="15" fill="#2d8a4e"/>
<rect x="424" y="188" width="4" height="15" fill="#2d8a4e"/>
<rect x="428" y="188" width="4" height="15" fill="#e8b83d"/>
<rect x="432" y="188" width="4" height="15" fill="#e8b83d"/>
<rect x="436" y="188" width="4" height="15" fill="#e8b83d"/>
<rect x="440" y="188" width="4" height="15" fill="#e8b83d"/>
<rect x="444" y="188" width="4" height="15" fill="#2d8a4e"/>
<rect x="448" y="188" width="4" height="15" fill="#e8b83d"/>
<rect x="452" y="188" width="4" height="15" fill="#c9493b"/>
<rect x="456" y="188" width="4" height="15" fill="#c9493b"/>
<rect x="460" y="188" width="4" height="15" fill="#e8b83d"/>
<rect x="464" y="188" width="4" height="15" fill="#e8b83d"/>
<rect x="468" y="188" width="4" height="15" fill="#e8b83d"/>
<rect x="472" y="188" width="4" height="15" fill="#e8b83d"/>
<rect x="476" y="188" width="4" height="15" fill="#e8b83d"/>
<rect x="480" y="188" width="4" height="15" fill="#e8b83d"/>
<rect x="484" y="188" width="4" height="15" fill="#2d8a4e"/>
<rect x="488" y="188" width="4" height="15" fill="#e8b83d"/>
<rect x="492" y="188" width="4" height="15" fill="#2d8a4e"/>
<rect x="496" y="188" width="4" height="15" fill="#e8b83d"/>
<rect x="500" y="188" width="4" height="15" fill="#2d8a4e"/>
<rect x="504" y="188" width="4" height="15" fill="#2d8a4e"/>
<rect x="508" y="188" width="4" height="15" fill="#e8b83d"/>
<rect x="512" y="188" width="4" height="15" fill="#e8b83d"/>
<rect x="516" y="188" width="4" height="15" fill="#2d8a4e"/>
<rect x="520" y="188" width="4" height="15" fill="#e8b83d"/>
<rect x="524" y="188" width="4" height="15" fill="#e8b83d"/>
<rect x="528" y="188" width="4" height="15" fill="#e8b83d"/>
<rect x="532" y="188" width="4" height="15" fill="#e8b83d"/>
<rect x="536" y="188" width="4" height="15" fill="#2d8a4e"/>
<rect x="540" y="188" width="4" height="15" fill="#e8b83d"/>
<rect x="544" y="188" width="4" height="15" fill="#e8b83d"/>
<rect x="548" y="188" width="4" height="15" fill="#e8b83d"/>
<rect x="552" y="188" width="4" height="15" fill="#e8b83d"/>
<rect x="556" y="188" width="4" height="15" fill="#e8b83d"/>
<rect x="560" y="188" width="4" height="15" fill="#e8b83d"/>
<rect x="564" y="188" width="4" height="15" fill="#2d8a4e"/>
<rect x="568" y="188" width="4" height="15" fill="#e8b83d"/>
<rect x="572" y="188" width="4" height="15" fill="#2d8a4e"/>
<rect x="576" y="188" width="4" height="15" fill="#2d8a4e"/>
<rect x="580" y="188" width="4" height="15" fill="#e8b83d"/>
<rect x="584" y="188" width="4" height="15" fill="#e8b83d"/>
<rect x="588" y="188" width="4" height="15" fill="#c9493b"/>
<rect x="592" y="188" width="4" height="15" fill="#2d8a4e"/>
<rect x="596" y="188" width="4" height="15" fill="#2d8a4e"/>
<rect x="600" y="188" width="4" height="15" fill="#2d8a4e"/>
<rect x="604" y="188" width="4" height="15" fill="#c9493b"/>
<rect x="608" y="188" width="4" height="15" fill="#e8b83d"/>
<rect x="612" y="188" width="4" height="15" fill="#e8b83d"/>
<rect x="616" y="188" width="4" height="15" fill="#c9493b"/>
<rect x="620" y="188" width="4" height="15" fill="#e8b83d"/>
<rect x="624" y="188" width="4" height="15" fill="#c9493b"/>
<rect x="628" y="188" width="4" height="15" fill="#e8b83d"/>
<rect x="632" y="188" width="4" height="15" fill="#e8b83d"/>
<rect x="636" y="188" width="4" height="15" fill="#c9493b"/>
<rect x="640" y="188" width="4" height="15" fill="#2d8a4e"/>
<rect x="644" y="188" width="4" height="15" fill="#e8b83d"/>
<rect x="648" y="188" width="4" height="15" fill="#c9493b"/>
<rect x="652" y="188" width="4" height="15" fill="#c9493b"/>
<rect x="656" y="188" width="4" height="15" fill="#2d8a4e"/>
<rect x="660" y="188" width="4" height="15" fill="#e8b83d"/>
<rect x="664" y="188" width="4" height="15" fill="#c9493b"/>
<rect x="668" y="188" width="4" height="15" fill="#e8b83d"/>
<rect x="672" y="188" width="4" height="15" fill="#2d8a4e"/>
<rect x="676" y="188" width="4" height="15" fill="#2d8a4e"/>
<rect x="680" y="188" width="4" height="15" fill="#2d8a4e"/>
<rect x="684" y="188" width="4" height="15" fill="#2d8a4e"/>
<rect x="688" y="188" width="4" height="15" fill="#c9493b"/>
<rect x="692" y="188" width="4" height="15" fill="#2d8a4e"/>
<rect x="696" y="188" width="4" height="15" fill="#e8b83d"/>
<rect x="700" y="188" width="4" height="15" fill="#2d8a4e"/>
<rect x="704" y="188" width="4" height="15" fill="#2d8a4e"/>
<rect x="708" y="188" width="4" height="15" fill="#2d8a4e"/>
<rect x="712" y="188" width="4" height="15" fill="#e8b83d"/>
<rect x="716" y="188" width="4" height="15" fill="#2d8a4e"/>
<rect x="720" y="188" width="4" height="15" fill="#e8b83d"/>
<rect x="724" y="188" width="4" height="15" fill="#e8b83d"/>
<rect x="728" y="188" width="4" height="15" fill="#2d8a4e"/>
<rect x="732" y="188" width="4" height="15" fill="#2d8a4e"/>
<rect x="736" y="188" width="4" height="15" fill="#e8b83d"/>
<rect x="740" y="188" width="4" height="15" fill="#e8b83d"/>
<rect x="744" y="188" width="4" height="15" fill="#e8b83d"/>
<rect x="748" y="188" width="4" height="15" fill="#e8b83d"/>
<rect x="752" y="188" width="4" height="15" fill="#e8b83d"/>
<rect x="756" y="188" width="4" height="15" fill="#2d8a4e"/>
<rect x="760" y="188" width="4" height="15" fill="#e8b83d"/>
<rect x="764" y="188" width="4" height="15" fill="#e8b83d"/>
<rect x="768" y="188" width="4" height="15" fill="#e8b83d"/>
<rect x="772" y="188" width="4" height="15" fill="#c9493b"/>
<rect x="776" y="188" width="4" height="15" fill="#2d8a4e"/>
<rect x="780" y="188" width="4" height="15" fill="#c9493b"/>
<rect x="784" y="188" width="4" height="15" fill="#e8b83d"/>
<rect x="788" y="188" width="4" height="15" fill="#2d8a4e"/>
<rect x="792" y="188" width="4" height="15" fill="#e8b83d"/>
<rect x="796" y="188" width="4" height="15" fill="#e8b83d"/>
<rect x="800" y="188" width="4" height="15" fill="#2d8a4e"/>
<rect x="804" y="188" width="4" height="15" fill="#e8b83d"/>
<rect x="808" y="188" width="4" height="15" fill="#2d8a4e"/>
<rect x="812" y="188" width="4" height="15" fill="#2d8a4e"/>
<rect x="816" y="188" width="4" height="15" fill="#c9493b"/>
<rect x="820" y="188" width="4" height="15" fill="#2d8a4e"/>
<rect x="824" y="188" width="4" height="15" fill="#e8b83d"/>
<rect x="828" y="188" width="4" height="15" fill="#e8b83d"/>
<rect x="832" y="188" width="4" height="15" fill="#e8b83d"/>
<rect x="836" y="188" width="4" height="15" fill="#2d8a4e"/>
<rect x="840" y="188" width="4" height="15" fill="#e8b83d"/>
<rect x="844" y="188" width="4" height="15" fill="#e8b83d"/>
<rect x="848" y="188" width="4" height="15" fill="#e8b83d"/>
<rect x="852" y="188" width="4" height="15" fill="#2d8a4e"/>
<rect x="856" y="188" width="4" height="15" fill="#2d8a4e"/>
<rect x="860" y="188" width="4" height="15" fill="#e8b83d"/>
<rect x="864" y="188" width="4" height="15" fill="#2d8a4e"/>
<rect x="868" y="188" width="4" height="15" fill="#e8b83d"/>
<rect x="872" y="188" width="4" height="15" fill="#e8b83d"/>
<rect x="876" y="188" width="4" height="15" fill="#e8b83d"/>
<rect x="880" y="188" width="4" height="15" fill="#2d8a4e"/>
<rect x="884" y="188" width="4" height="15" fill="#e8b83d"/>
<rect x="888" y="188" width="4" height="15" fill="#2d8a4e"/>
<rect x="892" y="188" width="4" height="15" fill="#e8b83d"/>
<line x1="20" y1="215" x2="1200" y2="215" stroke="#ccc" stroke-width="1"/>
<text x="20" y="235" class="total">TOTAL: 650 sections   avg=0.435   High=24%   Med=52%   Low=24%</text>
<rect x="20" y="242" width="281.3846153846154" height="10" fill="#2d8a4e" rx="2"/>
<rect x="301.3846153846154" y="242" width="609.9692307692308" height="10" fill="#e8b83d"/>
<rect x="911.3538461538462" y="242" width="288.6461538461539" height="10" fill="#c9493b" rx="2"/>
</svg>