<svg xmlns="http://www.w3.org/2000/svg" width="1220" height="266" viewBox="0 0 1220 266">
<rect width="1220" height="266" fill="#f5f5f5"/>
<style>
  text { font-family: "SF Mono", "Menlo", "Monaco", monospace; }
  .title { font-size: 16px; font-weight: bold; }
  .subtitle { font-size: 11px; fill: #888; }
  .label { font-size: 11px; fill: #333; }
  .stats { font-size: 10px; fill: #666; }
  .warn { font-size: 9px; fill: #c9493b; }
  .total { font-size: 12px; font-weight: bold; fill: #333; }
  .legend-text { font-size: 10px; fill: #555; }
</style>
<text x="20" y="38" class="title">Alignment Quality Map — Alignment</text>
<rect x="20" y="50" width="12" height="12" fill="#2d8a4e" rx="2"/>
<text x="36" y="60" class="legend-text">High (≥0.6)</text>
<rect x="160" y="50" width="12" height="12" fill="#e8b83d" rx="2"/>
<text x="176" y="60" class="legend-text">Medium (0.3–0.6)</text>
<rect x="300" y="50" width="12" height="12" fill="#c9493b" rx="2"/>
<text x="316" y="60" class="legend-text">Low (&lt;0.3)</text>
<text x="20" y="92" class="label">Book De Mysteriis</text>
<text x="988" y="92" class="stats">n=159  avg=0.474  H=21%  M=64%  L=14%</text>
<rect x="180" y="80" width="4" height="15" fill="#c9493b"/>
<rect x="184" y="80" width="4" height="15" fill="#2d8a4e"/>
<rect x="188" y="80" width="4" height="15" fill="#2d8a4e"/>
<rect x="192" y="80" width="4" height="15" fill="#e8b83d"/>
<rect x="196" y="80" width="4" height="15" fill="#e8b83d"/>
<rect x="200" y="80" width="4" height="15" fill="#c9493b"/>
<rect x="204" y="80" width="4" height="15" fill="#e8b83d"/>
<rect x="208" y="80" width="4" height="15" fill="#e8b83d"/>
<rect x="212" y="80" width="4" height="15" fill="#e8b83d"/>
<rect x="216" y="80" width="4" height="15" fill="#e8b83d"/>
<rect x="220" y="80" width="4" height="15" fill="#e8b83d"/>
<rect x="224" y="80" width="4" height="15" fill="#e8b83d"/>
<rect x="228" y="80" width="4" height="15" fill="#e8b83d"/>
<rect x="232" y="80" width="4" height="15" fill="#2d8a4e"/>
<rect x="236" y="80" width="4" height="15" fill="#e8b83d"/>
<rect x="240" y="80" width="4" height="15" fill="#2d8a4e"/>
<rect x="244" y="80" width="4" height="15" fill="#2d8a4e"/>
<rect x="248" y="80" width="4" height="15" fill="#2d8a4e"/>
<rect x="252" y="80" width="4" height="15" fill="#2d8a4e"/>
<rect x="256" y="80" width="4" height="15" fill="#e8b83d"/>
<rect x="260" y="80" width="4" height="15" fill="#e8b83d"/>
<rect x="264" y="80" width="4" height="15" fill="#e8b83d"/>
<rect x="268" y="80" width="4" height="15" fill="#e8b83d"/>
<rect x="272" y="80" width="4" height="15" fill="#c9493b"/>
<rect x="276" y="80" width="4" height="15" fill="#e8b83d"/>
<rect x="280" y="80" width="4" height="15" fill="#e8b83d"/>
<rect x="284" y="80" width="4" height="15" fill="#e8b83d"/>
<rect x="288" y="80" width="4" height="15" fill="#c9493b"/>
<rect x="292" y="80" width="4" height="15" fill="#e8b83d"/>
<rect x="296" y="80" width="4" height="15" fill="#e8b83d"/>
<rect x="300" y="80" width="4" height="15" fill="#e8b83d"/>
<rect x="304" y="80" width="4" height="15" fill="#e8b83d"/>
<rect x="308" y="80" width="4" height="15" fill="#e8b83d"/>
<rect x="312" y="80" width="4" height="15" fill="#e8b83d"/>
<rect x="316" y="80" width="4" height="15" fill="#e8b83d"/>
<rect x="320" y="80" width="4" height="15" fill="#c9493b"/>
<rect x="324" y="80" width="4" height="15" fill="#e8b83d"/>
<rect x="328" y="80" width="4" height="15" fill="#2d8a4e"/>
<rect x="332" y="80" width="4" height="15" fill="#e8b83d"/>
<rect x="336" y="80" width="4" height="15" fill="#e8b83d"/>
<rect x="340" y="80" width="4" height="15" fill="#2d8a4e"/>
<rect x="344" y="80" width="4" height="15" fill="#2d8a4e"/>
<rect x="348" y="80" width="4" height="15" fill="#e8b83d"/>
<rect x="352" y="80" width="4" height="15" fill="#e8b83d"/>
<rect x="356" y="80" width="4" height="15" fill="#2d8a4e"/>
<rect x="360" y="80" width="4" height="15" fill="#2d8a4e"/>
<rect x="364" y="80" width="4" height="15" fill="#e8b83d"/>
<rect x="368" y="80" width="4" height="15" fill="#e8b83d"/>
<rect x="372" y="80" width="4" height="15" fill="#e8b83d"/>
<rect x="376" y="80" width="4" height="15" fill="#e8b83d"/>
<rect x="380" y="80" width="4" height="15" fill="#e8b83d"/>
<rect x="384" y="80" width="4" height="15" fill="#e8b83d"/>
<rect x="388" y="80" width="4" height="15" fill="#e8b83d"/>
<rect x="392" y="80" width="4" height="15" fill="#e8b83d"/>
<rect x="396" y="80" width="4" height="15" fill="#c9493b"/>
<rect x="400" y="80" width="4" height="15" fill="#c9493b"/>
<rect x="404" y="80" width="4" height="15" fill="#e8b83d"/>
<rect x="408" y="80" width="4" height="15" fill="#2d8a4e"/>
<rect x="412" y="80" width="4" height="15" fill="#e8b83d"/>
<rect x="416" y="80" width="4" height="15" fill="#c9493b"/>
<rect x="420" y="80" width="4" height="15" fill="#e8b83d"/>
<rect x="424" y="80" width="4" height="15" fill="#e8b83d"/>
<rect x="428" y="80" width="4" height="15" fill="#e8b83d"/>
<rect x="432" y="80" width="4" height="15" fill="#e8b83d"/>
<rect x="436" y="80" width="4" height="15" fill="#e8b83d"/>
<rect x="440" y="80" width="4" height="15" fill="#e8b83d"/>
<rect x="444" y="80" width="4" height="15" fill="#2d8a4e"/>
<rect x="448" y="80" width="4" height="15" fill="#e8b83d"/>
<rect x="452" y="80" width="4" height="15" fill="#e8b83d"/>
<rect x="456" y="80" width="4" height="15" fill="#e8b83d"/>
<rect x="460" y="80" width="4" height="15" fill="#c9493b"/>
<rect x="464" y="80" width="4" height="15" fill="#e8b83d"/>
<rect x="468" y="80" width="4" height="15" fill="#c9493b"/>
<rect x="472" y="80" width="4" height="15" fill="#c9493b"/>
<rect x="476" y="80" width="4" height="15" fill="#2d8a4e"/>
<rect x="480" y="80" width="4" height="15" fill="#e8b83d"/>
<rect x="484" y="80" width="4" height="15" fill="#2d8a4e"/>
<rect x="488" y="80" width="4" height="15" fill="#e8b83d"/>
<rect x="492" y="80" width="4" height="15" fill="#2d8a4e"/>
<rect x="496" y="80" width="4" height="15" fill="#e8b83d"/>
<rect x="500" y="80" width="4" height="15" fill="#e8b83d"/>
<rect x="504" y="80" width="4" height="15" fill="#2d8a4e"/>
<rect x="508" y="80" width="4" height="15" fill="#e8b83d"/>
<rect x="512" y="80" width="4" height="15" fill="#e8b83d"/>
<rect x="516" y="80" width="4" height="15" fill="#e8b83d"/>
<rect x="520" y="80" width="4" height="15" fill="#e8b83d"/>
<rect x="524" y="80" width="4" height="15" fill="#e8b83d"/>
<rect x="528" y="80" width="4" height="15" fill="#e8b83d"/>
<rect x="532" y="80" width="4" height="15" fill="#e8b83d"/>
<rect x="536" y="80" width="4" height="15" fill="#e8b83d"/>
<rect x="540" y="80" width="4" height="15" fill="#e8b83d"/>
<rect x="544" y="80" width="4" height="15" fill="#c9493b"/>
<rect x="548" y="80" width="4" height="15" fill="#c9493b"/>
<rect x="552" y="80" width="4" height="15" fill="#e8b83d"/>
<rect x="556" y="80" width="4" height="15" fill="#e8b83d"/>
<rect x="560" y="80" width="4" height="15" fill="#e8b83d"/>
<rect x="564" y="80" width="4" height="15" fill="#e8b83d"/>
<rect x="568" y="80" width="4" height="15" fill="#e8b83d"/>
<rect x="572" y="80" width="4" height="15" fill="#e8b83d"/>
<rect x="576" y="80" width="4" height="15" fill="#2d8a4e"/>
<rect x="580" y="80" width="4" height="15" fill="#e8b83d"/>
<rect x="584" y="80" width="4" height="15" fill="#2d8a4e"/>
<rect x="588" y="80" width="4" height="15" fill="#c9493b"/>
<rect x="592" y="80" width="4" height="15" fill="#2d8a4e"/>
<rect x="596" y="80" width="4" height="15" fill="#e8b83d"/>
<rect x="600" y="80" width="4" height="15" fill="#e8b83d"/>
<rect x="604" y="80" width="4" height="15" fill="#e8b83d"/>
<rect x="608" y="80" width="4" height="15" fill="#e8b83d"/>
<rect x="612" y="80" width="4" height="15" fill="#e8b83d"/>
<rect x="616" y="80" width="4" height="15" fill="#2d8a4e"/>
<rect x="620" y="80" width="4" height="15" fill="#e8b83d"/>
<rect x="624" y="80" width="4" height="15" fill="#c9493b"/>
<rect x="628" y="80" width="4" height="15" fill="#e8b83d"/>
<rect x="632" y="80" width="4" height="15" fill="#e8b83d"/>
<rect x="636" y="80" width="4" height="15" fill="#e8b83d"/>
<rect x="640" y="80" width="4" height="15" fill="#2d8a4e"/>
<rect x="644" y="80" width="4" height="15" fill="#e8b83d"/>
<rect x="648" y="80" width="4" height="15" fill="#2d8a4e"/>
<rect x="652" y="80" width="4" height="15" fill="#e8b83d"/>
<rect x="656" y="80" width="4" height="15" fill="#e8b83d"/>
<rect x="660" y="80" width="4" height="15" fill="#2d8a4e"/>
<rect x="664" y="80" width="4" height="15" fill="#e8b83d"/>
<rect x="668" y="80" width="4" height="15" fill="#2d8a4e"/>
<rect x="672" y="80" width="4" height="15" fill="#e8b83d"/>
<rect x="676" y="80" width="4" height="15" fill="#2d8a4e"/>
<rect x="680" y="80" width="4" height="15" fill="#e8b83d"/>
<rect x="684" y="80" width="4" height="15" fill="#c9493b"/>
<rect x="688" y="80" width="4" height="15" fill="#c9493b"/>
<rect x="692" y="80" width="4" height="15" fill="#e8b83d"/>
<rect x="696" y="80" width="4" height="15" fill="#2d8a4e"/>
<rect x="700" y="80" width="4" height="15" fill="#e8b83d"/>
<rect x="704" y="80" width="4" height="15" fill="#2d8a4e"/>
<rect x="708" y="80" width="4" height="15" fill="#e8b83d"/>
<rect x="712" y="80" width="4" height="15" fill="#e8b83d"/>
<rect x="716" y="80" width="4" height="15" fill="#c9493b"/>
<rect x="720" y="80" width="4" height="15" fill="#c9493b"/>
<rect x="724" y="80" width="4" height="15" fill="#c9493b"/>
<rect x="728" y="80" width="4" height="15" fill="#e8b83d"/>
<rect x="732" y="80" width="4" height="15" fill="#c9493b"/>
<rect x="736" y="80" width="4" height="15" fill="#e8b83d"/>
<rect x="740" y="80" width="4" height="15" fill="#e8b83d"/>
<rect x="744" y="80" width="4" height="15" fill="#e8b83d"/>
<rect x="748" y="80" width="4" height="15" fill="#e8b83d"/>
<rect x="752" y="80" width="4" height="15" fill="#c9493b"/>
<rect x="756" y="80" width="4" height="15" fill="#e8b83d"/>
<rect x="760" y="80" width="4" height="15" fill="#e8b83d"/>
<rect x="764" y="80" width="4" height="15" fill="#2d8a4e"/>
<rect x="768" y="80" width="4" height="15" fill="#e8b83d"/>
<rect x="772" y="80" width="4" height="15" fill="#2d8a4e"/>
<rect x="776" y="80" width="4" height="15" fill="#e8b83d"/>
<rect x="780" y="80" width="4" height="15" fill="#e8b83d"/>
<rect x="784" y="80" width="4" height="15" fill="#e8b83d"/>
<rect x="788" y="80" width="4" height="15" fill="#e8b83d"/>
<rect x="792" y="80" width="4" height="15" fill="#c9493b"/>
<rect x="796" y="80" width="4" height="15" fill="#e8b83d"/>
<rect x="800" y="80" width="4" height="15" fill="#e8b83d"/>
<rect x="804" y="80" width="4" height="15" fill="#2d8a4e"/>
<rect x="808" y="80" width="4" height="15" fill="#2d8a4e"/>
<rect x="812" y="80" width="4" height="15" fill="#2d8a4e"/>
<text x="180" y="107" class="warn">⚠ 8.2 → 8.4  (3 sections, avg=0.250)</text>
<text x="20" y="128" class="label">Book De Vita Pythagorica</text>
<text x="988" y="128" class="stats">n=309  avg=0.378  H=15%  M=47%  L=38%</text>
<rect x="180" y="116" width="4" height="15" fill="#e8b83d"/>
<rect x="184" y="116" width="4" height="15" fill="#e8b83d"/>
<rect x="188" y="116" width="4" height="15" fill="#c9493b"/>
<rect x="192" y="116" width="4" height="15" fill="#c9493b"/>
<rect x="196" y="116" width="4" height="15" fill="#c9493b"/>
<rect x="200" y="116" width="4" height="15" fill="#e8b83d"/>
<rect x="204" y="116" width="4" height="15" fill="#c9493b"/>
<rect x="208" y="116" width="4" height="15" fill="#c9493b"/>
<rect x="212" y="116" width="4" height="15" fill="#c9493b"/>
<rect x="216" y="116" width="4" height="15" fill="#c9493b"/>
<rect x="220" y="116" width="4" height="15" fill="#c9493b"/>
<rect x="224" y="116" width="4" height="15" fill="#c9493b"/>
<rect x="228" y="116" width="4" height="15" fill="#e8b83d"/>
<rect x="232" y="116" width="4" height="15" fill="#e8b83d"/>
<rect x="236" y="116" width="4" height="15" fill="#e8b83d"/>
<rect x="240" y="116" width="4" height="15" fill="#e8b83d"/>
<rect x="244" y="116" width="4" height="15" fill="#e8b83d"/>
<rect x="248" y="116" width="4" height="15" fill="#2d8a4e"/>
<rect x="252" y="116" width="4" height="15" fill="#e8b83d"/>
<rect x="256" y="116" width="4" height="15" fill="#e8b83d"/>
<rect x="260" y="116" width="4" height="15" fill="#e8b83d"/>
<rect x="264" y="116" width="4" height="15" fill="#e8b83d"/>
<rect x="268" y="116" width="4" height="15" fill="#e8b83d"/>
<rect x="272" y="116" width="4" height="15" fill="#c9493b"/>
<rect x="276" y="116" width="4" height="15" fill="#e8b83d"/>
<rect x="280" y="116" width="4" height="15" fill="#2d8a4e"/>
<rect x="284" y="116" width="4" height="15" fill="#e8b83d"/>
<rect x="288" y="116" width="4" height="15" fill="#2d8a4e"/>
<rect x="292" y="116" width="4" height="15" fill="#e8b83d"/>
<rect x="296" y="116" width="4" height="15" fill="#e8b83d"/>
<rect x="300" y="116" width="4" height="15" fill="#e8b83d"/>
<rect x="304" y="116" width="4" height="15" fill="#2d8a4e"/>
<rect x="308" y="116" width="4" height="15" fill="#e8b83d"/>
<rect x="312" y="116" width="4" height="15" fill="#c9493b"/>
<rect x="316" y="116" width="4" height="15" fill="#c9493b"/>
<rect x="320" y="116" width="4" height="15" fill="#e8b83d"/>
<rect x="324" y="116" width="4" height="15" fill="#c9493b"/>
<rect x="328" y="116" width="4" height="15" fill="#e8b83d"/>
<rect x="332" y="116" width="4" height="15" fill="#c9493b"/>
<rect x="336" y="116" width="4" height="15" fill="#c9493b"/>
<rect x="340" y="116" width="4" height="15" fill="#c9493b"/>
<rect x="344" y="116" width="4" height="15" fill="#c9493b"/>
<rect x="348" y="116" width="4" height="15" fill="#2d8a4e"/>
<rect x="352" y="116" width="4" height="15" fill="#2d8a4e"/>
<rect x="356" y="116" width="4" height="15" fill="#c9493b"/>
<rect x="360" y="116" width="4" height="15" fill="#2d8a4e"/>
<rect x="364" y="116" width="4" height="15" fill="#c9493b"/>
<rect x="368" y="116" width="4" height="15" fill="#c9493b"/>
<rect x="372" y="116" width="4" height="15" fill="#c9493b"/>
<rect x="376" y="116" width="4" height="15" fill="#c9493b"/>
<rect x="380" y="116" width="4" height="15" fill="#e8b83d"/>
<rect x="384" y="116" width="4" height="15" fill="#c9493b"/>
<rect x="388" y="116" width="4" height="15" fill="#2d8a4e"/>
<rect x="392" y="116" width="4" height="15" fill="#c9493b"/>
<rect x="396" y="116" width="4" height="15" fill="#e8b83d"/>
<rect x="400" y="116" width="4" height="15" fill="#e8b83d"/>
<rect x="404" y="116" width="4" height="15" fill="#2d8a4e"/>
<rect x="408" y="116" width="4" height="15" fill="#2d8a4e"/>
<rect x="412" y="116" width="4" height="15" fill="#2d8a4e"/>
<rect x="416" y="116" width="4" height="15" fill="#2d8a4e"/>
<rect x="420" y="116" width="4" height="15" fill="#e8b83d"/>
<rect x="424" y="116" width="4" height="15" fill="#2d8a4e"/>
<rect x="428" y="116" width="4" height="15" fill="#2d8a4e"/>
<rect x="432" y="116" width="4" height="15" fill="#e8b83d"/>
<rect x="436" y="116" width="4" height="15" fill="#2d8a4e"/>
<rect x="440" y="116" width="4" height="15" fill="#2d8a4e"/>
<rect x="444" y="116" width="4" height="15" fill="#e8b83d"/>
<rect x="448" y="116" width="4" height="15" fill="#c9493b"/>
<rect x="452" y="116" width="4" height="15" fill="#c9493b"/>
<rect x="456" y="116" width="4" height="15" fill="#e8b83d"/>
<rect x="460" y="116" width="4" height="15" fill="#e8b83d"/>
<rect x="464" y="116" width="4" height="15" fill="#2d8a4e"/>
<rect x="468" y="116" width="4" height="15" fill="#c9493b"/>
<rect x="472" y="116" width="4" height="15" fill="#e8b83d"/>
<rect x="476" y="116" width="4" height="15" fill="#c9493b"/>
<rect x="480" y="116" width="4" height="15" fill="#e8b83d"/>
<rect x="484" y="116" width="4" height="15" fill="#c9493b"/>
<rect x="488" y="116" width="4" height="15" fill="#c9493b"/>
<rect x="492" y="116" width="4" height="15" fill="#c9493b"/>
<rect x="496" y="116" width="4" height="15" fill="#c9493b"/>
<rect x="500" y="116" width="4" height="15" fill="#c9493b"/>
<rect x="504" y="116" width="4" height="15" fill="#c9493b"/>
<rect x="508" y="116" width="4" height="15" fill="#c9493b"/>
<rect x="512" y="116" width="4" height="15" fill="#e8b83d"/>
<rect x="516" y="116" width="4" height="15" fill="#e8b83d"/>
<rect x="520" y="116" width="4" height="15" fill="#e8b83d"/>
<rect x="524" y="116" width="4" height="15" fill="#e8b83d"/>
<rect x="528" y="116" width="4" height="15" fill="#c9493b"/>
<rect x="532" y="116" width="4" height="15" fill="#e8b83d"/>
<rect x="536" y="116" width="4" height="15" fill="#e8b83d"/>
<rect x="540" y="116" width="4" height="15" fill="#e8b83d"/>
<rect x="544" y="116" width="4" height="15" fill="#2d8a4e"/>
<rect x="548" y="116" width="4" height="15" fill="#e8b83d"/>
<rect x="552" y="116" width="4" height="15" fill="#2d8a4e"/>
<rect x="556" y="116" width="4" height="15" fill="#e8b83d"/>
<rect x="560" y="116" width="4" height="15" fill="#e8b83d"/>
<rect x="564" y="116" width="4" height="15" fill="#e8b83d"/>
<rect x="568" y="116" width="4" height="15" fill="#2d8a4e"/>
<rect x="572" y="116" width="4" height="15" fill="#e8b83d"/>
<rect x="576" y="116" width="4" height="15" fill="#e8b83d"/>
<rect x="580" y="116" width="4" height="15" fill="#e8b83d"/>
<rect x="584" y="116" width="4" height="15" fill="#2d8a4e"/>
<rect x="588" y="116" width="4" height="15" fill="#e8b83d"/>
<rect x="592" y="116" width="4" height="15" fill="#e8b83d"/>
<rect x="596" y="116" width="4" height="15" fill="#c9493b"/>
<rect x="600" y="116" width="4" height="15" fill="#e8b83d"/>
<rect x="604" y="116" width="4" height="15" fill="#c9493b"/>
<rect x="608" y="116" width="4" height="15" fill="#c9493b"/>
<rect x="612" y="116" width="4" height="15" fill="#c9493b"/>
<rect x="616" y="116" width="4" height="15" fill="#2d8a4e"/>
<rect x="620" y="116" width="4" height="15" fill="#e8b83d"/>
<rect x="624" y="116" width="4" height="15" fill="#2d8a4e"/>
<rect x="628" y="116" width="4" height="15" fill="#e8b83d"/>
<rect x="632" y="116" width="4" height="15" fill="#e8b83d"/>
<rect x="636" y="116" width="4" height="15" fill="#e8b83d"/>
<rect x="640" y="116" width="4" height="15" fill="#e8b83d"/>
<rect x="644" y="116" width="4" height="15" fill="#e8b83d"/>
<rect x="648" y="116" width="4" height="15" fill="#2d8a4e"/>
<rect x="652" y="116" width="4" height="15" fill="#2d8a4e"/>
<rect x="656" y="116" width="4" height="15" fill="#2d8a4e"/>
<rect x="660" y="116" width="4" height="15" fill="#2d8a4e"/>
<rect x="664" y="116" width="4" height="15" fill="#e8b83d"/>
<rect x="668" y="116" width="4" height="15" fill="#e8b83d"/>
<rect x="672" y="116" width="4" height="15" fill="#2d8a4e"/>
<rect x="676" y="116" width="4" height="15" fill="#2d8a4e"/>
<rect x="680" y="116" width="4" height="15" fill="#2d8a4e"/>
<rect x="684" y="116" width="4" height="15" fill="#2d8a4e"/>
<rect x="688" y="116" width="4" height="15" fill="#e8b83d"/>
<rect x="692" y="116" width="4" height="15" fill="#2d8a4e"/>
<rect x="696" y="116" width="4" height="15" fill="#e8b83d"/>
<rect x="700" y="116" width="4" height="15" fill="#c9493b"/>
<rect x="704" y="116" width="4" height="15" fill="#e8b83d"/>
<rect x="708" y="116" width="4" height="15" fill="#c9493b"/>
<rect x="712" y="116" width="4" height="15" fill="#e8b83d"/>
<rect x="716" y="116" width="4" height="15" fill="#e8b83d"/>
<rect x="720" y="116" width="4" height="15" fill="#e8b83d"/>
<rect x="724" y="116" width="4" height="15" fill="#e8b83d"/>
<rect x="728" y="116" width="4" height="15" fill="#e8b83d"/>
<rect x="732" y="116" width="4" height="15" fill="#e8b83d"/>
<rect x="736" y="116" width="4" height="15" fill="#c9493b"/>
<rect x="740" y="116" width="4" height="15" fill="#c9493b"/>
<rect x="744" y="116" width="4" height="15" fill="#e8b83d"/>
<rect x="748" y="116" width="4" height="15" fill="#e8b83d"/>
<rect x="752" y="116" width="4" height="15" fill="#2d8a4e"/>
<rect x="756" y="116" width="4" height="15" fill="#2d8a4e"/>
<rect x="760" y="116" width="4" height="15" fill="#e8b83d"/>
<rect x="764" y="116" width="4" height="15" fill="#2d8a4e"/>
<rect x="768" y="116" width="4" height="15" fill="#e8b83d"/>
<rect x="772" y="116" width="4" height="15" fill="#e8b83d"/>
<rect x="776" y="116" width="4" height="15" fill="#e8b83d"/>
<rect x="780" y="116" width="4" height="15" fill="#e8b83d"/>
<rect x="784" y="116" width="4" height="15" fill="#e8b83d"/>
<rect x="788" y="116" width="4" height="15" fill="#c9493b"/>
<rect x="792" y="116" width="4" height="15" fill="#e8b83d"/>
<rect x="796" y="116" width="4" height="15" fill="#e8b83d"/>
<rect x="800" y="116" width="4" height="15" fill="#e8b83d"/>
<rect x="804" y="116" width="4" height="15" fill="#2d8a4e"/>
<rect x="808" y="116" width="4" height="15" fill="#e8b83d"/>
<rect x="812" y="116" width="4" height="15" fill="#2d8a4e"/>
<rect x="816" y="116" width="4" height="15" fill="#e8b83d"/>
<rect x="820" y="116" width="4" height="15" fill="#2d8a4e"/>
<rect x="824" y="116" width="4" height="15" fill="#e8b83d"/>
<rect x="828" y="116" width="4" height="15" fill="#2d8a4e"/>
<rect x="832" y="116" width="4" height="15" fill="#e8b83d"/>
<rect x="836" y="116" width="4" height="15" fill="#c9493b"/>
<rect x="840" y="116" width="4" height="15" fill="#e8b83d"/>
<rect x="844" y="116" width="4" height="15" fill="#e8b83d"/>
<rect x="848" y="116" width="4" height="15" fill="#e8b83d"/>
<rect x="852" y="116" width="4" height="15" fill="#c9493b"/>
<rect x="856" y="116" width="4" height="15" fill="#e8b83d"/>
<rect x="860" y="116" width="4" height="15" fill="#e8b83d"/>
<rect x="864" y="116" width="4" height="15" fill="#c9493b"/>
<rect x="868" y="116" width="4" height="15" fill="#c9493b"/>
<rect x="872" y="116" width="4" height="15" fill="#2d8a4e"/>
<rect x="876" y="116" width="4" height="15" fill="#e8b83d"/>
<rect x="880" y="116" width="4" height="15" fill="#c9493b"/>
<rect x="884" y="116" width="4" height="15" fill="#e8b83d"/>
<rect x="888" y="116" width="4" height="15" fill="#2d8a4e"/>
<rect x="892" y="116" width="4" height="15" fill="#c9493b"/>
<rect x="896" y="116" width="4" height="15" fill="#c9493b"/>
<rect x="900" y="116" width="4" height="15" fill="#c9493b"/>
<rect x="904" y="116" width="4" height="15" fill="#c9493b"/>
<rect x="908" y="116" width="4" height="15" fill="#c9493b"/>
<rect x="912" y="116" width="4" height="15" fill="#e8b83d"/>
<rect x="916" y="116" width="4" height="15" fill="#e8b83d"/>
<rect x="920" y="116" width="4" height="15" fill="#c9493b"/>
<rect x="924" y="116" width="4" height="15" fill="#c9493b"/>
<rect x="928" y="116" width="4" height="15" fill="#e8b83d"/>
<rect x="932" y="116" width="4" height="15" fill="#e8b83d"/>
<rect x="936" y="116" width="4" height="15" fill="#e8b83d"/>
<rect x="940" y="116" width="4" height="15" fill="#c9493b"/>
<rect x="944" y="116" width="4" height="15" fill="#e8b83d"/>
<rect x="948" y="116" width="4" height="15" fill="#c9493b"/>
<rect x="952" y="116" width="4" height="15" fill="#c9493b"/>
<rect x="956" y="116" width="4" height="15" fill="#e8b83d"/>
<rect x="960" y="116" width="4" height="15" fill="#e8b83d"/>
<rect x="964" y="116" width="4" height="15" fill="#c9493b"/>
<rect x="968" y="116" width="4" height="15" fill="#2d8a4e"/>
<rect x="972" y="116" width="4" height="15" fill="#e8b83d"/>
<rect x="976" y="116" width="4" height="15" fill="#e8b83d"/>
<rect x="180" y="132" width="4" height="15" fill="#e8b83d"/>
<rect x="184" y="132" width="4" height="15" fill="#e8b83d"/>
<rect x="188" y="132" width="4" height="15" fill="#e8b83d"/>
<rect x="192" y="132" width="4" height="15" fill="#2d8a4e"/>
<rect x="196" y="132" width="4" height="15" fill="#e8b83d"/>
<rect x="200" y="132" width="4" height="15" fill="#e8b83d"/>
<rect x="204" y="132" width="4" height="15" fill="#e8b83d"/>
<rect x="208" y="132" width="4" height="15" fill="#e8b83d"/>
<rect x="212" y="132" width="4" height="15" fill="#c9493b"/>
<rect x="216" y="132" width="4" height="15" fill="#e8b83d"/>
<rect x="220" y="132" width="4" height="15" fill="#c9493b"/>
<rect x="224" y="132" width="4" height="15" fill="#e8b83d"/>
<rect x="228" y="132" width="4" height="15" fill="#c9493b"/>
<rect x="232" y="132" width="4" height="15" fill="#c9493b"/>
<rect x="236" y="132" width="4" height="15" fill="#2d8a4e"/>
<rect x="240" y="132" width="4" height="15" fill="#e8b83d"/>
<rect x="244" y="132" width="4" height="15" fill="#c9493b"/>
<rect x="248" y="132" width="4" height="15" fill="#c9493b"/>
<rect x="252" y="132" width="4" height="15" fill="#e8b83d"/>
<rect x="256" y="132" width="4" height="15" fill="#c9493b"/>
<rect x="260" y="132" width="4" height="15" fill="#e8b83d"/>
<rect x="264" y="132" width="4" height="15" fill="#c9493b"/>
<rect x="268" y="132" width="4" height="15" fill="#c9493b"/>
<rect x="272" y="132" width="4" height="15" fill="#e8b83d"/>
<rect x="276" y="132" width="4" height="15" fill="#2d8a4e"/>
<rect x="280" y="132" width="4" height="15" fill="#c9493b"/>
<rect x="284" y="132" width="4" height="15" fill="#e8b83d"/>
<rect x="288" y="132" width="4" height="15" fill="#c9493b"/>
<rect x="292" y="132" width="4" height="15" fill="#e8b83d"/>
<rect x="296" y="132" width="4" height="15" fill="#c9493b"/>
<rect x="300" y="132" width="4" height="15" fill="#c9493b"/>
<rect x="304" y="132" width="4" height="15" fill="#c9493b"/>
<rect x="308" y="132" width="4" height="15" fill="#c9493b"/>
<rect x="312" y="132" width="4" height="15" fill="#c9493b"/>
<rect x="316" y="132" width="4" height="15" fill="#c9493b"/>
<rect x="320" y="132" width="4" height="15" fill="#e8b83d"/>
<rect x="324" y="132" width="4" height="15" fill="#e8b83d"/>
<rect x="328" y="132" width="4" height="15" fill="#c9493b"/>
<rect x="332" y="132" width="4" height="15" fill="#c9493b"/>
<rect x="336" y="132" width="4" height="15" fill="#e8b83d"/>
<rect x="340" y="132" width="4" height="15" fill="#e8b83d"/>
<rect x="344" y="132" width="4" height="15" fill="#e8b83d"/>
<rect x="348" y="132" width="4" height="15" fill="#e8b83d"/>
<rect x="352" y="132" width="4" height="15" fill="#e8b83d"/>
<rect x="356" y="132" width="4" height="15" fill="#c9493b"/>
<rect x="360" y="132" width="4" height="15" fill="#e8b83d"/>
<rect x="364" y="132" width="4" height="15" fill="#e8b83d"/>
<rect x="368" y="132" width="4" height="15" fill="#e8b83d"/>
<rect x="372" y="132" width="4" height="15" fill="#c9493b"/>
<rect x="376" y="132" width="4" height="15" fill="#e8b83d"/>
<rect x="380" y="132" width="4" height="15" fill="#c9493b"/>
<rect x="384" y="132" width="4" height="15" fill="#e8b83d"/>
<rect x="388" y="132" width="4" height="15" fill="#e8b83d"/>
<rect x="392" y="132" width="4" height="15" fill="#e8b83d"/>
<rect x="396" y="132" width="4" height="15" fill="#e8b83d"/>
<rect x="400" y="132" width="4" height="15" fill="#e8b83d"/>
<rect x="404" y="132" width="4" height="15" fill="#e8b83d"/>
<rect x="408" y="132" width="4" height="15" fill="#c9493b"/>
<rect x="412" y="132" width="4" height="15" fill="#c9493b"/>
<rect x="416" y="132" width="4" height="15" fill="#c9493b"/>
<rect x="420" y="132" width="4" height="15" fill="#e8b83d"/>
<rect x="424" y="132" width="4" height="15" fill="#c9493b"/>
<rect x="428" y="132" width="4" height="15" fill="#e8b83d"/>
<rect x="432" y="132" width="4" height="15" fill="#e8b83d"/>
<rect x="436" y="132" width="4" height="15" fill="#c9493b"/>
<rect x="440" y="132" width="4" height="15" fill="#c9493b"/>
<rect x="444" y="132" width="4" height="15" fill="#c9493b"/>
<rect x="448" y="132" width="4" height="15" fill="#c9493b"/>
<rect x="452" y="132" width="4" height="15" fill="#2d8a4e"/>
<rect x="456" y="132" width="4" height="15" fill="#e8b83d"/>
<rect x="460" y="132" width="4" height="15" fill="#2d8a4e"/>
<rect x="464" y="132" width="4" height="15" fill="#c9493b"/>
<rect x="468" y="132" width="4" height="15" fill="#c9493b"/>
<rect x="472" y="132" width="4" height="15" fill="#c9493b"/>
<rect x="476" y="132" width="4" height="15" fill="#c9493b"/>
<rect x="480" y="132" width="4" height="15" fill="#c9493b"/>
<rect x="484" y="132" width="4" height="15" fill="#c9493b"/>
<rect x="488" y="132" width="4" height="15" fill="#c9493b"/>
<rect x="492" y="132" width="4" height="15" fill="#c9493b"/>
<rect x="496" y="132" width="4" height="15" fill="#c9493b"/>
<rect x="500" y="132" width="4" height="15" fill="#e8b83d"/>
<rect x="504" y="132" width="4" height="15" fill="#e8b83d"/>
<rect x="508" y="132" width="4" height="15" fill="#c9493b"/>
<rect x="512" y="132" width="4" height="15" fill="#e8b83d"/>
<rect x="516" y="132" width="4" height="15" fill="#e8b83d"/>
<rect x="520" y="132" width="4" height="15" fill="#c9493b"/>
<rect x="524" y="132" width="4" height="15" fill="#c9493b"/>
<rect x="528" y="132" width="4" height="15" fill="#e8b83d"/>
<rect x="532" y="132" width="4" height="15" fill="#e8b83d"/>
<rect x="536" y="132" width="4" height="15" fill="#c9493b"/>
<rect x="540" y="132" width="4" height="15" fill="#c9493b"/>
<rect x="544" y="132" width="4" height="15" fill="#c9493b"/>
<rect x="548" y="132" width="4" height="15" fill="#c9493b"/>
<rect x="552" y="132" width="4" height="15" fill="#c9493b"/>
<rect x="556" y="132" width="4" height="15" fill="#c9493b"/>
<rect x="560" y="132" width="4" height="15" fill="#e8b83d"/>
<rect x="564" y="132" width="4" height="15" fill="#e8b83d"/>
<rect x="568" y="132" width="4" height="15" fill="#c9493b"/>
<rect x="572" y="132" width="4" height="15" fill="#c9493b"/>
<rect x="576" y="132" width="4" height="15" fill="#e8b83d"/>
<rect x="580" y="132" width="4" height="15" fill="#c9493b"/>
<rect x="584" y="132" width="4" height="15" fill="#c9493b"/>
<rect x="588" y="132" width="4" height="15" fill="#e8b83d"/>
<rect x="592" y="132" width="4" height="15" fill="#c9493b"/>
<rect x="596" y="132" width="4" height="15" fill="#e8b83d"/>
<rect x="600" y="132" width="4" height="15" fill="#c9493b"/>
<rect x="604" y="132" width="4" height="15" fill="#e8b83d"/>
<rect x="608" y="132" width="4" height="15" fill="#c9493b"/>
<rect x="612" y="132" width="4" height="15" fill="#e8b83d"/>
<text x="180" y="159" class="warn">⚠ 33.231 → 33.239  (9 sections, avg=0.162)</text>
<text x="180" y="173" class="warn">⚠ 8.39 → 9.45  (7 sections, avg=0.175)</text>
<text x="180" y="187" class="warn">⚠ 0.7 → 0.12  (6 sections, avg=0.152)</text>
<line x1="20" y1="201" x2="1200" y2="201" stroke="#ccc" stroke-width="1"/>
<text x="20" y="221" class="total">TOTAL: 468 sections   avg=0.410   High=17%   Med=53%   Low=30%</text>
<rect x="20" y="228" width="204.23076923076923" height="10" fill="#2d8a4e" rx="2"/>
<rect x="224.23076923076923" y="228" width="625.2991452991453" height="10" fill="#e8b83d"/>
<rect x="849.5299145299145" y="228" width="350.47008547008545" height="10" fill="#c9493b" rx="2"/>
</svg>