<svg xmlns="http://www.w3.org/2000/svg" width="1220" height="172" viewBox="0 0 1220 172">
<rect width="1220" height="172" fill="#f5f5f5"/>
<style>
  text { font-family: "SF Mono", "Menlo", "Monaco", monospace; }
  .title { font-size: 16px; font-weight: bold; }
  .subtitle { font-size: 11px; fill: #888; }
  .label { font-size: 11px; fill: #333; }
  .stats { font-size: 10px; fill: #666; }
  .warn { font-size: 9px; fill: #c9493b; }
  .total { font-size: 12px; font-weight: bold; fill: #333; }
  .legend-text { font-size: 10px; fill: #555; }
</style>
<text x="20" y="38" class="title">Alignment Quality Map — Julian, Emperor of Rome — Hymn to the Mother of the Gods</text>
<rect x="20" y="50" width="12" height="12" fill="#2d8a4e" rx="2"/>
<text x="36" y="60" class="legend-text">High (≥0.5)</text>
<rect x="160" y="50" width="12" height="12" fill="#e8b83d" rx="2"/>
<text x="176" y="60" class="legend-text">Medium (0.2–0.5)</text>
<rect x="300" y="50" width="12" height="12" fill="#c9493b" rx="2"/>
<text x="316" y="60" class="legend-text">Low (&lt;0.2)</text>
<text x="20" y="92" class="label">Book 1</text>
<text x="988" y="92" class="stats">n=20  avg=0.805  H=95%  M=5%  L=0%</text>
<a href="tlg2003.tlg008.perseus-eng80.html#s1-1"><title>1.1 (0.54)</title><rect x="180" y="80" width="4" height="15" fill="#2d8a4e"/></a>
<a href="tlg2003.tlg008.perseus-eng80.html#s1-2"><title>1.2 (0.83)</title><rect x="184" y="80" width="4" height="15" fill="#2d8a4e"/></a>
<a href="tlg2003.tlg008.perseus-eng80.html#s1-3"><title>1.3 (0.83)</title><rect x="188" y="80" width="4" height="15" fill="#2d8a4e"/></a>
<a href="tlg2003.tlg008.perseus-eng80.html#s1-4"><title>1.4 (0.90)</title><rect x="192" y="80" width="4" height="15" fill="#2d8a4e"/></a>
<a href="tlg2003.tlg008.perseus-eng80.html#s1-5"><title>1.5 (0.86)</title><rect x="196" y="80" width="4" height="15" fill="#2d8a4e"/></a>
<a href="tlg2003.tlg008.perseus-eng80.html#s1-6"><title>1.6 (0.89)</title><rect x="200" y="80" width="4" height="15" fill="#2d8a4e"/></a>
<a href="tlg2003.tlg008.perseus-eng80.html#s1-7"><title>1.7 (0.73)</title><rect x="204" y="80" width="4" height="15" fill="#2d8a4e"/></a>
<a href="tlg2003.tlg008.perseus-eng80.html#s1-8"><title>1.8 (0.98)</title><rect x="208" y="80" width="4" height="15" fill="#2d8a4e"/></a>
<a href="tlg2003.tlg008.perseus-eng80.html#s1-9"><title>1.9 (0.80)</title><rect x="212" y="80" width="4" height="15" fill="#2d8a4e"/></a>
<a href="tlg2003.tlg008.perseus-eng80.html#s1-10"><title>1.10 (0.83)</title><rect x="216" y="80" width="4" height="15" fill="#2d8a4e"/></a>
<a href="tlg2003.tlg008.perseus-eng80.html#s1-11"><title>1.11 (0.81)</title><rect x="220" y="80" width="4" height="15" fill="#2d8a4e"/></a>
<a href="tlg2003.tlg008.perseus-eng80.html#s1-12"><title>1.12 (0.86)</title><rect x="224" y="80" width="4" height="15" fill="#2d8a4e"/></a>
<a href="tlg2003.tlg008.perseus-eng80.html#s1-13"><title>1.13 (0.48)</title><rect x="228" y="80" width="4" height="15" fill="#e8b83d"/></a>
<a href="tlg2003.tlg008.perseus-eng80.html#s1-14"><title>1.14 (0.76)</title><rect x="232" y="80" width="4" height="15" fill="#2d8a4e"/></a>
<a href="tlg2003.tlg008.perseus-eng80.html#s1-15"><title>1.15 (0.69)</title><rect x="236" y="80" width="4" height="15" fill="#2d8a4e"/></a>
<a href="tlg2003.tlg008.perseus-eng80.html#s1-16"><title>1.16 (0.89)</title><rect x="240" y="80" width="4" height="15" fill="#2d8a4e"/></a>
<a href="tlg2003.tlg008.perseus-eng80.html#s1-17"><title>1.17 (0.95)</title><rect x="244" y="80" width="4" height="15" fill="#2d8a4e"/></a>
<a href="tlg2003.tlg008.perseus-eng80.html#s1-18"><title>1.18 (0.90)</title><rect x="248" y="80" width="4" height="15" fill="#2d8a4e"/></a>
<a href="tlg2003.tlg008.perseus-eng80.html#s1-19"><title>1.19 (0.77)</title><rect x="252" y="80" width="4" height="15" fill="#2d8a4e"/></a>
<a href="tlg2003.tlg008.perseus-eng80.html#s1-20"><title>1.20 (0.80)</title><rect x="256" y="80" width="4" height="15" fill="#2d8a4e"/></a>
<line x1="20" y1="107" x2="1200" y2="107" stroke="#ccc" stroke-width="1"/>
<text x="20" y="127" class="total">TOTAL: 20 sections   avg=0.805   High=95%   Med=5%   Low=0%</text>
<rect x="20" y="134" width="1121.0" height="10" fill="#2d8a4e" rx="2"/>
<rect x="1141.0" y="134" width="59.0" height="10" fill="#e8b83d"/>
<rect x="1200.0" y="134" width="0.0" height="10" fill="#c9493b" rx="2"/>
</svg>