<svg xmlns="http://www.w3.org/2000/svg" width="1220" height="368" viewBox="0 0 1220 368">
<rect width="1220" height="368" fill="#f5f5f5"/>
<style>
  text { font-family: "SF Mono", "Menlo", "Monaco", monospace; }
  .title { font-size: 16px; font-weight: bold; }
  .subtitle { font-size: 11px; fill: #888; }
  .label { font-size: 11px; fill: #333; }
  .stats { font-size: 10px; fill: #666; }
  .warn { font-size: 9px; fill: #c9493b; }
  .total { font-size: 12px; font-weight: bold; fill: #333; }
  .legend-text { font-size: 10px; fill: #555; }
</style>
<text x="20" y="38" class="title">Alignment Quality Map — Alignment</text>
<rect x="20" y="50" width="12" height="12" fill="#2d8a4e" rx="2"/>
<text x="36" y="60" class="legend-text">High (≥0.6)</text>
<rect x="160" y="50" width="12" height="12" fill="#e8b83d" rx="2"/>
<text x="176" y="60" class="legend-text">Medium (0.3–0.6)</text>
<rect x="300" y="50" width="12" height="12" fill="#c9493b" rx="2"/>
<text x="316" y="60" class="legend-text">Low (&lt;0.3)</text>
<text x="20" y="92" class="label">Book 1</text>
<text x="988" y="92" class="stats">n=86  avg=0.489  H=29%  M=58%  L=13%</text>
<rect x="180" y="80" width="4" height="15" fill="#c9493b"/>
<rect x="184" y="80" width="4" height="15" fill="#e8b83d"/>
<rect x="188" y="80" width="4" height="15" fill="#c9493b"/>
<rect x="192" y="80" width="4" height="15" fill="#e8b83d"/>
<rect x="196" y="80" width="4" height="15" fill="#e8b83d"/>
<rect x="200" y="80" width="4" height="15" fill="#e8b83d"/>
<rect x="204" y="80" width="4" height="15" fill="#e8b83d"/>
<rect x="208" y="80" width="4" height="15" fill="#e8b83d"/>
<rect x="212" y="80" width="4" height="15" fill="#e8b83d"/>
<rect x="216" y="80" width="4" height="15" fill="#e8b83d"/>
<rect x="220" y="80" width="4" height="15" fill="#e8b83d"/>
<rect x="224" y="80" width="4" height="15" fill="#e8b83d"/>
<rect x="228" y="80" width="4" height="15" fill="#e8b83d"/>
<rect x="232" y="80" width="4" height="15" fill="#e8b83d"/>
<rect x="236" y="80" width="4" height="15" fill="#e8b83d"/>
<rect x="240" y="80" width="4" height="15" fill="#c9493b"/>
<rect x="244" y="80" width="4" height="15" fill="#e8b83d"/>
<rect x="248" y="80" width="4" height="15" fill="#e8b83d"/>
<rect x="252" y="80" width="4" height="15" fill="#2d8a4e"/>
<rect x="256" y="80" width="4" height="15" fill="#e8b83d"/>
<rect x="260" y="80" width="4" height="15" fill="#e8b83d"/>
<rect x="264" y="80" width="4" height="15" fill="#c9493b"/>
<rect x="268" y="80" width="4" height="15" fill="#e8b83d"/>
<rect x="272" y="80" width="4" height="15" fill="#c9493b"/>
<rect x="276" y="80" width="4" height="15" fill="#e8b83d"/>
<rect x="280" y="80" width="4" height="15" fill="#e8b83d"/>
<rect x="284" y="80" width="4" height="15" fill="#e8b83d"/>
<rect x="288" y="80" width="4" height="15" fill="#c9493b"/>
<rect x="292" y="80" width="4" height="15" fill="#e8b83d"/>
<rect x="296" y="80" width="4" height="15" fill="#e8b83d"/>
<rect x="300" y="80" width="4" height="15" fill="#c9493b"/>
<rect x="304" y="80" width="4" height="15" fill="#e8b83d"/>
<rect x="308" y="80" width="4" height="15" fill="#e8b83d"/>
<rect x="312" y="80" width="4" height="15" fill="#c9493b"/>
<rect x="316" y="80" width="4" height="15" fill="#e8b83d"/>
<rect x="320" y="80" width="4" height="15" fill="#e8b83d"/>
<rect x="324" y="80" width="4" height="15" fill="#c9493b"/>
<rect x="328" y="80" width="4" height="15" fill="#c9493b"/>
<rect x="332" y="80" width="4" height="15" fill="#e8b83d"/>
<rect x="336" y="80" width="4" height="15" fill="#e8b83d"/>
<rect x="340" y="80" width="4" height="15" fill="#e8b83d"/>
<rect x="344" y="80" width="4" height="15" fill="#c9493b"/>
<rect x="348" y="80" width="4" height="15" fill="#2d8a4e"/>
<rect x="352" y="80" width="4" height="15" fill="#2d8a4e"/>
<rect x="356" y="80" width="4" height="15" fill="#2d8a4e"/>
<rect x="360" y="80" width="4" height="15" fill="#2d8a4e"/>
<rect x="364" y="80" width="4" height="15" fill="#2d8a4e"/>
<rect x="368" y="80" width="4" height="15" fill="#2d8a4e"/>
<rect x="372" y="80" width="4" height="15" fill="#2d8a4e"/>
<rect x="376" y="80" width="4" height="15" fill="#2d8a4e"/>
<rect x="380" y="80" width="4" height="15" fill="#2d8a4e"/>
<rect x="384" y="80" width="4" height="15" fill="#2d8a4e"/>
<rect x="388" y="80" width="4" height="15" fill="#2d8a4e"/>
<rect x="392" y="80" width="4" height="15" fill="#2d8a4e"/>
<rect x="396" y="80" width="4" height="15" fill="#e8b83d"/>
<rect x="400" y="80" width="4" height="15" fill="#e8b83d"/>
<rect x="404" y="80" width="4" height="15" fill="#2d8a4e"/>
<rect x="408" y="80" width="4" height="15" fill="#2d8a4e"/>
<rect x="412" y="80" width="4" height="15" fill="#e8b83d"/>
<rect x="416" y="80" width="4" height="15" fill="#e8b83d"/>
<rect x="420" y="80" width="4" height="15" fill="#2d8a4e"/>
<rect x="424" y="80" width="4" height="15" fill="#2d8a4e"/>
<rect x="428" y="80" width="4" height="15" fill="#2d8a4e"/>
<rect x="432" y="80" width="4" height="15" fill="#2d8a4e"/>
<rect x="436" y="80" width="4" height="15" fill="#e8b83d"/>
<rect x="440" y="80" width="4" height="15" fill="#e8b83d"/>
<rect x="444" y="80" width="4" height="15" fill="#2d8a4e"/>
<rect x="448" y="80" width="4" height="15" fill="#2d8a4e"/>
<rect x="452" y="80" width="4" height="15" fill="#2d8a4e"/>
<rect x="456" y="80" width="4" height="15" fill="#e8b83d"/>
<rect x="460" y="80" width="4" height="15" fill="#2d8a4e"/>
<rect x="464" y="80" width="4" height="15" fill="#e8b83d"/>
<rect x="468" y="80" width="4" height="15" fill="#2d8a4e"/>
<rect x="472" y="80" width="4" height="15" fill="#e8b83d"/>
<rect x="476" y="80" width="4" height="15" fill="#e8b83d"/>
<rect x="480" y="80" width="4" height="15" fill="#2d8a4e"/>
<rect x="484" y="80" width="4" height="15" fill="#e8b83d"/>
<rect x="488" y="80" width="4" height="15" fill="#e8b83d"/>
<rect x="492" y="80" width="4" height="15" fill="#e8b83d"/>
<rect x="496" y="80" width="4" height="15" fill="#e8b83d"/>
<rect x="500" y="80" width="4" height="15" fill="#e8b83d"/>
<rect x="504" y="80" width="4" height="15" fill="#e8b83d"/>
<rect x="508" y="80" width="4" height="15" fill="#e8b83d"/>
<rect x="512" y="80" width="4" height="15" fill="#e8b83d"/>
<rect x="516" y="80" width="4" height="15" fill="#e8b83d"/>
<rect x="520" y="80" width="4" height="15" fill="#e8b83d"/>
<text x="20" y="114" class="label">Book 2</text>
<text x="988" y="114" class="stats">n=77  avg=0.510  H=44%  M=36%  L=19%</text>
<rect x="180" y="102" width="4" height="15" fill="#c9493b"/>
<rect x="184" y="102" width="4" height="15" fill="#e8b83d"/>
<rect x="188" y="102" width="4" height="15" fill="#c9493b"/>
<rect x="192" y="102" width="4" height="15" fill="#e8b83d"/>
<rect x="196" y="102" width="4" height="15" fill="#e8b83d"/>
<rect x="200" y="102" width="4" height="15" fill="#c9493b"/>
<rect x="204" y="102" width="4" height="15" fill="#c9493b"/>
<rect x="208" y="102" width="4" height="15" fill="#e8b83d"/>
<rect x="212" y="102" width="4" height="15" fill="#c9493b"/>
<rect x="216" y="102" width="4" height="15" fill="#c9493b"/>
<rect x="220" y="102" width="4" height="15" fill="#e8b83d"/>
<rect x="224" y="102" width="4" height="15" fill="#c9493b"/>
<rect x="228" y="102" width="4" height="15" fill="#c9493b"/>
<rect x="232" y="102" width="4" height="15" fill="#e8b83d"/>
<rect x="236" y="102" width="4" height="15" fill="#e8b83d"/>
<rect x="240" y="102" width="4" height="15" fill="#c9493b"/>
<rect x="244" y="102" width="4" height="15" fill="#c9493b"/>
<rect x="248" y="102" width="4" height="15" fill="#e8b83d"/>
<rect x="252" y="102" width="4" height="15" fill="#e8b83d"/>
<rect x="256" y="102" width="4" height="15" fill="#c9493b"/>
<rect x="260" y="102" width="4" height="15" fill="#e8b83d"/>
<rect x="264" y="102" width="4" height="15" fill="#c9493b"/>
<rect x="268" y="102" width="4" height="15" fill="#e8b83d"/>
<rect x="272" y="102" width="4" height="15" fill="#e8b83d"/>
<rect x="276" y="102" width="4" height="15" fill="#c9493b"/>
<rect x="280" y="102" width="4" height="15" fill="#c9493b"/>
<rect x="284" y="102" width="4" height="15" fill="#e8b83d"/>
<rect x="288" y="102" width="4" height="15" fill="#e8b83d"/>
<rect x="292" y="102" width="4" height="15" fill="#c9493b"/>
<rect x="296" y="102" width="4" height="15" fill="#e8b83d"/>
<rect x="300" y="102" width="4" height="15" fill="#e8b83d"/>
<rect x="304" y="102" width="4" height="15" fill="#e8b83d"/>
<rect x="308" y="102" width="4" height="15" fill="#e8b83d"/>
<rect x="312" y="102" width="4" height="15" fill="#2d8a4e"/>
<rect x="316" y="102" width="4" height="15" fill="#e8b83d"/>
<rect x="320" y="102" width="4" height="15" fill="#e8b83d"/>
<rect x="324" y="102" width="4" height="15" fill="#e8b83d"/>
<rect x="328" y="102" width="4" height="15" fill="#2d8a4e"/>
<rect x="332" y="102" width="4" height="15" fill="#2d8a4e"/>
<rect x="336" y="102" width="4" height="15" fill="#2d8a4e"/>
<rect x="340" y="102" width="4" height="15" fill="#2d8a4e"/>
<rect x="344" y="102" width="4" height="15" fill="#2d8a4e"/>
<rect x="348" y="102" width="4" height="15" fill="#2d8a4e"/>
<rect x="352" y="102" width="4" height="15" fill="#2d8a4e"/>
<rect x="356" y="102" width="4" height="15" fill="#2d8a4e"/>
<rect x="360" y="102" width="4" height="15" fill="#e8b83d"/>
<rect x="364" y="102" width="4" height="15" fill="#2d8a4e"/>
<rect x="368" y="102" width="4" height="15" fill="#2d8a4e"/>
<rect x="372" y="102" width="4" height="15" fill="#2d8a4e"/>
<rect x="376" y="102" width="4" height="15" fill="#2d8a4e"/>
<rect x="380" y="102" width="4" height="15" fill="#2d8a4e"/>
<rect x="384" y="102" width="4" height="15" fill="#2d8a4e"/>
<rect x="388" y="102" width="4" height="15" fill="#2d8a4e"/>
<rect x="392" y="102" width="4" height="15" fill="#2d8a4e"/>
<rect x="396" y="102" width="4" height="15" fill="#2d8a4e"/>
<rect x="400" y="102" width="4" height="15" fill="#2d8a4e"/>
<rect x="404" y="102" width="4" height="15" fill="#2d8a4e"/>
<rect x="408" y="102" width="4" height="15" fill="#2d8a4e"/>
<rect x="412" y="102" width="4" height="15" fill="#2d8a4e"/>
<rect x="416" y="102" width="4" height="15" fill="#e8b83d"/>
<rect x="420" y="102" width="4" height="15" fill="#2d8a4e"/>
<rect x="424" y="102" width="4" height="15" fill="#2d8a4e"/>
<rect x="428" y="102" width="4" height="15" fill="#e8b83d"/>
<rect x="432" y="102" width="4" height="15" fill="#2d8a4e"/>
<rect x="436" y="102" width="4" height="15" fill="#2d8a4e"/>
<rect x="440" y="102" width="4" height="15" fill="#e8b83d"/>
<rect x="444" y="102" width="4" height="15" fill="#2d8a4e"/>
<rect x="448" y="102" width="4" height="15" fill="#2d8a4e"/>
<rect x="452" y="102" width="4" height="15" fill="#2d8a4e"/>
<rect x="456" y="102" width="4" height="15" fill="#2d8a4e"/>
<rect x="460" y="102" width="4" height="15" fill="#e8b83d"/>
<rect x="464" y="102" width="4" height="15" fill="#2d8a4e"/>
<rect x="468" y="102" width="4" height="15" fill="#2d8a4e"/>
<rect x="472" y="102" width="4" height="15" fill="#2d8a4e"/>
<rect x="476" y="102" width="4" height="15" fill="#2d8a4e"/>
<rect x="480" y="102" width="4" height="15" fill="#e8b83d"/>
<rect x="484" y="102" width="4" height="15" fill="#e8b83d"/>
<text x="20" y="136" class="label">Book 3</text>
<text x="988" y="136" class="stats">n=104  avg=0.465  H=14%  M=77%  L=9%</text>
<rect x="180" y="124" width="4" height="15" fill="#2d8a4e"/>
<rect x="184" y="124" width="4" height="15" fill="#2d8a4e"/>
<rect x="188" y="124" width="4" height="15" fill="#2d8a4e"/>
<rect x="192" y="124" width="4" height="15" fill="#2d8a4e"/>
<rect x="196" y="124" width="4" height="15" fill="#2d8a4e"/>
<rect x="200" y="124" width="4" height="15" fill="#2d8a4e"/>
<rect x="204" y="124" width="4" height="15" fill="#e8b83d"/>
<rect x="208" y="124" width="4" height="15" fill="#2d8a4e"/>
<rect x="212" y="124" width="4" height="15" fill="#2d8a4e"/>
<rect x="216" y="124" width="4" height="15" fill="#2d8a4e"/>
<rect x="220" y="124" width="4" height="15" fill="#e8b83d"/>
<rect x="224" y="124" width="4" height="15" fill="#e8b83d"/>
<rect x="228" y="124" width="4" height="15" fill="#e8b83d"/>
<rect x="232" y="124" width="4" height="15" fill="#e8b83d"/>
<rect x="236" y="124" width="4" height="15" fill="#e8b83d"/>
<rect x="240" y="124" width="4" height="15" fill="#e8b83d"/>
<rect x="244" y="124" width="4" height="15" fill="#e8b83d"/>
<rect x="248" y="124" width="4" height="15" fill="#e8b83d"/>
<rect x="252" y="124" width="4" height="15" fill="#e8b83d"/>
<rect x="256" y="124" width="4" height="15" fill="#e8b83d"/>
<rect x="260" y="124" width="4" height="15" fill="#e8b83d"/>
<rect x="264" y="124" width="4" height="15" fill="#e8b83d"/>
<rect x="268" y="124" width="4" height="15" fill="#e8b83d"/>
<rect x="272" y="124" width="4" height="15" fill="#e8b83d"/>
<rect x="276" y="124" width="4" height="15" fill="#c9493b"/>
<rect x="280" y="124" width="4" height="15" fill="#e8b83d"/>
<rect x="284" y="124" width="4" height="15" fill="#c9493b"/>
<rect x="288" y="124" width="4" height="15" fill="#e8b83d"/>
<rect x="292" y="124" width="4" height="15" fill="#e8b83d"/>
<rect x="296" y="124" width="4" height="15" fill="#e8b83d"/>
<rect x="300" y="124" width="4" height="15" fill="#e8b83d"/>
<rect x="304" y="124" width="4" height="15" fill="#e8b83d"/>
<rect x="308" y="124" width="4" height="15" fill="#e8b83d"/>
<rect x="312" y="124" width="4" height="15" fill="#e8b83d"/>
<rect x="316" y="124" width="4" height="15" fill="#e8b83d"/>
<rect x="320" y="124" width="4" height="15" fill="#2d8a4e"/>
<rect x="324" y="124" width="4" height="15" fill="#e8b83d"/>
<rect x="328" y="124" width="4" height="15" fill="#e8b83d"/>
<rect x="332" y="124" width="4" height="15" fill="#e8b83d"/>
<rect x="336" y="124" width="4" height="15" fill="#e8b83d"/>
<rect x="340" y="124" width="4" height="15" fill="#e8b83d"/>
<rect x="344" y="124" width="4" height="15" fill="#e8b83d"/>
<rect x="348" y="124" width="4" height="15" fill="#e8b83d"/>
<rect x="352" y="124" width="4" height="15" fill="#c9493b"/>
<rect x="356" y="124" width="4" height="15" fill="#c9493b"/>
<rect x="360" y="124" width="4" height="15" fill="#e8b83d"/>
<rect x="364" y="124" width="4" height="15" fill="#2d8a4e"/>
<rect x="368" y="124" width="4" height="15" fill="#c9493b"/>
<rect x="372" y="124" width="4" height="15" fill="#c9493b"/>
<rect x="376" y="124" width="4" height="15" fill="#c9493b"/>
<rect x="380" y="124" width="4" height="15" fill="#e8b83d"/>
<rect x="384" y="124" width="4" height="15" fill="#e8b83d"/>
<rect x="388" y="124" width="4" height="15" fill="#e8b83d"/>
<rect x="392" y="124" width="4" height="15" fill="#e8b83d"/>
<rect x="396" y="124" width="4" height="15" fill="#e8b83d"/>
<rect x="400" y="124" width="4" height="15" fill="#2d8a4e"/>
<rect x="404" y="124" width="4" height="15" fill="#e8b83d"/>
<rect x="408" y="124" width="4" height="15" fill="#e8b83d"/>
<rect x="412" y="124" width="4" height="15" fill="#e8b83d"/>
<rect x="416" y="124" width="4" height="15" fill="#e8b83d"/>
<rect x="420" y="124" width="4" height="15" fill="#e8b83d"/>
<rect x="424" y="124" width="4" height="15" fill="#e8b83d"/>
<rect x="428" y="124" width="4" height="15" fill="#e8b83d"/>
<rect x="432" y="124" width="4" height="15" fill="#e8b83d"/>
<rect x="436" y="124" width="4" height="15" fill="#e8b83d"/>
<rect x="440" y="124" width="4" height="15" fill="#e8b83d"/>
<rect x="444" y="124" width="4" height="15" fill="#e8b83d"/>
<rect x="448" y="124" width="4" height="15" fill="#e8b83d"/>
<rect x="452" y="124" width="4" height="15" fill="#e8b83d"/>
<rect x="456" y="124" width="4" height="15" fill="#e8b83d"/>
<rect x="460" y="124" width="4" height="15" fill="#e8b83d"/>
<rect x="464" y="124" width="4" height="15" fill="#e8b83d"/>
<rect x="468" y="124" width="4" height="15" fill="#e8b83d"/>
<rect x="472" y="124" width="4" height="15" fill="#e8b83d"/>
<rect x="476" y="124" width="4" height="15" fill="#e8b83d"/>
<rect x="480" y="124" width="4" height="15" fill="#e8b83d"/>
<rect x="484" y="124" width="4" height="15" fill="#e8b83d"/>
<rect x="488" y="124" width="4" height="15" fill="#e8b83d"/>
<rect x="492" y="124" width="4" height="15" fill="#e8b83d"/>
<rect x="496" y="124" width="4" height="15" fill="#e8b83d"/>
<rect x="500" y="124" width="4" height="15" fill="#e8b83d"/>
<rect x="504" y="124" width="4" height="15" fill="#e8b83d"/>
<rect x="508" y="124" width="4" height="15" fill="#e8b83d"/>
<rect x="512" y="124" width="4" height="15" fill="#e8b83d"/>
<rect x="516" y="124" width="4" height="15" fill="#e8b83d"/>
<rect x="520" y="124" width="4" height="15" fill="#c9493b"/>
<rect x="524" y="124" width="4" height="15" fill="#e8b83d"/>
<rect x="528" y="124" width="4" height="15" fill="#e8b83d"/>
<rect x="532" y="124" width="4" height="15" fill="#c9493b"/>
<rect x="536" y="124" width="4" height="15" fill="#e8b83d"/>
<rect x="540" y="124" width="4" height="15" fill="#e8b83d"/>
<rect x="544" y="124" width="4" height="15" fill="#e8b83d"/>
<rect x="548" y="124" width="4" height="15" fill="#e8b83d"/>
<rect x="552" y="124" width="4" height="15" fill="#e8b83d"/>
<rect x="556" y="124" width="4" height="15" fill="#e8b83d"/>
<rect x="560" y="124" width="4" height="15" fill="#e8b83d"/>
<rect x="564" y="124" width="4" height="15" fill="#e8b83d"/>
<rect x="568" y="124" width="4" height="15" fill="#e8b83d"/>
<rect x="572" y="124" width="4" height="15" fill="#e8b83d"/>
<rect x="576" y="124" width="4" height="15" fill="#2d8a4e"/>
<rect x="580" y="124" width="4" height="15" fill="#2d8a4e"/>
<rect x="584" y="124" width="4" height="15" fill="#2d8a4e"/>
<rect x="588" y="124" width="4" height="15" fill="#e8b83d"/>
<rect x="592" y="124" width="4" height="15" fill="#e8b83d"/>
<text x="180" y="151" class="warn">⚠ 3.5.5 → 3.5.7  (3 sections, avg=0.237)</text>
<text x="20" y="172" class="label">Book 4</text>
<text x="988" y="172" class="stats">n=122  avg=0.504  H=29%  M=62%  L=9%</text>
<rect x="180" y="160" width="4" height="15" fill="#2d8a4e"/>
<rect x="184" y="160" width="4" height="15" fill="#e8b83d"/>
<rect x="188" y="160" width="4" height="15" fill="#2d8a4e"/>
<rect x="192" y="160" width="4" height="15" fill="#2d8a4e"/>
<rect x="196" y="160" width="4" height="15" fill="#e8b83d"/>
<rect x="200" y="160" width="4" height="15" fill="#e8b83d"/>
<rect x="204" y="160" width="4" height="15" fill="#2d8a4e"/>
<rect x="208" y="160" width="4" height="15" fill="#e8b83d"/>
<rect x="212" y="160" width="4" height="15" fill="#e8b83d"/>
<rect x="216" y="160" width="4" height="15" fill="#e8b83d"/>
<rect x="220" y="160" width="4" height="15" fill="#e8b83d"/>
<rect x="224" y="160" width="4" height="15" fill="#e8b83d"/>
<rect x="228" y="160" width="4" height="15" fill="#2d8a4e"/>
<rect x="232" y="160" width="4" height="15" fill="#e8b83d"/>
<rect x="236" y="160" width="4" height="15" fill="#e8b83d"/>
<rect x="240" y="160" width="4" height="15" fill="#c9493b"/>
<rect x="244" y="160" width="4" height="15" fill="#2d8a4e"/>
<rect x="248" y="160" width="4" height="15" fill="#c9493b"/>
<rect x="252" y="160" width="4" height="15" fill="#e8b83d"/>
<rect x="256" y="160" width="4" height="15" fill="#e8b83d"/>
<rect x="260" y="160" width="4" height="15" fill="#2d8a4e"/>
<rect x="264" y="160" width="4" height="15" fill="#e8b83d"/>
<rect x="268" y="160" width="4" height="15" fill="#2d8a4e"/>
<rect x="272" y="160" width="4" height="15" fill="#e8b83d"/>
<rect x="276" y="160" width="4" height="15" fill="#2d8a4e"/>
<rect x="280" y="160" width="4" height="15" fill="#e8b83d"/>
<rect x="284" y="160" width="4" height="15" fill="#e8b83d"/>
<rect x="288" y="160" width="4" height="15" fill="#e8b83d"/>
<rect x="292" y="160" width="4" height="15" fill="#e8b83d"/>
<rect x="296" y="160" width="4" height="15" fill="#e8b83d"/>
<rect x="300" y="160" width="4" height="15" fill="#e8b83d"/>
<rect x="304" y="160" width="4" height="15" fill="#e8b83d"/>
<rect x="308" y="160" width="4" height="15" fill="#e8b83d"/>
<rect x="312" y="160" width="4" height="15" fill="#e8b83d"/>
<rect x="316" y="160" width="4" height="15" fill="#e8b83d"/>
<rect x="320" y="160" width="4" height="15" fill="#e8b83d"/>
<rect x="324" y="160" width="4" height="15" fill="#e8b83d"/>
<rect x="328" y="160" width="4" height="15" fill="#e8b83d"/>
<rect x="332" y="160" width="4" height="15" fill="#e8b83d"/>
<rect x="336" y="160" width="4" height="15" fill="#2d8a4e"/>
<rect x="340" y="160" width="4" height="15" fill="#e8b83d"/>
<rect x="344" y="160" width="4" height="15" fill="#e8b83d"/>
<rect x="348" y="160" width="4" height="15" fill="#e8b83d"/>
<rect x="352" y="160" width="4" height="15" fill="#e8b83d"/>
<rect x="356" y="160" width="4" height="15" fill="#c9493b"/>
<rect x="360" y="160" width="4" height="15" fill="#e8b83d"/>
<rect x="364" y="160" width="4" height="15" fill="#e8b83d"/>
<rect x="368" y="160" width="4" height="15" fill="#2d8a4e"/>
<rect x="372" y="160" width="4" height="15" fill="#e8b83d"/>
<rect x="376" y="160" width="4" height="15" fill="#e8b83d"/>
<rect x="380" y="160" width="4" height="15" fill="#e8b83d"/>
<rect x="384" y="160" width="4" height="15" fill="#e8b83d"/>
<rect x="388" y="160" width="4" height="15" fill="#e8b83d"/>
<rect x="392" y="160" width="4" height="15" fill="#e8b83d"/>
<rect x="396" y="160" width="4" height="15" fill="#e8b83d"/>
<rect x="400" y="160" width="4" height="15" fill="#e8b83d"/>
<rect x="404" y="160" width="4" height="15" fill="#e8b83d"/>
<rect x="408" y="160" width="4" height="15" fill="#e8b83d"/>
<rect x="412" y="160" width="4" height="15" fill="#2d8a4e"/>
<rect x="416" y="160" width="4" height="15" fill="#e8b83d"/>
<rect x="420" y="160" width="4" height="15" fill="#e8b83d"/>
<rect x="424" y="160" width="4" height="15" fill="#e8b83d"/>
<rect x="428" y="160" width="4" height="15" fill="#c9493b"/>
<rect x="432" y="160" width="4" height="15" fill="#e8b83d"/>
<rect x="436" y="160" width="4" height="15" fill="#e8b83d"/>
<rect x="440" y="160" width="4" height="15" fill="#c9493b"/>
<rect x="444" y="160" width="4" height="15" fill="#2d8a4e"/>
<rect x="448" y="160" width="4" height="15" fill="#e8b83d"/>
<rect x="452" y="160" width="4" height="15" fill="#e8b83d"/>
<rect x="456" y="160" width="4" height="15" fill="#c9493b"/>
<rect x="460" y="160" width="4" height="15" fill="#e8b83d"/>
<rect x="464" y="160" width="4" height="15" fill="#e8b83d"/>
<rect x="468" y="160" width="4" height="15" fill="#c9493b"/>
<rect x="472" y="160" width="4" height="15" fill="#e8b83d"/>
<rect x="476" y="160" width="4" height="15" fill="#e8b83d"/>
<rect x="480" y="160" width="4" height="15" fill="#e8b83d"/>
<rect x="484" y="160" width="4" height="15" fill="#e8b83d"/>
<rect x="488" y="160" width="4" height="15" fill="#e8b83d"/>
<rect x="492" y="160" width="4" height="15" fill="#e8b83d"/>
<rect x="496" y="160" width="4" height="15" fill="#e8b83d"/>
<rect x="500" y="160" width="4" height="15" fill="#e8b83d"/>
<rect x="504" y="160" width="4" height="15" fill="#2d8a4e"/>
<rect x="508" y="160" width="4" height="15" fill="#2d8a4e"/>
<rect x="512" y="160" width="4" height="15" fill="#e8b83d"/>
<rect x="516" y="160" width="4" height="15" fill="#2d8a4e"/>
<rect x="520" y="160" width="4" height="15" fill="#e8b83d"/>
<rect x="524" y="160" width="4" height="15" fill="#e8b83d"/>
<rect x="528" y="160" width="4" height="15" fill="#e8b83d"/>
<rect x="532" y="160" width="4" height="15" fill="#e8b83d"/>
<rect x="536" y="160" width="4" height="15" fill="#2d8a4e"/>
<rect x="540" y="160" width="4" height="15" fill="#e8b83d"/>
<rect x="544" y="160" width="4" height="15" fill="#e8b83d"/>
<rect x="548" y="160" width="4" height="15" fill="#e8b83d"/>
<rect x="552" y="160" width="4" height="15" fill="#2d8a4e"/>
<rect x="556" y="160" width="4" height="15" fill="#2d8a4e"/>
<rect x="560" y="160" width="4" height="15" fill="#e8b83d"/>
<rect x="564" y="160" width="4" height="15" fill="#2d8a4e"/>
<rect x="568" y="160" width="4" height="15" fill="#2d8a4e"/>
<rect x="572" y="160" width="4" height="15" fill="#2d8a4e"/>
<rect x="576" y="160" width="4" height="15" fill="#2d8a4e"/>
<rect x="580" y="160" width="4" height="15" fill="#2d8a4e"/>
<rect x="584" y="160" width="4" height="15" fill="#2d8a4e"/>
<rect x="588" y="160" width="4" height="15" fill="#2d8a4e"/>
<rect x="592" y="160" width="4" height="15" fill="#2d8a4e"/>
<rect x="596" y="160" width="4" height="15" fill="#2d8a4e"/>
<rect x="600" y="160" width="4" height="15" fill="#2d8a4e"/>
<rect x="604" y="160" width="4" height="15" fill="#2d8a4e"/>
<rect x="608" y="160" width="4" height="15" fill="#2d8a4e"/>
<rect x="612" y="160" width="4" height="15" fill="#c9493b"/>
<rect x="616" y="160" width="4" height="15" fill="#c9493b"/>
<rect x="620" y="160" width="4" height="15" fill="#c9493b"/>
<rect x="624" y="160" width="4" height="15" fill="#c9493b"/>
<rect x="628" y="160" width="4" height="15" fill="#e8b83d"/>
<rect x="632" y="160" width="4" height="15" fill="#e8b83d"/>
<rect x="636" y="160" width="4" height="15" fill="#e8b83d"/>
<rect x="640" y="160" width="4" height="15" fill="#e8b83d"/>
<rect x="644" y="160" width="4" height="15" fill="#e8b83d"/>
<rect x="648" y="160" width="4" height="15" fill="#e8b83d"/>
<rect x="652" y="160" width="4" height="15" fill="#2d8a4e"/>
<rect x="656" y="160" width="4" height="15" fill="#2d8a4e"/>
<rect x="660" y="160" width="4" height="15" fill="#2d8a4e"/>
<rect x="664" y="160" width="4" height="15" fill="#2d8a4e"/>
<text x="180" y="187" class="warn">⚠ 4.7.15 → 4.8.3  (4 sections, avg=0.160)</text>
<text x="20" y="208" class="label">Book 5</text>
<text x="988" y="208" class="stats">n=82  avg=0.493  H=34%  M=49%  L=17%</text>
<rect x="180" y="196" width="4" height="15" fill="#c9493b"/>
<rect x="184" y="196" width="4" height="15" fill="#e8b83d"/>
<rect x="188" y="196" width="4" height="15" fill="#c9493b"/>
<rect x="192" y="196" width="4" height="15" fill="#e8b83d"/>
<rect x="196" y="196" width="4" height="15" fill="#e8b83d"/>
<rect x="200" y="196" width="4" height="15" fill="#e8b83d"/>
<rect x="204" y="196" width="4" height="15" fill="#e8b83d"/>
<rect x="208" y="196" width="4" height="15" fill="#c9493b"/>
<rect x="212" y="196" width="4" height="15" fill="#e8b83d"/>
<rect x="216" y="196" width="4" height="15" fill="#e8b83d"/>
<rect x="220" y="196" width="4" height="15" fill="#e8b83d"/>
<rect x="224" y="196" width="4" height="15" fill="#2d8a4e"/>
<rect x="228" y="196" width="4" height="15" fill="#e8b83d"/>
<rect x="232" y="196" width="4" height="15" fill="#c9493b"/>
<rect x="236" y="196" width="4" height="15" fill="#2d8a4e"/>
<rect x="240" y="196" width="4" height="15" fill="#c9493b"/>
<rect x="244" y="196" width="4" height="15" fill="#e8b83d"/>
<rect x="248" y="196" width="4" height="15" fill="#c9493b"/>
<rect x="252" y="196" width="4" height="15" fill="#2d8a4e"/>
<rect x="256" y="196" width="4" height="15" fill="#2d8a4e"/>
<rect x="260" y="196" width="4" height="15" fill="#e8b83d"/>
<rect x="264" y="196" width="4" height="15" fill="#e8b83d"/>
<rect x="268" y="196" width="4" height="15" fill="#c9493b"/>
<rect x="272" y="196" width="4" height="15" fill="#e8b83d"/>
<rect x="276" y="196" width="4" height="15" fill="#e8b83d"/>
<rect x="280" y="196" width="4" height="15" fill="#e8b83d"/>
<rect x="284" y="196" width="4" height="15" fill="#e8b83d"/>
<rect x="288" y="196" width="4" height="15" fill="#c9493b"/>
<rect x="292" y="196" width="4" height="15" fill="#e8b83d"/>
<rect x="296" y="196" width="4" height="15" fill="#2d8a4e"/>
<rect x="300" y="196" width="4" height="15" fill="#e8b83d"/>
<rect x="304" y="196" width="4" height="15" fill="#2d8a4e"/>
<rect x="308" y="196" width="4" height="15" fill="#2d8a4e"/>
<rect x="312" y="196" width="4" height="15" fill="#e8b83d"/>
<rect x="316" y="196" width="4" height="15" fill="#e8b83d"/>
<rect x="320" y="196" width="4" height="15" fill="#e8b83d"/>
<rect x="324" y="196" width="4" height="15" fill="#e8b83d"/>
<rect x="328" y="196" width="4" height="15" fill="#c9493b"/>
<rect x="332" y="196" width="4" height="15" fill="#2d8a4e"/>
<rect x="336" y="196" width="4" height="15" fill="#e8b83d"/>
<rect x="340" y="196" width="4" height="15" fill="#e8b83d"/>
<rect x="344" y="196" width="4" height="15" fill="#e8b83d"/>
<rect x="348" y="196" width="4" height="15" fill="#e8b83d"/>
<rect x="352" y="196" width="4" height="15" fill="#e8b83d"/>
<rect x="356" y="196" width="4" height="15" fill="#c9493b"/>
<rect x="360" y="196" width="4" height="15" fill="#c9493b"/>
<rect x="364" y="196" width="4" height="15" fill="#e8b83d"/>
<rect x="368" y="196" width="4" height="15" fill="#e8b83d"/>
<rect x="372" y="196" width="4" height="15" fill="#c9493b"/>
<rect x="376" y="196" width="4" height="15" fill="#2d8a4e"/>
<rect x="380" y="196" width="4" height="15" fill="#e8b83d"/>
<rect x="384" y="196" width="4" height="15" fill="#e8b83d"/>
<rect x="388" y="196" width="4" height="15" fill="#c9493b"/>
<rect x="392" y="196" width="4" height="15" fill="#e8b83d"/>
<rect x="396" y="196" width="4" height="15" fill="#e8b83d"/>
<rect x="400" y="196" width="4" height="15" fill="#2d8a4e"/>
<rect x="404" y="196" width="4" height="15" fill="#2d8a4e"/>
<rect x="408" y="196" width="4" height="15" fill="#2d8a4e"/>
<rect x="412" y="196" width="4" height="15" fill="#2d8a4e"/>
<rect x="416" y="196" width="4" height="15" fill="#2d8a4e"/>
<rect x="420" y="196" width="4" height="15" fill="#2d8a4e"/>
<rect x="424" y="196" width="4" height="15" fill="#2d8a4e"/>
<rect x="428" y="196" width="4" height="15" fill="#2d8a4e"/>
<rect x="432" y="196" width="4" height="15" fill="#2d8a4e"/>
<rect x="436" y="196" width="4" height="15" fill="#e8b83d"/>
<rect x="440" y="196" width="4" height="15" fill="#2d8a4e"/>
<rect x="444" y="196" width="4" height="15" fill="#2d8a4e"/>
<rect x="448" y="196" width="4" height="15" fill="#2d8a4e"/>
<rect x="452" y="196" width="4" height="15" fill="#c9493b"/>
<rect x="456" y="196" width="4" height="15" fill="#e8b83d"/>
<rect x="460" y="196" width="4" height="15" fill="#e8b83d"/>
<rect x="464" y="196" width="4" height="15" fill="#e8b83d"/>
<rect x="468" y="196" width="4" height="15" fill="#2d8a4e"/>
<rect x="472" y="196" width="4" height="15" fill="#e8b83d"/>
<rect x="476" y="196" width="4" height="15" fill="#e8b83d"/>
<rect x="480" y="196" width="4" height="15" fill="#2d8a4e"/>
<rect x="484" y="196" width="4" height="15" fill="#2d8a4e"/>
<rect x="488" y="196" width="4" height="15" fill="#2d8a4e"/>
<rect x="492" y="196" width="4" height="15" fill="#2d8a4e"/>
<rect x="496" y="196" width="4" height="15" fill="#e8b83d"/>
<rect x="500" y="196" width="4" height="15" fill="#2d8a4e"/>
<rect x="504" y="196" width="4" height="15" fill="#2d8a4e"/>
<text x="20" y="230" class="label">Book 6</text>
<text x="988" y="230" class="stats">n=207  avg=0.504  H=40%  M=35%  L=25%</text>
<rect x="180" y="218" width="4" height="15" fill="#c9493b"/>
<rect x="184" y="218" width="4" height="15" fill="#e8b83d"/>
<rect x="188" y="218" width="4" height="15" fill="#2d8a4e"/>
<rect x="192" y="218" width="4" height="15" fill="#e8b83d"/>
<rect x="196" y="218" width="4" height="15" fill="#e8b83d"/>
<rect x="200" y="218" width="4" height="15" fill="#e8b83d"/>
<rect x="204" y="218" width="4" height="15" fill="#e8b83d"/>
<rect x="208" y="218" width="4" height="15" fill="#2d8a4e"/>
<rect x="212" y="218" width="4" height="15" fill="#e8b83d"/>
<rect x="216" y="218" width="4" height="15" fill="#e8b83d"/>
<rect x="220" y="218" width="4" height="15" fill="#2d8a4e"/>
<rect x="224" y="218" width="4" height="15" fill="#e8b83d"/>
<rect x="228" y="218" width="4" height="15" fill="#c9493b"/>
<rect x="232" y="218" width="4" height="15" fill="#e8b83d"/>
<rect x="236" y="218" width="4" height="15" fill="#e8b83d"/>
<rect x="240" y="218" width="4" height="15" fill="#e8b83d"/>
<rect x="244" y="218" width="4" height="15" fill="#2d8a4e"/>
<rect x="248" y="218" width="4" height="15" fill="#e8b83d"/>
<rect x="252" y="218" width="4" height="15" fill="#c9493b"/>
<rect x="256" y="218" width="4" height="15" fill="#c9493b"/>
<rect x="260" y="218" width="4" height="15" fill="#c9493b"/>
<rect x="264" y="218" width="4" height="15" fill="#e8b83d"/>
<rect x="268" y="218" width="4" height="15" fill="#c9493b"/>
<rect x="272" y="218" width="4" height="15" fill="#e8b83d"/>
<rect x="276" y="218" width="4" height="15" fill="#e8b83d"/>
<rect x="280" y="218" width="4" height="15" fill="#e8b83d"/>
<rect x="284" y="218" width="4" height="15" fill="#e8b83d"/>
<rect x="288" y="218" width="4" height="15" fill="#c9493b"/>
<rect x="292" y="218" width="4" height="15" fill="#e8b83d"/>
<rect x="296" y="218" width="4" height="15" fill="#e8b83d"/>
<rect x="300" y="218" width="4" height="15" fill="#c9493b"/>
<rect x="304" y="218" width="4" height="15" fill="#e8b83d"/>
<rect x="308" y="218" width="4" height="15" fill="#e8b83d"/>
<rect x="312" y="218" width="4" height="15" fill="#e8b83d"/>
<rect x="316" y="218" width="4" height="15" fill="#e8b83d"/>
<rect x="320" y="218" width="4" height="15" fill="#e8b83d"/>
<rect x="324" y="218" width="4" height="15" fill="#e8b83d"/>
<rect x="328" y="218" width="4" height="15" fill="#e8b83d"/>
<rect x="332" y="218" width="4" height="15" fill="#e8b83d"/>
<rect x="336" y="218" width="4" height="15" fill="#e8b83d"/>
<rect x="340" y="218" width="4" height="15" fill="#c9493b"/>
<rect x="344" y="218" width="4" height="15" fill="#c9493b"/>
<rect x="348" y="218" width="4" height="15" fill="#c9493b"/>
<rect x="352" y="218" width="4" height="15" fill="#c9493b"/>
<rect x="356" y="218" width="4" height="15" fill="#c9493b"/>
<rect x="360" y="218" width="4" height="15" fill="#c9493b"/>
<rect x="364" y="218" width="4" height="15" fill="#c9493b"/>
<rect x="368" y="218" width="4" height="15" fill="#c9493b"/>
<rect x="372" y="218" width="4" height="15" fill="#c9493b"/>
<rect x="376" y="218" width="4" height="15" fill="#c9493b"/>
<rect x="380" y="218" width="4" height="15" fill="#e8b83d"/>
<rect x="384" y="218" width="4" height="15" fill="#c9493b"/>
<rect x="388" y="218" width="4" height="15" fill="#c9493b"/>
<rect x="392" y="218" width="4" height="15" fill="#c9493b"/>
<rect x="396" y="218" width="4" height="15" fill="#c9493b"/>
<rect x="400" y="218" width="4" height="15" fill="#c9493b"/>
<rect x="404" y="218" width="4" height="15" fill="#c9493b"/>
<rect x="408" y="218" width="4" height="15" fill="#c9493b"/>
<rect x="412" y="218" width="4" height="15" fill="#e8b83d"/>
<rect x="416" y="218" width="4" height="15" fill="#c9493b"/>
<rect x="420" y="218" width="4" height="15" fill="#c9493b"/>
<rect x="424" y="218" width="4" height="15" fill="#c9493b"/>
<rect x="428" y="218" width="4" height="15" fill="#e8b83d"/>
<rect x="432" y="218" width="4" height="15" fill="#c9493b"/>
<rect x="436" y="218" width="4" height="15" fill="#c9493b"/>
<rect x="440" y="218" width="4" height="15" fill="#e8b83d"/>
<rect x="444" y="218" width="4" height="15" fill="#e8b83d"/>
<rect x="448" y="218" width="4" height="15" fill="#e8b83d"/>
<rect x="452" y="218" width="4" height="15" fill="#c9493b"/>
<rect x="456" y="218" width="4" height="15" fill="#e8b83d"/>
<rect x="460" y="218" width="4" height="15" fill="#c9493b"/>
<rect x="464" y="218" width="4" height="15" fill="#c9493b"/>
<rect x="468" y="218" width="4" height="15" fill="#c9493b"/>
<rect x="472" y="218" width="4" height="15" fill="#2d8a4e"/>
<rect x="476" y="218" width="4" height="15" fill="#e8b83d"/>
<rect x="480" y="218" width="4" height="15" fill="#c9493b"/>
<rect x="484" y="218" width="4" height="15" fill="#c9493b"/>
<rect x="488" y="218" width="4" height="15" fill="#c9493b"/>
<rect x="492" y="218" width="4" height="15" fill="#c9493b"/>
<rect x="496" y="218" width="4" height="15" fill="#e8b83d"/>
<rect x="500" y="218" width="4" height="15" fill="#c9493b"/>
<rect x="504" y="218" width="4" height="15" fill="#e8b83d"/>
<rect x="508" y="218" width="4" height="15" fill="#e8b83d"/>
<rect x="512" y="218" width="4" height="15" fill="#e8b83d"/>
<rect x="516" y="218" width="4" height="15" fill="#2d8a4e"/>
<rect x="520" y="218" width="4" height="15" fill="#e8b83d"/>
<rect x="524" y="218" width="4" height="15" fill="#c9493b"/>
<rect x="528" y="218" width="4" height="15" fill="#e8b83d"/>
<rect x="532" y="218" width="4" height="15" fill="#c9493b"/>
<rect x="536" y="218" width="4" height="15" fill="#e8b83d"/>
<rect x="540" y="218" width="4" height="15" fill="#e8b83d"/>
<rect x="544" y="218" width="4" height="15" fill="#e8b83d"/>
<rect x="548" y="218" width="4" height="15" fill="#e8b83d"/>
<rect x="552" y="218" width="4" height="15" fill="#e8b83d"/>
<rect x="556" y="218" width="4" height="15" fill="#e8b83d"/>
<rect x="560" y="218" width="4" height="15" fill="#c9493b"/>
<rect x="564" y="218" width="4" height="15" fill="#e8b83d"/>
<rect x="568" y="218" width="4" height="15" fill="#c9493b"/>
<rect x="572" y="218" width="4" height="15" fill="#e8b83d"/>
<rect x="576" y="218" width="4" height="15" fill="#2d8a4e"/>
<rect x="580" y="218" width="4" height="15" fill="#e8b83d"/>
<rect x="584" y="218" width="4" height="15" fill="#e8b83d"/>
<rect x="588" y="218" width="4" height="15" fill="#c9493b"/>
<rect x="592" y="218" width="4" height="15" fill="#e8b83d"/>
<rect x="596" y="218" width="4" height="15" fill="#e8b83d"/>
<rect x="600" y="218" width="4" height="15" fill="#e8b83d"/>
<rect x="604" y="218" width="4" height="15" fill="#c9493b"/>
<rect x="608" y="218" width="4" height="15" fill="#c9493b"/>
<rect x="612" y="218" width="4" height="15" fill="#c9493b"/>
<rect x="616" y="218" width="4" height="15" fill="#e8b83d"/>
<rect x="620" y="218" width="4" height="15" fill="#e8b83d"/>
<rect x="624" y="218" width="4" height="15" fill="#c9493b"/>
<rect x="628" y="218" width="4" height="15" fill="#c9493b"/>
<rect x="632" y="218" width="4" height="15" fill="#e8b83d"/>
<rect x="636" y="218" width="4" height="15" fill="#2d8a4e"/>
<rect x="640" y="218" width="4" height="15" fill="#2d8a4e"/>
<rect x="644" y="218" width="4" height="15" fill="#2d8a4e"/>
<rect x="648" y="218" width="4" height="15" fill="#2d8a4e"/>
<rect x="652" y="218" width="4" height="15" fill="#2d8a4e"/>
<rect x="656" y="218" width="4" height="15" fill="#2d8a4e"/>
<rect x="660" y="218" width="4" height="15" fill="#2d8a4e"/>
<rect x="664" y="218" width="4" height="15" fill="#2d8a4e"/>
<rect x="668" y="218" width="4" height="15" fill="#2d8a4e"/>
<rect x="672" y="218" width="4" height="15" fill="#2d8a4e"/>
<rect x="676" y="218" width="4" height="15" fill="#2d8a4e"/>
<rect x="680" y="218" width="4" height="15" fill="#2d8a4e"/>
<rect x="684" y="218" width="4" height="15" fill="#2d8a4e"/>
<rect x="688" y="218" width="4" height="15" fill="#2d8a4e"/>
<rect x="692" y="218" width="4" height="15" fill="#2d8a4e"/>
<rect x="696" y="218" width="4" height="15" fill="#2d8a4e"/>
<rect x="700" y="218" width="4" height="15" fill="#2d8a4e"/>
<rect x="704" y="218" width="4" height="15" fill="#2d8a4e"/>
<rect x="708" y="218" width="4" height="15" fill="#2d8a4e"/>
<rect x="712" y="218" width="4" height="15" fill="#2d8a4e"/>
<rect x="716" y="218" width="4" height="15" fill="#2d8a4e"/>
<rect x="720" y="218" width="4" height="15" fill="#2d8a4e"/>
<rect x="724" y="218" width="4" height="15" fill="#2d8a4e"/>
<rect x="728" y="218" width="4" height="15" fill="#2d8a4e"/>
<rect x="732" y="218" width="4" height="15" fill="#2d8a4e"/>
<rect x="736" y="218" width="4" height="15" fill="#2d8a4e"/>
<rect x="740" y="218" width="4" height="15" fill="#2d8a4e"/>
<rect x="744" y="218" width="4" height="15" fill="#2d8a4e"/>
<rect x="748" y="218" width="4" height="15" fill="#2d8a4e"/>
<rect x="752" y="218" width="4" height="15" fill="#2d8a4e"/>
<rect x="756" y="218" width="4" height="15" fill="#2d8a4e"/>
<rect x="760" y="218" width="4" height="15" fill="#2d8a4e"/>
<rect x="764" y="218" width="4" height="15" fill="#2d8a4e"/>
<rect x="768" y="218" width="4" height="15" fill="#2d8a4e"/>
<rect x="772" y="218" width="4" height="15" fill="#2d8a4e"/>
<rect x="776" y="218" width="4" height="15" fill="#2d8a4e"/>
<rect x="780" y="218" width="4" height="15" fill="#2d8a4e"/>
<rect x="784" y="218" width="4" height="15" fill="#2d8a4e"/>
<rect x="788" y="218" width="4" height="15" fill="#2d8a4e"/>
<rect x="792" y="218" width="4" height="15" fill="#2d8a4e"/>
<rect x="796" y="218" width="4" height="15" fill="#2d8a4e"/>
<rect x="800" y="218" width="4" height="15" fill="#2d8a4e"/>
<rect x="804" y="218" width="4" height="15" fill="#2d8a4e"/>
<rect x="808" y="218" width="4" height="15" fill="#2d8a4e"/>
<rect x="812" y="218" width="4" height="15" fill="#2d8a4e"/>
<rect x="816" y="218" width="4" height="15" fill="#2d8a4e"/>
<rect x="820" y="218" width="4" height="15" fill="#2d8a4e"/>
<rect x="824" y="218" width="4" height="15" fill="#2d8a4e"/>
<rect x="828" y="218" width="4" height="15" fill="#2d8a4e"/>
<rect x="832" y="218" width="4" height="15" fill="#2d8a4e"/>
<rect x="836" y="218" width="4" height="15" fill="#2d8a4e"/>
<rect x="840" y="218" width="4" height="15" fill="#2d8a4e"/>
<rect x="844" y="218" width="4" height="15" fill="#2d8a4e"/>
<rect x="848" y="218" width="4" height="15" fill="#e8b83d"/>
<rect x="852" y="218" width="4" height="15" fill="#2d8a4e"/>
<rect x="856" y="218" width="4" height="15" fill="#2d8a4e"/>
<rect x="860" y="218" width="4" height="15" fill="#2d8a4e"/>
<rect x="864" y="218" width="4" height="15" fill="#2d8a4e"/>
<rect x="868" y="218" width="4" height="15" fill="#2d8a4e"/>
<rect x="872" y="218" width="4" height="15" fill="#2d8a4e"/>
<rect x="876" y="218" width="4" height="15" fill="#e8b83d"/>
<rect x="880" y="218" width="4" height="15" fill="#2d8a4e"/>
<rect x="884" y="218" width="4" height="15" fill="#c9493b"/>
<rect x="888" y="218" width="4" height="15" fill="#e8b83d"/>
<rect x="892" y="218" width="4" height="15" fill="#2d8a4e"/>
<rect x="896" y="218" width="4" height="15" fill="#e8b83d"/>
<rect x="900" y="218" width="4" height="15" fill="#e8b83d"/>
<rect x="904" y="218" width="4" height="15" fill="#e8b83d"/>
<rect x="908" y="218" width="4" height="15" fill="#2d8a4e"/>
<rect x="912" y="218" width="4" height="15" fill="#2d8a4e"/>
<rect x="916" y="218" width="4" height="15" fill="#2d8a4e"/>
<rect x="920" y="218" width="4" height="15" fill="#2d8a4e"/>
<rect x="924" y="218" width="4" height="15" fill="#e8b83d"/>
<rect x="928" y="218" width="4" height="15" fill="#2d8a4e"/>
<rect x="932" y="218" width="4" height="15" fill="#e8b83d"/>
<rect x="936" y="218" width="4" height="15" fill="#e8b83d"/>
<rect x="940" y="218" width="4" height="15" fill="#2d8a4e"/>
<rect x="944" y="218" width="4" height="15" fill="#2d8a4e"/>
<rect x="948" y="218" width="4" height="15" fill="#e8b83d"/>
<rect x="952" y="218" width="4" height="15" fill="#2d8a4e"/>
<rect x="956" y="218" width="4" height="15" fill="#2d8a4e"/>
<rect x="960" y="218" width="4" height="15" fill="#e8b83d"/>
<rect x="964" y="218" width="4" height="15" fill="#2d8a4e"/>
<rect x="968" y="218" width="4" height="15" fill="#2d8a4e"/>
<rect x="972" y="218" width="4" height="15" fill="#e8b83d"/>
<rect x="976" y="218" width="4" height="15" fill="#2d8a4e"/>
<rect x="180" y="234" width="4" height="15" fill="#2d8a4e"/>
<rect x="184" y="234" width="4" height="15" fill="#c9493b"/>
<rect x="188" y="234" width="4" height="15" fill="#2d8a4e"/>
<rect x="192" y="234" width="4" height="15" fill="#2d8a4e"/>
<rect x="196" y="234" width="4" height="15" fill="#e8b83d"/>
<rect x="200" y="234" width="4" height="15" fill="#e8b83d"/>
<rect x="204" y="234" width="4" height="15" fill="#e8b83d"/>
<text x="180" y="261" class="warn">⚠ 6.2.11 → 6.2.17  (10 sections, avg=0.229)</text>
<text x="180" y="275" class="warn">⚠ 6.2.19 → 6.3.1  (7 sections, avg=0.176)</text>
<text x="180" y="289" class="warn">⚠ 6.3.18 → 6.3.21  (4 sections, avg=0.223)</text>
<line x1="20" y1="303" x2="1200" y2="303" stroke="#ccc" stroke-width="1"/>
<text x="20" y="323" class="total">TOTAL: 678 sections   avg=0.496   High=32%   Med=51%   Low=16%</text>
<rect x="20" y="330" width="382.8908554572272" height="10" fill="#2d8a4e" rx="2"/>
<rect x="402.8908554572272" y="330" width="603.9233038348083" height="10" fill="#e8b83d"/>
<rect x="1006.8141592920355" y="330" width="193.18584070796462" height="10" fill="#c9493b" rx="2"/>
</svg>