<svg xmlns="http://www.w3.org/2000/svg" width="1220" height="280" viewBox="0 0 1220 280">
<rect width="1220" height="280" fill="#f5f5f5"/>
<style>
  text { font-family: "SF Mono", "Menlo", "Monaco", monospace; }
  .title { font-size: 16px; font-weight: bold; }
  .subtitle { font-size: 11px; fill: #888; }
  .label { font-size: 11px; fill: #333; }
  .stats { font-size: 10px; fill: #666; }
  .warn { font-size: 9px; fill: #c9493b; }
  .total { font-size: 12px; font-weight: bold; fill: #333; }
  .legend-text { font-size: 10px; fill: #555; }
</style>
<text x="20" y="38" class="title">Alignment Quality Map — Alignment</text>
<rect x="20" y="50" width="12" height="12" fill="#2d8a4e" rx="2"/>
<text x="36" y="60" class="legend-text">High (≥0.6)</text>
<rect x="160" y="50" width="12" height="12" fill="#e8b83d" rx="2"/>
<text x="176" y="60" class="legend-text">Medium (0.3–0.6)</text>
<rect x="300" y="50" width="12" height="12" fill="#c9493b" rx="2"/>
<text x="316" y="60" class="legend-text">Low (&lt;0.3)</text>
<text x="20" y="92" class="label">Book De Mysteriis</text>
<text x="988" y="92" class="stats">n=159  avg=0.444  H=14%  M=65%  L=21%</text>
<rect x="180" y="80" width="4" height="15" fill="#c9493b"/>
<rect x="184" y="80" width="4" height="15" fill="#2d8a4e"/>
<rect x="188" y="80" width="4" height="15" fill="#2d8a4e"/>
<rect x="192" y="80" width="4" height="15" fill="#e8b83d"/>
<rect x="196" y="80" width="4" height="15" fill="#e8b83d"/>
<rect x="200" y="80" width="4" height="15" fill="#c9493b"/>
<rect x="204" y="80" width="4" height="15" fill="#e8b83d"/>
<rect x="208" y="80" width="4" height="15" fill="#e8b83d"/>
<rect x="212" y="80" width="4" height="15" fill="#e8b83d"/>
<rect x="216" y="80" width="4" height="15" fill="#e8b83d"/>
<rect x="220" y="80" width="4" height="15" fill="#e8b83d"/>
<rect x="224" y="80" width="4" height="15" fill="#e8b83d"/>
<rect x="228" y="80" width="4" height="15" fill="#e8b83d"/>
<rect x="232" y="80" width="4" height="15" fill="#2d8a4e"/>
<rect x="236" y="80" width="4" height="15" fill="#e8b83d"/>
<rect x="240" y="80" width="4" height="15" fill="#2d8a4e"/>
<rect x="244" y="80" width="4" height="15" fill="#2d8a4e"/>
<rect x="248" y="80" width="4" height="15" fill="#e8b83d"/>
<rect x="252" y="80" width="4" height="15" fill="#2d8a4e"/>
<rect x="256" y="80" width="4" height="15" fill="#e8b83d"/>
<rect x="260" y="80" width="4" height="15" fill="#e8b83d"/>
<rect x="264" y="80" width="4" height="15" fill="#e8b83d"/>
<rect x="268" y="80" width="4" height="15" fill="#e8b83d"/>
<rect x="272" y="80" width="4" height="15" fill="#c9493b"/>
<rect x="276" y="80" width="4" height="15" fill="#e8b83d"/>
<rect x="280" y="80" width="4" height="15" fill="#e8b83d"/>
<rect x="284" y="80" width="4" height="15" fill="#e8b83d"/>
<rect x="288" y="80" width="4" height="15" fill="#e8b83d"/>
<rect x="292" y="80" width="4" height="15" fill="#e8b83d"/>
<rect x="296" y="80" width="4" height="15" fill="#e8b83d"/>
<rect x="300" y="80" width="4" height="15" fill="#e8b83d"/>
<rect x="304" y="80" width="4" height="15" fill="#e8b83d"/>
<rect x="308" y="80" width="4" height="15" fill="#e8b83d"/>
<rect x="312" y="80" width="4" height="15" fill="#e8b83d"/>
<rect x="316" y="80" width="4" height="15" fill="#e8b83d"/>
<rect x="320" y="80" width="4" height="15" fill="#c9493b"/>
<rect x="324" y="80" width="4" height="15" fill="#e8b83d"/>
<rect x="328" y="80" width="4" height="15" fill="#2d8a4e"/>
<rect x="332" y="80" width="4" height="15" fill="#e8b83d"/>
<rect x="336" y="80" width="4" height="15" fill="#e8b83d"/>
<rect x="340" y="80" width="4" height="15" fill="#2d8a4e"/>
<rect x="344" y="80" width="4" height="15" fill="#e8b83d"/>
<rect x="348" y="80" width="4" height="15" fill="#e8b83d"/>
<rect x="352" y="80" width="4" height="15" fill="#e8b83d"/>
<rect x="356" y="80" width="4" height="15" fill="#2d8a4e"/>
<rect x="360" y="80" width="4" height="15" fill="#2d8a4e"/>
<rect x="364" y="80" width="4" height="15" fill="#c9493b"/>
<rect x="368" y="80" width="4" height="15" fill="#e8b83d"/>
<rect x="372" y="80" width="4" height="15" fill="#c9493b"/>
<rect x="376" y="80" width="4" height="15" fill="#e8b83d"/>
<rect x="380" y="80" width="4" height="15" fill="#e8b83d"/>
<rect x="384" y="80" width="4" height="15" fill="#e8b83d"/>
<rect x="388" y="80" width="4" height="15" fill="#e8b83d"/>
<rect x="392" y="80" width="4" height="15" fill="#e8b83d"/>
<rect x="396" y="80" width="4" height="15" fill="#c9493b"/>
<rect x="400" y="80" width="4" height="15" fill="#c9493b"/>
<rect x="404" y="80" width="4" height="15" fill="#e8b83d"/>
<rect x="408" y="80" width="4" height="15" fill="#2d8a4e"/>
<rect x="412" y="80" width="4" height="15" fill="#c9493b"/>
<rect x="416" y="80" width="4" height="15" fill="#c9493b"/>
<rect x="420" y="80" width="4" height="15" fill="#e8b83d"/>
<rect x="424" y="80" width="4" height="15" fill="#e8b83d"/>
<rect x="428" y="80" width="4" height="15" fill="#e8b83d"/>
<rect x="432" y="80" width="4" height="15" fill="#e8b83d"/>
<rect x="436" y="80" width="4" height="15" fill="#e8b83d"/>
<rect x="440" y="80" width="4" height="15" fill="#2d8a4e"/>
<rect x="444" y="80" width="4" height="15" fill="#e8b83d"/>
<rect x="448" y="80" width="4" height="15" fill="#e8b83d"/>
<rect x="452" y="80" width="4" height="15" fill="#c9493b"/>
<rect x="456" y="80" width="4" height="15" fill="#e8b83d"/>
<rect x="460" y="80" width="4" height="15" fill="#c9493b"/>
<rect x="464" y="80" width="4" height="15" fill="#e8b83d"/>
<rect x="468" y="80" width="4" height="15" fill="#c9493b"/>
<rect x="472" y="80" width="4" height="15" fill="#e8b83d"/>
<rect x="476" y="80" width="4" height="15" fill="#e8b83d"/>
<rect x="480" y="80" width="4" height="15" fill="#e8b83d"/>
<rect x="484" y="80" width="4" height="15" fill="#2d8a4e"/>
<rect x="488" y="80" width="4" height="15" fill="#e8b83d"/>
<rect x="492" y="80" width="4" height="15" fill="#e8b83d"/>
<rect x="496" y="80" width="4" height="15" fill="#e8b83d"/>
<rect x="500" y="80" width="4" height="15" fill="#c9493b"/>
<rect x="504" y="80" width="4" height="15" fill="#e8b83d"/>
<rect x="508" y="80" width="4" height="15" fill="#e8b83d"/>
<rect x="512" y="80" width="4" height="15" fill="#2d8a4e"/>
<rect x="516" y="80" width="4" height="15" fill="#e8b83d"/>
<rect x="520" y="80" width="4" height="15" fill="#c9493b"/>
<rect x="524" y="80" width="4" height="15" fill="#c9493b"/>
<rect x="528" y="80" width="4" height="15" fill="#e8b83d"/>
<rect x="532" y="80" width="4" height="15" fill="#e8b83d"/>
<rect x="536" y="80" width="4" height="15" fill="#c9493b"/>
<rect x="540" y="80" width="4" height="15" fill="#e8b83d"/>
<rect x="544" y="80" width="4" height="15" fill="#e8b83d"/>
<rect x="548" y="80" width="4" height="15" fill="#e8b83d"/>
<rect x="552" y="80" width="4" height="15" fill="#e8b83d"/>
<rect x="556" y="80" width="4" height="15" fill="#c9493b"/>
<rect x="560" y="80" width="4" height="15" fill="#2d8a4e"/>
<rect x="564" y="80" width="4" height="15" fill="#c9493b"/>
<rect x="568" y="80" width="4" height="15" fill="#e8b83d"/>
<rect x="572" y="80" width="4" height="15" fill="#e8b83d"/>
<rect x="576" y="80" width="4" height="15" fill="#e8b83d"/>
<rect x="580" y="80" width="4" height="15" fill="#c9493b"/>
<rect x="584" y="80" width="4" height="15" fill="#2d8a4e"/>
<rect x="588" y="80" width="4" height="15" fill="#c9493b"/>
<rect x="592" y="80" width="4" height="15" fill="#e8b83d"/>
<rect x="596" y="80" width="4" height="15" fill="#e8b83d"/>
<rect x="600" y="80" width="4" height="15" fill="#e8b83d"/>
<rect x="604" y="80" width="4" height="15" fill="#e8b83d"/>
<rect x="608" y="80" width="4" height="15" fill="#e8b83d"/>
<rect x="612" y="80" width="4" height="15" fill="#e8b83d"/>
<rect x="616" y="80" width="4" height="15" fill="#e8b83d"/>
<rect x="620" y="80" width="4" height="15" fill="#e8b83d"/>
<rect x="624" y="80" width="4" height="15" fill="#c9493b"/>
<rect x="628" y="80" width="4" height="15" fill="#e8b83d"/>
<rect x="632" y="80" width="4" height="15" fill="#e8b83d"/>
<rect x="636" y="80" width="4" height="15" fill="#e8b83d"/>
<rect x="640" y="80" width="4" height="15" fill="#c9493b"/>
<rect x="644" y="80" width="4" height="15" fill="#e8b83d"/>
<rect x="648" y="80" width="4" height="15" fill="#e8b83d"/>
<rect x="652" y="80" width="4" height="15" fill="#e8b83d"/>
<rect x="656" y="80" width="4" height="15" fill="#e8b83d"/>
<rect x="660" y="80" width="4" height="15" fill="#2d8a4e"/>
<rect x="664" y="80" width="4" height="15" fill="#e8b83d"/>
<rect x="668" y="80" width="4" height="15" fill="#2d8a4e"/>
<rect x="672" y="80" width="4" height="15" fill="#c9493b"/>
<rect x="676" y="80" width="4" height="15" fill="#2d8a4e"/>
<rect x="680" y="80" width="4" height="15" fill="#e8b83d"/>
<rect x="684" y="80" width="4" height="15" fill="#e8b83d"/>
<rect x="688" y="80" width="4" height="15" fill="#e8b83d"/>
<rect x="692" y="80" width="4" height="15" fill="#e8b83d"/>
<rect x="696" y="80" width="4" height="15" fill="#e8b83d"/>
<rect x="700" y="80" width="4" height="15" fill="#e8b83d"/>
<rect x="704" y="80" width="4" height="15" fill="#e8b83d"/>
<rect x="708" y="80" width="4" height="15" fill="#e8b83d"/>
<rect x="712" y="80" width="4" height="15" fill="#e8b83d"/>
<rect x="716" y="80" width="4" height="15" fill="#c9493b"/>
<rect x="720" y="80" width="4" height="15" fill="#c9493b"/>
<rect x="724" y="80" width="4" height="15" fill="#c9493b"/>
<rect x="728" y="80" width="4" height="15" fill="#e8b83d"/>
<rect x="732" y="80" width="4" height="15" fill="#c9493b"/>
<rect x="736" y="80" width="4" height="15" fill="#e8b83d"/>
<rect x="740" y="80" width="4" height="15" fill="#e8b83d"/>
<rect x="744" y="80" width="4" height="15" fill="#e8b83d"/>
<rect x="748" y="80" width="4" height="15" fill="#e8b83d"/>
<rect x="752" y="80" width="4" height="15" fill="#c9493b"/>
<rect x="756" y="80" width="4" height="15" fill="#c9493b"/>
<rect x="760" y="80" width="4" height="15" fill="#c9493b"/>
<rect x="764" y="80" width="4" height="15" fill="#2d8a4e"/>
<rect x="768" y="80" width="4" height="15" fill="#e8b83d"/>
<rect x="772" y="80" width="4" height="15" fill="#2d8a4e"/>
<rect x="776" y="80" width="4" height="15" fill="#c9493b"/>
<rect x="780" y="80" width="4" height="15" fill="#e8b83d"/>
<rect x="784" y="80" width="4" height="15" fill="#e8b83d"/>
<rect x="788" y="80" width="4" height="15" fill="#e8b83d"/>
<rect x="792" y="80" width="4" height="15" fill="#c9493b"/>
<rect x="796" y="80" width="4" height="15" fill="#e8b83d"/>
<rect x="800" y="80" width="4" height="15" fill="#e8b83d"/>
<rect x="804" y="80" width="4" height="15" fill="#2d8a4e"/>
<rect x="808" y="80" width="4" height="15" fill="#e8b83d"/>
<rect x="812" y="80" width="4" height="15" fill="#2d8a4e"/>
<text x="180" y="107" class="warn">⚠ 8.2 → 8.4  (3 sections, avg=0.235)</text>
<text x="180" y="121" class="warn">⚠ 9.3 → 9.5  (3 sections, avg=0.208)</text>
<text x="20" y="142" class="label">Book De Vita Pythagorica</text>
<text x="988" y="142" class="stats">n=309  avg=0.377  H=16%  M=49%  L=35%</text>
<rect x="180" y="130" width="4" height="15" fill="#c9493b"/>
<rect x="184" y="130" width="4" height="15" fill="#e8b83d"/>
<rect x="188" y="130" width="4" height="15" fill="#c9493b"/>
<rect x="192" y="130" width="4" height="15" fill="#c9493b"/>
<rect x="196" y="130" width="4" height="15" fill="#c9493b"/>
<rect x="200" y="130" width="4" height="15" fill="#e8b83d"/>
<rect x="204" y="130" width="4" height="15" fill="#c9493b"/>
<rect x="208" y="130" width="4" height="15" fill="#c9493b"/>
<rect x="212" y="130" width="4" height="15" fill="#c9493b"/>
<rect x="216" y="130" width="4" height="15" fill="#c9493b"/>
<rect x="220" y="130" width="4" height="15" fill="#c9493b"/>
<rect x="224" y="130" width="4" height="15" fill="#c9493b"/>
<rect x="228" y="130" width="4" height="15" fill="#e8b83d"/>
<rect x="232" y="130" width="4" height="15" fill="#c9493b"/>
<rect x="236" y="130" width="4" height="15" fill="#e8b83d"/>
<rect x="240" y="130" width="4" height="15" fill="#e8b83d"/>
<rect x="244" y="130" width="4" height="15" fill="#e8b83d"/>
<rect x="248" y="130" width="4" height="15" fill="#2d8a4e"/>
<rect x="252" y="130" width="4" height="15" fill="#2d8a4e"/>
<rect x="256" y="130" width="4" height="15" fill="#e8b83d"/>
<rect x="260" y="130" width="4" height="15" fill="#e8b83d"/>
<rect x="264" y="130" width="4" height="15" fill="#e8b83d"/>
<rect x="268" y="130" width="4" height="15" fill="#e8b83d"/>
<rect x="272" y="130" width="4" height="15" fill="#c9493b"/>
<rect x="276" y="130" width="4" height="15" fill="#e8b83d"/>
<rect x="280" y="130" width="4" height="15" fill="#2d8a4e"/>
<rect x="284" y="130" width="4" height="15" fill="#e8b83d"/>
<rect x="288" y="130" width="4" height="15" fill="#2d8a4e"/>
<rect x="292" y="130" width="4" height="15" fill="#e8b83d"/>
<rect x="296" y="130" width="4" height="15" fill="#e8b83d"/>
<rect x="300" y="130" width="4" height="15" fill="#e8b83d"/>
<rect x="304" y="130" width="4" height="15" fill="#2d8a4e"/>
<rect x="308" y="130" width="4" height="15" fill="#e8b83d"/>
<rect x="312" y="130" width="4" height="15" fill="#c9493b"/>
<rect x="316" y="130" width="4" height="15" fill="#c9493b"/>
<rect x="320" y="130" width="4" height="15" fill="#e8b83d"/>
<rect x="324" y="130" width="4" height="15" fill="#c9493b"/>
<rect x="328" y="130" width="4" height="15" fill="#e8b83d"/>
<rect x="332" y="130" width="4" height="15" fill="#c9493b"/>
<rect x="336" y="130" width="4" height="15" fill="#c9493b"/>
<rect x="340" y="130" width="4" height="15" fill="#c9493b"/>
<rect x="344" y="130" width="4" height="15" fill="#c9493b"/>
<rect x="348" y="130" width="4" height="15" fill="#2d8a4e"/>
<rect x="352" y="130" width="4" height="15" fill="#2d8a4e"/>
<rect x="356" y="130" width="4" height="15" fill="#2d8a4e"/>
<rect x="360" y="130" width="4" height="15" fill="#2d8a4e"/>
<rect x="364" y="130" width="4" height="15" fill="#e8b83d"/>
<rect x="368" y="130" width="4" height="15" fill="#e8b83d"/>
<rect x="372" y="130" width="4" height="15" fill="#e8b83d"/>
<rect x="376" y="130" width="4" height="15" fill="#e8b83d"/>
<rect x="380" y="130" width="4" height="15" fill="#e8b83d"/>
<rect x="384" y="130" width="4" height="15" fill="#2d8a4e"/>
<rect x="388" y="130" width="4" height="15" fill="#2d8a4e"/>
<rect x="392" y="130" width="4" height="15" fill="#2d8a4e"/>
<rect x="396" y="130" width="4" height="15" fill="#2d8a4e"/>
<rect x="400" y="130" width="4" height="15" fill="#e8b83d"/>
<rect x="404" y="130" width="4" height="15" fill="#2d8a4e"/>
<rect x="408" y="130" width="4" height="15" fill="#2d8a4e"/>
<rect x="412" y="130" width="4" height="15" fill="#2d8a4e"/>
<rect x="416" y="130" width="4" height="15" fill="#2d8a4e"/>
<rect x="420" y="130" width="4" height="15" fill="#e8b83d"/>
<rect x="424" y="130" width="4" height="15" fill="#2d8a4e"/>
<rect x="428" y="130" width="4" height="15" fill="#2d8a4e"/>
<rect x="432" y="130" width="4" height="15" fill="#e8b83d"/>
<rect x="436" y="130" width="4" height="15" fill="#2d8a4e"/>
<rect x="440" y="130" width="4" height="15" fill="#2d8a4e"/>
<rect x="444" y="130" width="4" height="15" fill="#e8b83d"/>
<rect x="448" y="130" width="4" height="15" fill="#c9493b"/>
<rect x="452" y="130" width="4" height="15" fill="#c9493b"/>
<rect x="456" y="130" width="4" height="15" fill="#e8b83d"/>
<rect x="460" y="130" width="4" height="15" fill="#e8b83d"/>
<rect x="464" y="130" width="4" height="15" fill="#2d8a4e"/>
<rect x="468" y="130" width="4" height="15" fill="#c9493b"/>
<rect x="472" y="130" width="4" height="15" fill="#e8b83d"/>
<rect x="476" y="130" width="4" height="15" fill="#c9493b"/>
<rect x="480" y="130" width="4" height="15" fill="#e8b83d"/>
<rect x="484" y="130" width="4" height="15" fill="#c9493b"/>
<rect x="488" y="130" width="4" height="15" fill="#c9493b"/>
<rect x="492" y="130" width="4" height="15" fill="#c9493b"/>
<rect x="496" y="130" width="4" height="15" fill="#c9493b"/>
<rect x="500" y="130" width="4" height="15" fill="#c9493b"/>
<rect x="504" y="130" width="4" height="15" fill="#c9493b"/>
<rect x="508" y="130" width="4" height="15" fill="#c9493b"/>
<rect x="512" y="130" width="4" height="15" fill="#e8b83d"/>
<rect x="516" y="130" width="4" height="15" fill="#e8b83d"/>
<rect x="520" y="130" width="4" height="15" fill="#e8b83d"/>
<rect x="524" y="130" width="4" height="15" fill="#e8b83d"/>
<rect x="528" y="130" width="4" height="15" fill="#c9493b"/>
<rect x="532" y="130" width="4" height="15" fill="#e8b83d"/>
<rect x="536" y="130" width="4" height="15" fill="#e8b83d"/>
<rect x="540" y="130" width="4" height="15" fill="#e8b83d"/>
<rect x="544" y="130" width="4" height="15" fill="#2d8a4e"/>
<rect x="548" y="130" width="4" height="15" fill="#e8b83d"/>
<rect x="552" y="130" width="4" height="15" fill="#2d8a4e"/>
<rect x="556" y="130" width="4" height="15" fill="#e8b83d"/>
<rect x="560" y="130" width="4" height="15" fill="#e8b83d"/>
<rect x="564" y="130" width="4" height="15" fill="#e8b83d"/>
<rect x="568" y="130" width="4" height="15" fill="#2d8a4e"/>
<rect x="572" y="130" width="4" height="15" fill="#e8b83d"/>
<rect x="576" y="130" width="4" height="15" fill="#e8b83d"/>
<rect x="580" y="130" width="4" height="15" fill="#e8b83d"/>
<rect x="584" y="130" width="4" height="15" fill="#2d8a4e"/>
<rect x="588" y="130" width="4" height="15" fill="#e8b83d"/>
<rect x="592" y="130" width="4" height="15" fill="#e8b83d"/>
<rect x="596" y="130" width="4" height="15" fill="#c9493b"/>
<rect x="600" y="130" width="4" height="15" fill="#e8b83d"/>
<rect x="604" y="130" width="4" height="15" fill="#c9493b"/>
<rect x="608" y="130" width="4" height="15" fill="#c9493b"/>
<rect x="612" y="130" width="4" height="15" fill="#c9493b"/>
<rect x="616" y="130" width="4" height="15" fill="#2d8a4e"/>
<rect x="620" y="130" width="4" height="15" fill="#e8b83d"/>
<rect x="624" y="130" width="4" height="15" fill="#2d8a4e"/>
<rect x="628" y="130" width="4" height="15" fill="#e8b83d"/>
<rect x="632" y="130" width="4" height="15" fill="#e8b83d"/>
<rect x="636" y="130" width="4" height="15" fill="#e8b83d"/>
<rect x="640" y="130" width="4" height="15" fill="#e8b83d"/>
<rect x="644" y="130" width="4" height="15" fill="#e8b83d"/>
<rect x="648" y="130" width="4" height="15" fill="#2d8a4e"/>
<rect x="652" y="130" width="4" height="15" fill="#2d8a4e"/>
<rect x="656" y="130" width="4" height="15" fill="#2d8a4e"/>
<rect x="660" y="130" width="4" height="15" fill="#e8b83d"/>
<rect x="664" y="130" width="4" height="15" fill="#e8b83d"/>
<rect x="668" y="130" width="4" height="15" fill="#e8b83d"/>
<rect x="672" y="130" width="4" height="15" fill="#2d8a4e"/>
<rect x="676" y="130" width="4" height="15" fill="#2d8a4e"/>
<rect x="680" y="130" width="4" height="15" fill="#2d8a4e"/>
<rect x="684" y="130" width="4" height="15" fill="#e8b83d"/>
<rect x="688" y="130" width="4" height="15" fill="#e8b83d"/>
<rect x="692" y="130" width="4" height="15" fill="#2d8a4e"/>
<rect x="696" y="130" width="4" height="15" fill="#e8b83d"/>
<rect x="700" y="130" width="4" height="15" fill="#c9493b"/>
<rect x="704" y="130" width="4" height="15" fill="#e8b83d"/>
<rect x="708" y="130" width="4" height="15" fill="#c9493b"/>
<rect x="712" y="130" width="4" height="15" fill="#e8b83d"/>
<rect x="716" y="130" width="4" height="15" fill="#e8b83d"/>
<rect x="720" y="130" width="4" height="15" fill="#e8b83d"/>
<rect x="724" y="130" width="4" height="15" fill="#e8b83d"/>
<rect x="728" y="130" width="4" height="15" fill="#e8b83d"/>
<rect x="732" y="130" width="4" height="15" fill="#e8b83d"/>
<rect x="736" y="130" width="4" height="15" fill="#c9493b"/>
<rect x="740" y="130" width="4" height="15" fill="#c9493b"/>
<rect x="744" y="130" width="4" height="15" fill="#e8b83d"/>
<rect x="748" y="130" width="4" height="15" fill="#e8b83d"/>
<rect x="752" y="130" width="4" height="15" fill="#2d8a4e"/>
<rect x="756" y="130" width="4" height="15" fill="#e8b83d"/>
<rect x="760" y="130" width="4" height="15" fill="#e8b83d"/>
<rect x="764" y="130" width="4" height="15" fill="#2d8a4e"/>
<rect x="768" y="130" width="4" height="15" fill="#e8b83d"/>
<rect x="772" y="130" width="4" height="15" fill="#e8b83d"/>
<rect x="776" y="130" width="4" height="15" fill="#e8b83d"/>
<rect x="780" y="130" width="4" height="15" fill="#e8b83d"/>
<rect x="784" y="130" width="4" height="15" fill="#e8b83d"/>
<rect x="788" y="130" width="4" height="15" fill="#c9493b"/>
<rect x="792" y="130" width="4" height="15" fill="#e8b83d"/>
<rect x="796" y="130" width="4" height="15" fill="#e8b83d"/>
<rect x="800" y="130" width="4" height="15" fill="#e8b83d"/>
<rect x="804" y="130" width="4" height="15" fill="#2d8a4e"/>
<rect x="808" y="130" width="4" height="15" fill="#e8b83d"/>
<rect x="812" y="130" width="4" height="15" fill="#2d8a4e"/>
<rect x="816" y="130" width="4" height="15" fill="#e8b83d"/>
<rect x="820" y="130" width="4" height="15" fill="#2d8a4e"/>
<rect x="824" y="130" width="4" height="15" fill="#e8b83d"/>
<rect x="828" y="130" width="4" height="15" fill="#2d8a4e"/>
<rect x="832" y="130" width="4" height="15" fill="#e8b83d"/>
<rect x="836" y="130" width="4" height="15" fill="#c9493b"/>
<rect x="840" y="130" width="4" height="15" fill="#e8b83d"/>
<rect x="844" y="130" width="4" height="15" fill="#e8b83d"/>
<rect x="848" y="130" width="4" height="15" fill="#e8b83d"/>
<rect x="852" y="130" width="4" height="15" fill="#c9493b"/>
<rect x="856" y="130" width="4" height="15" fill="#c9493b"/>
<rect x="860" y="130" width="4" height="15" fill="#e8b83d"/>
<rect x="864" y="130" width="4" height="15" fill="#c9493b"/>
<rect x="868" y="130" width="4" height="15" fill="#e8b83d"/>
<rect x="872" y="130" width="4" height="15" fill="#2d8a4e"/>
<rect x="876" y="130" width="4" height="15" fill="#e8b83d"/>
<rect x="880" y="130" width="4" height="15" fill="#c9493b"/>
<rect x="884" y="130" width="4" height="15" fill="#e8b83d"/>
<rect x="888" y="130" width="4" height="15" fill="#2d8a4e"/>
<rect x="892" y="130" width="4" height="15" fill="#c9493b"/>
<rect x="896" y="130" width="4" height="15" fill="#c9493b"/>
<rect x="900" y="130" width="4" height="15" fill="#c9493b"/>
<rect x="904" y="130" width="4" height="15" fill="#c9493b"/>
<rect x="908" y="130" width="4" height="15" fill="#c9493b"/>
<rect x="912" y="130" width="4" height="15" fill="#e8b83d"/>
<rect x="916" y="130" width="4" height="15" fill="#e8b83d"/>
<rect x="920" y="130" width="4" height="15" fill="#c9493b"/>
<rect x="924" y="130" width="4" height="15" fill="#c9493b"/>
<rect x="928" y="130" width="4" height="15" fill="#e8b83d"/>
<rect x="932" y="130" width="4" height="15" fill="#e8b83d"/>
<rect x="936" y="130" width="4" height="15" fill="#e8b83d"/>
<rect x="940" y="130" width="4" height="15" fill="#c9493b"/>
<rect x="944" y="130" width="4" height="15" fill="#e8b83d"/>
<rect x="948" y="130" width="4" height="15" fill="#c9493b"/>
<rect x="952" y="130" width="4" height="15" fill="#c9493b"/>
<rect x="956" y="130" width="4" height="15" fill="#e8b83d"/>
<rect x="960" y="130" width="4" height="15" fill="#e8b83d"/>
<rect x="964" y="130" width="4" height="15" fill="#c9493b"/>
<rect x="968" y="130" width="4" height="15" fill="#2d8a4e"/>
<rect x="972" y="130" width="4" height="15" fill="#e8b83d"/>
<rect x="976" y="130" width="4" height="15" fill="#e8b83d"/>
<rect x="180" y="146" width="4" height="15" fill="#e8b83d"/>
<rect x="184" y="146" width="4" height="15" fill="#e8b83d"/>
<rect x="188" y="146" width="4" height="15" fill="#e8b83d"/>
<rect x="192" y="146" width="4" height="15" fill="#2d8a4e"/>
<rect x="196" y="146" width="4" height="15" fill="#e8b83d"/>
<rect x="200" y="146" width="4" height="15" fill="#e8b83d"/>
<rect x="204" y="146" width="4" height="15" fill="#e8b83d"/>
<rect x="208" y="146" width="4" height="15" fill="#e8b83d"/>
<rect x="212" y="146" width="4" height="15" fill="#c9493b"/>
<rect x="216" y="146" width="4" height="15" fill="#e8b83d"/>
<rect x="220" y="146" width="4" height="15" fill="#c9493b"/>
<rect x="224" y="146" width="4" height="15" fill="#e8b83d"/>
<rect x="228" y="146" width="4" height="15" fill="#c9493b"/>
<rect x="232" y="146" width="4" height="15" fill="#c9493b"/>
<rect x="236" y="146" width="4" height="15" fill="#2d8a4e"/>
<rect x="240" y="146" width="4" height="15" fill="#e8b83d"/>
<rect x="244" y="146" width="4" height="15" fill="#c9493b"/>
<rect x="248" y="146" width="4" height="15" fill="#c9493b"/>
<rect x="252" y="146" width="4" height="15" fill="#e8b83d"/>
<rect x="256" y="146" width="4" height="15" fill="#c9493b"/>
<rect x="260" y="146" width="4" height="15" fill="#e8b83d"/>
<rect x="264" y="146" width="4" height="15" fill="#c9493b"/>
<rect x="268" y="146" width="4" height="15" fill="#c9493b"/>
<rect x="272" y="146" width="4" height="15" fill="#e8b83d"/>
<rect x="276" y="146" width="4" height="15" fill="#2d8a4e"/>
<rect x="280" y="146" width="4" height="15" fill="#c9493b"/>
<rect x="284" y="146" width="4" height="15" fill="#e8b83d"/>
<rect x="288" y="146" width="4" height="15" fill="#c9493b"/>
<rect x="292" y="146" width="4" height="15" fill="#e8b83d"/>
<rect x="296" y="146" width="4" height="15" fill="#c9493b"/>
<rect x="300" y="146" width="4" height="15" fill="#c9493b"/>
<rect x="304" y="146" width="4" height="15" fill="#c9493b"/>
<rect x="308" y="146" width="4" height="15" fill="#c9493b"/>
<rect x="312" y="146" width="4" height="15" fill="#c9493b"/>
<rect x="316" y="146" width="4" height="15" fill="#c9493b"/>
<rect x="320" y="146" width="4" height="15" fill="#e8b83d"/>
<rect x="324" y="146" width="4" height="15" fill="#e8b83d"/>
<rect x="328" y="146" width="4" height="15" fill="#c9493b"/>
<rect x="332" y="146" width="4" height="15" fill="#e8b83d"/>
<rect x="336" y="146" width="4" height="15" fill="#e8b83d"/>
<rect x="340" y="146" width="4" height="15" fill="#e8b83d"/>
<rect x="344" y="146" width="4" height="15" fill="#e8b83d"/>
<rect x="348" y="146" width="4" height="15" fill="#e8b83d"/>
<rect x="352" y="146" width="4" height="15" fill="#e8b83d"/>
<rect x="356" y="146" width="4" height="15" fill="#c9493b"/>
<rect x="360" y="146" width="4" height="15" fill="#e8b83d"/>
<rect x="364" y="146" width="4" height="15" fill="#e8b83d"/>
<rect x="368" y="146" width="4" height="15" fill="#e8b83d"/>
<rect x="372" y="146" width="4" height="15" fill="#c9493b"/>
<rect x="376" y="146" width="4" height="15" fill="#e8b83d"/>
<rect x="380" y="146" width="4" height="15" fill="#c9493b"/>
<rect x="384" y="146" width="4" height="15" fill="#e8b83d"/>
<rect x="388" y="146" width="4" height="15" fill="#e8b83d"/>
<rect x="392" y="146" width="4" height="15" fill="#e8b83d"/>
<rect x="396" y="146" width="4" height="15" fill="#e8b83d"/>
<rect x="400" y="146" width="4" height="15" fill="#e8b83d"/>
<rect x="404" y="146" width="4" height="15" fill="#e8b83d"/>
<rect x="408" y="146" width="4" height="15" fill="#c9493b"/>
<rect x="412" y="146" width="4" height="15" fill="#c9493b"/>
<rect x="416" y="146" width="4" height="15" fill="#c9493b"/>
<rect x="420" y="146" width="4" height="15" fill="#e8b83d"/>
<rect x="424" y="146" width="4" height="15" fill="#c9493b"/>
<rect x="428" y="146" width="4" height="15" fill="#e8b83d"/>
<rect x="432" y="146" width="4" height="15" fill="#e8b83d"/>
<rect x="436" y="146" width="4" height="15" fill="#c9493b"/>
<rect x="440" y="146" width="4" height="15" fill="#c9493b"/>
<rect x="444" y="146" width="4" height="15" fill="#c9493b"/>
<rect x="448" y="146" width="4" height="15" fill="#c9493b"/>
<rect x="452" y="146" width="4" height="15" fill="#2d8a4e"/>
<rect x="456" y="146" width="4" height="15" fill="#e8b83d"/>
<rect x="460" y="146" width="4" height="15" fill="#2d8a4e"/>
<rect x="464" y="146" width="4" height="15" fill="#c9493b"/>
<rect x="468" y="146" width="4" height="15" fill="#c9493b"/>
<rect x="472" y="146" width="4" height="15" fill="#c9493b"/>
<rect x="476" y="146" width="4" height="15" fill="#c9493b"/>
<rect x="480" y="146" width="4" height="15" fill="#c9493b"/>
<rect x="484" y="146" width="4" height="15" fill="#c9493b"/>
<rect x="488" y="146" width="4" height="15" fill="#c9493b"/>
<rect x="492" y="146" width="4" height="15" fill="#c9493b"/>
<rect x="496" y="146" width="4" height="15" fill="#c9493b"/>
<rect x="500" y="146" width="4" height="15" fill="#e8b83d"/>
<rect x="504" y="146" width="4" height="15" fill="#e8b83d"/>
<rect x="508" y="146" width="4" height="15" fill="#c9493b"/>
<rect x="512" y="146" width="4" height="15" fill="#e8b83d"/>
<rect x="516" y="146" width="4" height="15" fill="#e8b83d"/>
<rect x="520" y="146" width="4" height="15" fill="#c9493b"/>
<rect x="524" y="146" width="4" height="15" fill="#c9493b"/>
<rect x="528" y="146" width="4" height="15" fill="#e8b83d"/>
<rect x="532" y="146" width="4" height="15" fill="#e8b83d"/>
<rect x="536" y="146" width="4" height="15" fill="#c9493b"/>
<rect x="540" y="146" width="4" height="15" fill="#e8b83d"/>
<rect x="544" y="146" width="4" height="15" fill="#c9493b"/>
<rect x="548" y="146" width="4" height="15" fill="#c9493b"/>
<rect x="552" y="146" width="4" height="15" fill="#c9493b"/>
<rect x="556" y="146" width="4" height="15" fill="#c9493b"/>
<rect x="560" y="146" width="4" height="15" fill="#e8b83d"/>
<rect x="564" y="146" width="4" height="15" fill="#e8b83d"/>
<rect x="568" y="146" width="4" height="15" fill="#c9493b"/>
<rect x="572" y="146" width="4" height="15" fill="#c9493b"/>
<rect x="576" y="146" width="4" height="15" fill="#e8b83d"/>
<rect x="580" y="146" width="4" height="15" fill="#c9493b"/>
<rect x="584" y="146" width="4" height="15" fill="#c9493b"/>
<rect x="588" y="146" width="4" height="15" fill="#e8b83d"/>
<rect x="592" y="146" width="4" height="15" fill="#c9493b"/>
<rect x="596" y="146" width="4" height="15" fill="#e8b83d"/>
<rect x="600" y="146" width="4" height="15" fill="#c9493b"/>
<rect x="604" y="146" width="4" height="15" fill="#e8b83d"/>
<rect x="608" y="146" width="4" height="15" fill="#c9493b"/>
<rect x="612" y="146" width="4" height="15" fill="#e8b83d"/>
<text x="180" y="173" class="warn">⚠ 33.231 → 33.239  (9 sections, avg=0.161)</text>
<text x="180" y="187" class="warn">⚠ 8.39 → 9.45  (7 sections, avg=0.175)</text>
<text x="180" y="201" class="warn">⚠ 0.7 → 0.12  (6 sections, avg=0.006)</text>
<line x1="20" y1="215" x2="1200" y2="215" stroke="#ccc" stroke-width="1"/>
<text x="20" y="235" class="total">TOTAL: 468 sections   avg=0.400   High=15%   Med=54%   Low=30%</text>
<rect x="20" y="242" width="181.53846153846155" height="10" fill="#2d8a4e" rx="2"/>
<rect x="201.53846153846155" y="242" width="640.4273504273503" height="10" fill="#e8b83d"/>
<rect x="841.9658119658119" y="242" width="358.034188034188" height="10" fill="#c9493b" rx="2"/>
</svg>