<svg xmlns="http://www.w3.org/2000/svg" width="1220" height="354" viewBox="0 0 1220 354">
<rect width="1220" height="354" fill="#f5f5f5"/>
<style>
  text { font-family: "SF Mono", "Menlo", "Monaco", monospace; }
  .title { font-size: 16px; font-weight: bold; }
  .subtitle { font-size: 11px; fill: #888; }
  .label { font-size: 11px; fill: #333; }
  .stats { font-size: 10px; fill: #666; }
  .warn { font-size: 9px; fill: #c9493b; }
  .total { font-size: 12px; font-weight: bold; fill: #333; }
  .legend-text { font-size: 10px; fill: #555; }
</style>
<text x="20" y="38" class="title">Alignment Quality Map — Alignment</text>
<rect x="20" y="50" width="12" height="12" fill="#2d8a4e" rx="2"/>
<text x="36" y="60" class="legend-text">High (≥0.6)</text>
<rect x="160" y="50" width="12" height="12" fill="#e8b83d" rx="2"/>
<text x="176" y="60" class="legend-text">Medium (0.3–0.6)</text>
<rect x="300" y="50" width="12" height="12" fill="#c9493b" rx="2"/>
<text x="316" y="60" class="legend-text">Low (&lt;0.3)</text>
<text x="20" y="92" class="label">Book 1</text>
<text x="988" y="92" class="stats">n=86  avg=0.579  H=42%  M=57%  L=1%</text>
<rect x="180" y="80" width="4" height="15" fill="#e8b83d"/>
<rect x="184" y="80" width="4" height="15" fill="#e8b83d"/>
<rect x="188" y="80" width="4" height="15" fill="#e8b83d"/>
<rect x="192" y="80" width="4" height="15" fill="#e8b83d"/>
<rect x="196" y="80" width="4" height="15" fill="#e8b83d"/>
<rect x="200" y="80" width="4" height="15" fill="#e8b83d"/>
<rect x="204" y="80" width="4" height="15" fill="#e8b83d"/>
<rect x="208" y="80" width="4" height="15" fill="#e8b83d"/>
<rect x="212" y="80" width="4" height="15" fill="#2d8a4e"/>
<rect x="216" y="80" width="4" height="15" fill="#2d8a4e"/>
<rect x="220" y="80" width="4" height="15" fill="#e8b83d"/>
<rect x="224" y="80" width="4" height="15" fill="#e8b83d"/>
<rect x="228" y="80" width="4" height="15" fill="#2d8a4e"/>
<rect x="232" y="80" width="4" height="15" fill="#2d8a4e"/>
<rect x="236" y="80" width="4" height="15" fill="#e8b83d"/>
<rect x="240" y="80" width="4" height="15" fill="#e8b83d"/>
<rect x="244" y="80" width="4" height="15" fill="#e8b83d"/>
<rect x="248" y="80" width="4" height="15" fill="#e8b83d"/>
<rect x="252" y="80" width="4" height="15" fill="#2d8a4e"/>
<rect x="256" y="80" width="4" height="15" fill="#e8b83d"/>
<rect x="260" y="80" width="4" height="15" fill="#e8b83d"/>
<rect x="264" y="80" width="4" height="15" fill="#e8b83d"/>
<rect x="268" y="80" width="4" height="15" fill="#e8b83d"/>
<rect x="272" y="80" width="4" height="15" fill="#e8b83d"/>
<rect x="276" y="80" width="4" height="15" fill="#e8b83d"/>
<rect x="280" y="80" width="4" height="15" fill="#e8b83d"/>
<rect x="284" y="80" width="4" height="15" fill="#e8b83d"/>
<rect x="288" y="80" width="4" height="15" fill="#e8b83d"/>
<rect x="292" y="80" width="4" height="15" fill="#e8b83d"/>
<rect x="296" y="80" width="4" height="15" fill="#e8b83d"/>
<rect x="300" y="80" width="4" height="15" fill="#e8b83d"/>
<rect x="304" y="80" width="4" height="15" fill="#e8b83d"/>
<rect x="308" y="80" width="4" height="15" fill="#e8b83d"/>
<rect x="312" y="80" width="4" height="15" fill="#e8b83d"/>
<rect x="316" y="80" width="4" height="15" fill="#2d8a4e"/>
<rect x="320" y="80" width="4" height="15" fill="#2d8a4e"/>
<rect x="324" y="80" width="4" height="15" fill="#2d8a4e"/>
<rect x="328" y="80" width="4" height="15" fill="#2d8a4e"/>
<rect x="332" y="80" width="4" height="15" fill="#e8b83d"/>
<rect x="336" y="80" width="4" height="15" fill="#2d8a4e"/>
<rect x="340" y="80" width="4" height="15" fill="#e8b83d"/>
<rect x="344" y="80" width="4" height="15" fill="#c9493b"/>
<rect x="348" y="80" width="4" height="15" fill="#2d8a4e"/>
<rect x="352" y="80" width="4" height="15" fill="#2d8a4e"/>
<rect x="356" y="80" width="4" height="15" fill="#2d8a4e"/>
<rect x="360" y="80" width="4" height="15" fill="#2d8a4e"/>
<rect x="364" y="80" width="4" height="15" fill="#2d8a4e"/>
<rect x="368" y="80" width="4" height="15" fill="#2d8a4e"/>
<rect x="372" y="80" width="4" height="15" fill="#2d8a4e"/>
<rect x="376" y="80" width="4" height="15" fill="#2d8a4e"/>
<rect x="380" y="80" width="4" height="15" fill="#2d8a4e"/>
<rect x="384" y="80" width="4" height="15" fill="#2d8a4e"/>
<rect x="388" y="80" width="4" height="15" fill="#2d8a4e"/>
<rect x="392" y="80" width="4" height="15" fill="#2d8a4e"/>
<rect x="396" y="80" width="4" height="15" fill="#2d8a4e"/>
<rect x="400" y="80" width="4" height="15" fill="#2d8a4e"/>
<rect x="404" y="80" width="4" height="15" fill="#2d8a4e"/>
<rect x="408" y="80" width="4" height="15" fill="#2d8a4e"/>
<rect x="412" y="80" width="4" height="15" fill="#e8b83d"/>
<rect x="416" y="80" width="4" height="15" fill="#e8b83d"/>
<rect x="420" y="80" width="4" height="15" fill="#2d8a4e"/>
<rect x="424" y="80" width="4" height="15" fill="#2d8a4e"/>
<rect x="428" y="80" width="4" height="15" fill="#2d8a4e"/>
<rect x="432" y="80" width="4" height="15" fill="#2d8a4e"/>
<rect x="436" y="80" width="4" height="15" fill="#e8b83d"/>
<rect x="440" y="80" width="4" height="15" fill="#e8b83d"/>
<rect x="444" y="80" width="4" height="15" fill="#2d8a4e"/>
<rect x="448" y="80" width="4" height="15" fill="#2d8a4e"/>
<rect x="452" y="80" width="4" height="15" fill="#2d8a4e"/>
<rect x="456" y="80" width="4" height="15" fill="#e8b83d"/>
<rect x="460" y="80" width="4" height="15" fill="#2d8a4e"/>
<rect x="464" y="80" width="4" height="15" fill="#e8b83d"/>
<rect x="468" y="80" width="4" height="15" fill="#2d8a4e"/>
<rect x="472" y="80" width="4" height="15" fill="#e8b83d"/>
<rect x="476" y="80" width="4" height="15" fill="#e8b83d"/>
<rect x="480" y="80" width="4" height="15" fill="#2d8a4e"/>
<rect x="484" y="80" width="4" height="15" fill="#e8b83d"/>
<rect x="488" y="80" width="4" height="15" fill="#e8b83d"/>
<rect x="492" y="80" width="4" height="15" fill="#e8b83d"/>
<rect x="496" y="80" width="4" height="15" fill="#e8b83d"/>
<rect x="500" y="80" width="4" height="15" fill="#e8b83d"/>
<rect x="504" y="80" width="4" height="15" fill="#e8b83d"/>
<rect x="508" y="80" width="4" height="15" fill="#e8b83d"/>
<rect x="512" y="80" width="4" height="15" fill="#e8b83d"/>
<rect x="516" y="80" width="4" height="15" fill="#e8b83d"/>
<rect x="520" y="80" width="4" height="15" fill="#e8b83d"/>
<text x="20" y="114" class="label">Book 2</text>
<text x="988" y="114" class="stats">n=77  avg=0.639  H=65%  M=35%  L=0%</text>
<rect x="180" y="102" width="4" height="15" fill="#e8b83d"/>
<rect x="184" y="102" width="4" height="15" fill="#2d8a4e"/>
<rect x="188" y="102" width="4" height="15" fill="#e8b83d"/>
<rect x="192" y="102" width="4" height="15" fill="#e8b83d"/>
<rect x="196" y="102" width="4" height="15" fill="#2d8a4e"/>
<rect x="200" y="102" width="4" height="15" fill="#e8b83d"/>
<rect x="204" y="102" width="4" height="15" fill="#e8b83d"/>
<rect x="208" y="102" width="4" height="15" fill="#2d8a4e"/>
<rect x="212" y="102" width="4" height="15" fill="#2d8a4e"/>
<rect x="216" y="102" width="4" height="15" fill="#e8b83d"/>
<rect x="220" y="102" width="4" height="15" fill="#2d8a4e"/>
<rect x="224" y="102" width="4" height="15" fill="#2d8a4e"/>
<rect x="228" y="102" width="4" height="15" fill="#2d8a4e"/>
<rect x="232" y="102" width="4" height="15" fill="#2d8a4e"/>
<rect x="236" y="102" width="4" height="15" fill="#2d8a4e"/>
<rect x="240" y="102" width="4" height="15" fill="#e8b83d"/>
<rect x="244" y="102" width="4" height="15" fill="#e8b83d"/>
<rect x="248" y="102" width="4" height="15" fill="#e8b83d"/>
<rect x="252" y="102" width="4" height="15" fill="#e8b83d"/>
<rect x="256" y="102" width="4" height="15" fill="#e8b83d"/>
<rect x="260" y="102" width="4" height="15" fill="#e8b83d"/>
<rect x="264" y="102" width="4" height="15" fill="#e8b83d"/>
<rect x="268" y="102" width="4" height="15" fill="#e8b83d"/>
<rect x="272" y="102" width="4" height="15" fill="#e8b83d"/>
<rect x="276" y="102" width="4" height="15" fill="#e8b83d"/>
<rect x="280" y="102" width="4" height="15" fill="#e8b83d"/>
<rect x="284" y="102" width="4" height="15" fill="#e8b83d"/>
<rect x="288" y="102" width="4" height="15" fill="#e8b83d"/>
<rect x="292" y="102" width="4" height="15" fill="#e8b83d"/>
<rect x="296" y="102" width="4" height="15" fill="#2d8a4e"/>
<rect x="300" y="102" width="4" height="15" fill="#2d8a4e"/>
<rect x="304" y="102" width="4" height="15" fill="#2d8a4e"/>
<rect x="308" y="102" width="4" height="15" fill="#2d8a4e"/>
<rect x="312" y="102" width="4" height="15" fill="#2d8a4e"/>
<rect x="316" y="102" width="4" height="15" fill="#2d8a4e"/>
<rect x="320" y="102" width="4" height="15" fill="#2d8a4e"/>
<rect x="324" y="102" width="4" height="15" fill="#2d8a4e"/>
<rect x="328" y="102" width="4" height="15" fill="#2d8a4e"/>
<rect x="332" y="102" width="4" height="15" fill="#2d8a4e"/>
<rect x="336" y="102" width="4" height="15" fill="#2d8a4e"/>
<rect x="340" y="102" width="4" height="15" fill="#2d8a4e"/>
<rect x="344" y="102" width="4" height="15" fill="#2d8a4e"/>
<rect x="348" y="102" width="4" height="15" fill="#2d8a4e"/>
<rect x="352" y="102" width="4" height="15" fill="#2d8a4e"/>
<rect x="356" y="102" width="4" height="15" fill="#2d8a4e"/>
<rect x="360" y="102" width="4" height="15" fill="#e8b83d"/>
<rect x="364" y="102" width="4" height="15" fill="#2d8a4e"/>
<rect x="368" y="102" width="4" height="15" fill="#2d8a4e"/>
<rect x="372" y="102" width="4" height="15" fill="#2d8a4e"/>
<rect x="376" y="102" width="4" height="15" fill="#2d8a4e"/>
<rect x="380" y="102" width="4" height="15" fill="#2d8a4e"/>
<rect x="384" y="102" width="4" height="15" fill="#2d8a4e"/>
<rect x="388" y="102" width="4" height="15" fill="#2d8a4e"/>
<rect x="392" y="102" width="4" height="15" fill="#2d8a4e"/>
<rect x="396" y="102" width="4" height="15" fill="#2d8a4e"/>
<rect x="400" y="102" width="4" height="15" fill="#2d8a4e"/>
<rect x="404" y="102" width="4" height="15" fill="#2d8a4e"/>
<rect x="408" y="102" width="4" height="15" fill="#2d8a4e"/>
<rect x="412" y="102" width="4" height="15" fill="#2d8a4e"/>
<rect x="416" y="102" width="4" height="15" fill="#e8b83d"/>
<rect x="420" y="102" width="4" height="15" fill="#2d8a4e"/>
<rect x="424" y="102" width="4" height="15" fill="#2d8a4e"/>
<rect x="428" y="102" width="4" height="15" fill="#e8b83d"/>
<rect x="432" y="102" width="4" height="15" fill="#2d8a4e"/>
<rect x="436" y="102" width="4" height="15" fill="#2d8a4e"/>
<rect x="440" y="102" width="4" height="15" fill="#e8b83d"/>
<rect x="444" y="102" width="4" height="15" fill="#2d8a4e"/>
<rect x="448" y="102" width="4" height="15" fill="#2d8a4e"/>
<rect x="452" y="102" width="4" height="15" fill="#2d8a4e"/>
<rect x="456" y="102" width="4" height="15" fill="#2d8a4e"/>
<rect x="460" y="102" width="4" height="15" fill="#e8b83d"/>
<rect x="464" y="102" width="4" height="15" fill="#2d8a4e"/>
<rect x="468" y="102" width="4" height="15" fill="#2d8a4e"/>
<rect x="472" y="102" width="4" height="15" fill="#2d8a4e"/>
<rect x="476" y="102" width="4" height="15" fill="#2d8a4e"/>
<rect x="480" y="102" width="4" height="15" fill="#e8b83d"/>
<rect x="484" y="102" width="4" height="15" fill="#e8b83d"/>
<text x="20" y="136" class="label">Book 3</text>
<text x="988" y="136" class="stats">n=104  avg=0.472  H=16%  M=75%  L=9%</text>
<rect x="180" y="124" width="4" height="15" fill="#2d8a4e"/>
<rect x="184" y="124" width="4" height="15" fill="#2d8a4e"/>
<rect x="188" y="124" width="4" height="15" fill="#2d8a4e"/>
<rect x="192" y="124" width="4" height="15" fill="#2d8a4e"/>
<rect x="196" y="124" width="4" height="15" fill="#2d8a4e"/>
<rect x="200" y="124" width="4" height="15" fill="#2d8a4e"/>
<rect x="204" y="124" width="4" height="15" fill="#e8b83d"/>
<rect x="208" y="124" width="4" height="15" fill="#2d8a4e"/>
<rect x="212" y="124" width="4" height="15" fill="#2d8a4e"/>
<rect x="216" y="124" width="4" height="15" fill="#2d8a4e"/>
<rect x="220" y="124" width="4" height="15" fill="#e8b83d"/>
<rect x="224" y="124" width="4" height="15" fill="#e8b83d"/>
<rect x="228" y="124" width="4" height="15" fill="#e8b83d"/>
<rect x="232" y="124" width="4" height="15" fill="#e8b83d"/>
<rect x="236" y="124" width="4" height="15" fill="#e8b83d"/>
<rect x="240" y="124" width="4" height="15" fill="#e8b83d"/>
<rect x="244" y="124" width="4" height="15" fill="#e8b83d"/>
<rect x="248" y="124" width="4" height="15" fill="#e8b83d"/>
<rect x="252" y="124" width="4" height="15" fill="#e8b83d"/>
<rect x="256" y="124" width="4" height="15" fill="#e8b83d"/>
<rect x="260" y="124" width="4" height="15" fill="#e8b83d"/>
<rect x="264" y="124" width="4" height="15" fill="#e8b83d"/>
<rect x="268" y="124" width="4" height="15" fill="#e8b83d"/>
<rect x="272" y="124" width="4" height="15" fill="#e8b83d"/>
<rect x="276" y="124" width="4" height="15" fill="#c9493b"/>
<rect x="280" y="124" width="4" height="15" fill="#e8b83d"/>
<rect x="284" y="124" width="4" height="15" fill="#c9493b"/>
<rect x="288" y="124" width="4" height="15" fill="#e8b83d"/>
<rect x="292" y="124" width="4" height="15" fill="#e8b83d"/>
<rect x="296" y="124" width="4" height="15" fill="#e8b83d"/>
<rect x="300" y="124" width="4" height="15" fill="#e8b83d"/>
<rect x="304" y="124" width="4" height="15" fill="#e8b83d"/>
<rect x="308" y="124" width="4" height="15" fill="#e8b83d"/>
<rect x="312" y="124" width="4" height="15" fill="#e8b83d"/>
<rect x="316" y="124" width="4" height="15" fill="#e8b83d"/>
<rect x="320" y="124" width="4" height="15" fill="#2d8a4e"/>
<rect x="324" y="124" width="4" height="15" fill="#e8b83d"/>
<rect x="328" y="124" width="4" height="15" fill="#e8b83d"/>
<rect x="332" y="124" width="4" height="15" fill="#e8b83d"/>
<rect x="336" y="124" width="4" height="15" fill="#e8b83d"/>
<rect x="340" y="124" width="4" height="15" fill="#e8b83d"/>
<rect x="344" y="124" width="4" height="15" fill="#e8b83d"/>
<rect x="348" y="124" width="4" height="15" fill="#e8b83d"/>
<rect x="352" y="124" width="4" height="15" fill="#c9493b"/>
<rect x="356" y="124" width="4" height="15" fill="#c9493b"/>
<rect x="360" y="124" width="4" height="15" fill="#e8b83d"/>
<rect x="364" y="124" width="4" height="15" fill="#2d8a4e"/>
<rect x="368" y="124" width="4" height="15" fill="#c9493b"/>
<rect x="372" y="124" width="4" height="15" fill="#c9493b"/>
<rect x="376" y="124" width="4" height="15" fill="#c9493b"/>
<rect x="380" y="124" width="4" height="15" fill="#e8b83d"/>
<rect x="384" y="124" width="4" height="15" fill="#e8b83d"/>
<rect x="388" y="124" width="4" height="15" fill="#e8b83d"/>
<rect x="392" y="124" width="4" height="15" fill="#e8b83d"/>
<rect x="396" y="124" width="4" height="15" fill="#e8b83d"/>
<rect x="400" y="124" width="4" height="15" fill="#2d8a4e"/>
<rect x="404" y="124" width="4" height="15" fill="#e8b83d"/>
<rect x="408" y="124" width="4" height="15" fill="#e8b83d"/>
<rect x="412" y="124" width="4" height="15" fill="#e8b83d"/>
<rect x="416" y="124" width="4" height="15" fill="#e8b83d"/>
<rect x="420" y="124" width="4" height="15" fill="#e8b83d"/>
<rect x="424" y="124" width="4" height="15" fill="#e8b83d"/>
<rect x="428" y="124" width="4" height="15" fill="#e8b83d"/>
<rect x="432" y="124" width="4" height="15" fill="#e8b83d"/>
<rect x="436" y="124" width="4" height="15" fill="#e8b83d"/>
<rect x="440" y="124" width="4" height="15" fill="#e8b83d"/>
<rect x="444" y="124" width="4" height="15" fill="#e8b83d"/>
<rect x="448" y="124" width="4" height="15" fill="#e8b83d"/>
<rect x="452" y="124" width="4" height="15" fill="#e8b83d"/>
<rect x="456" y="124" width="4" height="15" fill="#e8b83d"/>
<rect x="460" y="124" width="4" height="15" fill="#e8b83d"/>
<rect x="464" y="124" width="4" height="15" fill="#e8b83d"/>
<rect x="468" y="124" width="4" height="15" fill="#e8b83d"/>
<rect x="472" y="124" width="4" height="15" fill="#e8b83d"/>
<rect x="476" y="124" width="4" height="15" fill="#e8b83d"/>
<rect x="480" y="124" width="4" height="15" fill="#e8b83d"/>
<rect x="484" y="124" width="4" height="15" fill="#e8b83d"/>
<rect x="488" y="124" width="4" height="15" fill="#e8b83d"/>
<rect x="492" y="124" width="4" height="15" fill="#e8b83d"/>
<rect x="496" y="124" width="4" height="15" fill="#e8b83d"/>
<rect x="500" y="124" width="4" height="15" fill="#e8b83d"/>
<rect x="504" y="124" width="4" height="15" fill="#e8b83d"/>
<rect x="508" y="124" width="4" height="15" fill="#e8b83d"/>
<rect x="512" y="124" width="4" height="15" fill="#e8b83d"/>
<rect x="516" y="124" width="4" height="15" fill="#e8b83d"/>
<rect x="520" y="124" width="4" height="15" fill="#c9493b"/>
<rect x="524" y="124" width="4" height="15" fill="#e8b83d"/>
<rect x="528" y="124" width="4" height="15" fill="#e8b83d"/>
<rect x="532" y="124" width="4" height="15" fill="#c9493b"/>
<rect x="536" y="124" width="4" height="15" fill="#e8b83d"/>
<rect x="540" y="124" width="4" height="15" fill="#e8b83d"/>
<rect x="544" y="124" width="4" height="15" fill="#e8b83d"/>
<rect x="548" y="124" width="4" height="15" fill="#e8b83d"/>
<rect x="552" y="124" width="4" height="15" fill="#e8b83d"/>
<rect x="556" y="124" width="4" height="15" fill="#e8b83d"/>
<rect x="560" y="124" width="4" height="15" fill="#e8b83d"/>
<rect x="564" y="124" width="4" height="15" fill="#e8b83d"/>
<rect x="568" y="124" width="4" height="15" fill="#2d8a4e"/>
<rect x="572" y="124" width="4" height="15" fill="#2d8a4e"/>
<rect x="576" y="124" width="4" height="15" fill="#2d8a4e"/>
<rect x="580" y="124" width="4" height="15" fill="#2d8a4e"/>
<rect x="584" y="124" width="4" height="15" fill="#2d8a4e"/>
<rect x="588" y="124" width="4" height="15" fill="#e8b83d"/>
<rect x="592" y="124" width="4" height="15" fill="#e8b83d"/>
<text x="180" y="151" class="warn">⚠ 3.5.5 → 3.5.7  (3 sections, avg=0.237)</text>
<text x="20" y="172" class="label">Book 4</text>
<text x="988" y="172" class="stats">n=122  avg=0.547  H=37%  M=58%  L=5%</text>
<rect x="180" y="160" width="4" height="15" fill="#2d8a4e"/>
<rect x="184" y="160" width="4" height="15" fill="#e8b83d"/>
<rect x="188" y="160" width="4" height="15" fill="#2d8a4e"/>
<rect x="192" y="160" width="4" height="15" fill="#2d8a4e"/>
<rect x="196" y="160" width="4" height="15" fill="#e8b83d"/>
<rect x="200" y="160" width="4" height="15" fill="#e8b83d"/>
<rect x="204" y="160" width="4" height="15" fill="#2d8a4e"/>
<rect x="208" y="160" width="4" height="15" fill="#e8b83d"/>
<rect x="212" y="160" width="4" height="15" fill="#e8b83d"/>
<rect x="216" y="160" width="4" height="15" fill="#e8b83d"/>
<rect x="220" y="160" width="4" height="15" fill="#e8b83d"/>
<rect x="224" y="160" width="4" height="15" fill="#e8b83d"/>
<rect x="228" y="160" width="4" height="15" fill="#2d8a4e"/>
<rect x="232" y="160" width="4" height="15" fill="#e8b83d"/>
<rect x="236" y="160" width="4" height="15" fill="#e8b83d"/>
<rect x="240" y="160" width="4" height="15" fill="#c9493b"/>
<rect x="244" y="160" width="4" height="15" fill="#2d8a4e"/>
<rect x="248" y="160" width="4" height="15" fill="#c9493b"/>
<rect x="252" y="160" width="4" height="15" fill="#e8b83d"/>
<rect x="256" y="160" width="4" height="15" fill="#e8b83d"/>
<rect x="260" y="160" width="4" height="15" fill="#2d8a4e"/>
<rect x="264" y="160" width="4" height="15" fill="#e8b83d"/>
<rect x="268" y="160" width="4" height="15" fill="#2d8a4e"/>
<rect x="272" y="160" width="4" height="15" fill="#e8b83d"/>
<rect x="276" y="160" width="4" height="15" fill="#2d8a4e"/>
<rect x="280" y="160" width="4" height="15" fill="#e8b83d"/>
<rect x="284" y="160" width="4" height="15" fill="#e8b83d"/>
<rect x="288" y="160" width="4" height="15" fill="#e8b83d"/>
<rect x="292" y="160" width="4" height="15" fill="#2d8a4e"/>
<rect x="296" y="160" width="4" height="15" fill="#2d8a4e"/>
<rect x="300" y="160" width="4" height="15" fill="#e8b83d"/>
<rect x="304" y="160" width="4" height="15" fill="#e8b83d"/>
<rect x="308" y="160" width="4" height="15" fill="#e8b83d"/>
<rect x="312" y="160" width="4" height="15" fill="#e8b83d"/>
<rect x="316" y="160" width="4" height="15" fill="#e8b83d"/>
<rect x="320" y="160" width="4" height="15" fill="#e8b83d"/>
<rect x="324" y="160" width="4" height="15" fill="#e8b83d"/>
<rect x="328" y="160" width="4" height="15" fill="#e8b83d"/>
<rect x="332" y="160" width="4" height="15" fill="#e8b83d"/>
<rect x="336" y="160" width="4" height="15" fill="#2d8a4e"/>
<rect x="340" y="160" width="4" height="15" fill="#e8b83d"/>
<rect x="344" y="160" width="4" height="15" fill="#e8b83d"/>
<rect x="348" y="160" width="4" height="15" fill="#e8b83d"/>
<rect x="352" y="160" width="4" height="15" fill="#e8b83d"/>
<rect x="356" y="160" width="4" height="15" fill="#c9493b"/>
<rect x="360" y="160" width="4" height="15" fill="#e8b83d"/>
<rect x="364" y="160" width="4" height="15" fill="#e8b83d"/>
<rect x="368" y="160" width="4" height="15" fill="#2d8a4e"/>
<rect x="372" y="160" width="4" height="15" fill="#e8b83d"/>
<rect x="376" y="160" width="4" height="15" fill="#e8b83d"/>
<rect x="380" y="160" width="4" height="15" fill="#e8b83d"/>
<rect x="384" y="160" width="4" height="15" fill="#e8b83d"/>
<rect x="388" y="160" width="4" height="15" fill="#e8b83d"/>
<rect x="392" y="160" width="4" height="15" fill="#e8b83d"/>
<rect x="396" y="160" width="4" height="15" fill="#e8b83d"/>
<rect x="400" y="160" width="4" height="15" fill="#e8b83d"/>
<rect x="404" y="160" width="4" height="15" fill="#e8b83d"/>
<rect x="408" y="160" width="4" height="15" fill="#e8b83d"/>
<rect x="412" y="160" width="4" height="15" fill="#2d8a4e"/>
<rect x="416" y="160" width="4" height="15" fill="#e8b83d"/>
<rect x="420" y="160" width="4" height="15" fill="#e8b83d"/>
<rect x="424" y="160" width="4" height="15" fill="#e8b83d"/>
<rect x="428" y="160" width="4" height="15" fill="#c9493b"/>
<rect x="432" y="160" width="4" height="15" fill="#e8b83d"/>
<rect x="436" y="160" width="4" height="15" fill="#e8b83d"/>
<rect x="440" y="160" width="4" height="15" fill="#c9493b"/>
<rect x="444" y="160" width="4" height="15" fill="#2d8a4e"/>
<rect x="448" y="160" width="4" height="15" fill="#e8b83d"/>
<rect x="452" y="160" width="4" height="15" fill="#e8b83d"/>
<rect x="456" y="160" width="4" height="15" fill="#c9493b"/>
<rect x="460" y="160" width="4" height="15" fill="#e8b83d"/>
<rect x="464" y="160" width="4" height="15" fill="#e8b83d"/>
<rect x="468" y="160" width="4" height="15" fill="#e8b83d"/>
<rect x="472" y="160" width="4" height="15" fill="#e8b83d"/>
<rect x="476" y="160" width="4" height="15" fill="#e8b83d"/>
<rect x="480" y="160" width="4" height="15" fill="#e8b83d"/>
<rect x="484" y="160" width="4" height="15" fill="#2d8a4e"/>
<rect x="488" y="160" width="4" height="15" fill="#2d8a4e"/>
<rect x="492" y="160" width="4" height="15" fill="#e8b83d"/>
<rect x="496" y="160" width="4" height="15" fill="#e8b83d"/>
<rect x="500" y="160" width="4" height="15" fill="#e8b83d"/>
<rect x="504" y="160" width="4" height="15" fill="#2d8a4e"/>
<rect x="508" y="160" width="4" height="15" fill="#2d8a4e"/>
<rect x="512" y="160" width="4" height="15" fill="#e8b83d"/>
<rect x="516" y="160" width="4" height="15" fill="#2d8a4e"/>
<rect x="520" y="160" width="4" height="15" fill="#e8b83d"/>
<rect x="524" y="160" width="4" height="15" fill="#e8b83d"/>
<rect x="528" y="160" width="4" height="15" fill="#e8b83d"/>
<rect x="532" y="160" width="4" height="15" fill="#e8b83d"/>
<rect x="536" y="160" width="4" height="15" fill="#2d8a4e"/>
<rect x="540" y="160" width="4" height="15" fill="#e8b83d"/>
<rect x="544" y="160" width="4" height="15" fill="#e8b83d"/>
<rect x="548" y="160" width="4" height="15" fill="#e8b83d"/>
<rect x="552" y="160" width="4" height="15" fill="#2d8a4e"/>
<rect x="556" y="160" width="4" height="15" fill="#2d8a4e"/>
<rect x="560" y="160" width="4" height="15" fill="#e8b83d"/>
<rect x="564" y="160" width="4" height="15" fill="#2d8a4e"/>
<rect x="568" y="160" width="4" height="15" fill="#2d8a4e"/>
<rect x="572" y="160" width="4" height="15" fill="#2d8a4e"/>
<rect x="576" y="160" width="4" height="15" fill="#2d8a4e"/>
<rect x="580" y="160" width="4" height="15" fill="#2d8a4e"/>
<rect x="584" y="160" width="4" height="15" fill="#2d8a4e"/>
<rect x="588" y="160" width="4" height="15" fill="#2d8a4e"/>
<rect x="592" y="160" width="4" height="15" fill="#2d8a4e"/>
<rect x="596" y="160" width="4" height="15" fill="#2d8a4e"/>
<rect x="600" y="160" width="4" height="15" fill="#2d8a4e"/>
<rect x="604" y="160" width="4" height="15" fill="#2d8a4e"/>
<rect x="608" y="160" width="4" height="15" fill="#2d8a4e"/>
<rect x="612" y="160" width="4" height="15" fill="#e8b83d"/>
<rect x="616" y="160" width="4" height="15" fill="#e8b83d"/>
<rect x="620" y="160" width="4" height="15" fill="#e8b83d"/>
<rect x="624" y="160" width="4" height="15" fill="#e8b83d"/>
<rect x="628" y="160" width="4" height="15" fill="#2d8a4e"/>
<rect x="632" y="160" width="4" height="15" fill="#2d8a4e"/>
<rect x="636" y="160" width="4" height="15" fill="#2d8a4e"/>
<rect x="640" y="160" width="4" height="15" fill="#2d8a4e"/>
<rect x="644" y="160" width="4" height="15" fill="#2d8a4e"/>
<rect x="648" y="160" width="4" height="15" fill="#2d8a4e"/>
<rect x="652" y="160" width="4" height="15" fill="#2d8a4e"/>
<rect x="656" y="160" width="4" height="15" fill="#2d8a4e"/>
<rect x="660" y="160" width="4" height="15" fill="#2d8a4e"/>
<rect x="664" y="160" width="4" height="15" fill="#2d8a4e"/>
<text x="20" y="194" class="label">Book 5</text>
<text x="988" y="194" class="stats">n=82  avg=0.568  H=51%  M=45%  L=4%</text>
<rect x="180" y="182" width="4" height="15" fill="#e8b83d"/>
<rect x="184" y="182" width="4" height="15" fill="#e8b83d"/>
<rect x="188" y="182" width="4" height="15" fill="#e8b83d"/>
<rect x="192" y="182" width="4" height="15" fill="#e8b83d"/>
<rect x="196" y="182" width="4" height="15" fill="#e8b83d"/>
<rect x="200" y="182" width="4" height="15" fill="#2d8a4e"/>
<rect x="204" y="182" width="4" height="15" fill="#2d8a4e"/>
<rect x="208" y="182" width="4" height="15" fill="#e8b83d"/>
<rect x="212" y="182" width="4" height="15" fill="#e8b83d"/>
<rect x="216" y="182" width="4" height="15" fill="#2d8a4e"/>
<rect x="220" y="182" width="4" height="15" fill="#e8b83d"/>
<rect x="224" y="182" width="4" height="15" fill="#2d8a4e"/>
<rect x="228" y="182" width="4" height="15" fill="#e8b83d"/>
<rect x="232" y="182" width="4" height="15" fill="#e8b83d"/>
<rect x="236" y="182" width="4" height="15" fill="#2d8a4e"/>
<rect x="240" y="182" width="4" height="15" fill="#e8b83d"/>
<rect x="244" y="182" width="4" height="15" fill="#e8b83d"/>
<rect x="248" y="182" width="4" height="15" fill="#e8b83d"/>
<rect x="252" y="182" width="4" height="15" fill="#2d8a4e"/>
<rect x="256" y="182" width="4" height="15" fill="#2d8a4e"/>
<rect x="260" y="182" width="4" height="15" fill="#e8b83d"/>
<rect x="264" y="182" width="4" height="15" fill="#e8b83d"/>
<rect x="268" y="182" width="4" height="15" fill="#e8b83d"/>
<rect x="272" y="182" width="4" height="15" fill="#e8b83d"/>
<rect x="276" y="182" width="4" height="15" fill="#e8b83d"/>
<rect x="280" y="182" width="4" height="15" fill="#e8b83d"/>
<rect x="284" y="182" width="4" height="15" fill="#2d8a4e"/>
<rect x="288" y="182" width="4" height="15" fill="#2d8a4e"/>
<rect x="292" y="182" width="4" height="15" fill="#e8b83d"/>
<rect x="296" y="182" width="4" height="15" fill="#2d8a4e"/>
<rect x="300" y="182" width="4" height="15" fill="#e8b83d"/>
<rect x="304" y="182" width="4" height="15" fill="#2d8a4e"/>
<rect x="308" y="182" width="4" height="15" fill="#2d8a4e"/>
<rect x="312" y="182" width="4" height="15" fill="#2d8a4e"/>
<rect x="316" y="182" width="4" height="15" fill="#2d8a4e"/>
<rect x="320" y="182" width="4" height="15" fill="#2d8a4e"/>
<rect x="324" y="182" width="4" height="15" fill="#2d8a4e"/>
<rect x="328" y="182" width="4" height="15" fill="#2d8a4e"/>
<rect x="332" y="182" width="4" height="15" fill="#2d8a4e"/>
<rect x="336" y="182" width="4" height="15" fill="#e8b83d"/>
<rect x="340" y="182" width="4" height="15" fill="#e8b83d"/>
<rect x="344" y="182" width="4" height="15" fill="#2d8a4e"/>
<rect x="348" y="182" width="4" height="15" fill="#2d8a4e"/>
<rect x="352" y="182" width="4" height="15" fill="#2d8a4e"/>
<rect x="356" y="182" width="4" height="15" fill="#2d8a4e"/>
<rect x="360" y="182" width="4" height="15" fill="#c9493b"/>
<rect x="364" y="182" width="4" height="15" fill="#c9493b"/>
<rect x="368" y="182" width="4" height="15" fill="#e8b83d"/>
<rect x="372" y="182" width="4" height="15" fill="#e8b83d"/>
<rect x="376" y="182" width="4" height="15" fill="#2d8a4e"/>
<rect x="380" y="182" width="4" height="15" fill="#e8b83d"/>
<rect x="384" y="182" width="4" height="15" fill="#e8b83d"/>
<rect x="388" y="182" width="4" height="15" fill="#e8b83d"/>
<rect x="392" y="182" width="4" height="15" fill="#e8b83d"/>
<rect x="396" y="182" width="4" height="15" fill="#e8b83d"/>
<rect x="400" y="182" width="4" height="15" fill="#2d8a4e"/>
<rect x="404" y="182" width="4" height="15" fill="#2d8a4e"/>
<rect x="408" y="182" width="4" height="15" fill="#2d8a4e"/>
<rect x="412" y="182" width="4" height="15" fill="#2d8a4e"/>
<rect x="416" y="182" width="4" height="15" fill="#2d8a4e"/>
<rect x="420" y="182" width="4" height="15" fill="#2d8a4e"/>
<rect x="424" y="182" width="4" height="15" fill="#2d8a4e"/>
<rect x="428" y="182" width="4" height="15" fill="#2d8a4e"/>
<rect x="432" y="182" width="4" height="15" fill="#2d8a4e"/>
<rect x="436" y="182" width="4" height="15" fill="#e8b83d"/>
<rect x="440" y="182" width="4" height="15" fill="#2d8a4e"/>
<rect x="444" y="182" width="4" height="15" fill="#2d8a4e"/>
<rect x="448" y="182" width="4" height="15" fill="#2d8a4e"/>
<rect x="452" y="182" width="4" height="15" fill="#c9493b"/>
<rect x="456" y="182" width="4" height="15" fill="#e8b83d"/>
<rect x="460" y="182" width="4" height="15" fill="#e8b83d"/>
<rect x="464" y="182" width="4" height="15" fill="#e8b83d"/>
<rect x="468" y="182" width="4" height="15" fill="#2d8a4e"/>
<rect x="472" y="182" width="4" height="15" fill="#e8b83d"/>
<rect x="476" y="182" width="4" height="15" fill="#e8b83d"/>
<rect x="480" y="182" width="4" height="15" fill="#2d8a4e"/>
<rect x="484" y="182" width="4" height="15" fill="#2d8a4e"/>
<rect x="488" y="182" width="4" height="15" fill="#2d8a4e"/>
<rect x="492" y="182" width="4" height="15" fill="#2d8a4e"/>
<rect x="496" y="182" width="4" height="15" fill="#e8b83d"/>
<rect x="500" y="182" width="4" height="15" fill="#2d8a4e"/>
<rect x="504" y="182" width="4" height="15" fill="#2d8a4e"/>
<text x="20" y="216" class="label">Book 6</text>
<text x="988" y="216" class="stats">n=207  avg=0.530  H=43%  M=40%  L=16%</text>
<rect x="180" y="204" width="4" height="15" fill="#c9493b"/>
<rect x="184" y="204" width="4" height="15" fill="#e8b83d"/>
<rect x="188" y="204" width="4" height="15" fill="#2d8a4e"/>
<rect x="192" y="204" width="4" height="15" fill="#e8b83d"/>
<rect x="196" y="204" width="4" height="15" fill="#e8b83d"/>
<rect x="200" y="204" width="4" height="15" fill="#e8b83d"/>
<rect x="204" y="204" width="4" height="15" fill="#e8b83d"/>
<rect x="208" y="204" width="4" height="15" fill="#2d8a4e"/>
<rect x="212" y="204" width="4" height="15" fill="#e8b83d"/>
<rect x="216" y="204" width="4" height="15" fill="#e8b83d"/>
<rect x="220" y="204" width="4" height="15" fill="#2d8a4e"/>
<rect x="224" y="204" width="4" height="15" fill="#e8b83d"/>
<rect x="228" y="204" width="4" height="15" fill="#c9493b"/>
<rect x="232" y="204" width="4" height="15" fill="#e8b83d"/>
<rect x="236" y="204" width="4" height="15" fill="#e8b83d"/>
<rect x="240" y="204" width="4" height="15" fill="#e8b83d"/>
<rect x="244" y="204" width="4" height="15" fill="#2d8a4e"/>
<rect x="248" y="204" width="4" height="15" fill="#e8b83d"/>
<rect x="252" y="204" width="4" height="15" fill="#e8b83d"/>
<rect x="256" y="204" width="4" height="15" fill="#e8b83d"/>
<rect x="260" y="204" width="4" height="15" fill="#e8b83d"/>
<rect x="264" y="204" width="4" height="15" fill="#e8b83d"/>
<rect x="268" y="204" width="4" height="15" fill="#e8b83d"/>
<rect x="272" y="204" width="4" height="15" fill="#e8b83d"/>
<rect x="276" y="204" width="4" height="15" fill="#e8b83d"/>
<rect x="280" y="204" width="4" height="15" fill="#2d8a4e"/>
<rect x="284" y="204" width="4" height="15" fill="#2d8a4e"/>
<rect x="288" y="204" width="4" height="15" fill="#2d8a4e"/>
<rect x="292" y="204" width="4" height="15" fill="#e8b83d"/>
<rect x="296" y="204" width="4" height="15" fill="#e8b83d"/>
<rect x="300" y="204" width="4" height="15" fill="#c9493b"/>
<rect x="304" y="204" width="4" height="15" fill="#2d8a4e"/>
<rect x="308" y="204" width="4" height="15" fill="#2d8a4e"/>
<rect x="312" y="204" width="4" height="15" fill="#e8b83d"/>
<rect x="316" y="204" width="4" height="15" fill="#e8b83d"/>
<rect x="320" y="204" width="4" height="15" fill="#e8b83d"/>
<rect x="324" y="204" width="4" height="15" fill="#e8b83d"/>
<rect x="328" y="204" width="4" height="15" fill="#e8b83d"/>
<rect x="332" y="204" width="4" height="15" fill="#e8b83d"/>
<rect x="336" y="204" width="4" height="15" fill="#e8b83d"/>
<rect x="340" y="204" width="4" height="15" fill="#c9493b"/>
<rect x="344" y="204" width="4" height="15" fill="#c9493b"/>
<rect x="348" y="204" width="4" height="15" fill="#c9493b"/>
<rect x="352" y="204" width="4" height="15" fill="#c9493b"/>
<rect x="356" y="204" width="4" height="15" fill="#c9493b"/>
<rect x="360" y="204" width="4" height="15" fill="#c9493b"/>
<rect x="364" y="204" width="4" height="15" fill="#c9493b"/>
<rect x="368" y="204" width="4" height="15" fill="#c9493b"/>
<rect x="372" y="204" width="4" height="15" fill="#c9493b"/>
<rect x="376" y="204" width="4" height="15" fill="#c9493b"/>
<rect x="380" y="204" width="4" height="15" fill="#e8b83d"/>
<rect x="384" y="204" width="4" height="15" fill="#c9493b"/>
<rect x="388" y="204" width="4" height="15" fill="#c9493b"/>
<rect x="392" y="204" width="4" height="15" fill="#c9493b"/>
<rect x="396" y="204" width="4" height="15" fill="#c9493b"/>
<rect x="400" y="204" width="4" height="15" fill="#c9493b"/>
<rect x="404" y="204" width="4" height="15" fill="#c9493b"/>
<rect x="408" y="204" width="4" height="15" fill="#c9493b"/>
<rect x="412" y="204" width="4" height="15" fill="#e8b83d"/>
<rect x="416" y="204" width="4" height="15" fill="#c9493b"/>
<rect x="420" y="204" width="4" height="15" fill="#c9493b"/>
<rect x="424" y="204" width="4" height="15" fill="#c9493b"/>
<rect x="428" y="204" width="4" height="15" fill="#e8b83d"/>
<rect x="432" y="204" width="4" height="15" fill="#c9493b"/>
<rect x="436" y="204" width="4" height="15" fill="#c9493b"/>
<rect x="440" y="204" width="4" height="15" fill="#e8b83d"/>
<rect x="444" y="204" width="4" height="15" fill="#e8b83d"/>
<rect x="448" y="204" width="4" height="15" fill="#e8b83d"/>
<rect x="452" y="204" width="4" height="15" fill="#c9493b"/>
<rect x="456" y="204" width="4" height="15" fill="#c9493b"/>
<rect x="460" y="204" width="4" height="15" fill="#c9493b"/>
<rect x="464" y="204" width="4" height="15" fill="#c9493b"/>
<rect x="468" y="204" width="4" height="15" fill="#c9493b"/>
<rect x="472" y="204" width="4" height="15" fill="#2d8a4e"/>
<rect x="476" y="204" width="4" height="15" fill="#e8b83d"/>
<rect x="480" y="204" width="4" height="15" fill="#e8b83d"/>
<rect x="484" y="204" width="4" height="15" fill="#e8b83d"/>
<rect x="488" y="204" width="4" height="15" fill="#e8b83d"/>
<rect x="492" y="204" width="4" height="15" fill="#e8b83d"/>
<rect x="496" y="204" width="4" height="15" fill="#e8b83d"/>
<rect x="500" y="204" width="4" height="15" fill="#e8b83d"/>
<rect x="504" y="204" width="4" height="15" fill="#e8b83d"/>
<rect x="508" y="204" width="4" height="15" fill="#e8b83d"/>
<rect x="512" y="204" width="4" height="15" fill="#e8b83d"/>
<rect x="516" y="204" width="4" height="15" fill="#2d8a4e"/>
<rect x="520" y="204" width="4" height="15" fill="#e8b83d"/>
<rect x="524" y="204" width="4" height="15" fill="#e8b83d"/>
<rect x="528" y="204" width="4" height="15" fill="#e8b83d"/>
<rect x="532" y="204" width="4" height="15" fill="#e8b83d"/>
<rect x="536" y="204" width="4" height="15" fill="#e8b83d"/>
<rect x="540" y="204" width="4" height="15" fill="#e8b83d"/>
<rect x="544" y="204" width="4" height="15" fill="#e8b83d"/>
<rect x="548" y="204" width="4" height="15" fill="#e8b83d"/>
<rect x="552" y="204" width="4" height="15" fill="#e8b83d"/>
<rect x="556" y="204" width="4" height="15" fill="#e8b83d"/>
<rect x="560" y="204" width="4" height="15" fill="#e8b83d"/>
<rect x="564" y="204" width="4" height="15" fill="#e8b83d"/>
<rect x="568" y="204" width="4" height="15" fill="#e8b83d"/>
<rect x="572" y="204" width="4" height="15" fill="#e8b83d"/>
<rect x="576" y="204" width="4" height="15" fill="#2d8a4e"/>
<rect x="580" y="204" width="4" height="15" fill="#e8b83d"/>
<rect x="584" y="204" width="4" height="15" fill="#e8b83d"/>
<rect x="588" y="204" width="4" height="15" fill="#e8b83d"/>
<rect x="592" y="204" width="4" height="15" fill="#2d8a4e"/>
<rect x="596" y="204" width="4" height="15" fill="#2d8a4e"/>
<rect x="600" y="204" width="4" height="15" fill="#e8b83d"/>
<rect x="604" y="204" width="4" height="15" fill="#e8b83d"/>
<rect x="608" y="204" width="4" height="15" fill="#e8b83d"/>
<rect x="612" y="204" width="4" height="15" fill="#e8b83d"/>
<rect x="616" y="204" width="4" height="15" fill="#e8b83d"/>
<rect x="620" y="204" width="4" height="15" fill="#e8b83d"/>
<rect x="624" y="204" width="4" height="15" fill="#c9493b"/>
<rect x="628" y="204" width="4" height="15" fill="#c9493b"/>
<rect x="632" y="204" width="4" height="15" fill="#e8b83d"/>
<rect x="636" y="204" width="4" height="15" fill="#2d8a4e"/>
<rect x="640" y="204" width="4" height="15" fill="#2d8a4e"/>
<rect x="644" y="204" width="4" height="15" fill="#2d8a4e"/>
<rect x="648" y="204" width="4" height="15" fill="#2d8a4e"/>
<rect x="652" y="204" width="4" height="15" fill="#2d8a4e"/>
<rect x="656" y="204" width="4" height="15" fill="#2d8a4e"/>
<rect x="660" y="204" width="4" height="15" fill="#2d8a4e"/>
<rect x="664" y="204" width="4" height="15" fill="#2d8a4e"/>
<rect x="668" y="204" width="4" height="15" fill="#2d8a4e"/>
<rect x="672" y="204" width="4" height="15" fill="#2d8a4e"/>
<rect x="676" y="204" width="4" height="15" fill="#2d8a4e"/>
<rect x="680" y="204" width="4" height="15" fill="#2d8a4e"/>
<rect x="684" y="204" width="4" height="15" fill="#2d8a4e"/>
<rect x="688" y="204" width="4" height="15" fill="#2d8a4e"/>
<rect x="692" y="204" width="4" height="15" fill="#2d8a4e"/>
<rect x="696" y="204" width="4" height="15" fill="#2d8a4e"/>
<rect x="700" y="204" width="4" height="15" fill="#2d8a4e"/>
<rect x="704" y="204" width="4" height="15" fill="#2d8a4e"/>
<rect x="708" y="204" width="4" height="15" fill="#2d8a4e"/>
<rect x="712" y="204" width="4" height="15" fill="#2d8a4e"/>
<rect x="716" y="204" width="4" height="15" fill="#2d8a4e"/>
<rect x="720" y="204" width="4" height="15" fill="#2d8a4e"/>
<rect x="724" y="204" width="4" height="15" fill="#2d8a4e"/>
<rect x="728" y="204" width="4" height="15" fill="#2d8a4e"/>
<rect x="732" y="204" width="4" height="15" fill="#2d8a4e"/>
<rect x="736" y="204" width="4" height="15" fill="#2d8a4e"/>
<rect x="740" y="204" width="4" height="15" fill="#2d8a4e"/>
<rect x="744" y="204" width="4" height="15" fill="#2d8a4e"/>
<rect x="748" y="204" width="4" height="15" fill="#2d8a4e"/>
<rect x="752" y="204" width="4" height="15" fill="#2d8a4e"/>
<rect x="756" y="204" width="4" height="15" fill="#2d8a4e"/>
<rect x="760" y="204" width="4" height="15" fill="#2d8a4e"/>
<rect x="764" y="204" width="4" height="15" fill="#2d8a4e"/>
<rect x="768" y="204" width="4" height="15" fill="#2d8a4e"/>
<rect x="772" y="204" width="4" height="15" fill="#2d8a4e"/>
<rect x="776" y="204" width="4" height="15" fill="#2d8a4e"/>
<rect x="780" y="204" width="4" height="15" fill="#2d8a4e"/>
<rect x="784" y="204" width="4" height="15" fill="#2d8a4e"/>
<rect x="788" y="204" width="4" height="15" fill="#2d8a4e"/>
<rect x="792" y="204" width="4" height="15" fill="#2d8a4e"/>
<rect x="796" y="204" width="4" height="15" fill="#2d8a4e"/>
<rect x="800" y="204" width="4" height="15" fill="#2d8a4e"/>
<rect x="804" y="204" width="4" height="15" fill="#2d8a4e"/>
<rect x="808" y="204" width="4" height="15" fill="#2d8a4e"/>
<rect x="812" y="204" width="4" height="15" fill="#2d8a4e"/>
<rect x="816" y="204" width="4" height="15" fill="#2d8a4e"/>
<rect x="820" y="204" width="4" height="15" fill="#2d8a4e"/>
<rect x="824" y="204" width="4" height="15" fill="#2d8a4e"/>
<rect x="828" y="204" width="4" height="15" fill="#2d8a4e"/>
<rect x="832" y="204" width="4" height="15" fill="#2d8a4e"/>
<rect x="836" y="204" width="4" height="15" fill="#2d8a4e"/>
<rect x="840" y="204" width="4" height="15" fill="#2d8a4e"/>
<rect x="844" y="204" width="4" height="15" fill="#2d8a4e"/>
<rect x="848" y="204" width="4" height="15" fill="#e8b83d"/>
<rect x="852" y="204" width="4" height="15" fill="#2d8a4e"/>
<rect x="856" y="204" width="4" height="15" fill="#2d8a4e"/>
<rect x="860" y="204" width="4" height="15" fill="#2d8a4e"/>
<rect x="864" y="204" width="4" height="15" fill="#2d8a4e"/>
<rect x="868" y="204" width="4" height="15" fill="#2d8a4e"/>
<rect x="872" y="204" width="4" height="15" fill="#2d8a4e"/>
<rect x="876" y="204" width="4" height="15" fill="#e8b83d"/>
<rect x="880" y="204" width="4" height="15" fill="#2d8a4e"/>
<rect x="884" y="204" width="4" height="15" fill="#c9493b"/>
<rect x="888" y="204" width="4" height="15" fill="#e8b83d"/>
<rect x="892" y="204" width="4" height="15" fill="#2d8a4e"/>
<rect x="896" y="204" width="4" height="15" fill="#e8b83d"/>
<rect x="900" y="204" width="4" height="15" fill="#e8b83d"/>
<rect x="904" y="204" width="4" height="15" fill="#e8b83d"/>
<rect x="908" y="204" width="4" height="15" fill="#2d8a4e"/>
<rect x="912" y="204" width="4" height="15" fill="#2d8a4e"/>
<rect x="916" y="204" width="4" height="15" fill="#2d8a4e"/>
<rect x="920" y="204" width="4" height="15" fill="#2d8a4e"/>
<rect x="924" y="204" width="4" height="15" fill="#e8b83d"/>
<rect x="928" y="204" width="4" height="15" fill="#2d8a4e"/>
<rect x="932" y="204" width="4" height="15" fill="#e8b83d"/>
<rect x="936" y="204" width="4" height="15" fill="#e8b83d"/>
<rect x="940" y="204" width="4" height="15" fill="#2d8a4e"/>
<rect x="944" y="204" width="4" height="15" fill="#2d8a4e"/>
<rect x="948" y="204" width="4" height="15" fill="#e8b83d"/>
<rect x="952" y="204" width="4" height="15" fill="#2d8a4e"/>
<rect x="956" y="204" width="4" height="15" fill="#2d8a4e"/>
<rect x="960" y="204" width="4" height="15" fill="#e8b83d"/>
<rect x="964" y="204" width="4" height="15" fill="#2d8a4e"/>
<rect x="968" y="204" width="4" height="15" fill="#2d8a4e"/>
<rect x="972" y="204" width="4" height="15" fill="#e8b83d"/>
<rect x="976" y="204" width="4" height="15" fill="#2d8a4e"/>
<rect x="180" y="220" width="4" height="15" fill="#2d8a4e"/>
<rect x="184" y="220" width="4" height="15" fill="#c9493b"/>
<rect x="188" y="220" width="4" height="15" fill="#2d8a4e"/>
<rect x="192" y="220" width="4" height="15" fill="#2d8a4e"/>
<rect x="196" y="220" width="4" height="15" fill="#e8b83d"/>
<rect x="200" y="220" width="4" height="15" fill="#e8b83d"/>
<rect x="204" y="220" width="4" height="15" fill="#e8b83d"/>
<text x="180" y="247" class="warn">⚠ 6.2.11 → 6.2.17  (10 sections, avg=0.229)</text>
<text x="180" y="261" class="warn">⚠ 6.2.19 → 6.3.1  (7 sections, avg=0.176)</text>
<text x="180" y="275" class="warn">⚠ 6.3.11 → 6.3.15  (5 sections, avg=0.217)</text>
<line x1="20" y1="289" x2="1200" y2="289" stroke="#ccc" stroke-width="1"/>
<text x="20" y="309" class="total">TOTAL: 678 sections   avg=0.547   High=41%   Med=51%   Low=8%</text>
<rect x="20" y="316" width="487.31563421828906" height="10" fill="#2d8a4e" rx="2"/>
<rect x="507.31563421828906" y="316" width="600.4424778761062" height="10" fill="#e8b83d"/>
<rect x="1107.7581120943953" y="316" width="92.24188790560473" height="10" fill="#c9493b" rx="2"/>
</svg>