<svg xmlns="http://www.w3.org/2000/svg" width="1220" height="396" viewBox="0 0 1220 396">
<rect width="1220" height="396" fill="#f5f5f5"/>
<style>
  text { font-family: "SF Mono", "Menlo", "Monaco", monospace; }
  .title { font-size: 16px; font-weight: bold; }
  .subtitle { font-size: 11px; fill: #888; }
  .label { font-size: 11px; fill: #333; }
  .stats { font-size: 10px; fill: #666; }
  .warn { font-size: 9px; fill: #c9493b; }
  .total { font-size: 12px; font-weight: bold; fill: #333; }
  .legend-text { font-size: 10px; fill: #555; }
</style>
<text x="20" y="38" class="title">Alignment Quality Map — Alignment</text>
<rect x="20" y="50" width="12" height="12" fill="#2d8a4e" rx="2"/>
<text x="36" y="60" class="legend-text">High (≥0.6)</text>
<rect x="160" y="50" width="12" height="12" fill="#e8b83d" rx="2"/>
<text x="176" y="60" class="legend-text">Medium (0.3–0.6)</text>
<rect x="300" y="50" width="12" height="12" fill="#c9493b" rx="2"/>
<text x="316" y="60" class="legend-text">Low (&lt;0.3)</text>
<text x="20" y="92" class="label">Book 1</text>
<text x="988" y="92" class="stats">n=86  avg=0.479  H=29%  M=52%  L=19%</text>
<rect x="180" y="80" width="4" height="15" fill="#c9493b"/>
<rect x="184" y="80" width="4" height="15" fill="#e8b83d"/>
<rect x="188" y="80" width="4" height="15" fill="#c9493b"/>
<rect x="192" y="80" width="4" height="15" fill="#e8b83d"/>
<rect x="196" y="80" width="4" height="15" fill="#e8b83d"/>
<rect x="200" y="80" width="4" height="15" fill="#e8b83d"/>
<rect x="204" y="80" width="4" height="15" fill="#e8b83d"/>
<rect x="208" y="80" width="4" height="15" fill="#e8b83d"/>
<rect x="212" y="80" width="4" height="15" fill="#e8b83d"/>
<rect x="216" y="80" width="4" height="15" fill="#e8b83d"/>
<rect x="220" y="80" width="4" height="15" fill="#c9493b"/>
<rect x="224" y="80" width="4" height="15" fill="#e8b83d"/>
<rect x="228" y="80" width="4" height="15" fill="#e8b83d"/>
<rect x="232" y="80" width="4" height="15" fill="#e8b83d"/>
<rect x="236" y="80" width="4" height="15" fill="#e8b83d"/>
<rect x="240" y="80" width="4" height="15" fill="#c9493b"/>
<rect x="244" y="80" width="4" height="15" fill="#e8b83d"/>
<rect x="248" y="80" width="4" height="15" fill="#e8b83d"/>
<rect x="252" y="80" width="4" height="15" fill="#2d8a4e"/>
<rect x="256" y="80" width="4" height="15" fill="#c9493b"/>
<rect x="260" y="80" width="4" height="15" fill="#c9493b"/>
<rect x="264" y="80" width="4" height="15" fill="#c9493b"/>
<rect x="268" y="80" width="4" height="15" fill="#c9493b"/>
<rect x="272" y="80" width="4" height="15" fill="#c9493b"/>
<rect x="276" y="80" width="4" height="15" fill="#e8b83d"/>
<rect x="280" y="80" width="4" height="15" fill="#e8b83d"/>
<rect x="284" y="80" width="4" height="15" fill="#e8b83d"/>
<rect x="288" y="80" width="4" height="15" fill="#c9493b"/>
<rect x="292" y="80" width="4" height="15" fill="#e8b83d"/>
<rect x="296" y="80" width="4" height="15" fill="#e8b83d"/>
<rect x="300" y="80" width="4" height="15" fill="#c9493b"/>
<rect x="304" y="80" width="4" height="15" fill="#e8b83d"/>
<rect x="308" y="80" width="4" height="15" fill="#e8b83d"/>
<rect x="312" y="80" width="4" height="15" fill="#c9493b"/>
<rect x="316" y="80" width="4" height="15" fill="#e8b83d"/>
<rect x="320" y="80" width="4" height="15" fill="#e8b83d"/>
<rect x="324" y="80" width="4" height="15" fill="#c9493b"/>
<rect x="328" y="80" width="4" height="15" fill="#c9493b"/>
<rect x="332" y="80" width="4" height="15" fill="#e8b83d"/>
<rect x="336" y="80" width="4" height="15" fill="#e8b83d"/>
<rect x="340" y="80" width="4" height="15" fill="#e8b83d"/>
<rect x="344" y="80" width="4" height="15" fill="#c9493b"/>
<rect x="348" y="80" width="4" height="15" fill="#2d8a4e"/>
<rect x="352" y="80" width="4" height="15" fill="#2d8a4e"/>
<rect x="356" y="80" width="4" height="15" fill="#2d8a4e"/>
<rect x="360" y="80" width="4" height="15" fill="#2d8a4e"/>
<rect x="364" y="80" width="4" height="15" fill="#2d8a4e"/>
<rect x="368" y="80" width="4" height="15" fill="#2d8a4e"/>
<rect x="372" y="80" width="4" height="15" fill="#2d8a4e"/>
<rect x="376" y="80" width="4" height="15" fill="#2d8a4e"/>
<rect x="380" y="80" width="4" height="15" fill="#2d8a4e"/>
<rect x="384" y="80" width="4" height="15" fill="#2d8a4e"/>
<rect x="388" y="80" width="4" height="15" fill="#2d8a4e"/>
<rect x="392" y="80" width="4" height="15" fill="#2d8a4e"/>
<rect x="396" y="80" width="4" height="15" fill="#e8b83d"/>
<rect x="400" y="80" width="4" height="15" fill="#c9493b"/>
<rect x="404" y="80" width="4" height="15" fill="#2d8a4e"/>
<rect x="408" y="80" width="4" height="15" fill="#2d8a4e"/>
<rect x="412" y="80" width="4" height="15" fill="#e8b83d"/>
<rect x="416" y="80" width="4" height="15" fill="#e8b83d"/>
<rect x="420" y="80" width="4" height="15" fill="#2d8a4e"/>
<rect x="424" y="80" width="4" height="15" fill="#2d8a4e"/>
<rect x="428" y="80" width="4" height="15" fill="#2d8a4e"/>
<rect x="432" y="80" width="4" height="15" fill="#2d8a4e"/>
<rect x="436" y="80" width="4" height="15" fill="#e8b83d"/>
<rect x="440" y="80" width="4" height="15" fill="#e8b83d"/>
<rect x="444" y="80" width="4" height="15" fill="#2d8a4e"/>
<rect x="448" y="80" width="4" height="15" fill="#2d8a4e"/>
<rect x="452" y="80" width="4" height="15" fill="#2d8a4e"/>
<rect x="456" y="80" width="4" height="15" fill="#e8b83d"/>
<rect x="460" y="80" width="4" height="15" fill="#2d8a4e"/>
<rect x="464" y="80" width="4" height="15" fill="#e8b83d"/>
<rect x="468" y="80" width="4" height="15" fill="#2d8a4e"/>
<rect x="472" y="80" width="4" height="15" fill="#e8b83d"/>
<rect x="476" y="80" width="4" height="15" fill="#e8b83d"/>
<rect x="480" y="80" width="4" height="15" fill="#2d8a4e"/>
<rect x="484" y="80" width="4" height="15" fill="#e8b83d"/>
<rect x="488" y="80" width="4" height="15" fill="#e8b83d"/>
<rect x="492" y="80" width="4" height="15" fill="#e8b83d"/>
<rect x="496" y="80" width="4" height="15" fill="#e8b83d"/>
<rect x="500" y="80" width="4" height="15" fill="#e8b83d"/>
<rect x="504" y="80" width="4" height="15" fill="#e8b83d"/>
<rect x="508" y="80" width="4" height="15" fill="#e8b83d"/>
<rect x="512" y="80" width="4" height="15" fill="#e8b83d"/>
<rect x="516" y="80" width="4" height="15" fill="#e8b83d"/>
<rect x="520" y="80" width="4" height="15" fill="#e8b83d"/>
<text x="180" y="107" class="warn">⚠ 1.2.7 → 1.3.4  (5 sections, avg=0.258)</text>
<text x="20" y="128" class="label">Book 2</text>
<text x="988" y="128" class="stats">n=77  avg=0.507  H=44%  M=35%  L=21%</text>
<rect x="180" y="116" width="4" height="15" fill="#c9493b"/>
<rect x="184" y="116" width="4" height="15" fill="#e8b83d"/>
<rect x="188" y="116" width="4" height="15" fill="#c9493b"/>
<rect x="192" y="116" width="4" height="15" fill="#e8b83d"/>
<rect x="196" y="116" width="4" height="15" fill="#e8b83d"/>
<rect x="200" y="116" width="4" height="15" fill="#c9493b"/>
<rect x="204" y="116" width="4" height="15" fill="#c9493b"/>
<rect x="208" y="116" width="4" height="15" fill="#e8b83d"/>
<rect x="212" y="116" width="4" height="15" fill="#c9493b"/>
<rect x="216" y="116" width="4" height="15" fill="#c9493b"/>
<rect x="220" y="116" width="4" height="15" fill="#e8b83d"/>
<rect x="224" y="116" width="4" height="15" fill="#c9493b"/>
<rect x="228" y="116" width="4" height="15" fill="#c9493b"/>
<rect x="232" y="116" width="4" height="15" fill="#e8b83d"/>
<rect x="236" y="116" width="4" height="15" fill="#e8b83d"/>
<rect x="240" y="116" width="4" height="15" fill="#c9493b"/>
<rect x="244" y="116" width="4" height="15" fill="#c9493b"/>
<rect x="248" y="116" width="4" height="15" fill="#e8b83d"/>
<rect x="252" y="116" width="4" height="15" fill="#e8b83d"/>
<rect x="256" y="116" width="4" height="15" fill="#c9493b"/>
<rect x="260" y="116" width="4" height="15" fill="#e8b83d"/>
<rect x="264" y="116" width="4" height="15" fill="#c9493b"/>
<rect x="268" y="116" width="4" height="15" fill="#e8b83d"/>
<rect x="272" y="116" width="4" height="15" fill="#e8b83d"/>
<rect x="276" y="116" width="4" height="15" fill="#c9493b"/>
<rect x="280" y="116" width="4" height="15" fill="#c9493b"/>
<rect x="284" y="116" width="4" height="15" fill="#c9493b"/>
<rect x="288" y="116" width="4" height="15" fill="#e8b83d"/>
<rect x="292" y="116" width="4" height="15" fill="#c9493b"/>
<rect x="296" y="116" width="4" height="15" fill="#e8b83d"/>
<rect x="300" y="116" width="4" height="15" fill="#e8b83d"/>
<rect x="304" y="116" width="4" height="15" fill="#e8b83d"/>
<rect x="308" y="116" width="4" height="15" fill="#e8b83d"/>
<rect x="312" y="116" width="4" height="15" fill="#2d8a4e"/>
<rect x="316" y="116" width="4" height="15" fill="#e8b83d"/>
<rect x="320" y="116" width="4" height="15" fill="#e8b83d"/>
<rect x="324" y="116" width="4" height="15" fill="#e8b83d"/>
<rect x="328" y="116" width="4" height="15" fill="#2d8a4e"/>
<rect x="332" y="116" width="4" height="15" fill="#2d8a4e"/>
<rect x="336" y="116" width="4" height="15" fill="#2d8a4e"/>
<rect x="340" y="116" width="4" height="15" fill="#2d8a4e"/>
<rect x="344" y="116" width="4" height="15" fill="#2d8a4e"/>
<rect x="348" y="116" width="4" height="15" fill="#2d8a4e"/>
<rect x="352" y="116" width="4" height="15" fill="#2d8a4e"/>
<rect x="356" y="116" width="4" height="15" fill="#2d8a4e"/>
<rect x="360" y="116" width="4" height="15" fill="#e8b83d"/>
<rect x="364" y="116" width="4" height="15" fill="#2d8a4e"/>
<rect x="368" y="116" width="4" height="15" fill="#2d8a4e"/>
<rect x="372" y="116" width="4" height="15" fill="#2d8a4e"/>
<rect x="376" y="116" width="4" height="15" fill="#2d8a4e"/>
<rect x="380" y="116" width="4" height="15" fill="#2d8a4e"/>
<rect x="384" y="116" width="4" height="15" fill="#2d8a4e"/>
<rect x="388" y="116" width="4" height="15" fill="#2d8a4e"/>
<rect x="392" y="116" width="4" height="15" fill="#2d8a4e"/>
<rect x="396" y="116" width="4" height="15" fill="#2d8a4e"/>
<rect x="400" y="116" width="4" height="15" fill="#2d8a4e"/>
<rect x="404" y="116" width="4" height="15" fill="#2d8a4e"/>
<rect x="408" y="116" width="4" height="15" fill="#2d8a4e"/>
<rect x="412" y="116" width="4" height="15" fill="#2d8a4e"/>
<rect x="416" y="116" width="4" height="15" fill="#e8b83d"/>
<rect x="420" y="116" width="4" height="15" fill="#2d8a4e"/>
<rect x="424" y="116" width="4" height="15" fill="#2d8a4e"/>
<rect x="428" y="116" width="4" height="15" fill="#e8b83d"/>
<rect x="432" y="116" width="4" height="15" fill="#2d8a4e"/>
<rect x="436" y="116" width="4" height="15" fill="#2d8a4e"/>
<rect x="440" y="116" width="4" height="15" fill="#e8b83d"/>
<rect x="444" y="116" width="4" height="15" fill="#2d8a4e"/>
<rect x="448" y="116" width="4" height="15" fill="#2d8a4e"/>
<rect x="452" y="116" width="4" height="15" fill="#2d8a4e"/>
<rect x="456" y="116" width="4" height="15" fill="#2d8a4e"/>
<rect x="460" y="116" width="4" height="15" fill="#e8b83d"/>
<rect x="464" y="116" width="4" height="15" fill="#2d8a4e"/>
<rect x="468" y="116" width="4" height="15" fill="#2d8a4e"/>
<rect x="472" y="116" width="4" height="15" fill="#2d8a4e"/>
<rect x="476" y="116" width="4" height="15" fill="#2d8a4e"/>
<rect x="480" y="116" width="4" height="15" fill="#e8b83d"/>
<rect x="484" y="116" width="4" height="15" fill="#e8b83d"/>
<text x="180" y="143" class="warn">⚠ 2.3.14 → 2.3.16  (3 sections, avg=0.149)</text>
<text x="20" y="164" class="label">Book 3</text>
<text x="988" y="164" class="stats">n=104  avg=0.464  H=14%  M=77%  L=9%</text>
<rect x="180" y="152" width="4" height="15" fill="#2d8a4e"/>
<rect x="184" y="152" width="4" height="15" fill="#2d8a4e"/>
<rect x="188" y="152" width="4" height="15" fill="#2d8a4e"/>
<rect x="192" y="152" width="4" height="15" fill="#2d8a4e"/>
<rect x="196" y="152" width="4" height="15" fill="#2d8a4e"/>
<rect x="200" y="152" width="4" height="15" fill="#2d8a4e"/>
<rect x="204" y="152" width="4" height="15" fill="#e8b83d"/>
<rect x="208" y="152" width="4" height="15" fill="#2d8a4e"/>
<rect x="212" y="152" width="4" height="15" fill="#2d8a4e"/>
<rect x="216" y="152" width="4" height="15" fill="#2d8a4e"/>
<rect x="220" y="152" width="4" height="15" fill="#e8b83d"/>
<rect x="224" y="152" width="4" height="15" fill="#e8b83d"/>
<rect x="228" y="152" width="4" height="15" fill="#e8b83d"/>
<rect x="232" y="152" width="4" height="15" fill="#e8b83d"/>
<rect x="236" y="152" width="4" height="15" fill="#e8b83d"/>
<rect x="240" y="152" width="4" height="15" fill="#e8b83d"/>
<rect x="244" y="152" width="4" height="15" fill="#e8b83d"/>
<rect x="248" y="152" width="4" height="15" fill="#e8b83d"/>
<rect x="252" y="152" width="4" height="15" fill="#e8b83d"/>
<rect x="256" y="152" width="4" height="15" fill="#e8b83d"/>
<rect x="260" y="152" width="4" height="15" fill="#e8b83d"/>
<rect x="264" y="152" width="4" height="15" fill="#e8b83d"/>
<rect x="268" y="152" width="4" height="15" fill="#e8b83d"/>
<rect x="272" y="152" width="4" height="15" fill="#e8b83d"/>
<rect x="276" y="152" width="4" height="15" fill="#c9493b"/>
<rect x="280" y="152" width="4" height="15" fill="#e8b83d"/>
<rect x="284" y="152" width="4" height="15" fill="#c9493b"/>
<rect x="288" y="152" width="4" height="15" fill="#e8b83d"/>
<rect x="292" y="152" width="4" height="15" fill="#e8b83d"/>
<rect x="296" y="152" width="4" height="15" fill="#e8b83d"/>
<rect x="300" y="152" width="4" height="15" fill="#e8b83d"/>
<rect x="304" y="152" width="4" height="15" fill="#e8b83d"/>
<rect x="308" y="152" width="4" height="15" fill="#e8b83d"/>
<rect x="312" y="152" width="4" height="15" fill="#e8b83d"/>
<rect x="316" y="152" width="4" height="15" fill="#e8b83d"/>
<rect x="320" y="152" width="4" height="15" fill="#2d8a4e"/>
<rect x="324" y="152" width="4" height="15" fill="#e8b83d"/>
<rect x="328" y="152" width="4" height="15" fill="#e8b83d"/>
<rect x="332" y="152" width="4" height="15" fill="#e8b83d"/>
<rect x="336" y="152" width="4" height="15" fill="#e8b83d"/>
<rect x="340" y="152" width="4" height="15" fill="#e8b83d"/>
<rect x="344" y="152" width="4" height="15" fill="#e8b83d"/>
<rect x="348" y="152" width="4" height="15" fill="#e8b83d"/>
<rect x="352" y="152" width="4" height="15" fill="#c9493b"/>
<rect x="356" y="152" width="4" height="15" fill="#c9493b"/>
<rect x="360" y="152" width="4" height="15" fill="#e8b83d"/>
<rect x="364" y="152" width="4" height="15" fill="#2d8a4e"/>
<rect x="368" y="152" width="4" height="15" fill="#c9493b"/>
<rect x="372" y="152" width="4" height="15" fill="#c9493b"/>
<rect x="376" y="152" width="4" height="15" fill="#c9493b"/>
<rect x="380" y="152" width="4" height="15" fill="#e8b83d"/>
<rect x="384" y="152" width="4" height="15" fill="#e8b83d"/>
<rect x="388" y="152" width="4" height="15" fill="#e8b83d"/>
<rect x="392" y="152" width="4" height="15" fill="#e8b83d"/>
<rect x="396" y="152" width="4" height="15" fill="#e8b83d"/>
<rect x="400" y="152" width="4" height="15" fill="#2d8a4e"/>
<rect x="404" y="152" width="4" height="15" fill="#e8b83d"/>
<rect x="408" y="152" width="4" height="15" fill="#e8b83d"/>
<rect x="412" y="152" width="4" height="15" fill="#e8b83d"/>
<rect x="416" y="152" width="4" height="15" fill="#e8b83d"/>
<rect x="420" y="152" width="4" height="15" fill="#e8b83d"/>
<rect x="424" y="152" width="4" height="15" fill="#e8b83d"/>
<rect x="428" y="152" width="4" height="15" fill="#e8b83d"/>
<rect x="432" y="152" width="4" height="15" fill="#e8b83d"/>
<rect x="436" y="152" width="4" height="15" fill="#e8b83d"/>
<rect x="440" y="152" width="4" height="15" fill="#e8b83d"/>
<rect x="444" y="152" width="4" height="15" fill="#e8b83d"/>
<rect x="448" y="152" width="4" height="15" fill="#e8b83d"/>
<rect x="452" y="152" width="4" height="15" fill="#e8b83d"/>
<rect x="456" y="152" width="4" height="15" fill="#e8b83d"/>
<rect x="460" y="152" width="4" height="15" fill="#e8b83d"/>
<rect x="464" y="152" width="4" height="15" fill="#e8b83d"/>
<rect x="468" y="152" width="4" height="15" fill="#e8b83d"/>
<rect x="472" y="152" width="4" height="15" fill="#e8b83d"/>
<rect x="476" y="152" width="4" height="15" fill="#e8b83d"/>
<rect x="480" y="152" width="4" height="15" fill="#e8b83d"/>
<rect x="484" y="152" width="4" height="15" fill="#e8b83d"/>
<rect x="488" y="152" width="4" height="15" fill="#e8b83d"/>
<rect x="492" y="152" width="4" height="15" fill="#e8b83d"/>
<rect x="496" y="152" width="4" height="15" fill="#e8b83d"/>
<rect x="500" y="152" width="4" height="15" fill="#e8b83d"/>
<rect x="504" y="152" width="4" height="15" fill="#e8b83d"/>
<rect x="508" y="152" width="4" height="15" fill="#e8b83d"/>
<rect x="512" y="152" width="4" height="15" fill="#e8b83d"/>
<rect x="516" y="152" width="4" height="15" fill="#e8b83d"/>
<rect x="520" y="152" width="4" height="15" fill="#c9493b"/>
<rect x="524" y="152" width="4" height="15" fill="#e8b83d"/>
<rect x="528" y="152" width="4" height="15" fill="#e8b83d"/>
<rect x="532" y="152" width="4" height="15" fill="#c9493b"/>
<rect x="536" y="152" width="4" height="15" fill="#e8b83d"/>
<rect x="540" y="152" width="4" height="15" fill="#e8b83d"/>
<rect x="544" y="152" width="4" height="15" fill="#e8b83d"/>
<rect x="548" y="152" width="4" height="15" fill="#e8b83d"/>
<rect x="552" y="152" width="4" height="15" fill="#e8b83d"/>
<rect x="556" y="152" width="4" height="15" fill="#e8b83d"/>
<rect x="560" y="152" width="4" height="15" fill="#e8b83d"/>
<rect x="564" y="152" width="4" height="15" fill="#e8b83d"/>
<rect x="568" y="152" width="4" height="15" fill="#e8b83d"/>
<rect x="572" y="152" width="4" height="15" fill="#e8b83d"/>
<rect x="576" y="152" width="4" height="15" fill="#2d8a4e"/>
<rect x="580" y="152" width="4" height="15" fill="#2d8a4e"/>
<rect x="584" y="152" width="4" height="15" fill="#2d8a4e"/>
<rect x="588" y="152" width="4" height="15" fill="#e8b83d"/>
<rect x="592" y="152" width="4" height="15" fill="#e8b83d"/>
<text x="180" y="179" class="warn">⚠ 3.5.5 → 3.5.7  (3 sections, avg=0.237)</text>
<text x="20" y="200" class="label">Book 4</text>
<text x="988" y="200" class="stats">n=122  avg=0.502  H=29%  M=61%  L=10%</text>
<rect x="180" y="188" width="4" height="15" fill="#2d8a4e"/>
<rect x="184" y="188" width="4" height="15" fill="#e8b83d"/>
<rect x="188" y="188" width="4" height="15" fill="#2d8a4e"/>
<rect x="192" y="188" width="4" height="15" fill="#2d8a4e"/>
<rect x="196" y="188" width="4" height="15" fill="#e8b83d"/>
<rect x="200" y="188" width="4" height="15" fill="#e8b83d"/>
<rect x="204" y="188" width="4" height="15" fill="#2d8a4e"/>
<rect x="208" y="188" width="4" height="15" fill="#e8b83d"/>
<rect x="212" y="188" width="4" height="15" fill="#e8b83d"/>
<rect x="216" y="188" width="4" height="15" fill="#e8b83d"/>
<rect x="220" y="188" width="4" height="15" fill="#e8b83d"/>
<rect x="224" y="188" width="4" height="15" fill="#e8b83d"/>
<rect x="228" y="188" width="4" height="15" fill="#2d8a4e"/>
<rect x="232" y="188" width="4" height="15" fill="#e8b83d"/>
<rect x="236" y="188" width="4" height="15" fill="#e8b83d"/>
<rect x="240" y="188" width="4" height="15" fill="#c9493b"/>
<rect x="244" y="188" width="4" height="15" fill="#2d8a4e"/>
<rect x="248" y="188" width="4" height="15" fill="#c9493b"/>
<rect x="252" y="188" width="4" height="15" fill="#e8b83d"/>
<rect x="256" y="188" width="4" height="15" fill="#e8b83d"/>
<rect x="260" y="188" width="4" height="15" fill="#2d8a4e"/>
<rect x="264" y="188" width="4" height="15" fill="#e8b83d"/>
<rect x="268" y="188" width="4" height="15" fill="#2d8a4e"/>
<rect x="272" y="188" width="4" height="15" fill="#e8b83d"/>
<rect x="276" y="188" width="4" height="15" fill="#2d8a4e"/>
<rect x="280" y="188" width="4" height="15" fill="#e8b83d"/>
<rect x="284" y="188" width="4" height="15" fill="#e8b83d"/>
<rect x="288" y="188" width="4" height="15" fill="#e8b83d"/>
<rect x="292" y="188" width="4" height="15" fill="#e8b83d"/>
<rect x="296" y="188" width="4" height="15" fill="#e8b83d"/>
<rect x="300" y="188" width="4" height="15" fill="#e8b83d"/>
<rect x="304" y="188" width="4" height="15" fill="#e8b83d"/>
<rect x="308" y="188" width="4" height="15" fill="#e8b83d"/>
<rect x="312" y="188" width="4" height="15" fill="#e8b83d"/>
<rect x="316" y="188" width="4" height="15" fill="#e8b83d"/>
<rect x="320" y="188" width="4" height="15" fill="#e8b83d"/>
<rect x="324" y="188" width="4" height="15" fill="#e8b83d"/>
<rect x="328" y="188" width="4" height="15" fill="#e8b83d"/>
<rect x="332" y="188" width="4" height="15" fill="#e8b83d"/>
<rect x="336" y="188" width="4" height="15" fill="#2d8a4e"/>
<rect x="340" y="188" width="4" height="15" fill="#e8b83d"/>
<rect x="344" y="188" width="4" height="15" fill="#e8b83d"/>
<rect x="348" y="188" width="4" height="15" fill="#e8b83d"/>
<rect x="352" y="188" width="4" height="15" fill="#e8b83d"/>
<rect x="356" y="188" width="4" height="15" fill="#c9493b"/>
<rect x="360" y="188" width="4" height="15" fill="#e8b83d"/>
<rect x="364" y="188" width="4" height="15" fill="#e8b83d"/>
<rect x="368" y="188" width="4" height="15" fill="#2d8a4e"/>
<rect x="372" y="188" width="4" height="15" fill="#e8b83d"/>
<rect x="376" y="188" width="4" height="15" fill="#e8b83d"/>
<rect x="380" y="188" width="4" height="15" fill="#e8b83d"/>
<rect x="384" y="188" width="4" height="15" fill="#e8b83d"/>
<rect x="388" y="188" width="4" height="15" fill="#e8b83d"/>
<rect x="392" y="188" width="4" height="15" fill="#e8b83d"/>
<rect x="396" y="188" width="4" height="15" fill="#e8b83d"/>
<rect x="400" y="188" width="4" height="15" fill="#e8b83d"/>
<rect x="404" y="188" width="4" height="15" fill="#e8b83d"/>
<rect x="408" y="188" width="4" height="15" fill="#e8b83d"/>
<rect x="412" y="188" width="4" height="15" fill="#2d8a4e"/>
<rect x="416" y="188" width="4" height="15" fill="#e8b83d"/>
<rect x="420" y="188" width="4" height="15" fill="#e8b83d"/>
<rect x="424" y="188" width="4" height="15" fill="#e8b83d"/>
<rect x="428" y="188" width="4" height="15" fill="#c9493b"/>
<rect x="432" y="188" width="4" height="15" fill="#e8b83d"/>
<rect x="436" y="188" width="4" height="15" fill="#e8b83d"/>
<rect x="440" y="188" width="4" height="15" fill="#c9493b"/>
<rect x="444" y="188" width="4" height="15" fill="#2d8a4e"/>
<rect x="448" y="188" width="4" height="15" fill="#e8b83d"/>
<rect x="452" y="188" width="4" height="15" fill="#e8b83d"/>
<rect x="456" y="188" width="4" height="15" fill="#c9493b"/>
<rect x="460" y="188" width="4" height="15" fill="#e8b83d"/>
<rect x="464" y="188" width="4" height="15" fill="#e8b83d"/>
<rect x="468" y="188" width="4" height="15" fill="#c9493b"/>
<rect x="472" y="188" width="4" height="15" fill="#e8b83d"/>
<rect x="476" y="188" width="4" height="15" fill="#e8b83d"/>
<rect x="480" y="188" width="4" height="15" fill="#e8b83d"/>
<rect x="484" y="188" width="4" height="15" fill="#e8b83d"/>
<rect x="488" y="188" width="4" height="15" fill="#c9493b"/>
<rect x="492" y="188" width="4" height="15" fill="#e8b83d"/>
<rect x="496" y="188" width="4" height="15" fill="#e8b83d"/>
<rect x="500" y="188" width="4" height="15" fill="#e8b83d"/>
<rect x="504" y="188" width="4" height="15" fill="#2d8a4e"/>
<rect x="508" y="188" width="4" height="15" fill="#2d8a4e"/>
<rect x="512" y="188" width="4" height="15" fill="#e8b83d"/>
<rect x="516" y="188" width="4" height="15" fill="#2d8a4e"/>
<rect x="520" y="188" width="4" height="15" fill="#e8b83d"/>
<rect x="524" y="188" width="4" height="15" fill="#e8b83d"/>
<rect x="528" y="188" width="4" height="15" fill="#e8b83d"/>
<rect x="532" y="188" width="4" height="15" fill="#e8b83d"/>
<rect x="536" y="188" width="4" height="15" fill="#2d8a4e"/>
<rect x="540" y="188" width="4" height="15" fill="#e8b83d"/>
<rect x="544" y="188" width="4" height="15" fill="#e8b83d"/>
<rect x="548" y="188" width="4" height="15" fill="#e8b83d"/>
<rect x="552" y="188" width="4" height="15" fill="#2d8a4e"/>
<rect x="556" y="188" width="4" height="15" fill="#2d8a4e"/>
<rect x="560" y="188" width="4" height="15" fill="#e8b83d"/>
<rect x="564" y="188" width="4" height="15" fill="#2d8a4e"/>
<rect x="568" y="188" width="4" height="15" fill="#2d8a4e"/>
<rect x="572" y="188" width="4" height="15" fill="#2d8a4e"/>
<rect x="576" y="188" width="4" height="15" fill="#2d8a4e"/>
<rect x="580" y="188" width="4" height="15" fill="#2d8a4e"/>
<rect x="584" y="188" width="4" height="15" fill="#2d8a4e"/>
<rect x="588" y="188" width="4" height="15" fill="#2d8a4e"/>
<rect x="592" y="188" width="4" height="15" fill="#2d8a4e"/>
<rect x="596" y="188" width="4" height="15" fill="#2d8a4e"/>
<rect x="600" y="188" width="4" height="15" fill="#2d8a4e"/>
<rect x="604" y="188" width="4" height="15" fill="#2d8a4e"/>
<rect x="608" y="188" width="4" height="15" fill="#2d8a4e"/>
<rect x="612" y="188" width="4" height="15" fill="#c9493b"/>
<rect x="616" y="188" width="4" height="15" fill="#c9493b"/>
<rect x="620" y="188" width="4" height="15" fill="#c9493b"/>
<rect x="624" y="188" width="4" height="15" fill="#c9493b"/>
<rect x="628" y="188" width="4" height="15" fill="#e8b83d"/>
<rect x="632" y="188" width="4" height="15" fill="#e8b83d"/>
<rect x="636" y="188" width="4" height="15" fill="#e8b83d"/>
<rect x="640" y="188" width="4" height="15" fill="#e8b83d"/>
<rect x="644" y="188" width="4" height="15" fill="#e8b83d"/>
<rect x="648" y="188" width="4" height="15" fill="#e8b83d"/>
<rect x="652" y="188" width="4" height="15" fill="#2d8a4e"/>
<rect x="656" y="188" width="4" height="15" fill="#2d8a4e"/>
<rect x="660" y="188" width="4" height="15" fill="#2d8a4e"/>
<rect x="664" y="188" width="4" height="15" fill="#2d8a4e"/>
<text x="180" y="215" class="warn">⚠ 4.7.15 → 4.8.3  (4 sections, avg=0.171)</text>
<text x="20" y="236" class="label">Book 5</text>
<text x="988" y="236" class="stats">n=82  avg=0.485  H=35%  M=45%  L=20%</text>
<rect x="180" y="224" width="4" height="15" fill="#c9493b"/>
<rect x="184" y="224" width="4" height="15" fill="#e8b83d"/>
<rect x="188" y="224" width="4" height="15" fill="#c9493b"/>
<rect x="192" y="224" width="4" height="15" fill="#e8b83d"/>
<rect x="196" y="224" width="4" height="15" fill="#e8b83d"/>
<rect x="200" y="224" width="4" height="15" fill="#e8b83d"/>
<rect x="204" y="224" width="4" height="15" fill="#e8b83d"/>
<rect x="208" y="224" width="4" height="15" fill="#c9493b"/>
<rect x="212" y="224" width="4" height="15" fill="#c9493b"/>
<rect x="216" y="224" width="4" height="15" fill="#2d8a4e"/>
<rect x="220" y="224" width="4" height="15" fill="#e8b83d"/>
<rect x="224" y="224" width="4" height="15" fill="#2d8a4e"/>
<rect x="228" y="224" width="4" height="15" fill="#e8b83d"/>
<rect x="232" y="224" width="4" height="15" fill="#c9493b"/>
<rect x="236" y="224" width="4" height="15" fill="#2d8a4e"/>
<rect x="240" y="224" width="4" height="15" fill="#c9493b"/>
<rect x="244" y="224" width="4" height="15" fill="#e8b83d"/>
<rect x="248" y="224" width="4" height="15" fill="#c9493b"/>
<rect x="252" y="224" width="4" height="15" fill="#2d8a4e"/>
<rect x="256" y="224" width="4" height="15" fill="#2d8a4e"/>
<rect x="260" y="224" width="4" height="15" fill="#e8b83d"/>
<rect x="264" y="224" width="4" height="15" fill="#e8b83d"/>
<rect x="268" y="224" width="4" height="15" fill="#c9493b"/>
<rect x="272" y="224" width="4" height="15" fill="#e8b83d"/>
<rect x="276" y="224" width="4" height="15" fill="#e8b83d"/>
<rect x="280" y="224" width="4" height="15" fill="#e8b83d"/>
<rect x="284" y="224" width="4" height="15" fill="#e8b83d"/>
<rect x="288" y="224" width="4" height="15" fill="#c9493b"/>
<rect x="292" y="224" width="4" height="15" fill="#e8b83d"/>
<rect x="296" y="224" width="4" height="15" fill="#2d8a4e"/>
<rect x="300" y="224" width="4" height="15" fill="#e8b83d"/>
<rect x="304" y="224" width="4" height="15" fill="#2d8a4e"/>
<rect x="308" y="224" width="4" height="15" fill="#2d8a4e"/>
<rect x="312" y="224" width="4" height="15" fill="#e8b83d"/>
<rect x="316" y="224" width="4" height="15" fill="#e8b83d"/>
<rect x="320" y="224" width="4" height="15" fill="#e8b83d"/>
<rect x="324" y="224" width="4" height="15" fill="#e8b83d"/>
<rect x="328" y="224" width="4" height="15" fill="#c9493b"/>
<rect x="332" y="224" width="4" height="15" fill="#2d8a4e"/>
<rect x="336" y="224" width="4" height="15" fill="#e8b83d"/>
<rect x="340" y="224" width="4" height="15" fill="#e8b83d"/>
<rect x="344" y="224" width="4" height="15" fill="#e8b83d"/>
<rect x="348" y="224" width="4" height="15" fill="#e8b83d"/>
<rect x="352" y="224" width="4" height="15" fill="#e8b83d"/>
<rect x="356" y="224" width="4" height="15" fill="#c9493b"/>
<rect x="360" y="224" width="4" height="15" fill="#c9493b"/>
<rect x="364" y="224" width="4" height="15" fill="#e8b83d"/>
<rect x="368" y="224" width="4" height="15" fill="#c9493b"/>
<rect x="372" y="224" width="4" height="15" fill="#c9493b"/>
<rect x="376" y="224" width="4" height="15" fill="#2d8a4e"/>
<rect x="380" y="224" width="4" height="15" fill="#e8b83d"/>
<rect x="384" y="224" width="4" height="15" fill="#e8b83d"/>
<rect x="388" y="224" width="4" height="15" fill="#c9493b"/>
<rect x="392" y="224" width="4" height="15" fill="#e8b83d"/>
<rect x="396" y="224" width="4" height="15" fill="#e8b83d"/>
<rect x="400" y="224" width="4" height="15" fill="#2d8a4e"/>
<rect x="404" y="224" width="4" height="15" fill="#2d8a4e"/>
<rect x="408" y="224" width="4" height="15" fill="#2d8a4e"/>
<rect x="412" y="224" width="4" height="15" fill="#2d8a4e"/>
<rect x="416" y="224" width="4" height="15" fill="#2d8a4e"/>
<rect x="420" y="224" width="4" height="15" fill="#2d8a4e"/>
<rect x="424" y="224" width="4" height="15" fill="#2d8a4e"/>
<rect x="428" y="224" width="4" height="15" fill="#2d8a4e"/>
<rect x="432" y="224" width="4" height="15" fill="#2d8a4e"/>
<rect x="436" y="224" width="4" height="15" fill="#e8b83d"/>
<rect x="440" y="224" width="4" height="15" fill="#2d8a4e"/>
<rect x="444" y="224" width="4" height="15" fill="#2d8a4e"/>
<rect x="448" y="224" width="4" height="15" fill="#2d8a4e"/>
<rect x="452" y="224" width="4" height="15" fill="#c9493b"/>
<rect x="456" y="224" width="4" height="15" fill="#e8b83d"/>
<rect x="460" y="224" width="4" height="15" fill="#e8b83d"/>
<rect x="464" y="224" width="4" height="15" fill="#e8b83d"/>
<rect x="468" y="224" width="4" height="15" fill="#2d8a4e"/>
<rect x="472" y="224" width="4" height="15" fill="#e8b83d"/>
<rect x="476" y="224" width="4" height="15" fill="#e8b83d"/>
<rect x="480" y="224" width="4" height="15" fill="#2d8a4e"/>
<rect x="484" y="224" width="4" height="15" fill="#2d8a4e"/>
<rect x="488" y="224" width="4" height="15" fill="#2d8a4e"/>
<rect x="492" y="224" width="4" height="15" fill="#2d8a4e"/>
<rect x="496" y="224" width="4" height="15" fill="#e8b83d"/>
<rect x="500" y="224" width="4" height="15" fill="#2d8a4e"/>
<rect x="504" y="224" width="4" height="15" fill="#2d8a4e"/>
<text x="20" y="258" class="label">Book 6</text>
<text x="988" y="258" class="stats">n=207  avg=0.500  H=40%  M=35%  L=25%</text>
<rect x="180" y="246" width="4" height="15" fill="#c9493b"/>
<rect x="184" y="246" width="4" height="15" fill="#e8b83d"/>
<rect x="188" y="246" width="4" height="15" fill="#2d8a4e"/>
<rect x="192" y="246" width="4" height="15" fill="#e8b83d"/>
<rect x="196" y="246" width="4" height="15" fill="#e8b83d"/>
<rect x="200" y="246" width="4" height="15" fill="#e8b83d"/>
<rect x="204" y="246" width="4" height="15" fill="#e8b83d"/>
<rect x="208" y="246" width="4" height="15" fill="#2d8a4e"/>
<rect x="212" y="246" width="4" height="15" fill="#e8b83d"/>
<rect x="216" y="246" width="4" height="15" fill="#e8b83d"/>
<rect x="220" y="246" width="4" height="15" fill="#2d8a4e"/>
<rect x="224" y="246" width="4" height="15" fill="#e8b83d"/>
<rect x="228" y="246" width="4" height="15" fill="#c9493b"/>
<rect x="232" y="246" width="4" height="15" fill="#e8b83d"/>
<rect x="236" y="246" width="4" height="15" fill="#e8b83d"/>
<rect x="240" y="246" width="4" height="15" fill="#e8b83d"/>
<rect x="244" y="246" width="4" height="15" fill="#2d8a4e"/>
<rect x="248" y="246" width="4" height="15" fill="#e8b83d"/>
<rect x="252" y="246" width="4" height="15" fill="#c9493b"/>
<rect x="256" y="246" width="4" height="15" fill="#c9493b"/>
<rect x="260" y="246" width="4" height="15" fill="#c9493b"/>
<rect x="264" y="246" width="4" height="15" fill="#e8b83d"/>
<rect x="268" y="246" width="4" height="15" fill="#c9493b"/>
<rect x="272" y="246" width="4" height="15" fill="#e8b83d"/>
<rect x="276" y="246" width="4" height="15" fill="#e8b83d"/>
<rect x="280" y="246" width="4" height="15" fill="#e8b83d"/>
<rect x="284" y="246" width="4" height="15" fill="#e8b83d"/>
<rect x="288" y="246" width="4" height="15" fill="#c9493b"/>
<rect x="292" y="246" width="4" height="15" fill="#e8b83d"/>
<rect x="296" y="246" width="4" height="15" fill="#e8b83d"/>
<rect x="300" y="246" width="4" height="15" fill="#c9493b"/>
<rect x="304" y="246" width="4" height="15" fill="#e8b83d"/>
<rect x="308" y="246" width="4" height="15" fill="#e8b83d"/>
<rect x="312" y="246" width="4" height="15" fill="#e8b83d"/>
<rect x="316" y="246" width="4" height="15" fill="#e8b83d"/>
<rect x="320" y="246" width="4" height="15" fill="#e8b83d"/>
<rect x="324" y="246" width="4" height="15" fill="#e8b83d"/>
<rect x="328" y="246" width="4" height="15" fill="#e8b83d"/>
<rect x="332" y="246" width="4" height="15" fill="#e8b83d"/>
<rect x="336" y="246" width="4" height="15" fill="#e8b83d"/>
<rect x="340" y="246" width="4" height="15" fill="#c9493b"/>
<rect x="344" y="246" width="4" height="15" fill="#c9493b"/>
<rect x="348" y="246" width="4" height="15" fill="#c9493b"/>
<rect x="352" y="246" width="4" height="15" fill="#c9493b"/>
<rect x="356" y="246" width="4" height="15" fill="#c9493b"/>
<rect x="360" y="246" width="4" height="15" fill="#c9493b"/>
<rect x="364" y="246" width="4" height="15" fill="#c9493b"/>
<rect x="368" y="246" width="4" height="15" fill="#c9493b"/>
<rect x="372" y="246" width="4" height="15" fill="#c9493b"/>
<rect x="376" y="246" width="4" height="15" fill="#c9493b"/>
<rect x="380" y="246" width="4" height="15" fill="#e8b83d"/>
<rect x="384" y="246" width="4" height="15" fill="#c9493b"/>
<rect x="388" y="246" width="4" height="15" fill="#c9493b"/>
<rect x="392" y="246" width="4" height="15" fill="#c9493b"/>
<rect x="396" y="246" width="4" height="15" fill="#c9493b"/>
<rect x="400" y="246" width="4" height="15" fill="#c9493b"/>
<rect x="404" y="246" width="4" height="15" fill="#c9493b"/>
<rect x="408" y="246" width="4" height="15" fill="#c9493b"/>
<rect x="412" y="246" width="4" height="15" fill="#e8b83d"/>
<rect x="416" y="246" width="4" height="15" fill="#c9493b"/>
<rect x="420" y="246" width="4" height="15" fill="#c9493b"/>
<rect x="424" y="246" width="4" height="15" fill="#c9493b"/>
<rect x="428" y="246" width="4" height="15" fill="#e8b83d"/>
<rect x="432" y="246" width="4" height="15" fill="#c9493b"/>
<rect x="436" y="246" width="4" height="15" fill="#c9493b"/>
<rect x="440" y="246" width="4" height="15" fill="#e8b83d"/>
<rect x="444" y="246" width="4" height="15" fill="#e8b83d"/>
<rect x="448" y="246" width="4" height="15" fill="#e8b83d"/>
<rect x="452" y="246" width="4" height="15" fill="#c9493b"/>
<rect x="456" y="246" width="4" height="15" fill="#e8b83d"/>
<rect x="460" y="246" width="4" height="15" fill="#c9493b"/>
<rect x="464" y="246" width="4" height="15" fill="#c9493b"/>
<rect x="468" y="246" width="4" height="15" fill="#c9493b"/>
<rect x="472" y="246" width="4" height="15" fill="#2d8a4e"/>
<rect x="476" y="246" width="4" height="15" fill="#e8b83d"/>
<rect x="480" y="246" width="4" height="15" fill="#c9493b"/>
<rect x="484" y="246" width="4" height="15" fill="#c9493b"/>
<rect x="488" y="246" width="4" height="15" fill="#c9493b"/>
<rect x="492" y="246" width="4" height="15" fill="#c9493b"/>
<rect x="496" y="246" width="4" height="15" fill="#e8b83d"/>
<rect x="500" y="246" width="4" height="15" fill="#c9493b"/>
<rect x="504" y="246" width="4" height="15" fill="#c9493b"/>
<rect x="508" y="246" width="4" height="15" fill="#e8b83d"/>
<rect x="512" y="246" width="4" height="15" fill="#e8b83d"/>
<rect x="516" y="246" width="4" height="15" fill="#2d8a4e"/>
<rect x="520" y="246" width="4" height="15" fill="#e8b83d"/>
<rect x="524" y="246" width="4" height="15" fill="#c9493b"/>
<rect x="528" y="246" width="4" height="15" fill="#e8b83d"/>
<rect x="532" y="246" width="4" height="15" fill="#c9493b"/>
<rect x="536" y="246" width="4" height="15" fill="#e8b83d"/>
<rect x="540" y="246" width="4" height="15" fill="#e8b83d"/>
<rect x="544" y="246" width="4" height="15" fill="#e8b83d"/>
<rect x="548" y="246" width="4" height="15" fill="#e8b83d"/>
<rect x="552" y="246" width="4" height="15" fill="#e8b83d"/>
<rect x="556" y="246" width="4" height="15" fill="#e8b83d"/>
<rect x="560" y="246" width="4" height="15" fill="#c9493b"/>
<rect x="564" y="246" width="4" height="15" fill="#e8b83d"/>
<rect x="568" y="246" width="4" height="15" fill="#c9493b"/>
<rect x="572" y="246" width="4" height="15" fill="#e8b83d"/>
<rect x="576" y="246" width="4" height="15" fill="#2d8a4e"/>
<rect x="580" y="246" width="4" height="15" fill="#e8b83d"/>
<rect x="584" y="246" width="4" height="15" fill="#e8b83d"/>
<rect x="588" y="246" width="4" height="15" fill="#c9493b"/>
<rect x="592" y="246" width="4" height="15" fill="#e8b83d"/>
<rect x="596" y="246" width="4" height="15" fill="#e8b83d"/>
<rect x="600" y="246" width="4" height="15" fill="#e8b83d"/>
<rect x="604" y="246" width="4" height="15" fill="#c9493b"/>
<rect x="608" y="246" width="4" height="15" fill="#c9493b"/>
<rect x="612" y="246" width="4" height="15" fill="#c9493b"/>
<rect x="616" y="246" width="4" height="15" fill="#e8b83d"/>
<rect x="620" y="246" width="4" height="15" fill="#e8b83d"/>
<rect x="624" y="246" width="4" height="15" fill="#c9493b"/>
<rect x="628" y="246" width="4" height="15" fill="#c9493b"/>
<rect x="632" y="246" width="4" height="15" fill="#e8b83d"/>
<rect x="636" y="246" width="4" height="15" fill="#2d8a4e"/>
<rect x="640" y="246" width="4" height="15" fill="#2d8a4e"/>
<rect x="644" y="246" width="4" height="15" fill="#2d8a4e"/>
<rect x="648" y="246" width="4" height="15" fill="#2d8a4e"/>
<rect x="652" y="246" width="4" height="15" fill="#2d8a4e"/>
<rect x="656" y="246" width="4" height="15" fill="#2d8a4e"/>
<rect x="660" y="246" width="4" height="15" fill="#2d8a4e"/>
<rect x="664" y="246" width="4" height="15" fill="#2d8a4e"/>
<rect x="668" y="246" width="4" height="15" fill="#2d8a4e"/>
<rect x="672" y="246" width="4" height="15" fill="#2d8a4e"/>
<rect x="676" y="246" width="4" height="15" fill="#2d8a4e"/>
<rect x="680" y="246" width="4" height="15" fill="#2d8a4e"/>
<rect x="684" y="246" width="4" height="15" fill="#2d8a4e"/>
<rect x="688" y="246" width="4" height="15" fill="#2d8a4e"/>
<rect x="692" y="246" width="4" height="15" fill="#2d8a4e"/>
<rect x="696" y="246" width="4" height="15" fill="#2d8a4e"/>
<rect x="700" y="246" width="4" height="15" fill="#2d8a4e"/>
<rect x="704" y="246" width="4" height="15" fill="#2d8a4e"/>
<rect x="708" y="246" width="4" height="15" fill="#2d8a4e"/>
<rect x="712" y="246" width="4" height="15" fill="#2d8a4e"/>
<rect x="716" y="246" width="4" height="15" fill="#2d8a4e"/>
<rect x="720" y="246" width="4" height="15" fill="#2d8a4e"/>
<rect x="724" y="246" width="4" height="15" fill="#2d8a4e"/>
<rect x="728" y="246" width="4" height="15" fill="#2d8a4e"/>
<rect x="732" y="246" width="4" height="15" fill="#2d8a4e"/>
<rect x="736" y="246" width="4" height="15" fill="#2d8a4e"/>
<rect x="740" y="246" width="4" height="15" fill="#2d8a4e"/>
<rect x="744" y="246" width="4" height="15" fill="#2d8a4e"/>
<rect x="748" y="246" width="4" height="15" fill="#2d8a4e"/>
<rect x="752" y="246" width="4" height="15" fill="#2d8a4e"/>
<rect x="756" y="246" width="4" height="15" fill="#2d8a4e"/>
<rect x="760" y="246" width="4" height="15" fill="#2d8a4e"/>
<rect x="764" y="246" width="4" height="15" fill="#2d8a4e"/>
<rect x="768" y="246" width="4" height="15" fill="#2d8a4e"/>
<rect x="772" y="246" width="4" height="15" fill="#2d8a4e"/>
<rect x="776" y="246" width="4" height="15" fill="#2d8a4e"/>
<rect x="780" y="246" width="4" height="15" fill="#2d8a4e"/>
<rect x="784" y="246" width="4" height="15" fill="#2d8a4e"/>
<rect x="788" y="246" width="4" height="15" fill="#2d8a4e"/>
<rect x="792" y="246" width="4" height="15" fill="#2d8a4e"/>
<rect x="796" y="246" width="4" height="15" fill="#2d8a4e"/>
<rect x="800" y="246" width="4" height="15" fill="#2d8a4e"/>
<rect x="804" y="246" width="4" height="15" fill="#2d8a4e"/>
<rect x="808" y="246" width="4" height="15" fill="#2d8a4e"/>
<rect x="812" y="246" width="4" height="15" fill="#2d8a4e"/>
<rect x="816" y="246" width="4" height="15" fill="#2d8a4e"/>
<rect x="820" y="246" width="4" height="15" fill="#2d8a4e"/>
<rect x="824" y="246" width="4" height="15" fill="#2d8a4e"/>
<rect x="828" y="246" width="4" height="15" fill="#2d8a4e"/>
<rect x="832" y="246" width="4" height="15" fill="#2d8a4e"/>
<rect x="836" y="246" width="4" height="15" fill="#2d8a4e"/>
<rect x="840" y="246" width="4" height="15" fill="#2d8a4e"/>
<rect x="844" y="246" width="4" height="15" fill="#2d8a4e"/>
<rect x="848" y="246" width="4" height="15" fill="#e8b83d"/>
<rect x="852" y="246" width="4" height="15" fill="#2d8a4e"/>
<rect x="856" y="246" width="4" height="15" fill="#2d8a4e"/>
<rect x="860" y="246" width="4" height="15" fill="#2d8a4e"/>
<rect x="864" y="246" width="4" height="15" fill="#2d8a4e"/>
<rect x="868" y="246" width="4" height="15" fill="#2d8a4e"/>
<rect x="872" y="246" width="4" height="15" fill="#2d8a4e"/>
<rect x="876" y="246" width="4" height="15" fill="#e8b83d"/>
<rect x="880" y="246" width="4" height="15" fill="#2d8a4e"/>
<rect x="884" y="246" width="4" height="15" fill="#c9493b"/>
<rect x="888" y="246" width="4" height="15" fill="#e8b83d"/>
<rect x="892" y="246" width="4" height="15" fill="#2d8a4e"/>
<rect x="896" y="246" width="4" height="15" fill="#e8b83d"/>
<rect x="900" y="246" width="4" height="15" fill="#e8b83d"/>
<rect x="904" y="246" width="4" height="15" fill="#e8b83d"/>
<rect x="908" y="246" width="4" height="15" fill="#2d8a4e"/>
<rect x="912" y="246" width="4" height="15" fill="#2d8a4e"/>
<rect x="916" y="246" width="4" height="15" fill="#2d8a4e"/>
<rect x="920" y="246" width="4" height="15" fill="#2d8a4e"/>
<rect x="924" y="246" width="4" height="15" fill="#e8b83d"/>
<rect x="928" y="246" width="4" height="15" fill="#2d8a4e"/>
<rect x="932" y="246" width="4" height="15" fill="#e8b83d"/>
<rect x="936" y="246" width="4" height="15" fill="#e8b83d"/>
<rect x="940" y="246" width="4" height="15" fill="#2d8a4e"/>
<rect x="944" y="246" width="4" height="15" fill="#2d8a4e"/>
<rect x="948" y="246" width="4" height="15" fill="#e8b83d"/>
<rect x="952" y="246" width="4" height="15" fill="#2d8a4e"/>
<rect x="956" y="246" width="4" height="15" fill="#2d8a4e"/>
<rect x="960" y="246" width="4" height="15" fill="#e8b83d"/>
<rect x="964" y="246" width="4" height="15" fill="#2d8a4e"/>
<rect x="968" y="246" width="4" height="15" fill="#2d8a4e"/>
<rect x="972" y="246" width="4" height="15" fill="#e8b83d"/>
<rect x="976" y="246" width="4" height="15" fill="#2d8a4e"/>
<rect x="180" y="262" width="4" height="15" fill="#2d8a4e"/>
<rect x="184" y="262" width="4" height="15" fill="#c9493b"/>
<rect x="188" y="262" width="4" height="15" fill="#2d8a4e"/>
<rect x="192" y="262" width="4" height="15" fill="#2d8a4e"/>
<rect x="196" y="262" width="4" height="15" fill="#e8b83d"/>
<rect x="200" y="262" width="4" height="15" fill="#e8b83d"/>
<rect x="204" y="262" width="4" height="15" fill="#e8b83d"/>
<text x="180" y="289" class="warn">⚠ 6.2.11 → 6.2.17  (10 sections, avg=0.229)</text>
<text x="180" y="303" class="warn">⚠ 6.2.19 → 6.3.1  (7 sections, avg=0.176)</text>
<text x="180" y="317" class="warn">⚠ 6.3.18 → 6.3.21  (4 sections, avg=0.174)</text>
<line x1="20" y1="331" x2="1200" y2="331" stroke="#ccc" stroke-width="1"/>
<text x="20" y="351" class="total">TOTAL: 678 sections   avg=0.491   High=33%   Med=50%   Low=18%</text>
<rect x="20" y="358" width="384.6312684365782" height="10" fill="#2d8a4e" rx="2"/>
<rect x="404.6312684365782" y="358" width="584.7787610619469" height="10" fill="#e8b83d"/>
<rect x="989.4100294985251" y="358" width="210.5899705014749" height="10" fill="#c9493b" rx="2"/>
</svg>