<svg xmlns="http://www.w3.org/2000/svg" width="1220" height="238" viewBox="0 0 1220 238">
<rect width="1220" height="238" fill="#f5f5f5"/>
<style>
  text { font-family: "SF Mono", "Menlo", "Monaco", monospace; }
  .title { font-size: 16px; font-weight: bold; }
  .subtitle { font-size: 11px; fill: #888; }
  .label { font-size: 11px; fill: #333; }
  .stats { font-size: 10px; fill: #666; }
  .warn { font-size: 9px; fill: #c9493b; }
  .total { font-size: 12px; font-weight: bold; fill: #333; }
  .legend-text { font-size: 10px; fill: #555; }
</style>
<text x="20" y="38" class="title">Alignment Quality Map — Alignment</text>
<rect x="20" y="50" width="12" height="12" fill="#2d8a4e" rx="2"/>
<text x="36" y="60" class="legend-text">High (≥0.6)</text>
<rect x="160" y="50" width="12" height="12" fill="#e8b83d" rx="2"/>
<text x="176" y="60" class="legend-text">Medium (0.3–0.6)</text>
<rect x="300" y="50" width="12" height="12" fill="#c9493b" rx="2"/>
<text x="316" y="60" class="legend-text">Low (&lt;0.3)</text>
<text x="20" y="92" class="label">Book De Mysteriis</text>
<text x="988" y="92" class="stats">n=135  avg=0.634  H=73%  M=27%  L=0%</text>
<rect x="180" y="80" width="4" height="15" fill="#e8b83d"/>
<rect x="184" y="80" width="4" height="15" fill="#2d8a4e"/>
<rect x="188" y="80" width="4" height="15" fill="#2d8a4e"/>
<rect x="192" y="80" width="4" height="15" fill="#2d8a4e"/>
<rect x="196" y="80" width="4" height="15" fill="#e8b83d"/>
<rect x="200" y="80" width="4" height="15" fill="#e8b83d"/>
<rect x="204" y="80" width="4" height="15" fill="#2d8a4e"/>
<rect x="208" y="80" width="4" height="15" fill="#e8b83d"/>
<rect x="212" y="80" width="4" height="15" fill="#e8b83d"/>
<rect x="216" y="80" width="4" height="15" fill="#2d8a4e"/>
<rect x="220" y="80" width="4" height="15" fill="#2d8a4e"/>
<rect x="224" y="80" width="4" height="15" fill="#2d8a4e"/>
<rect x="228" y="80" width="4" height="15" fill="#2d8a4e"/>
<rect x="232" y="80" width="4" height="15" fill="#2d8a4e"/>
<rect x="236" y="80" width="4" height="15" fill="#2d8a4e"/>
<rect x="240" y="80" width="4" height="15" fill="#2d8a4e"/>
<rect x="244" y="80" width="4" height="15" fill="#e8b83d"/>
<rect x="248" y="80" width="4" height="15" fill="#e8b83d"/>
<rect x="252" y="80" width="4" height="15" fill="#2d8a4e"/>
<rect x="256" y="80" width="4" height="15" fill="#2d8a4e"/>
<rect x="260" y="80" width="4" height="15" fill="#2d8a4e"/>
<rect x="264" y="80" width="4" height="15" fill="#e8b83d"/>
<rect x="268" y="80" width="4" height="15" fill="#e8b83d"/>
<rect x="272" y="80" width="4" height="15" fill="#e8b83d"/>
<rect x="276" y="80" width="4" height="15" fill="#2d8a4e"/>
<rect x="280" y="80" width="4" height="15" fill="#2d8a4e"/>
<rect x="284" y="80" width="4" height="15" fill="#2d8a4e"/>
<rect x="288" y="80" width="4" height="15" fill="#2d8a4e"/>
<rect x="292" y="80" width="4" height="15" fill="#2d8a4e"/>
<rect x="296" y="80" width="4" height="15" fill="#2d8a4e"/>
<rect x="300" y="80" width="4" height="15" fill="#2d8a4e"/>
<rect x="304" y="80" width="4" height="15" fill="#e8b83d"/>
<rect x="308" y="80" width="4" height="15" fill="#2d8a4e"/>
<rect x="312" y="80" width="4" height="15" fill="#2d8a4e"/>
<rect x="316" y="80" width="4" height="15" fill="#e8b83d"/>
<rect x="320" y="80" width="4" height="15" fill="#2d8a4e"/>
<rect x="324" y="80" width="4" height="15" fill="#2d8a4e"/>
<rect x="328" y="80" width="4" height="15" fill="#2d8a4e"/>
<rect x="332" y="80" width="4" height="15" fill="#2d8a4e"/>
<rect x="336" y="80" width="4" height="15" fill="#2d8a4e"/>
<rect x="340" y="80" width="4" height="15" fill="#2d8a4e"/>
<rect x="344" y="80" width="4" height="15" fill="#e8b83d"/>
<rect x="348" y="80" width="4" height="15" fill="#e8b83d"/>
<rect x="352" y="80" width="4" height="15" fill="#e8b83d"/>
<rect x="356" y="80" width="4" height="15" fill="#e8b83d"/>
<rect x="360" y="80" width="4" height="15" fill="#2d8a4e"/>
<rect x="364" y="80" width="4" height="15" fill="#e8b83d"/>
<rect x="368" y="80" width="4" height="15" fill="#2d8a4e"/>
<rect x="372" y="80" width="4" height="15" fill="#2d8a4e"/>
<rect x="376" y="80" width="4" height="15" fill="#2d8a4e"/>
<rect x="380" y="80" width="4" height="15" fill="#2d8a4e"/>
<rect x="384" y="80" width="4" height="15" fill="#e8b83d"/>
<rect x="388" y="80" width="4" height="15" fill="#2d8a4e"/>
<rect x="392" y="80" width="4" height="15" fill="#2d8a4e"/>
<rect x="396" y="80" width="4" height="15" fill="#2d8a4e"/>
<rect x="400" y="80" width="4" height="15" fill="#2d8a4e"/>
<rect x="404" y="80" width="4" height="15" fill="#e8b83d"/>
<rect x="408" y="80" width="4" height="15" fill="#2d8a4e"/>
<rect x="412" y="80" width="4" height="15" fill="#2d8a4e"/>
<rect x="416" y="80" width="4" height="15" fill="#2d8a4e"/>
<rect x="420" y="80" width="4" height="15" fill="#e8b83d"/>
<rect x="424" y="80" width="4" height="15" fill="#2d8a4e"/>
<rect x="428" y="80" width="4" height="15" fill="#2d8a4e"/>
<rect x="432" y="80" width="4" height="15" fill="#2d8a4e"/>
<rect x="436" y="80" width="4" height="15" fill="#2d8a4e"/>
<rect x="440" y="80" width="4" height="15" fill="#2d8a4e"/>
<rect x="444" y="80" width="4" height="15" fill="#2d8a4e"/>
<rect x="448" y="80" width="4" height="15" fill="#2d8a4e"/>
<rect x="452" y="80" width="4" height="15" fill="#2d8a4e"/>
<rect x="456" y="80" width="4" height="15" fill="#2d8a4e"/>
<rect x="460" y="80" width="4" height="15" fill="#2d8a4e"/>
<rect x="464" y="80" width="4" height="15" fill="#2d8a4e"/>
<rect x="468" y="80" width="4" height="15" fill="#2d8a4e"/>
<rect x="472" y="80" width="4" height="15" fill="#2d8a4e"/>
<rect x="476" y="80" width="4" height="15" fill="#2d8a4e"/>
<rect x="480" y="80" width="4" height="15" fill="#2d8a4e"/>
<rect x="484" y="80" width="4" height="15" fill="#2d8a4e"/>
<rect x="488" y="80" width="4" height="15" fill="#2d8a4e"/>
<rect x="492" y="80" width="4" height="15" fill="#2d8a4e"/>
<rect x="496" y="80" width="4" height="15" fill="#2d8a4e"/>
<rect x="500" y="80" width="4" height="15" fill="#2d8a4e"/>
<rect x="504" y="80" width="4" height="15" fill="#e8b83d"/>
<rect x="508" y="80" width="4" height="15" fill="#2d8a4e"/>
<rect x="512" y="80" width="4" height="15" fill="#2d8a4e"/>
<rect x="516" y="80" width="4" height="15" fill="#2d8a4e"/>
<rect x="520" y="80" width="4" height="15" fill="#2d8a4e"/>
<rect x="524" y="80" width="4" height="15" fill="#2d8a4e"/>
<rect x="528" y="80" width="4" height="15" fill="#2d8a4e"/>
<rect x="532" y="80" width="4" height="15" fill="#2d8a4e"/>
<rect x="536" y="80" width="4" height="15" fill="#e8b83d"/>
<rect x="540" y="80" width="4" height="15" fill="#2d8a4e"/>
<rect x="544" y="80" width="4" height="15" fill="#2d8a4e"/>
<rect x="548" y="80" width="4" height="15" fill="#2d8a4e"/>
<rect x="552" y="80" width="4" height="15" fill="#2d8a4e"/>
<rect x="556" y="80" width="4" height="15" fill="#2d8a4e"/>
<rect x="560" y="80" width="4" height="15" fill="#2d8a4e"/>
<rect x="564" y="80" width="4" height="15" fill="#2d8a4e"/>
<rect x="568" y="80" width="4" height="15" fill="#e8b83d"/>
<rect x="572" y="80" width="4" height="15" fill="#2d8a4e"/>
<rect x="576" y="80" width="4" height="15" fill="#2d8a4e"/>
<rect x="580" y="80" width="4" height="15" fill="#2d8a4e"/>
<rect x="584" y="80" width="4" height="15" fill="#2d8a4e"/>
<rect x="588" y="80" width="4" height="15" fill="#2d8a4e"/>
<rect x="592" y="80" width="4" height="15" fill="#2d8a4e"/>
<rect x="596" y="80" width="4" height="15" fill="#e8b83d"/>
<rect x="600" y="80" width="4" height="15" fill="#e8b83d"/>
<rect x="604" y="80" width="4" height="15" fill="#2d8a4e"/>
<rect x="608" y="80" width="4" height="15" fill="#2d8a4e"/>
<rect x="612" y="80" width="4" height="15" fill="#2d8a4e"/>
<rect x="616" y="80" width="4" height="15" fill="#e8b83d"/>
<rect x="620" y="80" width="4" height="15" fill="#2d8a4e"/>
<rect x="624" y="80" width="4" height="15" fill="#e8b83d"/>
<rect x="628" y="80" width="4" height="15" fill="#e8b83d"/>
<rect x="632" y="80" width="4" height="15" fill="#2d8a4e"/>
<rect x="636" y="80" width="4" height="15" fill="#e8b83d"/>
<rect x="640" y="80" width="4" height="15" fill="#2d8a4e"/>
<rect x="644" y="80" width="4" height="15" fill="#2d8a4e"/>
<rect x="648" y="80" width="4" height="15" fill="#e8b83d"/>
<rect x="652" y="80" width="4" height="15" fill="#2d8a4e"/>
<rect x="656" y="80" width="4" height="15" fill="#e8b83d"/>
<rect x="660" y="80" width="4" height="15" fill="#e8b83d"/>
<rect x="664" y="80" width="4" height="15" fill="#2d8a4e"/>
<rect x="668" y="80" width="4" height="15" fill="#2d8a4e"/>
<rect x="672" y="80" width="4" height="15" fill="#2d8a4e"/>
<rect x="676" y="80" width="4" height="15" fill="#2d8a4e"/>
<rect x="680" y="80" width="4" height="15" fill="#e8b83d"/>
<rect x="684" y="80" width="4" height="15" fill="#2d8a4e"/>
<rect x="688" y="80" width="4" height="15" fill="#e8b83d"/>
<rect x="692" y="80" width="4" height="15" fill="#e8b83d"/>
<rect x="696" y="80" width="4" height="15" fill="#e8b83d"/>
<rect x="700" y="80" width="4" height="15" fill="#e8b83d"/>
<rect x="704" y="80" width="4" height="15" fill="#2d8a4e"/>
<rect x="708" y="80" width="4" height="15" fill="#2d8a4e"/>
<rect x="712" y="80" width="4" height="15" fill="#2d8a4e"/>
<rect x="716" y="80" width="4" height="15" fill="#2d8a4e"/>
<text x="20" y="114" class="label">Book De Vita Pythagorica</text>
<text x="988" y="114" class="stats">n=308  avg=0.562  H=51%  M=39%  L=10%</text>
<rect x="180" y="102" width="4" height="15" fill="#e8b83d"/>
<rect x="184" y="102" width="4" height="15" fill="#c9493b"/>
<rect x="188" y="102" width="4" height="15" fill="#c9493b"/>
<rect x="192" y="102" width="4" height="15" fill="#c9493b"/>
<rect x="196" y="102" width="4" height="15" fill="#c9493b"/>
<rect x="200" y="102" width="4" height="15" fill="#c9493b"/>
<rect x="204" y="102" width="4" height="15" fill="#c9493b"/>
<rect x="208" y="102" width="4" height="15" fill="#c9493b"/>
<rect x="212" y="102" width="4" height="15" fill="#c9493b"/>
<rect x="216" y="102" width="4" height="15" fill="#c9493b"/>
<rect x="220" y="102" width="4" height="15" fill="#c9493b"/>
<rect x="224" y="102" width="4" height="15" fill="#c9493b"/>
<rect x="228" y="102" width="4" height="15" fill="#c9493b"/>
<rect x="232" y="102" width="4" height="15" fill="#c9493b"/>
<rect x="236" y="102" width="4" height="15" fill="#c9493b"/>
<rect x="240" y="102" width="4" height="15" fill="#c9493b"/>
<rect x="244" y="102" width="4" height="15" fill="#c9493b"/>
<rect x="248" y="102" width="4" height="15" fill="#c9493b"/>
<rect x="252" y="102" width="4" height="15" fill="#c9493b"/>
<rect x="256" y="102" width="4" height="15" fill="#c9493b"/>
<rect x="260" y="102" width="4" height="15" fill="#c9493b"/>
<rect x="264" y="102" width="4" height="15" fill="#e8b83d"/>
<rect x="268" y="102" width="4" height="15" fill="#c9493b"/>
<rect x="272" y="102" width="4" height="15" fill="#c9493b"/>
<rect x="276" y="102" width="4" height="15" fill="#c9493b"/>
<rect x="280" y="102" width="4" height="15" fill="#c9493b"/>
<rect x="284" y="102" width="4" height="15" fill="#c9493b"/>
<rect x="288" y="102" width="4" height="15" fill="#c9493b"/>
<rect x="292" y="102" width="4" height="15" fill="#c9493b"/>
<rect x="296" y="102" width="4" height="15" fill="#c9493b"/>
<rect x="300" y="102" width="4" height="15" fill="#c9493b"/>
<rect x="304" y="102" width="4" height="15" fill="#c9493b"/>
<rect x="308" y="102" width="4" height="15" fill="#c9493b"/>
<rect x="312" y="102" width="4" height="15" fill="#c9493b"/>
<rect x="316" y="102" width="4" height="15" fill="#e8b83d"/>
<rect x="320" y="102" width="4" height="15" fill="#e8b83d"/>
<rect x="324" y="102" width="4" height="15" fill="#e8b83d"/>
<rect x="328" y="102" width="4" height="15" fill="#e8b83d"/>
<rect x="332" y="102" width="4" height="15" fill="#e8b83d"/>
<rect x="336" y="102" width="4" height="15" fill="#e8b83d"/>
<rect x="340" y="102" width="4" height="15" fill="#e8b83d"/>
<rect x="344" y="102" width="4" height="15" fill="#e8b83d"/>
<rect x="348" y="102" width="4" height="15" fill="#e8b83d"/>
<rect x="352" y="102" width="4" height="15" fill="#e8b83d"/>
<rect x="356" y="102" width="4" height="15" fill="#e8b83d"/>
<rect x="360" y="102" width="4" height="15" fill="#e8b83d"/>
<rect x="364" y="102" width="4" height="15" fill="#e8b83d"/>
<rect x="368" y="102" width="4" height="15" fill="#e8b83d"/>
<rect x="372" y="102" width="4" height="15" fill="#e8b83d"/>
<rect x="376" y="102" width="4" height="15" fill="#e8b83d"/>
<rect x="380" y="102" width="4" height="15" fill="#e8b83d"/>
<rect x="384" y="102" width="4" height="15" fill="#e8b83d"/>
<rect x="388" y="102" width="4" height="15" fill="#e8b83d"/>
<rect x="392" y="102" width="4" height="15" fill="#e8b83d"/>
<rect x="396" y="102" width="4" height="15" fill="#e8b83d"/>
<rect x="400" y="102" width="4" height="15" fill="#e8b83d"/>
<rect x="404" y="102" width="4" height="15" fill="#e8b83d"/>
<rect x="408" y="102" width="4" height="15" fill="#e8b83d"/>
<rect x="412" y="102" width="4" height="15" fill="#e8b83d"/>
<rect x="416" y="102" width="4" height="15" fill="#e8b83d"/>
<rect x="420" y="102" width="4" height="15" fill="#e8b83d"/>
<rect x="424" y="102" width="4" height="15" fill="#e8b83d"/>
<rect x="428" y="102" width="4" height="15" fill="#e8b83d"/>
<rect x="432" y="102" width="4" height="15" fill="#e8b83d"/>
<rect x="436" y="102" width="4" height="15" fill="#e8b83d"/>
<rect x="440" y="102" width="4" height="15" fill="#e8b83d"/>
<rect x="444" y="102" width="4" height="15" fill="#e8b83d"/>
<rect x="448" y="102" width="4" height="15" fill="#e8b83d"/>
<rect x="452" y="102" width="4" height="15" fill="#e8b83d"/>
<rect x="456" y="102" width="4" height="15" fill="#e8b83d"/>
<rect x="460" y="102" width="4" height="15" fill="#2d8a4e"/>
<rect x="464" y="102" width="4" height="15" fill="#2d8a4e"/>
<rect x="468" y="102" width="4" height="15" fill="#e8b83d"/>
<rect x="472" y="102" width="4" height="15" fill="#e8b83d"/>
<rect x="476" y="102" width="4" height="15" fill="#2d8a4e"/>
<rect x="480" y="102" width="4" height="15" fill="#2d8a4e"/>
<rect x="484" y="102" width="4" height="15" fill="#2d8a4e"/>
<rect x="488" y="102" width="4" height="15" fill="#e8b83d"/>
<rect x="492" y="102" width="4" height="15" fill="#2d8a4e"/>
<rect x="496" y="102" width="4" height="15" fill="#e8b83d"/>
<rect x="500" y="102" width="4" height="15" fill="#2d8a4e"/>
<rect x="504" y="102" width="4" height="15" fill="#2d8a4e"/>
<rect x="508" y="102" width="4" height="15" fill="#e8b83d"/>
<rect x="512" y="102" width="4" height="15" fill="#e8b83d"/>
<rect x="516" y="102" width="4" height="15" fill="#2d8a4e"/>
<rect x="520" y="102" width="4" height="15" fill="#2d8a4e"/>
<rect x="524" y="102" width="4" height="15" fill="#2d8a4e"/>
<rect x="528" y="102" width="4" height="15" fill="#e8b83d"/>
<rect x="532" y="102" width="4" height="15" fill="#2d8a4e"/>
<rect x="536" y="102" width="4" height="15" fill="#e8b83d"/>
<rect x="540" y="102" width="4" height="15" fill="#2d8a4e"/>
<rect x="544" y="102" width="4" height="15" fill="#2d8a4e"/>
<rect x="548" y="102" width="4" height="15" fill="#2d8a4e"/>
<rect x="552" y="102" width="4" height="15" fill="#2d8a4e"/>
<rect x="556" y="102" width="4" height="15" fill="#2d8a4e"/>
<rect x="560" y="102" width="4" height="15" fill="#2d8a4e"/>
<rect x="564" y="102" width="4" height="15" fill="#2d8a4e"/>
<rect x="568" y="102" width="4" height="15" fill="#2d8a4e"/>
<rect x="572" y="102" width="4" height="15" fill="#2d8a4e"/>
<rect x="576" y="102" width="4" height="15" fill="#2d8a4e"/>
<rect x="580" y="102" width="4" height="15" fill="#2d8a4e"/>
<rect x="584" y="102" width="4" height="15" fill="#2d8a4e"/>
<rect x="588" y="102" width="4" height="15" fill="#2d8a4e"/>
<rect x="592" y="102" width="4" height="15" fill="#2d8a4e"/>
<rect x="596" y="102" width="4" height="15" fill="#e8b83d"/>
<rect x="600" y="102" width="4" height="15" fill="#e8b83d"/>
<rect x="604" y="102" width="4" height="15" fill="#e8b83d"/>
<rect x="608" y="102" width="4" height="15" fill="#e8b83d"/>
<rect x="612" y="102" width="4" height="15" fill="#e8b83d"/>
<rect x="616" y="102" width="4" height="15" fill="#2d8a4e"/>
<rect x="620" y="102" width="4" height="15" fill="#e8b83d"/>
<rect x="624" y="102" width="4" height="15" fill="#2d8a4e"/>
<rect x="628" y="102" width="4" height="15" fill="#2d8a4e"/>
<rect x="632" y="102" width="4" height="15" fill="#e8b83d"/>
<rect x="636" y="102" width="4" height="15" fill="#e8b83d"/>
<rect x="640" y="102" width="4" height="15" fill="#e8b83d"/>
<rect x="644" y="102" width="4" height="15" fill="#2d8a4e"/>
<rect x="648" y="102" width="4" height="15" fill="#2d8a4e"/>
<rect x="652" y="102" width="4" height="15" fill="#2d8a4e"/>
<rect x="656" y="102" width="4" height="15" fill="#2d8a4e"/>
<rect x="660" y="102" width="4" height="15" fill="#2d8a4e"/>
<rect x="664" y="102" width="4" height="15" fill="#e8b83d"/>
<rect x="668" y="102" width="4" height="15" fill="#e8b83d"/>
<rect x="672" y="102" width="4" height="15" fill="#2d8a4e"/>
<rect x="676" y="102" width="4" height="15" fill="#2d8a4e"/>
<rect x="680" y="102" width="4" height="15" fill="#2d8a4e"/>
<rect x="684" y="102" width="4" height="15" fill="#2d8a4e"/>
<rect x="688" y="102" width="4" height="15" fill="#e8b83d"/>
<rect x="692" y="102" width="4" height="15" fill="#2d8a4e"/>
<rect x="696" y="102" width="4" height="15" fill="#2d8a4e"/>
<rect x="700" y="102" width="4" height="15" fill="#e8b83d"/>
<rect x="704" y="102" width="4" height="15" fill="#e8b83d"/>
<rect x="708" y="102" width="4" height="15" fill="#e8b83d"/>
<rect x="712" y="102" width="4" height="15" fill="#e8b83d"/>
<rect x="716" y="102" width="4" height="15" fill="#2d8a4e"/>
<rect x="720" y="102" width="4" height="15" fill="#2d8a4e"/>
<rect x="724" y="102" width="4" height="15" fill="#2d8a4e"/>
<rect x="728" y="102" width="4" height="15" fill="#2d8a4e"/>
<rect x="732" y="102" width="4" height="15" fill="#2d8a4e"/>
<rect x="736" y="102" width="4" height="15" fill="#2d8a4e"/>
<rect x="740" y="102" width="4" height="15" fill="#e8b83d"/>
<rect x="744" y="102" width="4" height="15" fill="#2d8a4e"/>
<rect x="748" y="102" width="4" height="15" fill="#2d8a4e"/>
<rect x="752" y="102" width="4" height="15" fill="#2d8a4e"/>
<rect x="756" y="102" width="4" height="15" fill="#2d8a4e"/>
<rect x="760" y="102" width="4" height="15" fill="#2d8a4e"/>
<rect x="764" y="102" width="4" height="15" fill="#2d8a4e"/>
<rect x="768" y="102" width="4" height="15" fill="#2d8a4e"/>
<rect x="772" y="102" width="4" height="15" fill="#2d8a4e"/>
<rect x="776" y="102" width="4" height="15" fill="#2d8a4e"/>
<rect x="780" y="102" width="4" height="15" fill="#2d8a4e"/>
<rect x="784" y="102" width="4" height="15" fill="#2d8a4e"/>
<rect x="788" y="102" width="4" height="15" fill="#2d8a4e"/>
<rect x="792" y="102" width="4" height="15" fill="#2d8a4e"/>
<rect x="796" y="102" width="4" height="15" fill="#2d8a4e"/>
<rect x="800" y="102" width="4" height="15" fill="#e8b83d"/>
<rect x="804" y="102" width="4" height="15" fill="#2d8a4e"/>
<rect x="808" y="102" width="4" height="15" fill="#2d8a4e"/>
<rect x="812" y="102" width="4" height="15" fill="#2d8a4e"/>
<rect x="816" y="102" width="4" height="15" fill="#2d8a4e"/>
<rect x="820" y="102" width="4" height="15" fill="#2d8a4e"/>
<rect x="824" y="102" width="4" height="15" fill="#2d8a4e"/>
<rect x="828" y="102" width="4" height="15" fill="#2d8a4e"/>
<rect x="832" y="102" width="4" height="15" fill="#2d8a4e"/>
<rect x="836" y="102" width="4" height="15" fill="#2d8a4e"/>
<rect x="840" y="102" width="4" height="15" fill="#2d8a4e"/>
<rect x="844" y="102" width="4" height="15" fill="#2d8a4e"/>
<rect x="848" y="102" width="4" height="15" fill="#2d8a4e"/>
<rect x="852" y="102" width="4" height="15" fill="#2d8a4e"/>
<rect x="856" y="102" width="4" height="15" fill="#2d8a4e"/>
<rect x="860" y="102" width="4" height="15" fill="#2d8a4e"/>
<rect x="864" y="102" width="4" height="15" fill="#2d8a4e"/>
<rect x="868" y="102" width="4" height="15" fill="#2d8a4e"/>
<rect x="872" y="102" width="4" height="15" fill="#2d8a4e"/>
<rect x="876" y="102" width="4" height="15" fill="#2d8a4e"/>
<rect x="880" y="102" width="4" height="15" fill="#2d8a4e"/>
<rect x="884" y="102" width="4" height="15" fill="#2d8a4e"/>
<rect x="888" y="102" width="4" height="15" fill="#2d8a4e"/>
<rect x="892" y="102" width="4" height="15" fill="#2d8a4e"/>
<rect x="896" y="102" width="4" height="15" fill="#2d8a4e"/>
<rect x="900" y="102" width="4" height="15" fill="#2d8a4e"/>
<rect x="904" y="102" width="4" height="15" fill="#e8b83d"/>
<rect x="908" y="102" width="4" height="15" fill="#2d8a4e"/>
<rect x="912" y="102" width="4" height="15" fill="#2d8a4e"/>
<rect x="916" y="102" width="4" height="15" fill="#2d8a4e"/>
<rect x="920" y="102" width="4" height="15" fill="#2d8a4e"/>
<rect x="924" y="102" width="4" height="15" fill="#2d8a4e"/>
<rect x="928" y="102" width="4" height="15" fill="#2d8a4e"/>
<rect x="932" y="102" width="4" height="15" fill="#2d8a4e"/>
<rect x="936" y="102" width="4" height="15" fill="#e8b83d"/>
<rect x="940" y="102" width="4" height="15" fill="#2d8a4e"/>
<rect x="944" y="102" width="4" height="15" fill="#e8b83d"/>
<rect x="948" y="102" width="4" height="15" fill="#2d8a4e"/>
<rect x="952" y="102" width="4" height="15" fill="#e8b83d"/>
<rect x="956" y="102" width="4" height="15" fill="#e8b83d"/>
<rect x="960" y="102" width="4" height="15" fill="#e8b83d"/>
<rect x="964" y="102" width="4" height="15" fill="#2d8a4e"/>
<rect x="968" y="102" width="4" height="15" fill="#2d8a4e"/>
<rect x="972" y="102" width="4" height="15" fill="#2d8a4e"/>
<rect x="976" y="102" width="4" height="15" fill="#2d8a4e"/>
<rect x="180" y="118" width="4" height="15" fill="#2d8a4e"/>
<rect x="184" y="118" width="4" height="15" fill="#2d8a4e"/>
<rect x="188" y="118" width="4" height="15" fill="#2d8a4e"/>
<rect x="192" y="118" width="4" height="15" fill="#2d8a4e"/>
<rect x="196" y="118" width="4" height="15" fill="#2d8a4e"/>
<rect x="200" y="118" width="4" height="15" fill="#2d8a4e"/>
<rect x="204" y="118" width="4" height="15" fill="#2d8a4e"/>
<rect x="208" y="118" width="4" height="15" fill="#2d8a4e"/>
<rect x="212" y="118" width="4" height="15" fill="#2d8a4e"/>
<rect x="216" y="118" width="4" height="15" fill="#2d8a4e"/>
<rect x="220" y="118" width="4" height="15" fill="#2d8a4e"/>
<rect x="224" y="118" width="4" height="15" fill="#2d8a4e"/>
<rect x="228" y="118" width="4" height="15" fill="#2d8a4e"/>
<rect x="232" y="118" width="4" height="15" fill="#2d8a4e"/>
<rect x="236" y="118" width="4" height="15" fill="#2d8a4e"/>
<rect x="240" y="118" width="4" height="15" fill="#2d8a4e"/>
<rect x="244" y="118" width="4" height="15" fill="#2d8a4e"/>
<rect x="248" y="118" width="4" height="15" fill="#2d8a4e"/>
<rect x="252" y="118" width="4" height="15" fill="#2d8a4e"/>
<rect x="256" y="118" width="4" height="15" fill="#2d8a4e"/>
<rect x="260" y="118" width="4" height="15" fill="#2d8a4e"/>
<rect x="264" y="118" width="4" height="15" fill="#e8b83d"/>
<rect x="268" y="118" width="4" height="15" fill="#e8b83d"/>
<rect x="272" y="118" width="4" height="15" fill="#e8b83d"/>
<rect x="276" y="118" width="4" height="15" fill="#e8b83d"/>
<rect x="280" y="118" width="4" height="15" fill="#e8b83d"/>
<rect x="284" y="118" width="4" height="15" fill="#2d8a4e"/>
<rect x="288" y="118" width="4" height="15" fill="#e8b83d"/>
<rect x="292" y="118" width="4" height="15" fill="#e8b83d"/>
<rect x="296" y="118" width="4" height="15" fill="#2d8a4e"/>
<rect x="300" y="118" width="4" height="15" fill="#e8b83d"/>
<rect x="304" y="118" width="4" height="15" fill="#e8b83d"/>
<rect x="308" y="118" width="4" height="15" fill="#2d8a4e"/>
<rect x="312" y="118" width="4" height="15" fill="#2d8a4e"/>
<rect x="316" y="118" width="4" height="15" fill="#2d8a4e"/>
<rect x="320" y="118" width="4" height="15" fill="#2d8a4e"/>
<rect x="324" y="118" width="4" height="15" fill="#2d8a4e"/>
<rect x="328" y="118" width="4" height="15" fill="#2d8a4e"/>
<rect x="332" y="118" width="4" height="15" fill="#e8b83d"/>
<rect x="336" y="118" width="4" height="15" fill="#e8b83d"/>
<rect x="340" y="118" width="4" height="15" fill="#e8b83d"/>
<rect x="344" y="118" width="4" height="15" fill="#e8b83d"/>
<rect x="348" y="118" width="4" height="15" fill="#e8b83d"/>
<rect x="352" y="118" width="4" height="15" fill="#e8b83d"/>
<rect x="356" y="118" width="4" height="15" fill="#2d8a4e"/>
<rect x="360" y="118" width="4" height="15" fill="#e8b83d"/>
<rect x="364" y="118" width="4" height="15" fill="#e8b83d"/>
<rect x="368" y="118" width="4" height="15" fill="#e8b83d"/>
<rect x="372" y="118" width="4" height="15" fill="#e8b83d"/>
<rect x="376" y="118" width="4" height="15" fill="#e8b83d"/>
<rect x="380" y="118" width="4" height="15" fill="#e8b83d"/>
<rect x="384" y="118" width="4" height="15" fill="#e8b83d"/>
<rect x="388" y="118" width="4" height="15" fill="#e8b83d"/>
<rect x="392" y="118" width="4" height="15" fill="#2d8a4e"/>
<rect x="396" y="118" width="4" height="15" fill="#2d8a4e"/>
<rect x="400" y="118" width="4" height="15" fill="#2d8a4e"/>
<rect x="404" y="118" width="4" height="15" fill="#2d8a4e"/>
<rect x="408" y="118" width="4" height="15" fill="#2d8a4e"/>
<rect x="412" y="118" width="4" height="15" fill="#e8b83d"/>
<rect x="416" y="118" width="4" height="15" fill="#e8b83d"/>
<rect x="420" y="118" width="4" height="15" fill="#e8b83d"/>
<rect x="424" y="118" width="4" height="15" fill="#2d8a4e"/>
<rect x="428" y="118" width="4" height="15" fill="#2d8a4e"/>
<rect x="432" y="118" width="4" height="15" fill="#e8b83d"/>
<rect x="436" y="118" width="4" height="15" fill="#e8b83d"/>
<rect x="440" y="118" width="4" height="15" fill="#e8b83d"/>
<rect x="444" y="118" width="4" height="15" fill="#e8b83d"/>
<rect x="448" y="118" width="4" height="15" fill="#e8b83d"/>
<rect x="452" y="118" width="4" height="15" fill="#e8b83d"/>
<rect x="456" y="118" width="4" height="15" fill="#e8b83d"/>
<rect x="460" y="118" width="4" height="15" fill="#2d8a4e"/>
<rect x="464" y="118" width="4" height="15" fill="#e8b83d"/>
<rect x="468" y="118" width="4" height="15" fill="#e8b83d"/>
<rect x="472" y="118" width="4" height="15" fill="#e8b83d"/>
<rect x="476" y="118" width="4" height="15" fill="#e8b83d"/>
<rect x="480" y="118" width="4" height="15" fill="#e8b83d"/>
<rect x="484" y="118" width="4" height="15" fill="#e8b83d"/>
<rect x="488" y="118" width="4" height="15" fill="#2d8a4e"/>
<rect x="492" y="118" width="4" height="15" fill="#e8b83d"/>
<rect x="496" y="118" width="4" height="15" fill="#e8b83d"/>
<rect x="500" y="118" width="4" height="15" fill="#e8b83d"/>
<rect x="504" y="118" width="4" height="15" fill="#2d8a4e"/>
<rect x="508" y="118" width="4" height="15" fill="#2d8a4e"/>
<rect x="512" y="118" width="4" height="15" fill="#e8b83d"/>
<rect x="516" y="118" width="4" height="15" fill="#2d8a4e"/>
<rect x="520" y="118" width="4" height="15" fill="#2d8a4e"/>
<rect x="524" y="118" width="4" height="15" fill="#2d8a4e"/>
<rect x="528" y="118" width="4" height="15" fill="#2d8a4e"/>
<rect x="532" y="118" width="4" height="15" fill="#2d8a4e"/>
<rect x="536" y="118" width="4" height="15" fill="#2d8a4e"/>
<rect x="540" y="118" width="4" height="15" fill="#2d8a4e"/>
<rect x="544" y="118" width="4" height="15" fill="#e8b83d"/>
<rect x="548" y="118" width="4" height="15" fill="#2d8a4e"/>
<rect x="552" y="118" width="4" height="15" fill="#e8b83d"/>
<rect x="556" y="118" width="4" height="15" fill="#2d8a4e"/>
<rect x="560" y="118" width="4" height="15" fill="#2d8a4e"/>
<rect x="564" y="118" width="4" height="15" fill="#2d8a4e"/>
<rect x="568" y="118" width="4" height="15" fill="#e8b83d"/>
<rect x="572" y="118" width="4" height="15" fill="#2d8a4e"/>
<rect x="576" y="118" width="4" height="15" fill="#2d8a4e"/>
<rect x="580" y="118" width="4" height="15" fill="#e8b83d"/>
<rect x="584" y="118" width="4" height="15" fill="#2d8a4e"/>
<rect x="588" y="118" width="4" height="15" fill="#2d8a4e"/>
<rect x="592" y="118" width="4" height="15" fill="#e8b83d"/>
<rect x="596" y="118" width="4" height="15" fill="#e8b83d"/>
<rect x="600" y="118" width="4" height="15" fill="#2d8a4e"/>
<rect x="604" y="118" width="4" height="15" fill="#2d8a4e"/>
<rect x="608" y="118" width="4" height="15" fill="#2d8a4e"/>
<text x="180" y="145" class="warn">⚠ 0.2 → 0.21  (20 sections, avg=0.032)</text>
<text x="180" y="159" class="warn">⚠ 0.23 → 0.34  (12 sections, avg=0.191)</text>
<line x1="20" y1="173" x2="1200" y2="173" stroke="#ccc" stroke-width="1"/>
<text x="20" y="193" class="total">TOTAL: 443 sections   avg=0.584   High=58%   Med=35%   Low=7%</text>
<rect x="20" y="200" width="679.2325056433408" height="10" fill="#2d8a4e" rx="2"/>
<rect x="699.2325056433408" y="200" width="415.53047404063204" height="10" fill="#e8b83d"/>
<rect x="1114.7629796839728" y="200" width="85.23702031602708" height="10" fill="#c9493b" rx="2"/>
</svg>